<svg xmlns="http://www.w3.org/2000/svg" xmlns:xlink="http://www.w3.org/1999/xlink" width="675" height="500">
    <defs>
        <image id="t_do1" xlink:href="./gleitz/ball_1.png" x="0" y="0" height="88px" width="63px"/>
        <image id="t_do2" xlink:href="./gleitz/ball_2.png" x="0" y="0" height="88px" width="63px"/>
        <image id="t_do3" xlink:href="./gleitz/ball_3.png" x="0" y="0" height="88px" width="63px"/>
        <image id="t_do4" xlink:href="./gleitz/ball_4.png" x="0" y="0" height="88px" width="63px"/>
        <image id="t_do5" xlink:href="./gleitz/ball_5.png" x="0" y="0" height="88px" width="63px"/>
        <image id="t_do6" xlink:href="./gleitz/ball_6.png" x="0" y="0" height="88px" width="63px"/>
        <image id="t_do7" xlink:href="./gleitz/ball_7.png" x="0" y="0" height="88px" width="63px"/>
        <image id="t_do8" xlink:href="./gleitz/ball_8.png" x="0" y="0" height="88px" width="63px"/>
        <image id="t_do9" xlink:href="./gleitz/ball_9.png" x="0" y="0" height="88px" width="63px"/>
        <image id="t_ch1" xlink:href="./gleitz/character_1.png" x="0" y="0" height="88px" width="63px"/>
        <image id="t_ch2" xlink:href="./gleitz/character_2.png" x="0" y="0" height="88px" width="63px"/>
        <image id="t_ch3" xlink:href="./gleitz/character_3.png" x="0" y="0" height="88px" width="63px"/>
        <image id="t_ch4" xlink:href="./gleitz/character_4.png" x="0" y="0" height="88px" width="63px"/>
        <image id="t_ch5" xlink:href="./gleitz/character_5.png" x="0" y="0" height="88px" width="63px"/>
        <image id="t_ch6" xlink:href="./gleitz/character_6.png" x="0" y="0" height="88px" width="63px"/>
        <image id="t_ch7" xlink:href="./gleitz/character_7.png" x="0" y="0" height="88px" width="63px"/>
        <image id="t_ch8" xlink:href="./gleitz/character_8.png" x="0" y="0" height="88px" width="63px"/>
        <image id="t_ch9" xlink:href="./gleitz/character_9.png" x="0" y="0" height="88px" width="63px"/>
        <image id="t_ba1" xlink:href="./gleitz/bamboo_1.png" x="0" y="0" height="88px" width="63px"/>
        <image id="t_ba2" xlink:href="./gleitz/bamboo_2.png" x="0" y="0" height="88px" width="63px"/>
        <image id="t_ba3" xlink:href="./gleitz/bamboo_3.png" x="0" y="0" height="88px" width="63px"/>
        <image id="t_ba4" xlink:href="./gleitz/bamboo_4.png" x="0" y="0" height="88px" width="63px"/>
        <image id="t_ba5" xlink:href="./gleitz/bamboo_5.png" x="0" y="0" height="88px" width="63px"/>
        <image id="t_ba6" xlink:href="./gleitz/bamboo_6.png" x="0" y="0" height="88px" width="63px"/>
        <image id="t_ba7" xlink:href="./gleitz/bamboo_7.png" x="0" y="0" height="88px" width="63px"/>
        <image id="t_ba8" xlink:href="./gleitz/bamboo_8.png" x="0" y="0" height="88px" width="63px"/>
        <image id="t_ba9" xlink:href="./gleitz/bamboo_9.png" x="0" y="0" height="88px" width="63px"/>
        <image id="t_se_spring" xlink:href="./gleitz/season_spring.png" x="0" y="0" height="88px" width="63px"/>
        <image id="t_se_summer" xlink:href="./gleitz/season_summer.png" x="0" y="0" height="88px" width="63px"/>
        <image id="t_se_fall" xlink:href="./gleitz/season_fall.png" x="0" y="0" height="88px" width="63px"/>
        <image id="t_se_winter" xlink:href="./gleitz/season_winter.png" x="0" y="0" height="88px" width="63px"/>
        <image id="t_wi_north" xlink:href="./gleitz/wind_north.png" x="0" y="0" height="88px" width="63px"/>
        <image id="t_wi_south" xlink:href="./gleitz/wind_south.png" x="0" y="0" height="88px" width="63px"/>
        <image id="t_wi_east" xlink:href="./gleitz/wind_east.png" x="0" y="0" height="88px" width="63px"/>
        <image id="t_wi_west" xlink:href="./gleitz/wind_west.png" x="0" y="0" height="88px" width="63px"/>
        <image id="t_fl_bamboo" xlink:href="./gleitz/flower_bamboo.png" x="0" y="0" height="88px" width="63px"/>
        <image id="t_fl_chrysanthemum" xlink:href="./gleitz/flower_chrysanthemum.png" x="0" y="0" height="88px" width="63px"/>
        <image id="t_fl_orchid" xlink:href="./gleitz/flower_orchid.png" x="0" y="0" height="88px" width="63px"/>
        <image id="t_fl_plum" xlink:href="./gleitz/flower_plum.png" x="0" y="0" height="88px" width="63px"/>
        <image id="t_dr_green" xlink:href="./gleitz/dragon_green.png" x="0" y="0" height="88px" width="63px"/>
        <image id="t_dr_white" xlink:href="./gleitz/dragon_white.png" x="0" y="0" height="88px" width="63px"/>
        <image id="t_dr_red" xlink:href="./gleitz/dragon_red.png" x="0" y="0" height="88px" width="63px"/>
    </defs>
    <g id="t_preview">
        <use x="0" y="0" height="100px" width="75px" xlink:href="#t_do1"/>
        <use x="75" y="0" height="100px" width="75px" xlink:href="#t_do2"/>
        <use x="150" y="0" height="100px" width="75px" xlink:href="#t_do3"/>
        <use x="225" y="0" height="100px" width="75px" xlink:href="#t_do4"/>
        <use x="300" y="0" height="100px" width="75px" xlink:href="#t_do5"/>
        <use x="375" y="0" height="100px" width="75px" xlink:href="#t_do6"/>
        <use x="450" y="0" height="100px" width="75px" xlink:href="#t_do7"/>
        <use x="525" y="0" height="100px" width="75px" xlink:href="#t_do8"/>
        <use x="600" y="0" height="100px" width="75px" xlink:href="#t_do9"/>
        <use x="0" y="100" height="100px" width="75px" xlink:href="#t_ch1"/>
        <use x="75" y="100" height="100px" width="75px" xlink:href="#t_ch2"/>
        <use x="150" y="100" height="100px" width="75px" xlink:href="#t_ch3"/>
        <use x="225" y="100" height="100px" width="75px" xlink:href="#t_ch4"/>
        <use x="300" y="100" height="100px" width="75px" xlink:href="#t_ch5"/>
        <use x="375" y="100" height="100px" width="75px" xlink:href="#t_ch6"/>
        <use x="450" y="100" height="100px" width="75px" xlink:href="#t_ch7"/>
        <use x="525" y="100" height="100px" width="75px" xlink:href="#t_ch8"/>
        <use x="600" y="100" height="100px" width="75px" xlink:href="#t_ch9"/>
        <use x="0" y="200" height="100px" width="75px" xlink:href="#t_ba1"/>
        <use x="75" y="200" height="100px" width="75px" xlink:href="#t_ba2"/>
        <use x="150" y="200" height="100px" width="75px" xlink:href="#t_ba3"/>
        <use x="225" y="200" height="100px" width="75px" xlink:href="#t_ba4"/>
        <use x="300" y="200" height="100px" width="75px" xlink:href="#t_ba5"/>
        <use x="375" y="200" height="100px" width="75px" xlink:href="#t_ba6"/>
        <use x="450" y="200" height="100px" width="75px" xlink:href="#t_ba7"/>
        <use x="525" y="200" height="100px" width="75px" xlink:href="#t_ba8"/>
        <use x="600" y="200" height="100px" width="75px" xlink:href="#t_ba9"/>
        <use x="0" y="300" height="100px" width="75px" xlink:href="#t_wi_north"/>
        <use x="75" y="300" height="100px" width="75px" xlink:href="#t_wi_west"/>
        <use x="150" y="300" height="100px" width="75px" xlink:href="#t_wi_south"/>
        <use x="225" y="300" height="100px" width="75px" xlink:href="#t_wi_east"/>
        <use x="375" y="300" height="100px" width="75px" xlink:href="#t_fl_plum"/>
        <use x="450" y="300" height="100px" width="75px" xlink:href="#t_fl_orchid"/>
        <use x="525" y="300" height="100px" width="75px" xlink:href="#t_fl_chrysanthemum"/>
        <use x="600" y="300" height="100px" width="75px" xlink:href="#t_fl_bamboo"/>
        <use x="0" y="400" height="100px" width="75px" xlink:href="#t_se_spring"/>
        <use x="75" y="400" height="100px" width="75px" xlink:href="#t_se_summer"/>
        <use x="150" y="400" height="100px" width="75px" xlink:href="#t_se_fall"/>
        <use x="225" y="400" height="100px" width="75px" xlink:href="#t_se_winter"/>
        <use x="450" y="400" height="100px" width="75px" xlink:href="#t_dr_red"/>
        <use x="525" y="400" height="100px" width="75px" xlink:href="#t_dr_green"/>
        <use x="600" y="400" height="100px" width="75px" xlink:href="#t_dr_white"/>
    </g>
</svg>

