<svg xmlns="http://www.w3.org/2000/svg" xmlns:xlink="http://www.w3.org/1999/xlink" width="675" height="500">
    <defs>
        <image id="ball_1" xlink:href="./gleitz/ball_1.png" x="0" y="0" height="88px" width="63px"/>
        <image id="ball_2" xlink:href="./gleitz/ball_2.png" x="0" y="0" height="88px" width="63px"/>
        <image id="ball_3" xlink:href="./gleitz/ball_3.png" x="0" y="0" height="88px" width="63px"/>
        <image id="ball_4" xlink:href="./gleitz/ball_4.png" x="0" y="0" height="88px" width="63px"/>
        <image id="ball_5" xlink:href="./gleitz/ball_5.png" x="0" y="0" height="88px" width="63px"/>
        <image id="ball_6" xlink:href="./gleitz/ball_6.png" x="0" y="0" height="88px" width="63px"/>
        <image id="ball_7" xlink:href="./gleitz/ball_7.png" x="0" y="0" height="88px" width="63px"/>
        <image id="ball_8" xlink:href="./gleitz/ball_8.png" x="0" y="0" height="88px" width="63px"/>
        <image id="ball_9" xlink:href="./gleitz/ball_9.png" x="0" y="0" height="88px" width="63px"/>
        <image id="character_1" xlink:href="./gleitz/character_1.png" x="0" y="0" height="88px" width="63px"/>
        <image id="character_2" xlink:href="./gleitz/character_2.png" x="0" y="0" height="88px" width="63px"/>
        <image id="character_3" xlink:href="./gleitz/character_3.png" x="0" y="0" height="88px" width="63px"/>
        <image id="character_4" xlink:href="./gleitz/character_4.png" x="0" y="0" height="88px" width="63px"/>
        <image id="character_5" xlink:href="./gleitz/character_5.png" x="0" y="0" height="88px" width="63px"/>
        <image id="character_6" xlink:href="./gleitz/character_6.png" x="0" y="0" height="88px" width="63px"/>
        <image id="character_7" xlink:href="./gleitz/character_7.png" x="0" y="0" height="88px" width="63px"/>
        <image id="character_8" xlink:href="./gleitz/character_8.png" x="0" y="0" height="88px" width="63px"/>
        <image id="character_9" xlink:href="./gleitz/character_9.png" x="0" y="0" height="88px" width="63px"/>
        <image id="bamboo_1" xlink:href="./gleitz/bamboo_1.png" x="0" y="0" height="88px" width="63px"/>
        <image id="bamboo_2" xlink:href="./gleitz/bamboo_2.png" x="0" y="0" height="88px" width="63px"/>
        <image id="bamboo_3" xlink:href="./gleitz/bamboo_3.png" x="0" y="0" height="88px" width="63px"/>
        <image id="bamboo_4" xlink:href="./gleitz/bamboo_4.png" x="0" y="0" height="88px" width="63px"/>
        <image id="bamboo_5" xlink:href="./gleitz/bamboo_5.png" x="0" y="0" height="88px" width="63px"/>
        <image id="bamboo_6" xlink:href="./gleitz/bamboo_6.png" x="0" y="0" height="88px" width="63px"/>
        <image id="bamboo_7" xlink:href="./gleitz/bamboo_7.png" x="0" y="0" height="88px" width="63px"/>
        <image id="bamboo_8" xlink:href="./gleitz/bamboo_8.png" x="0" y="0" height="88px" width="63px"/>
        <image id="bamboo_9" xlink:href="./gleitz/bamboo_9.png" x="0" y="0" height="88px" width="63px"/>
        <image id="season_spring" xlink:href="./gleitz/season_spring.png" x="0" y="0" height="88px" width="63px"/>
        <image id="season_summer" xlink:href="./gleitz/season_summer.png" x="0" y="0" height="88px" width="63px"/>
        <image id="season_fall" xlink:href="./gleitz/season_fall.png" x="0" y="0" height="88px" width="63px"/>
        <image id="season_winter" xlink:href="./gleitz/season_winter.png" x="0" y="0" height="88px" width="63px"/>
        <image id="wind_north" xlink:href="./gleitz/wind_north.png" x="0" y="0" height="88px" width="63px"/>
        <image id="wind_south" xlink:href="./gleitz/wind_south.png" x="0" y="0" height="88px" width="63px"/>
        <image id="wind_east" xlink:href="./gleitz/wind_east.png" x="0" y="0" height="88px" width="63px"/>
        <image id="wind_west" xlink:href="./gleitz/wind_west.png" x="0" y="0" height="88px" width="63px"/>
        <image id="flower_bamboo" xlink:href="./gleitz/flower_bamboo.png" x="0" y="0" height="88px" width="63px"/>
        <image id="flower_chrysanthemum" xlink:href="./gleitz/flower_chrysanthemum.png" x="0" y="0" height="88px" width="63px"/>
        <image id="flower_orchid" xlink:href="./gleitz/flower_orchid.png" x="0" y="0" height="88px" width="63px"/>
        <image id="flower_plum" xlink:href="./gleitz/flower_plum.png" x="0" y="0" height="88px" width="63px"/>
        <image id="dragon_green" xlink:href="./gleitz/dragon_green.png" x="0" y="0" height="88px" width="63px"/>
        <image id="dragon_white" xlink:href="./gleitz/dragon_white.png" x="0" y="0" height="88px" width="63px"/>
        <image id="dragon_red" xlink:href="./gleitz/dragon_red.png" x="0" y="0" height="88px" width="63px"/>
    </defs>
    <g id="preview">
        <use x="0" y="0" height="100px" width="75px" xlink:href="#ball_1"/>
        <use x="75" y="0" height="100px" width="75px" xlink:href="#ball_2"/>
        <use x="150" y="0" height="100px" width="75px" xlink:href="#ball_3"/>
        <use x="225" y="0" height="100px" width="75px" xlink:href="#ball_4"/>
        <use x="300" y="0" height="100px" width="75px" xlink:href="#ball_5"/>
        <use x="375" y="0" height="100px" width="75px" xlink:href="#ball_6"/>
        <use x="450" y="0" height="100px" width="75px" xlink:href="#ball_7"/>
        <use x="525" y="0" height="100px" width="75px" xlink:href="#ball_8"/>
        <use x="600" y="0" height="100px" width="75px" xlink:href="#ball_9"/>
        <use x="0" y="100" height="100px" width="75px" xlink:href="#character_1"/>
        <use x="75" y="100" height="100px" width="75px" xlink:href="#character_2"/>
        <use x="150" y="100" height="100px" width="75px" xlink:href="#character_3"/>
        <use x="225" y="100" height="100px" width="75px" xlink:href="#character_4"/>
        <use x="300" y="100" height="100px" width="75px" xlink:href="#character_5"/>
        <use x="375" y="100" height="100px" width="75px" xlink:href="#character_6"/>
        <use x="450" y="100" height="100px" width="75px" xlink:href="#character_7"/>
        <use x="525" y="100" height="100px" width="75px" xlink:href="#character_8"/>
        <use x="600" y="100" height="100px" width="75px" xlink:href="#character_9"/>
        <use x="0" y="200" height="100px" width="75px" xlink:href="#bamboo_1"/>
        <use x="75" y="200" height="100px" width="75px" xlink:href="#bamboo_2"/>
        <use x="150" y="200" height="100px" width="75px" xlink:href="#bamboo_3"/>
        <use x="225" y="200" height="100px" width="75px" xlink:href="#bamboo_4"/>
        <use x="300" y="200" height="100px" width="75px" xlink:href="#bamboo_5"/>
        <use x="375" y="200" height="100px" width="75px" xlink:href="#bamboo_6"/>
        <use x="450" y="200" height="100px" width="75px" xlink:href="#bamboo_7"/>
        <use x="525" y="200" height="100px" width="75px" xlink:href="#bamboo_8"/>
        <use x="600" y="200" height="100px" width="75px" xlink:href="#bamboo_9"/>
        <use x="0" y="300" height="100px" width="75px" xlink:href="#wind_north"/>
        <use x="75" y="300" height="100px" width="75px" xlink:href="#wind_west"/>
        <use x="150" y="300" height="100px" width="75px" xlink:href="#wind_south"/>
        <use x="225" y="300" height="100px" width="75px" xlink:href="#wind_east"/>
        <use x="375" y="300" height="100px" width="75px" xlink:href="#flower_plum"/>
        <use x="450" y="300" height="100px" width="75px" xlink:href="#flower_orchid"/>
        <use x="525" y="300" height="100px" width="75px" xlink:href="#flower_chrysanthemum"/>
        <use x="600" y="300" height="100px" width="75px" xlink:href="#flower_bamboo"/>
        <use x="0" y="400" height="100px" width="75px" xlink:href="#season_spring"/>
        <use x="75" y="400" height="100px" width="75px" xlink:href="#season_summer"/>
        <use x="150" y="400" height="100px" width="75px" xlink:href="#season_fall"/>
        <use x="225" y="400" height="100px" width="75px" xlink:href="#season_winter"/>
        <use x="450" y="400" height="100px" width="75px" xlink:href="#dragon_red"/>
        <use x="525" y="400" height="100px" width="75px" xlink:href="#dragon_green"/>
        <use x="600" y="400" height="100px" width="75px" xlink:href="#dragon_white"/>
    </g>
</svg>

