<svg xmlns="http://www.w3.org/2000/svg" xmlns:xlink="http://www.w3.org/1999/xlink" width="675" height="800">
    <defs>
			<image id="t_do1" xlink:href="./open-fruits/orange.png" x="0" y="0" height="88px" width="63px"/>
			<image id="t_do2" xlink:href="./open-fruits/peach.png" x="0" y="0" height="88px" width="63px"/>
			<image id="t_do3" xlink:href="./open-fruits/lime.png" x="0" y="0" height="88px" width="63px"/>
			<image id="t_do4" xlink:href="./open-fruits/lemon.png" x="0" y="0" height="88px" width="63px"/>
			<image id="t_do5" xlink:href="./open-fruits/tangerine.png" x="0" y="0" height="88px" width="63px"/>
			<image id="t_do6" xlink:href="./open-fruits/plum.png" x="0" y="0" height="88px" width="63px"/>
			<image id="t_do7" xlink:href="./open-fruits/papaya.png" x="0" y="0" height="88px" width="63px"/>
			<image id="t_do8" xlink:href="./open-fruits/mango.png" x="0" y="0" height="88px" width="63px"/>
			<image id="t_do9" xlink:href="./open-fruits/apricot.png" x="0" y="0" height="88px" width="63px"/>

        <image id="t_ba1" xlink:href="./open-fruits/apple.png" x="0" y="0" height="88px" width="63px"/>
        <image id="t_ba2" xlink:href="./open-fruits/applegreen.png" x="0" y="0" height="88px" width="63px"/>
        <image id="t_ba3" xlink:href="./open-fruits/pear.png" x="0" y="0" height="88px" width="63px"/>
        <image id="t_ba4" xlink:href="./open-fruits/asianpear.png" x="0" y="0" height="88px" width="63px"/>
        <image id="t_ba5" xlink:href="./open-fruits/guava.png" x="0" y="0" height="88px" width="63px"/>
        <image id="t_ba6" xlink:href="./open-fruits/cantaloupe.png" x="0" y="0" height="88px" width="63px"/>
        <image id="t_ba7" xlink:href="./open-fruits/pomegranate.png" x="0" y="0" height="88px" width="63px"/>
        <image id="t_ba8" xlink:href="./open-fruits/coconut.png" x="0" y="0" height="88px" width="63px"/>
        <image id="t_ba9" xlink:href="./open-fruits/kiwi.png" x="0" y="0" height="88px" width="63px"/>

				<image id="t_ch1" xlink:href="./open-fruits/strawberry.png" x="0" y="0" height="88px" width="63px"/>
        <image id="t_ch2" xlink:href="./open-fruits/raspberry.png" x="0" y="0" height="88px" width="63px"/>
        <image id="t_ch3" xlink:href="./open-fruits/blackberry.png" x="0" y="0" height="88px" width="63px"/>
        <image id="t_ch4" xlink:href="./open-fruits/blueberries.png" x="0" y="0" height="88px" width="63px"/>
        <image id="t_ch5" xlink:href="./open-fruits/pineapple.png" x="0" y="0" height="88px" width="63px"/>
        <image id="t_ch6" xlink:href="./open-fruits/cherries2.png" x="0" y="0" height="88px" width="63px"/>
        <image id="t_ch7" xlink:href="./open-fruits/banana.png" x="0" y="0" height="88px" width="63px"/>
        <image id="t_ch8" xlink:href="./open-fruits/mangosteen.png" x="0" y="0" height="88px" width="63px"/>
        <image id="t_ch9" xlink:href="./open-fruits/fig.png" x="0" y="0" height="88px" width="63px"/>

        <image id="t_se_spring" xlink:href="./open-fruits/cocktail.png" x="0" y="0" height="88px" width="63px"/>
        <image id="t_se_summer" xlink:href="./open-fruits/cocktail.png" x="0" y="0" height="88px" width="63px"/>
        <image id="t_se_fall" xlink:href="./open-fruits/cocktail.png" x="0" y="0" height="88px" width="63px"/>
        <image id="t_se_winter" xlink:href="./open-fruits/cocktail.png" x="0" y="0" height="88px" width="63px"/>

        <image id="t_wi_north" xlink:href="./open-fruits/melon.png" x="0" y="0" height="88px" width="63px"/>
        <image id="t_wi_south" xlink:href="./open-fruits/melon2.png" x="0" y="0" height="88px" width="63px"/>
        <image id="t_wi_east" xlink:href="./open-fruits/melon3.png" x="0" y="0" height="88px" width="63px"/>
        <image id="t_wi_west" xlink:href="./open-fruits/watermelon.png" x="0" y="0" height="88px" width="63px"/>

        <image id="t_fl_bamboo" xlink:href="./open-fruits/drink.png" x="0" y="0" height="88px" width="63px"/>
        <image id="t_fl_chrysanthemum" xlink:href="./open-fruits/drink.png" x="0" y="0" height="88px" width="63px"/>
        <image id="t_fl_orchid" xlink:href="./open-fruits/drink.png" x="0" y="0" height="88px" width="63px"/>
        <image id="t_fl_plum" xlink:href="./open-fruits/drink.png" x="0" y="0" height="88px" width="63px"/>

        <image id="t_dr_green" xlink:href="./open-fruits/cranberry.png" x="0" y="0" height="88px" width="63px"/>
        <image id="t_dr_white" xlink:href="./open-fruits/olives.png" x="0" y="0" height="88px" width="63px"/>
        <image id="t_dr_red" xlink:href="./open-fruits/blackcurrant.png" x="0" y="0" height="88px" width="63px"/>

        <image id="t_g1" xlink:href="./open-fruits/avocado.png" x="0" y="0" height="88px" width="63px"/>
				<image id="t_g2" xlink:href="./open-fruits/papayaslice.png" x="0" y="0" height="88px" width="63px"/>
        <image id="t_g3" xlink:href="./open-fruits/melonhalf.png" x="0" y="0" height="88px" width="63px"/>
        <image id="t_g4" xlink:href="./open-fruits/apricots.png" x="0" y="0" height="88px" width="63px"/>
        <image id="t_g5" xlink:href="./open-fruits/plums.png" x="0" y="0" height="88px" width="63px"/>
        <image id="t_g6" xlink:href="./open-fruits/lemons.png" x="0" y="0" height="88px" width="63px"/>
        <image id="t_g7" xlink:href="./open-fruits/pears.png" x="0" y="0" height="88px" width="63px"/>
        <image id="t_g8" xlink:href="./open-fruits/pineapples.png" x="0" y="0" height="88px" width="63px"/>
        <image id="t_g9" xlink:href="./open-fruits/grapes.png" x="0" y="0" height="88px" width="63px"/>
        <image id="t_g10" xlink:href="./open-fruits/bananas.png" x="0" y="0" height="88px" width="63px"/>
        <image id="t_g11" xlink:href="./open-fruits/apples.png" x="0" y="0" height="88px" width="63px"/>
        <image id="t_g12" xlink:href="./open-fruits/raspberries.png" x="0" y="0" height="88px" width="63px"/>
        <image id="t_g13" xlink:href="./open-fruits/cocos.png" x="0" y="0" height="88px" width="63px"/>
        <image id="t_g14" xlink:href="./open-fruits/melonhalves.png" x="0" y="0" height="88px" width="63px"/>
        <image id="t_g15" xlink:href="./open-fruits/peaches.png" x="0" y="0" height="88px" width="63px"/>
        <image id="t_g16" xlink:href="./open-fruits/strawberries.png" x="0" y="0" height="88px" width="63px"/>
        <image id="t_g17" xlink:href="./open-fruits/kiwis.png" x="0" y="0" height="88px" width="63px"/>
        <image id="t_g18" xlink:href="./open-fruits/redcurrant.png" x="0" y="0" height="88px" width="63px"/>
        <image id="t_e1" xlink:href="./open-fruits/walnut.png" x="0" y="0" height="88px" width="63px"/>
        <image id="t_e2" xlink:href="./open-fruits/melonpiece.png" x="0" y="0" height="88px" width="63px"/>
        <image id="t_e3" xlink:href="./open-fruits/melonpieces.png" x="0" y="0" height="88px" width="63px"/>
        <image id="t_e4" xlink:href="./open-fruits/orangeslice.png" x="0" y="0" height="88px" width="63px"/>
        <image id="t_e5" xlink:href="./open-fruits/orangeslices.png" x="0" y="0" height="88px" width="63px"/>
        <image id="t_e6" xlink:href="./open-fruits/kiwislice.png" x="0" y="0" height="88px" width="63px"/>
        <image id="t_e7" xlink:href="./open-fruits/cherries3.png" x="0" y="0" height="88px" width="63px"/>
        <image id="t_e8" xlink:href="./open-fruits/grape.png" x="0" y="0" height="88px" width="63px"/>
        <image id="t_e9" xlink:href="./open-fruits/avocado2.png" x="0" y="0" height="88px" width="63px"/>
    </defs>
		<g id="t_preview">
		<use x="0" y="0" height="100px" width="75px" xlink:href="#t_do1"/>
		<use x="75" y="0" height="100px" width="75px" xlink:href="#t_do2"/>
		<use x="150" y="0" height="100px" width="75px" xlink:href="#t_do3"/>
		<use x="225" y="0" height="100px" width="75px" xlink:href="#t_do4"/>
		<use x="300" y="0" height="100px" width="75px" xlink:href="#t_do5"/>
		<use x="375" y="0" height="100px" width="75px" xlink:href="#t_do6"/>
		<use x="450" y="0" height="100px" width="75px" xlink:href="#t_do7"/>
		<use x="525" y="0" height="100px" width="75px" xlink:href="#t_do8"/>
		<use x="600" y="0" height="100px" width="75px" xlink:href="#t_do9"/>
		<use x="0" y="100" height="100px" width="75px" xlink:href="#t_ch1"/>
		<use x="75" y="100" height="100px" width="75px" xlink:href="#t_ch2"/>
		<use x="150" y="100" height="100px" width="75px" xlink:href="#t_ch3"/>
		<use x="225" y="100" height="100px" width="75px" xlink:href="#t_ch4"/>
		<use x="300" y="100" height="100px" width="75px" xlink:href="#t_ch5"/>
		<use x="375" y="100" height="100px" width="75px" xlink:href="#t_ch6"/>
		<use x="450" y="100" height="100px" width="75px" xlink:href="#t_ch7"/>
		<use x="525" y="100" height="100px" width="75px" xlink:href="#t_ch8"/>
		<use x="600" y="100" height="100px" width="75px" xlink:href="#t_ch9"/>
		<use x="0" y="200" height="100px" width="75px" xlink:href="#t_ba1"/>
		<use x="75" y="200" height="100px" width="75px" xlink:href="#t_ba2"/>
		<use x="150" y="200" height="100px" width="75px" xlink:href="#t_ba3"/>
		<use x="225" y="200" height="100px" width="75px" xlink:href="#t_ba4"/>
		<use x="300" y="200" height="100px" width="75px" xlink:href="#t_ba5"/>
		<use x="375" y="200" height="100px" width="75px" xlink:href="#t_ba6"/>
		<use x="450" y="200" height="100px" width="75px" xlink:href="#t_ba7"/>
		<use x="525" y="200" height="100px" width="75px" xlink:href="#t_ba8"/>
		<use x="600" y="200" height="100px" width="75px" xlink:href="#t_ba9"/>
		<use x="0" y="300" height="100px" width="75px" xlink:href="#t_wi_north"/>
		<use x="75" y="300" height="100px" width="75px" xlink:href="#t_wi_west"/>
		<use x="150" y="300" height="100px" width="75px" xlink:href="#t_wi_south"/>
		<use x="225" y="300" height="100px" width="75px" xlink:href="#t_wi_east"/>
		<use x="375" y="300" height="100px" width="75px" xlink:href="#t_fl_plum"/>
		<use x="450" y="300" height="100px" width="75px" xlink:href="#t_fl_orchid"/>
		<use x="525" y="300" height="100px" width="75px" xlink:href="#t_fl_chrysanthemum"/>
		<use x="600" y="300" height="100px" width="75px" xlink:href="#t_fl_bamboo"/>
		<use x="0" y="400" height="100px" width="75px" xlink:href="#t_se_spring"/>
		<use x="75" y="400" height="100px" width="75px" xlink:href="#t_se_summer"/>
		<use x="150" y="400" height="100px" width="75px" xlink:href="#t_se_fall"/>
		<use x="225" y="400" height="100px" width="75px" xlink:href="#t_se_winter"/>
		<use x="450" y="400" height="100px" width="75px" xlink:href="#t_dr_red"/>
		<use x="525" y="400" height="100px" width="75px" xlink:href="#t_dr_green"/>
		<use x="600" y="400" height="100px" width="75px" xlink:href="#t_dr_white"/>

		<use x="0" y="500" height="100px" width="75px" xlink:href="#t_g1"/>
		<use x="75" y="500" height="100px" width="75px" xlink:href="#t_g2"/>
		<use x="150" y="500" height="100px" width="75px" xlink:href="#t_g3"/>
		<use x="225" y="500" height="100px" width="75px" xlink:href="#t_g4"/>
		<use x="300" y="500" height="100px" width="75px" xlink:href="#t_g5"/>
		<use x="375" y="500" height="100px" width="75px" xlink:href="#t_g6"/>
		<use x="450" y="500" height="100px" width="75px" xlink:href="#t_g7"/>
		<use x="525" y="500" height="100px" width="75px" xlink:href="#t_g8"/>
		<use x="600" y="500" height="100px" width="75px" xlink:href="#t_g9"/>
		<use x="0" y="600" height="100px" width="75px" xlink:href="#t_g10"/>
		<use x="75" y="600" height="100px" width="75px" xlink:href="#t_g11"/>
		<use x="150" y="600" height="100px" width="75px" xlink:href="#t_g12"/>
		<use x="225" y="600" height="100px" width="75px" xlink:href="#t_g13"/>
		<use x="300" y="600" height="100px" width="75px" xlink:href="#t_g14"/>
		<use x="375" y="600" height="100px" width="75px" xlink:href="#t_g15"/>
		<use x="450" y="600" height="100px" width="75px" xlink:href="#t_g16"/>
		<use x="525" y="600" height="100px" width="75px" xlink:href="#t_g17"/>
		<use x="600" y="600" height="100px" width="75px" xlink:href="#t_g18"/>

		<use x="0" y="700" height="100px" width="75px" xlink:href="#t_e1"/>
		<use x="75" y="700" height="100px" width="75px" xlink:href="#t_e2"/>
		<use x="150" y="700" height="100px" width="75px" xlink:href="#t_e3"/>
		<use x="225" y="700" height="100px" width="75px" xlink:href="#t_e4"/>
		<use x="300" y="700" height="100px" width="75px" xlink:href="#t_e5"/>
		<use x="375" y="700" height="100px" width="75px" xlink:href="#t_e6"/>
		<use x="450" y="700" height="100px" width="75px" xlink:href="#t_e7"/>
		<use x="525" y="700" height="100px" width="75px" xlink:href="#t_e8"/>
		<use x="600" y="700" height="100px" width="75px" xlink:href="#t_e9"/>
	</g>
</svg>

