<svg xmlns="http://www.w3.org/2000/svg" xmlns:xlink="http://www.w3.org/1999/xlink" viewBox="0 0 675 800">
	<defs>
		<svg id="t_ch1" viewBox="6 0 60 80">
			<use xlink:href="#recri2_black_n1"/>
			<use xlink:href="#recri2_black_ten-thousand"/>
		</svg>
		<svg id="t_ch2" viewBox="6 0 60 80">
			<use xlink:href="#recri2_black_n2"/>
			<use xlink:href="#recri2_black_ten-thousand"/>
		</svg>
		<svg id="t_ch3" viewBox="6 0 60 80">
			<use xlink:href="#recri2_black_n3"/>
			<use xlink:href="#recri2_black_ten-thousand"/>
		</svg>
		<svg id="t_ch4" viewBox="6 0 60 80">
			<use xlink:href="#recri2_black_n4"/>
			<use xlink:href="#recri2_black_ten-thousand"/>
		</svg>
		<svg id="t_ch5" viewBox="6 0 60 80">
			<use xlink:href="#recri2_black_n5"/>
			<use xlink:href="#recri2_black_ten-thousand"/>
		</svg>
		<svg id="t_ch6" viewBox="6 0 60 80">
			<use xlink:href="#recri2_black_n6"/>
			<use xlink:href="#recri2_black_ten-thousand"/>
		</svg>
		<svg id="t_ch7" viewBox="6 0 60 80">
			<use xlink:href="#recri2_black_n7"/>
			<use xlink:href="#recri2_black_ten-thousand"/>
		</svg>
		<svg id="t_ch8" viewBox="6 0 60 80">
			<use xlink:href="#recri2_black_n8"/>
			<use xlink:href="#recri2_black_ten-thousand"/>
		</svg>
		<svg id="t_ch9" viewBox="6 0 60 80">
			<use xlink:href="#recri2_black_n9"/>
			<use xlink:href="#recri2_black_ten-thousand"/>
		</svg>
		<svg id="t_do1" viewBox="6 0 60 80">
			<path stroke-width=".75" d="M49.4 40.5c0 7.7-6.2 13.9-13.9 13.9s-13.9-6.2-13.9-13.9 6.2-13.9 13.9-13.9 13.9 6.2 13.9 13.9z" class="s-db-r2b n"/>
			<circle cx="42" cy="40.5" r="6.5" stroke-width="1.6" class="s-db-r2b n"/>
			<circle cx="29" cy="40.5" r="6.5" stroke-width="1.6" class="s-db-r2b n"/>
			<circle cx="35.5" cy="34" r="6.5" stroke-width="1.6" class="s-db-r2b n"/>
			<circle cx="35.5" cy="47" r="6.5" stroke-width="1.6" class="s-db-r2b n"/>
			<path stroke-width=".75" d="M44.8 40.5c0 5.1-4.2 9.3-9.3 9.3s-9.3-4.2-9.3-9.3 4.2-9.3 9.3-9.3 9.3 4.2 9.3 9.3z" class="s-db-r2b n"/>
			<path stroke-width="2" d="M52.2 40.5c0 9.2-7.5 16.7-16.7 16.7s-16.7-7.5-16.7-16.7 7.5-16.7 16.7-16.7 16.7 7.5 16.7 16.7z" class="s-r-r2b n"/>
			<path stroke-width=".75" d="M55 40.5C55 51.3 46.3 60 35.5 60S16 51.3 16 40.5 24.7 21 35.5 21 55 29.7 55 40.5z" class="s-db-r2b n"/>
		</svg>
		<svg id="t_do2" viewBox="6 0 60 80">
			<use xlink:href="#recri2_black_c1" transform="translate(24.5 16.5)scale(1.22)"/>
			<use xlink:href="#recri2_black_c1" transform="translate(24.5 42.5)scale(1.22)"/>
		</svg>
		<svg id="t_do3" viewBox="6 0 60 80">
			<use xlink:href="#recri2_black_c1" transform="translate(16.5 12.5)"/>
			<use xlink:href="#recri2_black_c2" transform="translate(26.5 31.5)"/>
			<use xlink:href="#recri2_black_c1" transform="translate(36.5 50.5)"/>
		</svg>
		<svg id="t_do4" viewBox="6 0 60 80">
			<use xlink:href="#recri2_black_c1" transform="matrix(.94 0 0 .94 17 15)"/>
			<use xlink:href="#recri2_black_c1" transform="matrix(.94 0 0 .94 17 49)"/>
			<use xlink:href="#recri2_black_c1" transform="matrix(.94 0 0 .94 37 15)"/>
			<use xlink:href="#recri2_black_c1" transform="matrix(.94 0 0 .94 37 49)"/>
		</svg>
		<svg id="t_do5" viewBox="6 0 60 80">
			<use xlink:href="#recri2_black_c1" transform="matrix(.88 0 0 .88 17.5 13.5)"/>
			<use xlink:href="#recri2_black_c1" transform="matrix(.88 0 0 .88 17.5 51.5)"/>
			<use xlink:href="#recri2_black_c2" transform="matrix(.88 0 0 .88 27.5 32.5)"/>
			<use xlink:href="#recri2_black_c1" transform="matrix(.88 0 0 .88 37.5 13.5)"/>
			<use xlink:href="#recri2_black_c1" transform="matrix(.88 0 0 .88 37.5 51.5)"/>
		</svg>
		<svg id="t_do6" viewBox="6 0 60 80">
			<use xlink:href="#recri2_black_c1" transform="matrix(.72 0 0 .72 20 14)"/>
			<use xlink:href="#recri2_black_c2" transform="matrix(.72 0 0 .72 20 37)"/>
			<use xlink:href="#recri2_black_c2" transform="matrix(.72 0 0 .72 20 54)"/>
			<use xlink:href="#recri2_black_c1" transform="matrix(.72 0 0 .72 38 14)"/>
			<use xlink:href="#recri2_black_c2" transform="matrix(.72 0 0 .72 38 37)"/>
			<use xlink:href="#recri2_black_c2" transform="matrix(.72 0 0 .72 38 54)"/>
		</svg>
		<svg id="t_do7" viewBox="6 0 60 80">
			<use xlink:href="#recri2_black_c1" transform="matrix(.72 0 0 .72 15 10)"/>
			<use xlink:href="#recri2_black_c2" transform="matrix(.72 0 0 .72 20 41)"/>
			<use xlink:href="#recri2_black_c2" transform="matrix(.72 0 0 .72 20 58)"/>
			<use xlink:href="#recri2_black_c1" transform="matrix(.72 0 0 .72 29 17)"/>
			<use xlink:href="#recri2_black_c1" transform="matrix(.72 0 0 .72 43 24)"/>
			<use xlink:href="#recri2_black_c2" transform="matrix(.72 0 0 .72 38 41)"/>
			<use xlink:href="#recri2_black_c2" transform="matrix(.72 0 0 .72 38 58)"/>
		</svg>
		<svg id="t_do8" viewBox="6 0 60 80">
			<use xlink:href="#recri2_black_c1" transform="matrix(.72 0 0 .72 21 10)"/>
			<use xlink:href="#recri2_black_c1" transform="matrix(.72 0 0 .72 21 26)"/>
			<use xlink:href="#recri2_black_c1" transform="matrix(.72 0 0 .72 21 42)"/>
			<use xlink:href="#recri2_black_c1" transform="matrix(.72 0 0 .72 21 58)"/>
			<use xlink:href="#recri2_black_c1" transform="matrix(.72 0 0 .72 37 10)"/>
			<use xlink:href="#recri2_black_c1" transform="matrix(.72 0 0 .72 37 26)"/>
			<use xlink:href="#recri2_black_c1" transform="matrix(.72 0 0 .72 37 42)"/>
			<use xlink:href="#recri2_black_c1" transform="matrix(.72 0 0 .72 37 58)"/>
		</svg>
		<svg id="t_do9" viewBox="6 0 60 80">
			<use xlink:href="#recri2_black_c1" transform="matrix(.72 0 0 .72 14 14)"/>
			<use xlink:href="#recri2_black_c2" transform="matrix(.72 0 0 .72 14 34)"/>
			<use xlink:href="#recri2_black_c1" transform="matrix(.72 0 0 .72 14 54)"/>
			<use xlink:href="#recri2_black_c1" transform="matrix(.72 0 0 .72 29 14)"/>
			<use xlink:href="#recri2_black_c2" transform="matrix(.72 0 0 .72 29 34)"/>
			<use xlink:href="#recri2_black_c1" transform="matrix(.72 0 0 .72 29 54)"/>
			<use xlink:href="#recri2_black_c1" transform="matrix(.72 0 0 .72 44 14)"/>
			<use xlink:href="#recri2_black_c2" transform="matrix(.72 0 0 .72 44 34)"/>
			<use xlink:href="#recri2_black_c1" transform="matrix(.72 0 0 .72 44 54)"/>
		</svg>
		<svg id="t_ba1" viewBox="6 0 60 80">
			<use xlink:href="#recri2_black_b1" transform="matrix(1.18 0 0 1.15 29 25)"/>
		</svg>
		<svg id="t_ba2" viewBox="6 0 60 80">
			<use xlink:href="#recri2_black_b1" transform="translate(30 9.5)"/>
			<use xlink:href="#recri2_black_b1" transform="translate(30 44.5)"/>
		</svg>
		<svg id="t_ba3" viewBox="6 0 60 80">
			<use xlink:href="#recri2_black_b1" transform="translate(18 44.5)"/>
			<use xlink:href="#recri2_black_b1" transform="translate(30 9.5)"/>
			<use xlink:href="#recri2_black_b1" transform="translate(41 44.5)"/>
		</svg>
		<svg id="t_ba4" viewBox="6 0 60 80">
			<use xlink:href="#recri2_black_b1" transform="translate(18 9.5)"/>
			<use xlink:href="#recri2_black_b1" transform="translate(18 44.5)"/>
			<use xlink:href="#recri2_black_b1" transform="translate(42 9.5)"/>
			<use xlink:href="#recri2_black_b1" transform="translate(42 44.5)"/>
		</svg>
		<svg id="t_ba5" viewBox="6 0 60 80">
			<use xlink:href="#recri2_black_b1" transform="matrix(.91 0 0 .925 18 10.5)"/>
			<use xlink:href="#recri2_black_b1" transform="matrix(.91 0 0 .925 18 45.5)"/>
			<use xlink:href="#recri2_black_b2" transform="matrix(.91 0 0 .925 30.5 28)"/>
			<use xlink:href="#recri2_black_b1" transform="matrix(.91 0 0 .925 43 10.5)"/>
			<use xlink:href="#recri2_black_b1" transform="matrix(.91 0 0 .925 43 45.5)"/>
		</svg>
		<svg id="t_ba6" viewBox="6 0 60 80">
			<use xlink:href="#recri2_black_b1" transform="matrix(.82 0 0 .85 19 12.5)"/>
			<use xlink:href="#recri2_black_b1" transform="matrix(.82 0 0 .85 19 45.5)"/>
			<use xlink:href="#recri2_black_b1" transform="matrix(.82 0 0 .85 31 12.5)"/>
			<use xlink:href="#recri2_black_b1" transform="matrix(.82 0 0 .85 31 45.5)"/>
			<use xlink:href="#recri2_black_b1" transform="matrix(.82 0 0 .85 43 12.5)"/>
			<use xlink:href="#recri2_black_b1" transform="matrix(.82 0 0 .85 43 45.5)"/>
		</svg>
		<svg id="t_ba7" viewBox="6 0 60 80">
			<use xlink:href="#recri2_black_b1" transform="matrix(.73 0 0 .66 19.5 31.5)"/>
			<use xlink:href="#recri2_black_b1" transform="matrix(.73 0 0 .66 31.5 31.5)"/>
			<use xlink:href="#recri2_black_b1" transform="matrix(.73 0 0 .66 43.5 31.5)"/>
			<use xlink:href="#recri2_black_b1" transform="matrix(.73 0 0 .66 19.5 50.5)"/>
			<use xlink:href="#recri2_black_b1" transform="matrix(.73 0 0 .66 31.5 50.5)"/>
			<use xlink:href="#recri2_black_b1" transform="matrix(.73 0 0 .66 43.5 50.5)"/>
			<use xlink:href="#recri2_black_b2" transform="matrix(.73 0 0 .66 31.5 12.5)"/>
		</svg>
		<svg id="t_ba8" viewBox="6 0 60 80">
			<use xlink:href="#recri2_black_b3"/>
			<use xlink:href="#recri2_black_b3" transform="rotate(180 36 40)"/>
		</svg>
		<svg id="t_ba9" viewBox="6 0 60 80">
			<use xlink:href="#recri2_black_b1" transform="matrix(.73 0 0 .66 19.5 12.5)"/>
			<use xlink:href="#recri2_black_b1" transform="matrix(.73 0 0 .66 19.5 31.5)"/>
			<use xlink:href="#recri2_black_b1" transform="matrix(.73 0 0 .66 19.5 50.5)"/>
			<use xlink:href="#recri2_black_b2" transform="matrix(.73 0 0 .66 31.5 12.5)"/>
			<use xlink:href="#recri2_black_b2" transform="matrix(.73 0 0 .66 31.5 31.5)"/>
			<use xlink:href="#recri2_black_b2" transform="matrix(.73 0 0 .66 31.5 50.5)"/>
			<use xlink:href="#recri2_black_b1" transform="matrix(.73 0 0 .66 43.5 12.5)"/>
			<use xlink:href="#recri2_black_b1" transform="matrix(.73 0 0 .66 43.5 31.5)"/>
			<use xlink:href="#recri2_black_b1" transform="matrix(.73 0 0 .66 43.5 50.5)"/>
		</svg>
		<svg id="t_wi_north" viewBox="6 0 60 80">
			<path d="M56.3 54.7c-2-.9-11.8 3.3-11.8 3.3l.5-20.7s5.3-4.3 9.6-1.7l-1.2-5c-1.4-.2-8.4 5.5-8.4 5.5s-.6-18.8 4.8-19.9-8.9-2.6-9.7-2.2c-.4.2-.4 13.8-.2 27.1-3.2 3.1-5.9 6.2-7.1 7.3l.4-28.5s-4.7-2.6-5.8-1.4l.2 14.8c-.3-.5-.7-.9-1-1.3-1-1.3-6.1-4.2-6.1-4.2s1.7 5.6 2.5 6.6c.7.9 3 2.9 4.6 2.2l.2 16.5c-3.4 3-7.9 6.8-8.5 5.4-1.5-3.2-4.7-3-5.2-1.5-.5 1.6 4.2 10.2 5.8 10.1.8-.1 4.4-4.9 8-10l.1 5.3c1.6 2.1 3.8.5 4.6-.7l.3-11c1.1-1.6 4-4.5 7.1-7.9.2 12.1.3 22.8.3 22.8 4.9-5.2 16.7-4 16.7-4z" class="db-r2b"/>
		</svg>
		<svg id="t_wi_west" viewBox="6 0 60 80">
			<path d="M48.4 14.3c-8.5 5.7-21.5 6.9-28.8 5.9l-.9 2c11.7 3.8 26.4 1 31.2-3.2zm4.1 24.9c-3.6-.9-7.3-1.4-10.8-1.7.8-2.9 1.2-6 1-9.2l-7.8 2c.6 1.7.6 4.3.2 7q-2.4 0-4.5.3c.2-2.7.4-3.3-.5-6l-4.7 1.3c1 1.8 1.5 2.3 1.8 5.1-3.4 1-5.7 1.8-6.9 3.2-5.1 6.1 0 23.2 0 23.2s-.2-15.4 2-17 4.7-1.8 4.7-1.8c.1 1.5-1.6 6.7-1.6 6.7 2.2-2.7 3.2-3.6 4.3-7.2 1.6-.5 2.5-.8 4.1-1-1.6 6.1-4.5 10.9-4.5 10.9l7.4 2c-4.1-.1-13.3 5.1-13.3 5.1s16.2-4 20.8-1.1l1.2-2.9c-3.4-2.7-10.5-4.9-10.5-4.9s2.2-4.1 4.6-9.4c2.3.1 5.6.3 7.7.9 9.2 4.1-1.7 22.4-1.7 22.4s20.2-21.2 7-27.9" class="db-r2b"/>
		</svg>
		<svg id="t_wi_south" viewBox="6 0 60 80">
			<path d="M45.668 67.168c-.134-.23-1.369-2.382-2.744-4.781l-2.502-4.363.25-.25.25-.25.893.631c1.76 1.245 3.107 1.855 4.133 1.87.72.01 1.073-.152 1.596-.731.967-1.07 1.531-3.13 2.27-8.291.266-1.86.3-2.337.254-3.503-.083-2.075-.587-3.8-1.518-5.2-.842-1.266-2.046-2.117-3.456-2.443-.405-.093-1.462-.17-2.844-.208l-2.2-.059-1.816 2.305L36.42 44.2l.683-.063.683-.064.104.389.351 1.318.248.93-.219-.07c-.262-.084-2.803-.07-3.543.02-.501.061-.528.08-.618.427-.173.674-.425 2.03-.384 2.07.022.023.397-.03.833-.118 1.047-.21 2.861-.221 3.393-.02l.4.152.028 1.527c.022 1.221 0 1.517-.103 1.477-.578-.223-1.524-.32-3.141-.321-1 0-1.85.03-1.889.069-.04.04-.29 1.164-.558 2.5-.267 1.335-.534 2.664-.593 2.953-.105.51-.117.525-.45.525-.26 0-.344-.042-.344-.175 0-.419-.31-5.368-.335-5.394-.043-.043-1.894.545-2.405.764l-.44.19-.71-.732c-.39-.403-.71-.776-.71-.83 0-.123 1.62-.798 2.95-1.23.55-.178 1.032-.35 1.07-.384.065-.056-.102-2.816-.175-2.895-.05-.054-2.1.371-2.84.589-.355.104-.655.18-.666.168-.047-.049-.25-2.393-.21-2.433.058-.059 1.326-.315 2.421-.489 1.367-.218 1.35-.21 1.35-.551 0-.172.053-.299.125-.3.27 0 4.304-.395 4.321-.42.052-.08.648-4.218.612-4.254-.055-.055-6.634.362-6.958.44-.283.07-2.002.295-3.35.44-1.858.2-5.11.723-5.388.866-.626.323-1.148 1.154-1.416 2.253-.219.898-.294 3.371-.154 5.027.29 3.422 1.394 8.94 2.657 13.288.142.488.241.905.22.926-.02.02-.216-.092-.434-.25-.834-.605-3.515-5.142-4.942-8.364-2.624-5.928-2.98-10.312-1.047-12.89.984-1.313 2.465-2.166 4.608-2.656 2.754-.63 6.616-1.239 10.134-1.599 1.066-.109 1.956-.216 1.978-.238.065-.065.461-7.774.403-7.832-.076-.076-2.834.34-3.684.555l-.71.18-1.341-1.301c-.738-.716-1.304-1.339-1.259-1.384.162-.162 1.615-.468 4.175-.879a215 215 0 0 0 2.84-.467l.238-.05-.06-3.82c-.06-3.9-.193-5.613-.52-6.744-.092-.317-.213-.632-.27-.7-.07-.086-.066-.17.015-.268.1-.12.247-.067.937.333l3.72 2.154c1.595.924 3.043 1.766 3.219 1.872l.319.192-.198.336c-.347.588-2.161 6.018-2.049 6.13.022.023.619-.01 1.325-.064a95 95 0 0 1 2.714-.173l1.43-.067-.056.49c-.032.27-.127 1.321-.211 2.337s-.167 1.86-.183 1.876-.214-.036-.44-.116c-.72-.254-2.02-.388-3.86-.398l-1.79-.01-1.032 3.894c-.568 2.142-1.017 3.91-.997 3.93s.908-.01 1.973-.064c3.121-.165 9.07-.233 11.286-.13 1.888.088 2.123.12 2.971.405 3.505 1.177 5.765 3.655 6.53 7.158.314 1.436.29 4.068-.055 6.136-.23 1.375-1.16 5.257-1.753 7.312-1.417 4.917-2.655 6.858-5.307 8.321-.803.443-2.364 1.118-3.456 1.495l-.52.18zm-10.7-23.187c-.032-.08-.056-.056-.06.06 0 .106.02.165.053.131.033-.033.037-.12.01-.191z" class="db-r2b"/>
			<path d="M29.062 47.2c-.253-1.005-.896-2.033-2.77-4.426-1.3-1.661-1.931-2.55-2.005-2.823-.134-.498-.389-.865-1.033-1.49l-.504-.49.394-.088c.549-.123 4.355-.665 5.22-.744l.713-.066.068 2.139c.091 2.87.033 8.45-.083 7.988" class="db-r2b"/>
		</svg>
		<svg id="t_wi_east" viewBox="6 0 60 80">
			<path d="m36.5 41.3.1-6.4 4.4-.3-.3-2.4-4.1 1.2v-5.7c2.4.3 5 .8 7.1.9 4.3.3-1.2 14.1-1.2 14.1s16.3-14.4 2.6-18.1c-1.4 0-4.9.2-8.4.4v-3.9l7.5-1.9-7.5-.1v-4l-4.6-3.4.5 8.7-4 2.7 4.1-1 .2 3.2c-1.8.2-3.4.3-4.3.5-11.5 2.2 1 17.2 1 17.2s-4-14 .5-15.3c.9-.3 1.8-.3 2.9-.3l.4 7-3 .9 3-.2.2 4.1c-9.2 12.1-19.7 16.6-19.7 16.6s10.2-1.1 20-11.9l1 18.7c-3.7-1.5-7-3.6-7-3.6s2.4 7.1 7.5 10.1l4.3-5.1c-1-.2-2.1-.5-3.2-.9l.2-18.9c2.7 3.2 9 10.5 11.7 11l9-3c-3.5-.6-17.7-8.9-20.9-10.9" class="db-r2b"/>
		</svg>
		<svg id="t_dr_red" viewBox="6 0 60 80">
			<path d="M33.7 70.36c-.9-11.02-1.681-22.052-2.702-33.06-.4-3.546-.33-7.139-.617-10.7-1.456.257-4.627-.619-3.593 1.811.192 2.92.638 5.805 1.136 8.682.086.976.542 3.57-.916 1.99-3.116-2.627-3.208-7.04-3.806-10.76-.011-1.867-2.24-4.529 1.082-4.498 1.83-.569 5.186.293 5.997-1.22-.23-3.236-.171-6.506-.869-9.687-1.061-2.898 2.16-3.973 4.14-2.388 1.581.893 5.85 2.038 3.885 4.492-1.626 1.663-1.05 4.075-1.214 6.177-.019.82-.318 1.932.891 1.472 2.568-.083 5.145-.321 7.71-.195 2.528.442 4.675 2.924 3.954 5.558-1.258 4.893-5.077 8.58-8.63 11.95-1.162.964.472-2.119.41-2.82.742-3.047 1.64-6.113 1.86-9.285.365-2.165-3.256-.588-4.594-1.219-1.848-.823-1.868.441-1.796 1.842C35.655 42.503 35.12 56.5 34.7 70.5c-.313-.056-.774.137-1.001-.14" class="r-r2b"/>
			<path d="M39.1 37.387c-2.646-.143-5.306.016-7.946-.241-1.972-.24-3.952-.41-5.931-.576-.57-.362-.61-1.213-.871-1.802-.173-.35 0-.428.339-.368 1.913-.032 3.824.08 5.725.283 4.311.278 8.635.393 12.955.332.43.053 1.312-.178 1.437.131-.588.79-1.274 1.5-1.92 2.244-1.262.029-2.527.065-3.788 0z" class="r-r2b"/>
		</svg>
		<svg id="t_dr_green" viewBox="6 0 60 80">
			<path d="M42.739 63.325c-.998-2.7-2.813-4.991-4.448-7.328-2.188 1.85-4.416 4.053-7.343 4.554-1.57.062-2.238-1.302-.425-1.75a42.3 42.3 0 0 0 6.175-4.91c-1.8-2.3-3.586-4.608-5.407-6.891 5.219-.062 10.477-.373 15.668-.333-.857.916-1.495 2.82-2.974 2.689-2.191.097-4.41.033-6.567.455 2.596 3.253 6.003 6.068 7.807 9.932.675 1.117.17 2.005-.838 2.554-.474.229-1.257 1.354-1.648 1.028m-18.57-1.105a1447 1447 0 0 1-4.188-10.894c.754-1.305 1.306.133 1.828.774.994 1.149 1.972 4.006 3.547 1.761 2.223-1.964 3.3-4.805 4.15-7.561 1.294 3.199 1.556 7.203-.837 9.974-1.43 1.823-3.363 3.543-3.433 6.038-.283.216-.99.478-1.066-.092zm-1.633-11.73c-.61-.914 1.17-2.108 1.338-3.2.609-1.194 1.573-2.49-.43-2.202-1.02-.549-4.048-2.957-1.135-2.307 1.938.25 4.091.516 4.16-2.032 1.317-2.037-1.752-.075-1.69-1.654.25-.677 1.578-.943 2.213-1.473 1.475-.61 3.962-2.7 4.823-2.455-.962 2.687-2.258 5.262-3.299 7.9 1.26 1.28-1.833 1.578-1.842 3.155-1.092 1.396-2.434 4.433-4.138 4.268m8.993-4.96c.07-1.586 1.622-4.29 1.678-6.353.25-1.452-.187-3.478 1.965-2.555 2.399.166 4.798.334 7.199.478-.529 1.914-1.623 3.742-1.7 5.786.84 1.028 3.211.431 3.529 1.538-.093 1.362-2.713.39-3.74.82-1.089.101-3.507.393-3.031-1.35-.026-1.582 1.61-4.233-1.028-3.635-.97.465-1.006 2.354-1.856 3.19-.66 1.017-1.6 2.435-3.016 2.081M11.41 43.767c-.2-1.352 2.495-1.923 3.25-3.06 2.521-2.08 4.9-4.351 6.954-6.899-1.079-1.18-2.184-2.339-3.232-3.548.292-1.445 1.319-.318 2.044.075l2.524 1.564a31.7 31.7 0 0 0 3.648-6.35c-1.191-.648-5.01-1.976-1.914-3.209 2.163-.88 4.829-1.034 5.983 1.42 1.283 1.04 2.499 4.476 3.965 1.96.953-.935 1.105-2.399 1.704-3.568.744-1.33 1.073-3.906 2.124-4.327 3.826 2.666 7.876 5.16 11.058 8.608 1.352 3.16-3.153.347-4.393-.248-1.66-.204-4.052-3.847-5.023-1.327-.161.825-1.745 1.875-.734 2.533 2.075 1.535 4.131 3.045 6.344 4.375 4.295 2.631 8.857 5.29 13.928 5.908.022 2.006-3.672 1.765-5.208 2.805q-2.716.957-5.432 1.917c-3.699-3.6-7.411-7.187-11.077-10.82-2.499.982-4.99 1.984-7.497 2.944-1.326-.787.178-1.244.856-1.705 1.528-.972 3.165-1.831 4.586-2.924-.642-.411-1.697-2.473-2.394-1.882-5.556 7.16-12.774 13.612-21.663 16.116-.313.197-.268-.182-.4-.358" class="g-r2b"/>
			<path d="M37.35 55.34c-.28-.589-1.662-1.209-.343-1.44.792-.914 1.546-1.828 2.512-2.583 1.18-1.15 2.326-2.352 3.124-3.81.407-.414.849-.95 1.49-.831l2.996-.108a63 63 0 0 1-6.865 7.37c-.944.435-1.697 1.856-2.61 1.797-.026-.154-.304-.23-.304-.396m.7-24.457c-.721-.382-2.45-1.202-.896-1.75 1.176-.714 2.414-1.321 3.494-2.184 1.36-.808 2.61-1.801 4.017-2.525.632-.306 1.307-.502 1.974-.715 1.202 1.008 2.482 2.022 3.285 3.384.273 1.472-1.994.825-2.834 1.245-2.07.509-4.101 1.166-6.05 2.026-1.05.157-2.01 1.382-2.99.52" class="g-r2b"/>
		</svg>
		<svg id="t_dr_white" viewBox="6 0 60 80">
			<path fill="#bfbfbf" d="M13 6h45v69H13z"/>
			<path fill="#361f1f" d="M15 8h41v65H15z"/>
		</svg>
		<svg id="t_se_fall" opacity=".8" viewBox="6 0 60 80">
			<use xlink:href="#recri2_black_season" x="13" y="6"/>
			<path d="M27.6 16.1c-.8-2.5 4.7 2.6 2.6 2.2s-10.6.1-11.9.6l-.6-2.2c1.8.2 9.9-.6 9.9-.6z" class="o2-r2b s-o1-r2b"/>
		</svg>
		<svg id="t_se_winter" opacity=".8" viewBox="6 0 60 80">
			<use xlink:href="#recri2_black_season" x="13" y="6"/>
			<path d="M27.6 18.9c-.8-2.5 4.7 2.6 2.6 2.2s-10.6.1-11.9.6l-.6-2.2c1.8.2 9.9-.6 9.9-.6zm-.5-4.4c-2-2.3-2.8.6-9 .6l1.1 1.7 7.7-1z" class="o2-r2b s-o1-r2b"/>
		</svg>
		<svg id="t_se_summer" opacity=".8" viewBox="6 0 60 80">
			<use xlink:href="#recri2_black_season" x="13" y="6"/>
			<path d="M27.6 19.9c-.8-2.5 4.7 2.6 2.6 2.2s-10.6.1-11.9.6l-.6-2.2c1.8.2 9.9-.6 9.9-.6zm-2.7-3.6.8 1.5-4.8.5-.5-1.5zm2.2-3.8c-2-2.3-2.8.6-9 .6l1.1 1.7 7.7-1z" class="o2-r2b s-o1-r2b"/>
		</svg>
		<svg id="t_se_spring" opacity=".8" viewBox="6 0 60 80">
			<use xlink:href="#recri2_black_season" x="13" y="6"/>
			<path d="m19.8 13.9-.1 1.3s8.9-2.4 9.4-.6c0 0-.4 4.1-1.4 4.9 0-.5-.7-.6-1.7-.5.1-1.1.3-3.7 1-4l-1.6-.7-.2 4.8-1.5.3-.9-4.8-1 .4.9 4.7c-1.1.3-2 .5-2 .5l-1.8-7-2.2-.5 3.1 8.9s7.7-2.7 7.5-.7c3.2-2.5 4.3-6.5 4.3-6.5-2.2-3.4-11.8-.5-11.8-.5z" class="o2-r2b s-o1-r2b"/>
		</svg>
		<svg id="t_fl_plum" opacity=".8" viewBox="6 0 60 80">
			<use xlink:href="#recri2_black_flower" x="13" y="6"/>
			<path stroke-width=".5" d="M26.9 22.5c-.8-2.5 4.7 2.6 2.6 2.2s-10.6.1-11.9.6l-.6-2.2c1.9.2 9.9-.6 9.9-.6z" class="f3-r2b s-f1-r2b"/>
		</svg>
		<svg id="t_fl_orchid" opacity=".8" viewBox="6 0 60 80">
			<use xlink:href="#recri2_black_flower" x="13" y="6"/>
			<path stroke-width=".5" d="M26.9 25.3c-.8-2.5 4.7 2.6 2.6 2.2s-10.6.1-11.9.6l-.6-2.2c1.9.2 9.9-.6 9.9-.6zm-.4-4.5c-2-2.3-2.8.6-9 .6l1.1 1.7 7.7-1z" class="f3-r2b s-f1-r2b"/>
		</svg>
		<svg id="t_fl_chrysanthemum" opacity=".8" viewBox="6 0 60 80">
			<use xlink:href="#recri2_black_flower" x="13" y="6"/>
			<path stroke-width=".5" d="M26.9 26.3c-.8-2.5 4.7 2.6 2.6 2.2s-10.6.1-11.9.6l-.6-2.2c1.9.2 9.9-.6 9.9-.6zm-2.6-3.7.7 1.5-4.7.6-.6-1.5zm2.2-3.8c-2-2.3-2.8.6-9 .6l1.1 1.7 7.7-1z" class="f3-r2b s-f1-r2b"/>
		</svg>
		<svg id="t_fl_bamboo" opacity=".8" viewBox="6 0 60 80">
			<use xlink:href="#recri2_black_flower" x="13" y="6"/>
			<path stroke-width=".5" d="m19.1 20.3-.1 1.3s8.9-2.4 9.4-.6c0 0-.4 4.1-1.4 4.9 0-.5-.7-.6-1.7-.5.1-1.1.3-3.7 1-4l-1.6-.7-.2 4.8-1.5.3-.9-4.8-1 .4.9 4.7c-1.1.3-2 .5-2 .5l-1.8-7L16 19l3.1 8.9s7.7-2.7 7.5-.7c3.2-2.5 4.3-6.5 4.3-6.5-2.2-3.3-11.8-.4-11.8-.4z" class="f3-r2b s-f1-r2b"/>
		</svg>
		<svg id="t_g1" viewBox="0 0 74.7 95.1">
			<path d="M48.1 54.9q.3 0 1.4-.3 1.2-.4 1.5-.4 1.5 0 2.9 1.2-.7.8-3.6 1.1-2.8.3-3.3.7-.2 0-2.9 3.7 0-.1.5-3.5-.3-.2-2.3-.2t-4.3.4q-.4 1.4-.9 4.2-.7-.7-1.2-3.2-.6-.5-1-.5-.2 0-1 .2-.7.2-.9.2-.6 0-1.5-.6v-.3q1.5-.4 3.8-1.3 0-.7-.2-1.2t-.7-1.3q-.5-.9-.8-1.5.7-.1 1.2-.1 2.7 0 2.7 2.5 0 .6-.2 1.4.2.1 1.2.1 0-.1 6.1-.7 1.1-1.2 1.1-3.9 0-1-.2-2.3h2.1q.4 0 2 1.7-.7 1-1.9 3.1 0 .8.4.8m11.5 18q-1.8 1.1-5 1.1-3.4 0-6.7-3.5l-6.2-6.9-4.6 6.7q-1.5 1.9-3 3.3-1.5 1.3-2.4 1.8-.8.4-1.8.8t-1.1.5V76q8.6-6.3 10.8-15.6 1 .3 2.3 1.2 0 .3.3.9a26.4 26.4 0 0 0 3 3.1q1.7 1.4 2.9 2.3t3.3 1.9l2.8 1.2q.8.3 3 1.1 2.3.8 2.4.8m-14-2.2q0 .8-2.1 1.5-2.1.6-3 .6t-2.5-1q4.1-2.1 6-2.1 1.6 0 1.6 1m1 4.7q1.2.1 2.9 1.1 1.8 1.1 1.8 2.1 0 .2-1.4 1.9-1.3 1.8-1.3 2.5t.6 1.6q-3.7.5-11.7 1.4a9 9 0 0 0-.9 1.1 75 75 0 0 0-1-4.1 49 49 0 0 0-.7-2.7q-.2-.9-.5-1.5a7 7 0 0 0-.3-.8l-.2-.4v-.2q0-1 .5-1 .1 0 1.3.3 1.2.4 1.6.4zM25.3 63.1q-.5 0-2.4.2-1.8.2-1.9.2-.7 0-2.1-.6 3.3-1.2 6.6-2.6 0-3.1-.5-9.4-.4-.7-.4-.8v-1.4q2.2.6 4.1 1.5-.1 0-1.5 6.3l.1 3.9q1-.4 1.7-.4.8 0 2.5.4-.1.7-4.4 2.5 0 1.7.4 4.8 2.7-1.8 4.2-1.9-4.5 3.7-4.5 4.3v13q-.1 0-1 1.8-.8 1.8-.9 1.8-.6 0-1.7-1.6L21 81.6q.2 0 .9.1.8.1 1 .1.7 0 1.1-.3t.9-2.3q.5-1.9.5-5.5 0-2.2-.1-2.3l-8 5.7q-1.5 0-2.5-2.5 5-1.6 10.6-5.9zM41.8 84q1.8 0 3.1-1.1 1.4-1 1.4-3.6 0-.7-.4-1.5H40q-1.2 0-3 .7V84z" class="r-r2b"/>
			<path d="M27 29.5q0-.8-.7-2.7-.6-1.9-1-2.6 4.1 0 5-.3 1-.4 1.8-2.3 2.1-5 2.1-5.6 0-1.3-1.6-1.3l-11.5 1.5q-2.1-.6-2.9-1-.7-.4-1-1.4l34.4-3.4q3.1 0 5.8 2.5-.3.6-1.4.9l-19.9.5 2.1 2-5.2 6.8q.2.4.8.4 10.1-1.6 10.3-1.6 1.1 0 3.1 1.2 2.1 1.1 2.1 1.7 0 .2-.5.8t-1 2.3-.6 4.3v2.7q0 2.1-.1 2.6 0 .4-.2 2-.2 1.5-.6 2.2a46 46 0 0 1-1.1 1.8q-.7 1-1.8 2l-1.6-4.6q-.7-1.6-3.3-1.6l-8.6.8q-.9 1.9-1.1 3.5-1.7-.7-1.9-2.7v-.5q.1-.5.1-1.3zm14.5 1.3q-1 .6-2.3 1-1.3.3-2.1.4t-3.5.2-4 .2v5.7h2.9l6.4-1.4q2.7.6 3.9 1.9 1.3-4.1 1.3-10.4 0-2.5-.4-3.4t-2.1-.9l-12.2 1.5v5.3l8.8-1.4q.6.1 1.3.3.7.1.9.2.3 0 .6.2t.5.6" class="b-r2b"/>
		</svg>
		<svg id="t_g2" viewBox="-220 510 180 20">
			<path d="M-134.303 430c-.798 0-1.596.1-2.838.7l-.09.8c2.75 2.4 3.55 4.1 3.55 7 0 2.2-.356 5.4-.977 8.7-6.83 2.1-8.247 2.3-13.569 2.3l-.355.5c.62 1.9 1.153 2.6 2.129 3.5 1.685 1.5 4.878 3.2 6.297 3.2.798 0 2.127-.4 3.812-1.2l-2.127 5.9c-2.483.8-4.17 1.3-5.056 1.6-1.065.5-1.95 1.2-3.37 2.7-1.95-.5-2.305-.801-3.902-2.401h-.62c-.8 1.3-1.153 2.101-1.153 2.701 0 .5.354 1.5.709 2.7.443 1.1.797 2.299.974 3.599 1.065 6.6 1.065 6.601 2.395 8.201.798 1 2.04 1.799 2.838 1.799.62 0 1.065-.499 1.597-1.799 1.065.1 1.952.3 2.395.4 1.064.2 1.773.3 2.305.3.443 0 1.597-.2 2.75-.7 6.829-2.6 14.368-4.6 17.472-4.6 1.153 0 2.484.2 3.903.5.975.3 1.772.399 2.304.399 1.952 0 2.839-1 6.653-6.6.62-.9 1.951-2.5 3.459-4.4 1.33-1.5 2.039-3 2.039-4.1 0-2.4-7.627-8.1-10.908-8.1-2.306 0-4.434.6-10.465 2.6-3.37 1.1-3.726 1.201-7.274 2.301l2.395-5.9c5.587-1.5 6.918-2 12.506-3.4 2.838-.7 4.168-1.4 4.168-2.5 0-2.2-3.814-4.6-7.184-4.6-1.596 0-4.08.799-7.361 2.199 1.685-5.1 2.484-7.9 2.484-8.6 0-1.1-.798-2.3-1.951-3-2.483-1.5-6.83-2.699-9.934-2.699m-24.279 9c-1.06 0-2.528.4-4.16 1.2-7.671 3.4-12.405 4.9-15.832 4.9-.735 0-1.877-.1-3.428-.4l-.326.5c.245 2.3 3.427 5.799 6.61 7.099-2.939 4.8-4.081 10.3-4.163 20.5v10c-5.141 2-6.038 2.201-7.834 2.201-.571 0-1.061-.1-1.959-.4l-.326.4c.245 1.9.571 2.5 1.55 3.7 1.551 1.9 3.754 3.4 4.815 3.4s3.1-1.3 9.63-6.4c4.406-3.2 6.773-4.6 9.466-5.3v11c-.082 3.8-.325 7.1-.897 12.8-1.877-1.9-2.938-2.5-4.162-2.5-.408 0-1.061.2-1.959.5l.327-2.1c4.651-2.1 5.14-2.4 5.14-3.4 0-.9-1.794-1.8-3.508-1.8-.326 0-.898.1-1.55.2l.57-2.5c.653-.5 1.306-.9 1.633-1 .897-.4 1.55-.8 1.795-1 .326-.2.408-.501.408-.801 0-1.2-1.795-2.6-3.182-2.6-1.224 0-2.204.4-5.713 2.6-3.264 2.1-4.325 2.5-7.263 3.5l-.245.601c1.061 1.6 2.204 2.399 3.754 2.399.572 0 1.061 0 1.877-.1l-.246 1.6c-2.285 1.2-3.1 1.4-6.773 1.8l-.244.7c2.774 2.3 3.263 2.5 7.017 2.9l-.326 2c-1.469.7-2.284 1.101-2.773 1.201-1.47.5-2.122.699-4.489.899l-.408.8c2.612 2.6 4.324 4 5.467 4 .653 0 1.633-.3 2.857-1 1.633-1 3.263-1.8 4.65-2.3 3.183-1.2 5.387-2.099 5.958-2.299l1.224-.8c-.244 2.5-.653 3.599-1.632 3.599q-.367 0-.979-.299l-.408.4c1.306 2.7 1.55 3.299 2.203 4.899 1.632 4.4 1.632 4.4 1.877 4.8.571 1.1 1.226 1.801 1.797 1.801.98 0 3.1-3.5 3.834-6.5.734-3.3.735-3.3.898-16.9l.326-25c.245-7.7.735-13.7 1.551-16.1.571-1.9.735-3.2.735-4 0-1.3-.734-2.7-2.856-5.2 4.325-1.4 5.631-2.301 5.631-3.401 0-1.9-3.592-4.799-5.959-4.799m-6.283 10.299c.897 1.3.98 1.9.98 3.5 0 1.1-.083 3.301-.246 5.201-1.06-.6-1.794-.8-2.447-.8-1.55 0-3.183.7-7.508 3l-.408-2.401c-.082-.5-.082-1-.082-1.2 0-2.9 3.264-5.4 9.71-7.3m48.832 11.201c1.951 0 3.193.8 3.193 2 0 1.5-.976 3.7-4.435 9.7-1.685-.3-2.483-.401-3.547-.401h-1.42c1.33-3.8 2.04-5.799 2.04-5.899 0-1-.62-2-2.128-3.8 3.193-1.2 4.612-1.6 6.297-1.6m-48.26 1.1-.082 7.6c-2.122-1.1-3.101-1.401-4.162-1.401-1.55 0-3.264.901-5.957 3.101l.082-5.2c4.325-1.4 5.386-1.9 10.119-4.1m36.022 2.4c.709 1.4.974 2.1.974 2.9 0 1.1-.355 2.099-1.685 5.899l-5.055 1.601c.089-1.3.089-2.3.178-3 .088-2.1.265-3.501.265-3.601 0-.6 0-1.4-.265-2.7zm-14.102 2.6c.355 0 .974 0 1.418.1.798 4.5.976 5.3 2.307 9l-5.588 1.7c-.621-3.5-.977-5.9-.977-7.3 0-2.4.977-3.5 2.84-3.5m-22.084 5.4-.244 4.7c-.653-.1-1.062-.2-1.307-.2-1.958 0-3.917.9-8.65 3.7l.246-4.3c1.877-.7 3.183-1.1 3.754-1.3l5.14-2.2c.082-.1.571-.2 1.061-.4m45.143 7c-.976 0-2.662.4-4.702 1.1-2.394.9-2.393.9-14.455 4.4-9.046 2.6-9.046 2.6-11.263 2.6-1.685 0-2.484-.2-3.903-1.1l-.71.1c-.09.7-.089 1.1-.089 1.5 0 3 3.548 5.9 7.362 5.9 1.685 0 2.306-.2 8.16-2.3 8.78-3 15.963-4.301 23.146-4.401 3.193.1 4.79-.499 4.79-1.899 0-2.4-5.055-5.9-8.336-5.9m17.738 8.7c-2.306 0-3.903.499-7.274 2.099v.4c4.435 1 5.411 1.401 6.653 3.701l-5.055 2.2.266.6c6.12.2 7.627.3 9.756 1 2.838.8 5.055 1.2 5.853 1.2 1.064 0 1.951-1.001 1.951-2.101 0-4.7-5.853-9.1-12.15-9.1m-26.43 2c-1.419 1.5-1.773 2.5-1.773 4 0 4.6 3.546 11.099 6.207 11.099 1.064 0 2.129-1.099 4.08-4.299 2.394-4.1 3.547-5.4 7.805-9.6l-.266-.5c-3.548 1.1-5.055 1.5-6.563 2.1-1.419.4-2.75.7-3.636.7-1.685 0-3.105-1-5.145-3.5zm-12.506 4.3c-1.064 0-1.684.2-2.66 1.2l.088.4c2.217 1.9 2.484 2.3 4.08 6.9 3.902 11.8 11.707 17 24.744 17 10.998 0 18.36-2.2 18.36-5.3 0-1.5-.8-2.3-9.668-9.1-2.04-1.9-4.08-3.7-6.12-5.7-.443-.3-1.685-1.2-3.458-2.4l-.444.1c.355 1.3.62 2.1.71 2.4.354 1 1.686 3.8 3.548 8 .266.5.354 1 .354 1.2 0 1.4-2.128 2.3-5.942 2.3-8.691 0-13.48-2.6-16.14-9.1-1.952-4.5-2.13-4.9-3.016-5.8-1.33-1.3-2.84-2.1-4.436-2.1m-5.498.6c-3.193 4.3-3.902 5.4-4.611 6.5-1.774 2.4-2.129 3.3-2.129 5.8 0 4.1 1.596 7.1 3.725 7.1 2.749 0 5.054-6 5.054-13.6 0-3.1-.265-4-1.418-5.8zm23.06 28.301c-9.667 0-26.962 4.4-37.516 9.7l-.265 1c2.394 2.5 5.144 4 7.539 4 .354 0 1.151-.101 2.304-.301.355-.1 1.154-.199 2.307-.399 2.483 2.5 3.103 4.299 3.103 8.899v1.8c-5.41 1.5-6.296 1.6-12.15 2.2l-.353.5c1.064 4.4 5.23 8.3 9.045 8.3 1.064 0 2.395-.1 3.814-.4-3.902 6.8-5.588 8.6-10.732 11.9-1.065.6-1.33.8-3.192 1l-.355 1c3.37 5.1 5.854 7.2 8.603 7.2.621 0 2.127-.399 4.256-1.299.089 11.9.622 17.8 1.598 21.5.798 2.9 1.951 4.6 3.015 4.6.621 0 1.596-1.001 2.483-2.801 2.394-4.6 2.75-7.4 3.902-27 3.016-.6 3.548-.8 5.766-1 5.232-.5 5.232-.5 5.41-.5 1.153-.3 1.683-.9 1.683-2.1 0-4.4-3.103-8-7.271-8-1.596 0-3.46.3-5.766.9l-.088-2.599c3.46-3.2 4.701-4.2 8.87-6.9 3.015-1.8 4.08-3.1 4.08-4.5 0-2.2-5.855-5.6-9.668-5.6q-.666 0-2.13.299c.356-2.5.444-2.999.71-3.799.266-.9.355-1.5.355-1.8 0-1.4-1.686-2.8-5.765-4.6 6.563-2 10.91-2.801 14.812-2.801s5.41 1.501 5.41 5.601v6c0 6.5.088 15.1.354 27 .266 10.7.355 16.899.355 19.399 0 5.1 0 5.3-1.152 5.3-3.016 0-7.983-1.2-15.787-3.9l-.621.801c2.128 3.1 3.103 4.1 7.892 7.6 2.306 1.6 4.524 3.3 4.701 3.6l3.547 3.3c4.7 4.3 5.056 4.5 6.475 4.5 2.306 0 6.209-8.7 6.209-13.8 0-1.7-.089-4.4-.443-7.6-.621-5.7-.8-12.601-.8-21.301 0-17.7.71-25.6 2.839-31 .443-1.3.71-2.5.71-3.1-.266-1.2-1.064-2.3-3.015-3.9-5.233-4.3-10.91-6.899-15.078-6.899m-46.738 9.399c-1.33 0-2.484.301-4.79 1.101l.088.8c4.257 2.7 4.702 3.799 4.702 16.599 0 11.9-1.42 29.6-2.838 35.5-1.597 6.7-2.929 11.1-6.743 15-.443.5-2.304 2.9-2.304 2.9 14.9-4.5 19.422-12.899 20.486-39.199.71-14.5.8-15.9 1.154-18.8 0-.4.444-2.601 1.065-5.901.177-.6.176-1.2.176-1.5 0-1.7-1.33-3.2-4.168-4.6-2.484-1.3-4.877-1.9-6.828-1.9" class="r-r2b"/>
		</svg>
		<svg id="t_g3" viewBox="-190 430 180 20">
			<path d="M-149.56 440.7c2.075-1 3.97-1.4 5.504-1.4 2.437 0 6.136 1.4 8.934 3.4 1.714 1.2 2.888 3.2 3.79 7.1 3.068-2.4 3.61-2.8 6.678-5 .541-8.1.722-12.5.722-19.4 0-3.2-.993-5-2.708-5-.18 0-.18 0-4.24.7-.903.2-1.896.1-2.798-.1l-.18-.6c1.533-6.1 6.136-9.9 11.64-9.9s10.468 5.9 10.468 12.7l-1.173 13.7c5.505-3.4 8.392-4.8 10.919-4.8 6.136 0 17.597 7.5 17.597 11.5 0 1.4-.722 4-2.256 6.7-3.79 7.1-6.137 19.2-6.137 32.9 0 8.1 1.715 12.7 5.956 16 5.144 4 12.183 6.3 19.492 6.3 9.746 0 16.965-2.6 16.965-5.7 0-2-1.714-6.9-5.956-16l.993.2c2.437 2 3.97 3.4 4.602 4 3.61 4 6.046 7.1 9.566 11 1.895 2.5 2.526 5.6 2.075 9.2-.631 5.2-8.753 9.3-26.08 9.3-14.347 0-22.108-2.6-28.966-9.1-6.678-6.3-8.934-13.5-8.934-26.7 0-9.5.722-18.6 2.437-29.5.36-1.6.541-3.2.541-4.4 0-2.2-1.534-4.2-3.068-4.2-2.076 0-4.241 1.6-9.927 7.7-.541 8.7-.541 11.7-.541 17.8l.722 27.7c0 8.9-4.783 25-7.4 25-1.353 0-2.707-2.2-4.602-6.3-.36-1.2-.36-1.2-5.505-16-1.353-4.4-.541-3.3-2.978-8.1l-.631-1.8c3.068 2.6 5.685 5 6.678 5.9 1.173 1 2.075 1.8 2.707 1.8.992 0 1.173-2.8 1.173-14.1 0-3.6-.18-12.3-.542-21.8-5.143 3.2-6.858 4.6-9.204 7.1-2.707 21.4-5.144 29.9-11.1 37.8-3.61 4.6-6.677 7.3-8.572 7.3-1.534 0-2.076-1.4-2.437-7.5-.18-1.6-.992-4.4-2.256-7.1-3.79-8.9-6.136-16.4-6.136-20.4 0-1.4.993-3.4 2.436-4.8.542-.8 6.678-5.9 18.139-15.5.18-1 .18-1.8.18-2.6 0-2-.993-3.4-2.256-3.4-1.173 0-2.436.4-4.241 1-1.534.6-3.068 1-3.97 1-2.437 0-4.784-1-8.032-3.4-1.715-1.2-1.895-1.6-2.256-3.8l.18-1c3.068-.6 4.964-1.2 5.685-1.6zm6.677 33.6c-2.256 1-4.241 1.6-5.504 1.8-9.385 1.8-9.927 2-10.92 3.6-.54.4-.721 1.2-.721 1.8 0 2 4.963 11.5 7.219 14.1.993 1 1.714 1.4 2.256 1.4 2.888 0 5.505-7.9 7.4-20.8zm3.88-94c1.354.2 2.437.2 3.25.2 2.255 0 4.782-.8 8.753-2.6 5.143-2.4 5.143-2.4 18.86-12.3 2.256-1.6 4.602-2.4 6.677-2.4 5.144 0 13.897 6.3 13.897 10.3 0 1.2-.992 3-2.256 5-5.324 7.5-9.204 19.6-9.204 30.1 0 5.3 2.075 10.3 5.505 12.9 2.436 2 6.497 3 13.175 3 4.421 0 6.497-1 6.497-3 0-1.2-.18-2.6-.993-4.2l.542-.2c1.173.2 1.714.4 1.895.6l5.143 3.2c9.205 2.6 9.205 2.6 10.649 4.2.722.8 1.353 1.8 1.353 2.6 0 4.6-9.204 7.9-21.206 7.9-20.033 0-31.855-10.7-31.855-28.3 0-6.1 0-6.1 2.888-19.6.18-.8.18-1.6.18-2 0-1-.36-1.6-1.353-1.6-.722 0-1.895.6-3.97 2.4-4.784 4.4-9.386 6.5-12.995 6.5-3.069 0-6.678-1.8-11.641-5.7-3.61-3-3.97-3.6-4.422-6.1zm48.008 36.6c1.354-1.2 1.986-2 2.166-2l2.436-1.6c.361-.4.722-.8.722-1 0-.4 0-.6-3.068-1.6s-4.963-3.6-4.963-6.7c0-2.6 1.354-4.6 6.497-10.5 2.256-2.6 3.79-5.5 3.79-7.5 0-1.4-.36-3.2-1.173-5.3l.722-.6c1.173-.2 2.076-.4 2.707-.4 4.964 0 11.28 4.4 11.28 7.7 0 2.4-.722 3.2-11.46 12.1-1.354 1-1.895 1.8-1.895 2.4 0 .8.722 1.6 1.353 1.4l11.461-1.4c.36 0 3.43 2.2 4.602 3.2 1.354 1.6 1.895 3 1.895 4.6 0 3.2-2.075 4.4-7.85 4.4-4.422 0-5.144.2-11.461 2l-2.707.8c-.361 0-3.068.8-5.956 1.4zm2.888 70.5c.632-.8 1.354-1.5 2.166-1.9.541-.3 1.263-.7 2.075-1.2 2.437-1.4 4.963-2.8 7.4-4 1.895-1.2 3.249-2.2 3.249-2.8 0-.4-.361-.6-2.708-1.2-2.256-.6-5.956-6.1-5.956-9.3 0-1.6.722-4 2.256-6.9 3.069-6.7 4.603-10.9 4.603-12.3 0-.4 0-.8-.18-.8-2.076-1.4-2.076-1.4-3.069-2.8l.361-1c1.895-1 3.61-1.4 4.783-1.4 3.248 0 7.219 3.8 7.219 7.1 0 2.2-2.707 8.7-5.685 14.5-.542 1-.993 1.8-.993 2.2 0 .6.722 1.2 1.534 1.2.18 0 1.895-.2 4.242-.6h1.714c6.136 0 11.641 4.6 11.641 9.9 0 3-.541 3.2-13.716 7.1l-14.71 3.2q-1.218.3-4.06.9c-.632.2-1.354.2-2.166.1" class="r-r2b"/>
		</svg>
		<svg id="t_g4" viewBox="-190 430 180 20">
			<path d="M-99.891 379.899c-4.281 7.8-7.013 15.3-9.381 23.9-.82 2.8-9.745 13.4-12.842 10.6-1.184-1.9-5.647-10.2-8.015-10.2-6.284 4.7-7.65 1.9-14.025 9.5-1.367 1.5-3.097 2.3-5.283 2.1-2.914-4.7-4.918-14-1.548-18.9 1.002-1.5 1.73-2.8 2.186-4.5 6.01 0 8.743-3.6 12.477-7.4.547-2.8 4.463-5.5 2.186-8.3-1.184-1.3-.82-2.5.82-3.6 7.012-1.7 12.66 8.1 15.847 12.7 2.55 3.6-1.366 7.4-.364 10.8-1.002.2 1.184.6 1.366.6 4.645-2.8 12.113-18.2 15.574-23.5-.547-1.1 1.548-2.7 2.368-3.4 1.002 3 .364 6.4-1.366 9.6m-34.336 86.9c-.364 4.4-1.366 36.9-.547 39.4-.82 1.9-2.185 4.2-4.645 3.8-1.184-1.5-2.367-3-4.28-4.2-5.647-8.7-4.099-14.2-3.552-24.4l.364-3.4c.547-13.4 4.918-26.9 1.184-40.1 1.366-3 1.549-8 6.467-7.4 1.001 9.5 5.1 18.4 6.466 27.8-1.275 2.8.091 5.8-1.457 8.5m47.997 14.4c5.282 7 1.002 5.3-1.73 8-4.281-.4-14.846.9-19.126 1.9-1.184-1.1-2.733.2-3.917.4-.82 2.5 1.73 3.8-.364 7-2.55 0-5.1-.4-7.65-1.3-2.733-4.9-5.283-9.8-8.38-14.6-.182-6.8-6.648-12.7-3.278-19.7 1.548-.6 2.186-1.5 3.916-.9 1.002 1.1 2.186 2.7 3.734 3 10.383-5.3 33.607-17.2 43.352-6.1 1.73 2.1.183 5.1 1.913 6.8 1.913 6.6-8.834 9.2-8.47 15.5m3.097-37.5c-3.552 0-5.83 2.5-9.563 2.1-2.368 1.1-5.647.8-7.378 2.8-15.027 8-34.153-9.5-21.311-12.3 4.918-.9 10.929 0 15.391-1.3 3.917-1.1 7.65-2.5 11.476-3.2 4.28-5.3 9.38 0 11.749 3.8.091 2.6 3.916 6.2-.364 8.1m24.59-56.2c-5.282-1.1-9.199 1.1-14.208 1.9-.364.6-.82 1.3-.364 1.9.546 1.3 5.282 4.5 6.649 6.8 4.098 6.1.364 13.4-6.831 15.1 1.73 2.5 12.113 6.4 15.574 8 2.186 2.3 3.279 5.1 4.645 7.8 1.002 14.6 6.648 84.3-4.463 93.9-.546 2.8-4.28 2.3-6.466 2.5-3.28-5.3-9.2-8.3-14.482-11.9-1.912-5.7-15.391-11-11.293-18.2 2.914-.6 2.55 3.6 4.918 3 1.366 1.3 13.297 3.2 15.392 2.8 7.013-4.4 2.55-63.2-1.366-71.6-3.279-1.7-2.368-7.2-7.013-5.9-1.366-1.5-3.552-1.7-5.282-2.8-4.463 2.1-16.94 5.5-22.04 7-5.283 1.3-10.93-.4-16.212.6l-4.099-.9c-1.366-11.7 32.97-10.4 38.616-19.1 2.915-.9 5.465-5.7 7.65-7.8-.819-1.5-1.547-6.1-3.733-6.6-2.55 2.5-6.011 3.8-7.833 6.8-2.368 0-5.282 3.6-6.83.2-2.369-1.5-1.731-4.9-2.733-7.2 1.002-1.9 1.002-3.2 1.184-5.1.547-6.1 11.931-11.7 10.565-21.2-.546-3.6-5.1-3-6.649-7.4 3.28-.9 2.186-2.3 6.467-2.1 10.11.6 16.03 13.3 15.392 21.4 12.66-1.1 13.297-6.6 27.323-.6 3.552 1.5 2.914 3 2.914 6.1-2.641 4.1-11.111 2-15.392 2.6m-39.436 80.4c-2.368 2.1-13.115 2.1-16.394 2.1-4.098 0-4.918 2.8-4.644 4.4 3.096 1.5 2.368 5.3 4.28 7.8 4.28 1.7 6.011-2.8 10.565-2.1 4.28-3 8.197-7 9.199-12.1h-3.006z" class="b-r2b"/>
		</svg>
		<svg id="t_g5" viewBox="-190 430 180 20">
			<path d="M-61.698 430.8c-3.8.6-6.58-1.5-10.286-1.3 1.298-4.4 4.726-2.2 6.209-4.4 3.984-2 12.046-3.7 12.788-8.7-5.838-3.3-16.495-1.7-23.074-1.7-4.355 1.5-14.085-1.1-16.309 3.5.37.4 1.297 1.1 1.483 1.7l.926.7c.371 2.2.556 4.4 0 6.6-2.038-.2-15.197 10.1-15.567 12.2 2.038.7 7.32 1.7 8.432-.9 5.653-5 9.36-11.8 14.27-17.3 1.854 2.4 9.36 2.4 9.174 5.5l1.298 1.7c0 6.1-25.113 23-29.282 30.2 5.837.7 11.49-.9 16.865-2.4-.556-1.5-1.112-2.9-1.483-4.4-2.965 2.4.185-1.8.556-2.2l1.112-1.3c8.618 2.4 12.973 2.8 17.05 11.6.186 3.3 1.112 9.8-2.78 11.6-1.853.2-4.54.2-6.394-.6-4.355-4.4-3.706-8.7-10.656-4.1.741 3.1.741 6.6-.37 9.8.926 13.6-.742 27.3-2.04 40.7-.555.9-.74 1.8-1.111 2.8-.556 1.5-2.224 1.1-3.8.7-4.91-1.5-19.181-18.4-23.073-23.2-5.653 4.4-8.618 8.5-11.861 14.6-1.483 2.8-3.336 2.2-6.209 1.8-4.54-5.9-9.73-12.7-6.764-20.5 1.668-4.2.37-9.2 6.579-8.8.37.4.926.7 1.482.9 1.668 2.4 4.17 4.6 6.024 7 7.135-2.4 14.27-4.4 21.59-6.5l-.185 3.1c-1.668.4-2.78 1.7-4.54 2.4-1.298 1.7-3.985 2.8-2.224 5.2 2.224.9 9.915.7 12.417.2 1.853-.6 2.965-23.2-2.41-26.2-3.984.6-17.606 9-20.293 6.8-4.54-3.9-2.965-10.5-1.112-15.3 3.521-2.6 14.826-6.5 15.753-11.2-3.985-.7-7.32 1.3-11.027 2-1.112 1.1-3.15.9-3.985 2.8-2.78.9-2.965-.9-4.726-2.4.927-3.9-1.112-7.7.186-11.6 2.78-3.3 7.32-4.6 10.285-7.6 4.541-4.4 9.174-8.8 12.603-14.2-3.15-.7-8.247 2.4-12.232 2.4-4.54 0-13.344 2-16.865 5-1.668 1.5-2.41 3.7-3.984 5.3-1.668 10.1-6.209 20.3-8.989 30.2l-2.224.7c-1.483-.7-2.039-1.5-3.984-1.1-2.41-5.2-6.58-10.7-6.024-16.8.556-4.4 4.726-5.7 6.58-9.2 1.297-2.4 4.91-12.7 4.91-15.3 0-4.2-7.134-1.5-6.393-7.6 1.297-.6 5.096-.2 6.58.2 1.667.7 6.949 3.5 10.656 4.8 0 1.7 3.52-.6 4.355-.9 2.594-3.5 21.035-9.2 25.668-9.4.741-1.3 1.853-2.6 2.039-4.2-6.58-.6-22.147-10-24.371-16.2 4.17-.6 6.208-.2 10.47 0l2.04-.4c4.725.2 9.173-1.5 13.9-2.4 2.78-3.7 2.409-9.8 1.111-14-2.41-1.8-5.282-3.3-8.062-4.6-.185-1.1-.37-2.2-.926-2.9 1.112-2.4 2.965-4.6 5.838-5.3 7.32 3.1 18.347 6.1 19.367 15.1.185 2.2-.186 4.8 1.112 6.8 8.247 2 10.47-2.8 15.938 6.8 1.112 7.2-13.714 8.3-18.348 10.7-.37 2.8-1.668 5.3-1.668 8.5 7.691.9 15.383-.9 23.074-.9 3.15-1.7 17.977 2.4 21.22 4.1 4.726 2.6 13.9 15.2 4.355 18.9-4.54 1.9-14.64 1.4-20.664 2.4m2.965 72.6c-.556-.9-1.853-.6-2.594-.6l-1.112-.7c-8.618-5.7-14.827-12.9-23.074-19.2.927-4.2 4.911-.9 6.95-2.4 8.062.4 20.108.7 24.371 8.5 3.15 5.7 5.282 15.3-4.54 14.4" class="g-r2b"/>
		</svg>
		<svg id="t_g6" viewBox="-190 430 180 20">
			<path d="M-43.135 474c-6.799 12.7-7.887 27.3-17.949 38.5-2.357 2.8-7.705 7.6-11.422 7.7-.906-.9-1.813-1.8-3.263-2.2-.363-3.1-2.901-5.2-4.442-7.9-2.357-1.5-9.7-10.7-11.966-13.3 8.25 4.6 12.51 3.3 20.94 5 4.986-4.4 14.504-30.2 12.691-36.5-1.087-4.1-24.929-1.5-28.645.4 3.445 6.1 14.323 6.5 13.054 19.4.543 2.2-.363 4.2-1.45 5.9-4.987 1.5-6.256-1.7-9.157-4.6-11.059-.2-36.894 12.5-39.614 12.5-3.082-4.6-12.147-6.1-6.617-13.5 4.985 1.1 11.421-2.4 15.591-5 1.45-2.2 2.176-5.3 1.088-7.9l-24.929 9.8c1.995 10.1 4.442 18.3 1.995 28.8-3.445-2-5.167-4.8-7.162-8.3-4.986-3.9-2.175-10-4.08-15.1-2.175.4-4.078 1.5-6.073 1.7-3.716 1.7-10.243-6.6-7.342-8.8 3.263-.9 7.342-1.7 10.243-3.5 0-2.8-.362-6.8 3.264-7.7 3.082-2.6 20.577-11.4 20.94-13.3-7.887-3.9-12.51-23-15.41-31 .362-2-.907-5.7 1.631-6.6 1.088-1.3 2.72-1.7 4.26-1.3l.907 1.7c4.26-2.4 8.068-5.5 12.51-7.2-2.538-3.3-2.72-8.1-4.442-10-2.357 1.1-15.773 8.8-17.224 8.1-1.994-.9-2.72-3.1-4.804-4.4.725-1.3-4.08-5.5-2.176-9.2 4.08-1.5 3.445-1.7 7.162.6 3.898 0 12.147-1.7 15.592-3.3 3.716-1.8-7.524-21.9-6.98-25.4 4.079.6 8.43 1.5 11.965 4.1 3.082 2.2 10.606 11.2 9.7 15.3.906 2.4 13.235-.7 15.23-1.3 2.175-4.6 2.9-10 4.441-14.7 1.27-4.1-3.445-8.8-6.617-10.7.181-4.2 13.779-1.1 16.136.2 9.337 5.3 6.798 12.9 2.175 20.3 2.176.9 14.686-4.6 18.946-3.5 1.45 2.9 9.518 6.8 8.43 11.2-3.716 0-31.727 4.2-33.268 5.5-2.901.6-6.98 8.8-9.881 10.9 6.255-.7 13.96-2.6 20.215-2 5.711.4 17.949 7.9 16.136 14.6-1.632 6.3-13.416 28.2-19.127 30.8-1.45 1.5-4.624.6-6.437-.2l-.362-2c-2.538.6-3.082 2.6-6.98 2.6-1.45 0-3.082.2-4.442 1.1-.907 5.7-.544 2.8-.907 9.2 1.995-.2 4.08-.7 6.074-1.3 9.7-2.4 25.291-5.2 35.263-3.9 3.445-2.4 11.422.4 14.141 3.1 1.814 1.8 5.349 5.5 5.711 8.1.635 3.5-1.631 5.2-3.263 8.5m-73.608-17.5c-4.986.2-26.47 12-29.734 15.7 2.357 3.7 27.195-7.7 31.91-9.6 1.087-2.2.543-4.8.543-7.2zm-.182-39.1c-3.898.9-13.779 2.2-15.592 5.5.182 2.8-.725 5.7.544 8.3 2.539 5.5 3.717 9.8 3.445 15.9 4.805-2.8 9.337-6.8 12.872-10.7-3.444-.2-13.96-2-15.591-5.3 4.623-2.9 13.778-4.8 16.86-7.7 2.448-2.3-1.812-3.8-2.538-6m10.425-27.6c-1.994.2-6.98 2.4-8.793 3.3-.363 4.2-5.348 13.5-4.804 16.6 8.068-.6 17.042-12.7 19.127-19.9zm12.51 78.3c-2.357 0-4.804.6-7.161.9-.182 2.9-.182 5.9-.907 9 4.08-.2 8.612-.2 12.51-1.3-1.722-2.5-2.992-5.6-4.442-8.6m-7.343-53.1c2.357 1.1 1.27 3.3 3.898 4.4 1.27.6 2.538.7 3.898 1.5 1.45.2 2.538 2 3.898 2.6 2.538 6.3-7.161 7.7-9.88 10.9l-.545 4.8c4.805-.2 3.083-.7 7.162 1.1 2.357 1.7 1.269 1.1 3.082 1.8 0-1.1 0-8.5.363-9.6.725 2.8.362 1.8 2.72 2.4 1.268-3.1 9.699-21.4 6.254-22.9-7.796-3.2-13.507 2.3-20.85 3" class="r-r2b"/>
		</svg>
		<svg id="t_g7" viewBox="-190 430 180 20">
			<path d="m-78.833 369.7-.184.8c1.006 4.5 4.572 10.4 7.131 12.2 1.28 1 2.103 1.8 2.103 2.4-.183 1.2-3.84 5.9-8.227 10.4l.182 1c1.737-.6 3.108-1.2 3.748-1.4l7.77-3.5c1.097-.4 2.56-.8 4.48-1.2 5.85-.6 5.85-.6 7.13-1.6 1.463-1 2.376-2.9 2.376-4.9 0-6.3-5.12-10-13.895-10.4-3.2 0-5.301-.4-6.124-.8l-4.388-2.4c-.183-.2-1.005-.4-2.102-.6m-61.43 8.1c2.651 14.5-9.505 37.8-16.818 49.1-3.29 4.9-5.302 5.5-10.33 7.8-1.737 4.2 1.372 7.3 3.931 9.3l2.377 2c3.565 2.9 15.174-9.1 19.653-10-2.468 6-8.41 20.4-14.81 22l-2.01.2c-7.953 4-.823 12.4 3.748 14.9l2.194-.7c4.845-4.5 13.894-13.5 19.653-15.3-3.29 5.3-5.301 6.9-8.775 12.2 6.125-4.4 10.33-8.9 15.45-13.6 2.833-2.5 3.564 5.1 6.398 2.7 5.302-10.1 2.924-19.4-3.931-26.5-1.554-.4-3.11-.9-4.389-2.2 2.011-3.8 5.668-10.4 9.873-16.5 1.646-2.5 3.109-4.7 3.932-5.6 1.37-3-.915-12-4.023-11.1-15.266-2.2-1.372-18.9-22.122-18.7m36.383 4.7-.457.6c1.463 4.7 2.103 7.4 2.103 8 0 3.3-4.663 11.4-6.492 11.4-.64 0-1.004-.4-1.096-1.6h-.639q-1.235 3.6-1.921 5.7c-.823 2.2-1.278 4.1-1.278 5.3 0 2.2 1.918 5.1 3.563 5.1 1.28 0 3.201-1.4 5.12-3.5 3.2-3.5 6.125-6.5 8.685-9 5.942-5.7 7.86-8.4 7.86-10.8 0-2.5-4.204-8.2-7.221-9.8-1.737-1-4.022-1.4-6.947-1.4zm-22.176 13.023c.743.085.785 1.952.328 5.577-1.828 8.2-6.032 14.9-9.323 22.2-1.097 2.5-9.05 3.1-11.701 3.8 4.844-10.5 12.34-20.5 18.557-29.8.994-1.237 1.693-1.828 2.139-1.777m41.463 4.676c-.365 0-1.005.4-1.737 1l-.457.801c.457 2.4.641 3.3.641 4.5 0 5.9-9.965 22.7-17.552 29.6-2.925 2.5-3.838 3.9-3.838 5.7 0 .8 1.28 5.9 2.103 8 .822 2.3 2.559 4.1 3.838 4.1.823 0 1.92-.6 2.743-1.6 6.673-7.1 8.683-8.7 16.179-12.6 3.839-2.2 15.449-6.5 17.277-6.5.823 0 1.462 1 1.462 2.2 0 1-.364 1.8-1.278 3.1l.182 1c1.737.6 1.737.6 4.022 2 2.377 1.4 2.376 1.4 2.559 1.4.64 0 1.645-.6 2.285-1.4 1.097-1.6 2.926-8.6 2.926-11.6 0-5.5-4.205-10.6-16.91-20.8l-.458.6c.366 3.9.365 3.9 2.559 10.6.365.6 1.006 2.5 1.646 4.5-6.582 1.4-14.534 3.9-21.116 7.1l-2.103.4c0-.4 1.28-2 3.747-4.7 10.33-11.4 10.33-11.4 10.33-13.7 0-4.5-5.942-13.7-9.05-13.7m-45.796 34.301c1.736 2.4 2.011 5.6 2.194 8.7 0 2.1-8.135 4.8-9.69 5.1 2.469-4.5 5.119-9.1 7.496-13.8M-49.49 451c-4.022 0-7.221 1-13.346 4.5l-.366 1c11.335 4.3 12.432 4.9 12.432 5.9 0 .8-.64 1.6-1.737 2.5v.8c1.097.2 1.462.4 2.742.4 10.147 0 11.61-.6 11.61-3.5 0-6.5-5.028-11.6-11.335-11.6m-33.09 1.6c-2.377 4.1-3.2 7.2-3.2 12.3 0 7.2 3.748 13.9 7.77 13.9 1.097 0 2.102-2 2.559-5.7 1.005-6.5 1.737-7.8 7.13-14.5l-.366-.6c-3.565 1.6-4.844 2-6.58 2-2.469 0-3.749-1.5-6.308-7.2zm-18.376 9.6-.364.8c2.103 12.3 3.747 17.8 7.13 23.7 5.118 8.8 15.174 14.9 25.046 14.9 8.684 0 18.832-2.9 23.585-6.7 1.28-1 2.286-2.9 2.286-4.7-.092-2.1-1.373-4.7-3.293-6.5q-2.605-2.4-5.484-5.1c-1.006-.8-4.022-4.5-8.867-10.2-.457-.8-2.102-2.5-3.747-4.5l-.641.2c5.942 17 7.222 21 7.222 23.1 0 1.2-.365 1.4-1.645 1.8-6.49 1.6-6.765 1.6-10.33 1.6-11.335 0-19.195-5.7-23.035-16.6l-2.378-6.9c-.365-.8-.638-1.6-1.278-2.2-1.006-1.4-1.921-2-4.207-2.7m-11.974 3.6-.64.8c.64 3.7 1.006 5.5 1.006 7.8 0 2.4-.365 4.5-1.005 6.5-1.463 4.5-1.462 4.5-1.462 7.1 0 6.7 3.746 13.9 7.129 13.9 1.92 0 3.838-4.5 3.747-9-.457-12.9-.457-12.9-.457-13.7 0-2.9.183-5.3.823-10.8l-.73.1c-.64.8-.824 1-1.098 2-.64 1.2-.64 1.2-.823 1.2 0 0-.182 0-.182-.2l-.823-1.2-1.28-1.6c-.64-.6-1.737-1.6-4.205-2.9m-16.802.815a3 3 0 0 0-.657.084c-1.097.5-2.377.5-3.566.5l3.566 4.701c-.457 6.5 3.748 8.4 6.398 14.7h1.372c7.057-10.77-2.411-20.087-7.113-19.985m-13.273 6.584-2.467.201c1.097 3.3-1.28 7.8-.457 12.2.274 2.7 2.65 11.1 6.124 9.3 1.554-.7 2.195-17.1 2.469-20.2-1.828-.9-1.92.4-3.018.9-.822-1.1-1.737-1.8-2.65-2.4m-17.094 6.8c-2.194 8-5.577 18.7 1.553 28 1.097-2.9 2.195-6.2 2.926-9.6 1.28-5.1 1.097-10.5 2.01-15.6-4.113 2.3-3.198-2.8-6.49-2.8" class="b-r2b"/>
		</svg>
		<svg id="t_g8" viewBox="-190 430 180 20">
			<path fill="#bfaa52" d="M-42.044 511.3c-5.236 1.5-5.58-.8-9.958-2.1-9.185-3-19.658-4.2-29.186-3.9-15.624.6-42.578 4.1-56.142 11.8-4.893 2.8-8.326 3.7-13.734 2.8-1.03-3.5-11.847-12.4-2.576-14.2l39.145-7.9c5.064-1.1 9.872-6.5 10.988-11.4-4.207.9-11.847 5-15.796 3.1-4.034-2-11.33-6.8-12.018-11.8 1.546-2 25.067-4.8 30.217-6.6.344-1.8-.171-9.8-2.918-9.8-10.988.2-12.705 2.6-23.779-1.8-.687-1.5-.687-3.3 0-5 7.297-2.9 14.765-5.7 22.577-6.8 4.378-.7 8.842-.2 12.876-1.8 5.923.7 15.28-1.7 18.628 5 3.863 7.6-6.953 7.2-11.675 7.6-1.373 3.3-3.262 6.8-4.034 10.5 3.262 0 6.266-1.7 9.528-1.5 4.378 2.6 6.095 7 7.64 11.6-2.06 6.1-15.966.7-17.94 5.5-1.203 3.1-1.718 6.5-2.233 10 2.576.4 5.58-.4 8.155-1.1 11.847-2 23.092-.9 34.767 2.6 5.923 1.7 7.296 4.5 10.13 9.9 0 2.4-.687 4.1-2.662 5.3m-30.903-77.5c-3.692 5.3-9.014 1.5-12.19 6.3-7.983.9-15.28 1.7-23.092 4.6-4.206 1.7-7.811.6-11.846 1.7-9.185-4.2-6.782-31-16.31-41.1-.859-2.9-1.889-5.9-.859-8.8 7.984-4.6 24.38-13.1 27.813-21.9 1.374-3.5-8.67-8.3-.686-11.4 9.872-3.9 12.533 6.6 17.77 12.5.17 2.8-2.061 5.2-1.89 7.2 10.645-4.4 21.89-.7 30.217 6.5 3.262 2.8 7.984 9.8 6.61 14.2-1.116 3.7-13.134 26.9-15.537 30.2m-57.086-33.9 8.499 7.9c1.373-5.2 5.58-8.8 7.125-13.8-5.151 1.5-10.903 2.9-15.624 5.9m28.93-3.9c-3.263-.9-6.61-2-10.044-1.7-2.576 4.2-4.722 10.5-5.752 15.5 6.267-1.8 12.361-4.1 18.456-6.1 4.893-4.6 15.967 1.7 15.795 8.3-8.498 8.7-17.94 4.8-24.894 10.9-2.575 1.5-2.919-.6-2.575-2.4-1.717-1.1-4.207-2-5.752-3.5-.343-.4-.858-1.1-1.373-1.1-1.03 5.7.171 12.5 1.03 18.3 8.498-2.6 27.126-9.4 35.11-8.3 3.262-10.5 9.872-21.9 5.751-33.2-11.503 2-12.447 7.4-25.753 3.3"/>
		</svg>
		<svg id="t_g9" viewBox="-190 430 180 20">
			<path d="M-39.553 448.9c-10.231 2.6-7.473.4-17.081 1.2-17.793-8.7-31.315-34.8-48.307-45.3l-7.561-5.7c-5.605 8.3-13.612 23.3-19.038 31.6 5.426.6 32.293-5.9 35.851-9.2 4.004-.4 5.427 3.1 8.274 3.1l.712.4c3.825 2 13.344 9 3.38 11.8-2.313.6-5.782.4-8.273.7-8.452 1.5-16.547 4.6-24.109 8.7-2.847-.4-5.783-.9-8.273-2.2-6.673 10.9-10.854 9.2.177 19.7 7.384-3.3 26.511-15.7 32.65-16.4 7.383-.9 19.126 6.8 20.906 14.2 1.245 5.2-3.203 6.6-5.427 10.3-3.203 5.3-5.783 11.6-7.562 17.5 1.246 3.7 5.605 5.3 2.669 9.8-5.249 7.9-14.234-.4-20.906 1.7-4.715 1.3-8.985 2.4-14.056 2.4-1.068 2.2-2.135 4.4-3.825 6.5-10.231 1.1-11.743-23.2-16.725-29.5-.89-6.1-4.36-11.4-1.424-17.5.356-7.4.712-15.9 7.206-20.5l1.602-3.3c-1.78-1.3-4.004-2.8-6.139-2.8-9.875 13.3-13.433 21.3-28.557 28.7-1.601.2-3.47.6-3.825-1.8 1.78-4.2-.712-7.3 2.224-9.2 2.669-2.3-.89 6.2 7.295-6.8 10.053-18.8 22.863-35.9 33.717-54.2 3.202-5.5 5.604-11.6 8.985-17.1.356-2.2-2.135-3.9-3.38-5.5 1.067-3.7 4.18-2 7.027-1.5 4.181-2 11.031 3.9 12.633 7.7 1.601 3.5-1.068 5.5-3.025 8.1-2.49 1.1-3.647 4.1-4.537 6.3 5.427 1.1 9.608 5.9 14.234 8.9 4.715 2.9 9.163 10.2 13.344 13.7 10.587 9.2 12.188 12.4 23.753 20.3 7.562 5.3 10.23 7.3 12.722 10.3 1.779 1.1 5.426 3.8 2.669 4.9m-81.579 25.9c-.356.7 2.491 16.2 3.025 18.4 6.316-1.3 14.59-4.4 20.194-7.9 2.491-5.5 6.495-12.4 7.028-18.6-4.448.9-28.645 4.6-30.247 8.1" class="r-r2b"/>
		</svg>
		<svg id="t_g10" viewBox="-190 430 180 20">
			<path d="M-40.44 479.8c-1.246-.4-1.96-3.5-2.672-4.6-2.316-7.4-5.077-14.7-7.927-22.1-1.782-.2 0-4.1-4.187-3.9l-.89 2c1.96 7.7 2.494 25.4-2.85 31.9-6.681 8.1-40.53 11.1-42.133.7-1.069-7.2 6.146-20.1 9.353-26.5 1.069-2 4.899-10.1 7.393-10.5 5.7-9.9-1.514-15.2-11.223-16 1.247 1.4 1.692 3.4.267 5.5-1.425 2.2-3.118 4.7-4.632 6.8-1.069 1.6-1.603 3-2.85 4.5-.713 2-1.604 3.9-2.584 5.5-3.384 13.1-13.36 24.7-7.036 38.9.712 1.7 1.96 3.9 3.206 5.2 9.71 10 34.74 8.3 47.744 5.3 7.215-1.7 14.43-3.5 21.289-6.8 2.761-4.8 2.761-11.1-.267-15.9" class="g-r2b"/>
			<path d="M-123.635 402.4c-2.494 2.4-6.858 5.7-8.818 7.9-.713.9-.178 2 1.069 1.7 2.85-1.3 6.324-3.5 9.174-5 10.6-5 21.111-9.8 30.464-17.1 2.316-1.8 4.364-2 7.037-2.8 3.206-.9 4.899-2.6 6.146-5.7 2.316-6.1 1.425-7.6-2.316-12.5-1.069-1.8-9.531-2.8-11.936-2.9-2.672-.2-2.672.9-5.077 1.8-4.009 4.2-24.14 12.7-29.93 12-2.493-.4-4.72-.6-7.214-.4 1.781 5 4.543 9.6 6.146 14.6 2.405 1.6 6.77 5.1 5.255 8.4" class="r-r2b"/>
			<path d="M-121.319 441.1c-1.069 2.5-15.41 20.5-17.191 23.7-4.008 4.8-11.58 18.2-18.617 16.7-1.781 4.8-3.028 10-2.137 15.1 2.137 2.6 3.206 3.3 6.502 2.4 8.284-2.2 26.188-36.9 30.107-39.1 1.247-2.4 4.276-6.5 7.75-10.6.356-.6 7.036-9.3 7.393-10 4.453-11.1-6.503-2.2-13.807 1.8" class="b-r2b"/>
			<path d="M-62.886 408.1c-1.782-3.5-4.9-3.7-7.571-5.7-4.009-.2-11.58 0-14.787 2.2-1.603 3.5-6.324 7-9.709 8.8-1.603.9-3.652 1.5-5.255 2.2-5.256 2.2-10.244 4.6-15.321 7-4.72 2.2-31.354 16.4-36.075 11.8-1.247-1.3-.713-3.7.534-5-4.364-1.5-4.364.4-6.502 2.9-1.069 9.8.98 14.3 9.264 19.3.445.6 2.672.8 3.74 1 1.604-.3 6.503-2.5 7.75-3.2 13.005-7.9 16.657-8.4 30.107-15.2 1.336-.7 5.167-2.3 8.462-3.5 1.604-.8 3.296-1.5 3.83-2.3 1.96-3 12.115-6.3 15.856-8.5 1.069 0 1.96-.6 2.672-1.3 5.968-1.6 14.252-2.2 13.005-10.5" class="r-r2b"/>
		</svg>
		<svg id="t_g11" viewBox="-190 430 180 20">
			<path d="M-48.123 465.1c-8.204-1.1-12.981-2.7-21.185-2.7-2.524 0-21.905 0-24.52-.3-24.068 4.6-34.705 12.2-57.151 18.7-7.482 2.2-8.925.6-15.866-2.2-.54-2-.54-4.1 0-6.1 3.065-2.8 7.662-2.2 11.539-3.3 4.597-1.5 29.027-8.7 30.108-8.9 1.262-.6-8.203-6.6-7.482-7.6-2.524-4.4-.36-7.6 5.319-5.3-4.057-7.2-8.203-18.2-6.941-26.9l.901-3.5-2.163-1.1c-3.065-1.5-6.22-3.9-8.384-6.5-1.623-1.7 0-6.8 3.245-4.4 11.72 1.7 22.897-4.6 30.92-5.2l.09-5.9c-2.524-.2-16.947 6.1-18.93 4.6l-2.344-.4c-4.057-4.4-8.023-6.3-11.719-11.1l-1.172-1.9c1.983.7 2.795 1.2 5.319.8l6.76-.9c2.885.7 7.302 1.1 9.826-.7 5.32 0 7.032-1.2 11.54-3.7.54-3.3.27-5.1-1.083-7.9-1.712-3.3-4.687-2.4-5.408-6.3-.902-3.7-.812-4.7 3.425-5.4 1.442-.4 2.885-.6 4.417-1.5 11.539 3.1 12.8 3.3 14.964 15.1 1.262.4 12.71-3.6 13.973-3.6 5.68 4.2 6.941-2 9.826 8.3-.902 1.7-.541 4.6-3.426 3.9-3.425.7-17.398 4.1-20.012 6.7-4.778.4-5.319 7-3.426 7.6 1.803.7 11.269-3.3 13.072-3.8 5.679 2.2 8.563-.2 12.44 6.1 1.983.6.901 3.1 1.081 4.4-5.138 3.5-19.38.4-23.167 3.7-11.9 2.9-22.266 6.6-33.985 10.5-.901 1.3.36 2.6.902 4.1.36.4 1.622 2 1.803 2.6 1.442-2 4.236-2 6.22-2.9 4.597-1.7 24.249-7.1 28.305-8.9 3.696-1.7 19.382 4.1 16.046 12.9-1.803 4.8-4.327 9.1-7.121 13.2 5.95.9 6.76.3 9.465 4.1.901 3.3-6.761 7.7-4.778 8.7 9.646-1.1 13.252-2.2 27.404-1.1 9.105 1.5 9.285 4.4 10.998 11.2-1.082 2.5-7.302 5-9.645 2.8m-28.396 47.3c-3.065.4-2.885-.2-5.86-.7-2.884-1.1-12.08-.9-14.062-.2-7.482 0-16.587 3.1-21.545 6.8-7.482-1.8-7.122-8.7-11.358-13.5-.902-8.8-7.843-19.7-3.696-27.3.36 1.3 8.924 2.4 10.006 3.1 4.597-3.1 9.645-1.8 14.062-5.2 1.984 0 9.285-2.8 11.179-3.5 6.58-2.4 14.783-2.4 16.045-.6 2.164.4 3.426 2.6 5.68 2.6 9.825 12.4 5.679 12.7-.541 25.4 0 4.4 3.425 3.5 2.343 8.5-.18 1.5-2.433 3.2-2.253 4.6m-31.01-84.3c-2.705.9-8.744 2.7-13.792 2.7-1.803-.6 2.343 5.2 1.802 6.5.361 2.2-.36 3.5 1.533 3.8.901-.9 12.17-4.6 13.251-5 3.065-.7 13.883-.1 15.956-2.8 1.983-2.7 3.786-8.3-1.983-10.2-3.967.4-13.792 4.3-16.767 5m18.66 55.4c-6.58-.9-22.807 6.1-31.551 6.3-.54 3.3 3.696 8.3 3.876 11.6 1.082.6 4.778-.7 9.105-.9 4.237 0 10.186-.4 12.98-3.5 4.779-.4 6.762-5.3 5.68-9.8-.27-.6.09-4.1-.09-3.7m-27.765-33.3c-.721 1.5 3.245 5.7 3.426 7.3 6.04-1.8 18.3-3.4 24.339-4.9.36-2.4 1.983-6.9 1.983-9.3-19.11 1.5-22.897 6.4-29.748 6.9" class="b-r2b"/>
		</svg>
		<svg id="t_g12" viewBox="-200 430 180 170">
			<path d="M-92.948 430c-1.084 3.9.725 7.702-.36 11.602.723 6.3-3.436 11.599-7.323 16.199-14.1 17.5-25.218 35-47.997 42-2.53.6-5.693 2.4-8.405 1.3-2.35 0-4.249 1.3-5.695 3-1.356 4.2 4.52 3.5 4.881 7.2 4.249 3.9 9.49 6.099 15.547 5.699 6.417-2.9 11.028-7.899 17.898-10.299l-1.356 1.799c2.26-1.1 4.7-1.998 6.78-2.898 2.982-1.4 5.875-2.9 8.948-4 2.802-1 5.604-.901 8.315-1.801.633-.2 1.176-.3 1.718-.2 3.616-2.9 7.503-5.5 11.66-7.9 4.972-2.8 8.949-5.901 8.768-12.201-6.237-2-11.932-2.599-18.35.201-1.627 3.1-9.852 5.299-13.197 6.299 1.627-1.7 3.075-3.899 5.154-5.299 8.225-12.2 23.41-19 32.992-29.9 3.706-4.4-4.43-11.201-7.683-13.801-3.435-3.1-7.323-6.1-12.295-7m-21.511 16.5c-4.249 4.1-14.825 17.002-21.062 10.102-2.712-2.8-2.891-4.602-7.501-4.202 6.417 5.2 1.083 8.302 2.62 14.202-1.085 1.5-.362 3.498-.542 5.298 1.265 3.1 4.43 7.401 6.599 9.801 9.49 10.5 13.378-3.7 10.757-10.3.542-6.3 6.598-12 9.129-17.5-.181-3.1.903-3.701 0-7.401" class="r-r2b"/>
			<path d="M-125.307 526c3.164-1.3 5.153-6 4.43-8.3-.633-2 .361-3.1-1.989-4.3-.362-.2-3.887-1.7-3.164-1.5-4.338-1-5.062 1.4-6.689 4.3-2.711 3-4.61 3.9-7.05 7.1-1.175 1.6-2.892 3.1-4.158 5.2-.361.3-.994 2.2-2.079 2.7l.09.1c-6.146 8.3-14.371 15.3-19.614 24.1-1.898 0 1.537-8.8 1.717-10-4.52 5.9-4.067 7.7-6.689 14-5.423 3.3-4.067 8.8-5.785 14 1.085 1.3 1.899 2.8 3.887 2.6 1.447-1.5 3.706-1.8 5.243-3.3l18.71-18.6c1.447-1.5 2.26-4.1 4.34-4.4.542 5.7.36 11.2-.905 16.8-5.604 5.3.724 24.7 8.045 25.8 4.068-9.6 3.887-29.7 9.672-36.3.452-1.7 1.446-4.2 2.712-7.2q0-1.5.27-3c.182-.9.453-1.7.724-2.5.18-.6.271-2.7.542-1.4-.271-1.3-.09-2.5.362-3.5-.181-.5-.181-.9-.271-1.4l-8.678 15.3-.542-1.1c.18-4.2-.362-8.8-2.983-12.2 2.26-5.1 3.706-5.9 9.852-13" class="b-r2b"/>
			<path d="M-47.3 570.8c-4.158-6.1-5.423-18.6-8.316-21.9-1.085-1.5-2.26-9.6-6.78-12.5 1.447 9.2 1.9 20.6.182 29.7-8.135 12.5-40.405 10.3-40.585 1.1-.452-31.8 27.568-34.8 27.568-53.6-3.977-5.7-.813-15.3-16.54-14.4-1.628 1.7-3.345 1.1-5.334 3.5l4.79 1.8c1.809 2.9 1.266 6.8 1.085 10.1-1.898 3.7-7.683 16.3-10.575 19.3 1.627-10.8-1.898-17.4-7.05-18.3-3.707-.6-5.966 2-8.678 4.4-1.446 2.6-2.712 9.1-2.802 12 1.175.2 2.26-5.3 3.706-7 1.537-2.6 2.802.9 2.802.9-.362 6.1-.633 23.5-.994 24.7.452 6.5-1.718 12.5.452 19.3 5.965 19.4 25.128 19.4 40.042 17.7 8.045-.9 17.084-1.8 23.863-7 2.712-3.8 2.983-7 3.164-9.8" class="g-r2b"/>
		</svg>
		<svg id="t_g13" viewBox="-190 430 180 20">
			<path d="M-39.335 454.3c-4.318-3.3-11.191-7-14.011-7.1-14.276-.8-26.789-18.5-41.417-16.1.44-2.3-.705.2.529-3.1 10.75-4.4 23.704-2.2 35.16-2 7.138-5.3 1.762-7.6-1.586-12-7.138-4.6-18.065-.6-25.908.4 2.996-2 20.18-10.5 20.709-12.2 1.41-3.5-2.468-6.6-3.173-10-2.82-1.5-4.494-5.2-8.195-4.8-3.965 4.6-10.31 3.5-15.333 5.9l-5.552-5c7.138-3.1 15.157-3.7 22.295-7.2 1.234-1.7 1.234-3.5 1.41-5.3-1.586-5.5-6.962-9.6-12.337-11.4-14.1 10.3-31.724 17.1-47.674 24l-1.057 2.2c2.82 3.5 5.728-.9 7.314 2.2 6.785-.4 13.394-1.8 20.18-3.1l-.176 1.1c-3.173 4.1-.353 4.1.352 7.9-8.195 3.7-16.39 7.9-25.379 10-.529-1.7-.881-3.3-1.41-5h-4.318c-2.82 1.5-.352 3.9-1.762 5.5.529 6.6.176 14.6 4.494 20.1-8.371 5.7-20.532 8.3-29.961 12.4 2.115 4.4 6.256 6.5 10.486 8.1 8.372 3.1 16.567-5 23.176-9 .353-.2 3.613-2.2 4.142-1.7.529.7-.881 2.4-1.234 2.9-7.49 11.6-15.685 24.1-26.965 32.1-2.467 1.7-5.552 1.8-6.785 5l4.318 1.1c9.957-5.4 13.13.7 25.202-13.8 1.675-1.9 18.153-24.5 23.881-33.4l1.763-.9c-.265 7.6-.617 15.3.176 22.9.264 1.4 2.379 4.2 3.084 4.1 1.057-.3 2.732-1.5 3.965-1.2.617.2 4.583-2.7 5.023-4.2.088-3.3.441-17.6 1.146-20 3.79.9 10.398 9.7 13.923 11.2 10.575 4.3 16.126 16.3 26.877 16.5 5.023.2 4.406-1.6 9.517-3.8 2.996-2.8 5.64-1.6 5.111-3.3m-51.991-58.4c3.348-.6 6.961-2.2 10.31-1.3-2.291 5-8.548 13.1-12.337 17 .264-4.6 3.084-11.8 2.027-15.7m-15.157 20.7c-1.586 2.8-18.594 9.2-22.119 9.8-.528-.2-1.762-.7-1.938-1.1 5.375-6.5 11.632-12.2 18.417-17 .705-2.6 3.613-3.1 5.728-3.3l.705 1.5c-.264 1.8-.088 9-.793 10.1" class="r-r2b"/>
			<path d="M-99.61 456.9c-2.026-.1-6.433-.9-12.777 3.8-4.054 4.5-11.632 6.8-14.805 13.2l.089-2.4c.264-1.8-.441-6.9-.794-7.6-1.586-2.6-.793-4.7-3.084-4.4-1.586.4-5.199 5.3-5.904 7.3-2.291 13.1 2.115 32.6 11.28 41.9 2.115 2 6.961 4.4 9.605 5.9 7.314-2.4 14.452-6.1 22.294-6.3 2.82 2.6 3.35 6.8 5.376 10 2.291.7 4.318 1.7 6.433 1.8 15.861-9.6 15.509-29.7 20.708-45.2 2.115-6.3-3.79-8.3-5.375-13.5-9.87-5.8-21.766-6.9-33.046-4.5m-13.482 35.3c2.115.7 4.494.9 6.433 2-3.349 3.5-8.548 6.3-12.866 8.5-3.172-7.6-3.613-15.9-5.728-23.8 1.41-2.6.176-5.3 3.79-5.9 5.022-.6 9.78-2.4 14.98-2.4l.176 7.9c-5.728 1.5-11.28 3.9-17.095 4.8.352 5.5 7.842 5 10.31 8.9m30.93 9c-4.141-2.6-11.28-5.7-16.214-5.3 1.586-6.5 14.804-7 13.394-12.9-3.613-2-5.551-5.3-10.134-5.2-.176-5.5 2.82-7.9 6.962-10.7 2.996 0 10.75 0 13.042 1.1.264 11.4-2.467 22.7-7.05 33" class="b-r2b"/>
		</svg>
		<svg id="t_g14" viewBox="-210 430 180 140">
			<path d="m-132.967 430-3 .4q-7.278.15-7.145.899c.088.5.264.9.528 1.3.265.4 9.704 1.801 9.704 8.801l.176 2.2c-.706 3-1.147 8-8.38 16.8-8.028 9.8-25.494 32.4-28.494 36.6-2.558 3.6-3.088-1.9-5.293 4.6-.53 1.6-1.413 6.5-.53 7.3 1.587 1.4 4.234-.1 4.676-.3 2.734-1.1 8.116-4.501 10.586-6.301 1.323-1 3-3.1 4.41-5 3.177-3.9 14.116-19.099 16.762-21.299 2.823-2.4 5.382-5.7 8.646-7.8l9.263-9.2 6.792-9.3c1.5-5 .618-7.3-1.058-9.6 0 0-.97-1.501-6.175-4.801s-9.087-5.099-11.468-5.299m29.2 13.299c.088.3 5.91 1.201 7.94 5.701.793 1.8 1.057 4.9.175 5.7l-2.381 6.2c-.265.2-3.353 5.9-5.293 9-1.941 3.1-6.706 7.6-9.088 10.7l-6.439 9s-9 11.5-13.763 18c.088 0-6.88 8.199-6.88 8.199l-6.794 6.701c-1.764 2.8-2.998 4.9-3.792 5.5s-2.912 4.2-2.912 4.2c-.265.5-3.793 4.1-7.233 9.3l-4.676 2.5c0 1-5.116 2.1-5.47 2.2-.264.1-.706.6-1.147 1.3l1.06 4.1.176 7.6c0 1.6.44 3.2 1.41 4.8.971 1.6 3.53 1.7 7.677.2 3.705-1.6 15.613-4.2 18.79-6.1 3.175-1.8 5.557-2.1 7.41-2.6 1.852-.6 17.909-4.8 17.909-4.8.706-.5 4.587-.801 4.852-.901s2.294-.499 5.293-1.299c3-.7 4.94-.6 7.145-.8 2.206-.1 3.352.1 4.058-.1 1.676-.7 3.794-1 4.235-.9.353.1.44 2 .97 3l.705 4.599c0 .7.265 1.601.706 2.601 0 0 8.733 10.3 10.762 9 0 0 4.853-2.7 5.912-4.4h1.411l1.764-4.201-.44-9.7c0-.7-1.59-9.699-1.59-9.699-1.764-3.9-3.352-10.9-5.292-13.2-1.941-2.3-5.734-10.201-8.645-12.901-2.823-2.8-5.91-5.199-9.175-7.399-3.264-2.1-7.675-6.3-10.41-8.3l12.969-15.7c1.147-1.1 6.262-8.5 6.88-10.3.617-1.8 2.56-3.8 2.824-5.2 0-.7 2.205-3.1 1.499-4.8l-.176-2c1.412-3.1.353-3.6-6.616-8.5-6.97-4.9-8.47-5.6-9.882-6s-3.704-.301-6.439-.301m-3.882 55.8 5.027 8.6 1.765 4.1c.264.7 2.824 7.201 2.824 7.201l1.764 4.6c0 .7 1.499 4.9 1.499 4.9l1.589 7c-5.029.6-10.676 0-13.852-.6s-5.468-.9-6.792-.7c-1.323.1-15.526 2.8-15.526 2.8-2.735.2-10.674 2.1-11.027 2.2-.265.1-5.557 1.9-6.263 1.4z" class="r-r2b"/>
		</svg>
		<svg id="t_g15" viewBox="-190 430 180 20">
			<path d="M-59.5 429.8c-4.016-.7-8.03 1.2-12.046 1.2 0 4.3-2.532 8.5-.96 12.6-1.135 5.2.174 10.5-.611 15.6.96.2 3.491.2 4.19-.7 5.15-1.4 11.347-3 15.1 3 2.532.5 2.27 2.8 4.19 4.1 1.31 2.5 2.27 3.9.96 6.9-3.054 3.4-4.975 2.8-8.816 2.7-7.681-2-16.497-.9-23.393 2.8-2.88-.5-5.936.2-8.38 1.8-1.571 2.1-8.816 2.1-11.26 1.8-2.27-1.4-8.642-8-7.682-11 2.27-1.4 5.761.2 6.896-1.8 4.365-1.6 9.34-3.7 13.792-5.7 1.484-.7.96-2.8.96-4.3.175-4.3 1.135-16.9.35-20.3-2.532 1.4-7.071 3-8.992 5.5-3.666 1.8-6.546-1.1-9.776-3 0-1.2-3.23-2.5-4.015-2.8-1.746-.7-2.881 2.3-5.762 1.6-.96.4-1.745-.5-2.706-.4-1.745 0-3.23 2-4.8 2.5-2.095 2.7-5.325 5.5-4.976 9.6.35 3 1.31 5.9 1.484 9.1.35 6.6-.524 13.1.35 19.9-1.485 6.2 3.84 12.3-.961 17.9-2.444.9-3.404-.2-5.15-1.8-1.31-3.7-2.88-7.3-4.365-11-3.84-4.3-1.134-10-1.309-14.9 0-7.3 1.571-14.8-.175-22-.96-.7-2.53-2.5-3.404-2.7-2.444 2.1-4.452 4.8-6.285 7.6-1.484-.2-2.27.9-3.23 2-6.284 6.2-7.332-12.3-3.84-17.6 6.11-.4 15.363-25.8 19.727-31.1 3.666-11.7 6.722-11.4-.523-22.9 4.364-3 17.196 8.4 19.116 12.6.35 2.7 1.92 3.9.786 6.8-2.445 7.1-6.722 13-10.126 19.7-2.531 2.1-8.03 10.3-10.126 13.5 0 2.7 3.841 5.7 4.801 8.2.35.4 1.135.9 1.31 1.4 5.935-13.5 34.13-16.5 44.08-25.1.525-14.9 2.096-22.6-3.229-37-.96-2.7-1.135-6.6 1.571-8 1.484-.9 2.881-1.2 4.627-1.2 16.847 5.5 7.245 24.5 10.387 38.2 5.412 2.7 10.562-4.8 16.498 0 4.452 3.7 9.34 5.3 7.681 12.8-.872 6.1-8.38 2.5-11.958 3.9m-24.18-48.7c-4.015 2.1-1.57 5.7.175 9.1z" class="b-r2b"/>
		</svg>
		<svg id="t_g16" viewBox="-190 430 180 20">
			<path d="M-160.398 454.8c1.522 1.9 2.596 2.7 3.67 2.7.537 0 1.343-.4 2.596-.9 1.522-.9 5.013-2.3 10.026-4.2 2.596-.8 11.1-4.6 19.962-8.7V429c-4.834.6-6.624 1.7-18.172 11.6-7.25 6.1-9.489 7.8-13.875 10.1l-.895-.6c1.074-1.1 1.88-2.3 2.417-2.7 5.013-6.1 6.266-7.8 7.967-11.8-7.25-6.6-9.847-9.7-9.847-11.9 0-1.1.18-1.7 4.028-6.8 2.417-2.8 3.67-4.4 3.67-4.4.359-.4 3.313-8.2 4.029-9.9 1.074-3.4 1.521-5.9 1.521-9.3 0-4.7-.358-5.9-2.058-8.3l.358-.9c1.074-.4 1.88-.8 2.417-.8 1.7 0 5.55 2.1 8.145 4.4 2.775 2.5 4.655 6.1 4.655 9.1 0 4.6-2.059 12.3-5.192 19 1.343.6 2.238.8 2.775.8.895 0 2.596-.6 4.834-1.1 1.074-.4 2.775-.9 4.834-1.5l.537-16.3c.179-2.8.179-7.2.179-13.3 0-6.4-.895-8.5-5.37-11.6v-1.5c2.237-.8 4.296-1.3 5.728-1.3 6.266 0 15.039 9.9 15.039 16.9 0 2.7 0 2.7-2.596 14-2.238 9.7-4.118 24.1-4.118 32.4v1.5l.18 11c2.058.8 2.416.9 4.117 2.1 6.445 0 12.263-1.9 27.928-8.3 6.267-2.8 6.625-2.8 11.816-4.7v-1.5c0-4.7-.716-6.3-4.117-10.2-14.412 14.2-21.842 19.2-28.914 19.2-3.49 0-5.729-1.9-8.325-6.8l.538-.6c1.253.4 2.058.6 2.596.6 3.67 0 6.624-1.9 14.411-9.5-4.296-5.1-4.833-6.1-6.445-11.6l-2.954.2c-1.7.4-3.133.6-3.49.6-.538 0-1.343-.2-2.597-.4l-.179-1.1c4.655-3 6.266-4.9 9.668-10.6 7.43-12.5 11.637-21.8 11.637-25.8 0-2.3-1.074-3.8-5.192-7.8l-.179-1.9c5.55-1.3 5.908-1.3 6.893-1.3 2.596 0 6.892 2.1 9.667 4.7 2.417 2.3 3.133 4.4 3.133 9.1 4.297-1.1 6.266-1.7 7.251-2.1.537-.2 1.343-.8 2.775-1.3l2.417-1.3c.716-.4 1.522-.6 2.596-.6 2.775 0 3.67.6 10.205 7.8 3.49 3.6 4.475 5.5 4.475 7.8 0 2.5-.537 3-5.55 6.8-.895.4-3.849 3.4-6.713 6.6-1.522 1.7-6.087 6.8-11.1 12.1 2.238.9 4.118 1.9 4.834 2.3 6.087 2.7 8.325 5.1 8.325 9.3 0 .9-.18 2.1-.358 3.4 4.117-1.3 6.624-2.1 7.787-2.1 3.67 0 3.581 2.2 7.43 5.6 2.596 2.5 3.67 4.2 3.67 6.6 0 2.8-2.238 4.7-5.729 4.7-1.074 0-4.117-.1-6.087-.1-1.7 0-4.028.2-7.071.4-.18 7-.358 12.3-.358 15.7 0 4.9.179 11.6.537 19.3.179 4.4.179 8.2.179 11.2 0 12.1-3.312 22.6-9.668 29.6-1.7 1.9-2.954 2.8-3.67 2.8-1.253 0-1.522-.2-5.73-6.1-1.252-1.9-3.848-4.9-7.07-8.3l-7.072-7.6c-2.238-2.8-3.67-4.6-10.026-13.3l.179-.9c2.238 1.1 3.67 1.9 4.118 2.1 4.117 2.5 8.324 4.7 12.442 7 3.312 1.7 5.73 2.7 7.072 2.7 3.312 0 4.834-7.2 4.834-23.7 0-6.4-.18-11.9-.895-27.7-2.775.8-4.655 1.5-5.192 1.7-3.67 1.7-7.251 3.4-11.1 5.3-.537.2-3.133 1.3-5.73 2.5 8.147 4.6 11.1 8.3 11.1 13.8 0 3.4-2.416 6.8-5.012 6.8-1.074 0-3.133-.6-5.908-1.5-3.312-1.3-5.73-1.7-13.517-1.9v-.8c4.655-3.4 5.729-4.6 7.788-7.6-.895-1.1-1.343-1.7-1.522-2.1l-1.7-4.4s-.538-1.3-1.254-2.5c-4.028-1.3-4.834-1.9-8.146-5.5-1.253 1.9-1.522 2.1-3.849 3l-.179 32.4c0 17.3-1.7 26.7-4.655 26.7-.895 0-1.7-1.1-2.775-3.8-3.67-8.2-4.834-13.8-4.834-21.6v-1.7l.358-26.4-12.8 6.3c.716 3.6.716 5.3.716 9.1 0 7-.895 11-3.85 17.3-2.953 6.3-5.728 9.3-8.324 9.3-1.522 0-4.028-5.9-4.028-9.9 0-1.1 0-1.1 2.596-4.7 1.253-1.7 2.238-6.8 2.238-10.6 0-2.7-.359-4-1.522-7-5.013-1.9-7.251-3.2-9.489-5.7-2.059-2.3-3.67-4.9-3.67-6.4 0-.9.716-2.5 1.7-4.2zm80.385-43.1c-3.85-3.6-4.297-4.2-7.61-8.3-2.595 3.8-3.132 4.4-5.907 7.2 4.028 2.1 4.655 2.7 8.683 6.3zm-1.433-15.9c5.55 2.3 6.445 2.8 9.847 6.1 5.192-7.8 6.445-10.1 7.609-14.8-1.88.2-3.85.6-4.476.8-4.297.9-7.25 1.7-7.609 1.7l-1.074-.2z" class="b-r2b"/>
		</svg>
		<svg id="t_g17" viewBox="-190 430 180 20">
			<path d="M-54.75 455.3c-10.944.2-20.475 2.5-31.241 4.8l.882-3.2c-4.677 0-40.242 13.3-44.743 16.5-6.178 1.2-20.739 13.7-28.24 11.2-.618-2-1.854-3.4-2.913-5.2-1.235-2.1-1.323-3.9-.44-6.2 3.176-8 13.06-2 17.296-8.4 2.913-.2 18.092-8.2 21.533-10-.794-4.1-3-9.1-2.735-13.3.441-7.8 3.971-14.6 2.47-22.7-6.089-3.2-7.765-11.6-7.148-18.7 6.09-8.9 12.267-13.9 19.68-20.8 1.942.2 2.118-3 3-4.4-.617-2.8-3.353-3.6-2.294-7.5 7.149-1.6 18.18 3.6 21.357 11.7 4.06 10.7-16.856 17.2-21.974 21.5-2.736.7-5.295 2-7.413 3.9 2.735 3.9 6.707 6.4 9.442 10.5 1.236-.2 1.942-3.4 3.972-4.3 7.325-3.7 9.09-11.6 17.915-10.8 3.97.4 5.118 2.3 8.472 3.6 2.912 6.6 8.825 11.6 3.794 18.8-.44 4.4-5.295 2.8-6.089 5.9-1.059 4.6-1.853 9.2-2.736 13.7 7.855-2.5 25.77-4.6 32.035 2.7 1.677 2 2.56 5.7.618 7.8-.53 2.1-2.647 2.9-4.5 2.9m-59.04 30.3c-4.678 5.5-11.826 11.2-11.561 20.1-1.942 2.5-5.119 2.3-7.766 1.2-5.648-2.5-5.119-11-7.149-16.7 1.854-4.3 5.295-6.8 7.855-10.1 1.853-2.7 3.97-8.4 7.324-5.2l1.06.7c-.177 2-2.472 6.8-1.06 8.2 7.414-3.9 14.738-8.4 22.946-9.2.794 3.5-10.237 7.9-11.65 11m17.915-57.6-3.001.4c-1.942 2.5-5.648 3.2-7.766 5.5-2.736 3-3.971 9.6-1.677 13.3 13.061-4.4 6.795-5 12.885-17.4zm24.092 70.4c-2.56-4.8-6.354-8.5-9.266-13.2 1.676-1.8-.177-6.8 3.618-5.9 1.059-1.1-.794-3.7-1.324-4.4-2.56-3.7-5.118-2.8-8.825-3 1.853-2.8 4.06-3.2 7.148-4.1 18.621-6 28.064 24.2 15.18 33.1-2.736.3-4.236-.4-6.531-2.5" class="b-r2b"/>
		</svg>
		<svg id="t_g18" viewBox="-190 430 180 20">
			<path d="M-44.7 453.5c-4.1.7-13.5-1.2-18.1-2-10.6-1.4-21.6-2.1-32.2-.5-.9 18.5-1.1 37-1.9 55.4-.7 2.8-1.1 5.5-3.2 7.5h-1.6v1.1c-10.6-5-5-57.6-8.7-60.1-4.2-2.7-32 11.4-37.2 14.4-3.7 2.3-9 3.2-13.5 3.6-6-5.2-5.8-3.7-5.3-11.7.9-1.6 1.8-3 3.9-3.4.9 1.1 6.7-.4 8.5-.5 13.3-6 26.9-11.6 40.9-16.3.7-4.1-6-7.5-8-11.6-3.5 1.1-11.9 11.7-19.5 14.2-4.1-4.3-1.9-15.8 3.7-17.9 6.2-7.6 12.9-15.1 17-24-6.5 1.6-12.4 5.9-19.1 7.1-5.3-.2-9.4-2-12.6-6-.7-3.7-2.5-8.4 1.1-11.4 1.8-.5 3.5-1.4 5.5-1.4 9.2-4.3 19.8-3.6 28.7-8.9 2.3-1.2 9.6-6.8 9.9-9.1-3.5-4.1-8.3-7.6-11.3-12.1v-2c5.1-.4 18.1-.4 22.7 1.4 1.9.9 2.3 2.7 3.4 4.3l1.2.5c2.5 5.2 1.1 11.2-2.7 15.5 3.4-.7 15.2-4.1 17.3-1.1 3.7 1.6 6.5 4.4 5.7 8.7-5.5 2.5-12.7 6.4-18.8 4.6.4 1.6 4.2 3.6 5.8 4.3 3.7 4.1 3.2 7.8 3.4 13 2.5 1.1 5.8-.9 8.7 1.6 1.8.2 3 1.6 4.4 2.5.2 2.5.4 5 1.2 7.3-3.2 5.5-24.3 19.2-30.6 20.6.2.5.4 1.2.7 1.6 2.1-.5 4.4-1.4 6.5-1.2 6.4-1.6 37.2-5.9 41.1-1.6.4.2.9.4 1.1.4 4.6 1.8 5.8 6 6.7 10.3-1 1.8-2.9 2.7-4.8 2.9m-82-63.7c-3 0-16.8 1.6-18.1 3.9 3.7.4 6.9-.4 10.3.4 2.1-1.4 6.7-.7 8.1-3 .2-.4.6-1.3-.3-1.3m23.5 7.9c-7.6.7-18.8 17.2-13.1 22.6 7.1-1.4 8.3-10.3 11.7-15.5 1.6-2.5 3.7-5 4.4-8-1-.2-2.2 0-3 .9m8.9.7c-9.4 8.7-11 17.9-13.5 29.9h2.8c.2-2.8 1.8-5.2 3.4-7.5 4.6-1.8 11-16.3 11.2-21.3-1.3-.6-2.5-1.1-3.9-1.1m3.7 25.2c-2.3 2.5-4.6 5-7.4 6.8-.4.4-2.1 1.4-1.2 2 3.5 2.1 11.5-5.7 13.8-8-1.1-2.7-3.4-1.5-5.2-.8" class="g-r2b"/>
		</svg>
		<svg id="t_e1" viewBox="6 0 60 40">
			<use xlink:href="#recri2_black_n1"/>
		</svg>
		<svg id="t_e2" viewBox="6 0 60 40">
			<use xlink:href="#recri2_black_n2"/>
		</svg>
		<svg id="t_e3" viewBox="6 0 60 40">
			<use xlink:href="#recri2_black_n3"/>
		</svg>
		<svg id="t_e4" viewBox="6 0 60 40">
			<use xlink:href="#recri2_black_n4"/>
		</svg>
		<svg id="t_e5" viewBox="6 0 60 40">
			<use xlink:href="#recri2_black_n5"/>
		</svg>
		<svg id="t_e6" viewBox="6 0 60 40">
			<use xlink:href="#recri2_black_n6"/>
		</svg>
		<svg id="t_e7" viewBox="6 0 60 40">
			<use xlink:href="#recri2_black_n7"/>
		</svg>
		<svg id="t_e8" viewBox="6 0 60 40">
			<use xlink:href="#recri2_black_n8"/>
		</svg>
		<svg id="t_e9" viewBox="6 0 60 40">
			<use xlink:href="#recri2_black_n9"/>
		</svg>
		<path id="recri2_black_n2" d="M43.9 23.9c-.3.2-.4.5-.4.9 0 .2 0 .5.1.7-2.8.3-19.9 1.9-24.1 1.4l-.5-.1 1.7 6.2.4-.1c3.3-1.2 24.3-2.4 29.3-1.4.8.2 1.3 0 1.5-.4.7-1.3-3-4.6-3.4-4.9-1-1-3.5-3-4.6-2.3m-7.8-11c-2.6.9-6.2 2.2-12.3 2.2h-.7l2.9 4.2 16.7-2.2.5-3.1-.1-.1c-2.4-2.7-4.1-2.1-7-1" class="b-r2b"/>
		<path id="recri2_black_n3" d="M43.7 26.3c-.3.2-.4.5-.4.9 0 .3 0 .5.1.7-2.7.3-19.3 1.9-23.4 1.4l-.5-.1 1.7 6.2.3-.1c3.2-1.2 23.6-2.4 28.4-1.4.8.2 1.3 0 1.5-.4.6-1.3-2.9-4.6-3.3-5-1-.8-3.4-2.9-4.4-2.2M37.3 19 26 20.4l1.6 4.3 12-1.4-2-4.3zM34.9 8.6c-3 1.1-7 2.6-14 2.6h-.6l3.2 4.9 18.9-2.6.6-3.6-.1-.1c-2.7-3.2-4.6-2.5-8-1.2" class="b-r2b"/>
		<path id="recri2_black_n8" d="M24.4 19c0 3.7-4.5 9.2-4.7 9.4l-.7.9 1.1-.3c5.2-1.4 8.2-5 8.3-5.1l.2-.2-4.2-5.7zm5.5-7.7-2 .3.3.5c.1.2 9.3 15.7 10.6 19.3l.1.3.3-.1c2.2-.4 4-.2 5.8 0 2.2.2 4.3.4 6.7-.4l.4-.1-.2-.4c-1.2-2-2.5-2.4-4.2-2.9-3.2-.9-8-2.3-17.3-16.3l-.1-.2z" class="b-r2b"/>
		<path id="recri2_black_n1" d="M43.8 18.1c-.3.2-.4.5-.4.8s.1.5.1.7c-2.6.2-19.7 1.8-23.9 1.4h-.4l1.7 6 .3-.1c3.3-1.1 24.1-2.4 29-1.4.8.1 1.2 0 1.4-.4.5-1-1.9-3.5-3.4-4.8-.9-.9-3.4-2.8-4.4-2.2" class="b-r2b"/>
		<path id="recri2_black_n7" d="M43.2 11.7c-.2.4-1.5 1.9-8.3 7.6-.1-.7-.2-1.6-.2-1.6-.2-1.9-.4-4.1-.8-6.5l-.1-.3-3.2.3v2c0 3.3.3 6.2.9 8.9-.3.2-10 8.2-10 8.2l.3.3 1.9 1.8s7.9-6.9 8.6-7.6c.7 2.2 1.6 4 2.7 5 2 2 4.2 1.7 7 1.3 2-.3 4.3-.6 7-.2l.5.1-.6-2.8c0-.6-.3-1.1-.7-1.5-1.3-.9-3.8-.4-6.5.1-1.3.3-2.7.5-3.9.6-1.3-1.2-2.1-2.8-2.6-5.2 7.5-6.2 10.3-7.8 11.3-8.1l.2-.1v-.7c0-1.8-.9-2.8-1.7-3-.5.1-1.3.3-1.8 1.4" class="b-r2b"/>
		<path id="recri2_black_n9" d="M48.6 23.6s-2.9 3.2-3.1 3.4c-3.2.7-8.4 1.2-8.8-.4-.5-1.9 3.4-10.4 4.9-13.6l.2-.3-5.6-2.8-.1.4c-.1.2-.4 1.3-.9 3h-4.5c0-.4-.1-1.3-.1-1.3-1.4-2.3-7.4-.7-8.1-.6l-.4.1.2.4c.2.4.4.9.5 1.4H19l1.9 3.6 2.4-.4v.7c0 6.2-2.7 14.1-2.7 14.2l.6.3c.3-.4 7.9-9.5 9.3-16.4.2 0 2.4-.4 4.4-.7-1.2 4.7-2.6 12.1-.3 14.8 3.4 4 16.6 3.7 17.1 3.5l.3-.1z" class="b-r2b"/>
		<path id="recri2_black_bamboo" stroke-width="1.75" d="M5.5 12.5c1.5 0 4-.5 4 1s-2.5 1-4 1-4 .5-4-1 2.5-1 4-1m0-11c1.5 0 4-.5 4 1s-2.5 1-4 1-4 .5-4-1 2.5-1 4-1m0 22c1.5 0 4-.5 4 1s-2.5 1-4 1-4 .5-4-1 2.5-1 4-1m-2-20v9m4-9v9m-4 2v9m4-9v9" class="n"/>
		<path id="recri2_black_bamboo-rgt" stroke-width="1.75" d="M5.87 12.57c1.39.56 3.9 1.03 3.33 2.43-.56 1.39-2.69-.01-4.08-.57S1.22 13.4 1.79 12c.56-1.39 2.69.01 4.08.57m4.12-10.2c1.39.56 3.9 1.03 3.33 2.43-.56 1.39-2.69-.01-4.08-.57S5.34 3.2 5.91 1.8c.56-1.39 2.69.01 4.08.57m-8.24 20.4c1.39.56 3.9 1.03 3.33 2.43-.56 1.39-2.69-.01-4.08-.57s-3.9-1.03-3.33-2.43c.56-1.39 2.69.01 4.08.57M7.39 3.48l-3.37 8.34m7.08-6.85-3.37 8.34m-4.46.36L-.1 22.01m7.08-6.85L3.61 23.5" class="n"/>
		<path id="recri2_black_bamboo-lft" stroke-width="1.75" d="M5.13 12.57c1.39-.56 3.52-1.96 4.08-.57s-1.94 1.86-3.33 2.43c-1.39.56-3.52 1.96-4.08.57s1.94-1.86 3.33-2.43M1.01 2.37C2.4 1.81 4.53.41 5.09 1.8S3.15 3.66 1.76 4.23c-1.39.56-3.52 1.96-4.08.57s1.94-1.86 3.33-2.43m8.24 20.4c1.39-.56 3.52-1.96 4.08-.57s-1.94 1.86-3.33 2.43c-1.39.56-3.52 1.96-4.08.57s1.94-1.86 3.33-2.43M-.1 4.98l3.37 8.34m.34-9.84 3.37 8.34m-2.96 3.35 3.37 8.34m.34-9.84 3.37 8.34" class="n"/>
		<g id="recri2_black_ten-thousand">
			<path d="M41.6 72.038a503 503 0 0 1-2.515-3.167c-.156-.21-.153-.237.06-.506l.227-.284 1.839.899c1.011.494 2.188 1.022 2.616 1.173.76.27.78.271.982.088.412-.373 1.19-1.666 1.388-2.306.28-.904.27-1.858-.022-2.44-.267-.53-.645-.742-1.575-.886-.775-.12-3.6-.343-3.654-.289-.02.021.568.768 1.308 1.659s1.326 1.62 1.302 1.62-.976-.358-2.115-.796-2.104-.776-2.143-.752-1.248.447-2.686.939l-2.615.895-.148-.288c-.082-.158-.149-.33-.149-.381 0-.052.765-.74 1.7-1.528s1.7-1.461 1.7-1.496-1.361-.092-3.025-.128a458 458 0 0 1-4.815-.132l-1.79-.064.069.591c.037.325.215 1.795.395 3.267l.328 2.675-.35.097c-.193.053-.369.078-.391.056-.022-.023-.618-1.54-1.323-3.372l-1.281-3.331-.483-.032c-.756-.05-2.607.153-3.434.375-.412.11-.817.202-.9.202-.158 0-1.06-1.569-.96-1.67.033-.032 2.241-.245 4.909-.474 2.667-.23 4.877-.444 4.91-.477s-.033-.593-.147-1.243c-.47-2.674-.739-5.511-.58-6.143.054-.22.101-.236.574-.204.49.034 2.594-.14 3.07-.253.217-.052.224-.03.224.676 0 .401-.063 1.002-.14 1.336-.077.333-.213 1.236-.304 2.006-.203 1.728-.199 1.702-.441 2.8-.11.495-.19.905-.182.912.014.011 4.059-.337 4.144-.356.015 0 .02-1.502.011-3.33-.012-2.579.016-3.46.127-3.926l.143-.6.628-.085c.346-.046.656-.057.69-.023s.05 1.815.037 3.959l-.025 3.897.781-.062c.43-.034 1.051-.09 1.381-.124l.6-.062.068-.45c.037-.248.071-.765.075-1.15.01-.669.115-1.267.304-1.7.123-.282.197-.822.298-2.163.05-.667.151-1.286.237-1.451.082-.159.18-.535.218-.837s.076-.557.085-.567c.032-.034 1.819-.332 1.995-.332.17 0 2.17 1.846 2.17 2.003 0 .04-.137.13-.304.198-.606.251-1.357 1.325-2.442 3.49-.667 1.33-1.271 2.725-1.208 2.789.03.03 1.01-.022 2.179-.114 2.722-.216 3.415-.212 3.925.02.596.272 1.675 1.18 3.878 3.261l1.978 1.87-.223.367c-2.548 4.205-5.762 7.69-7.835 8.494-1.034.401-.732.64-3.348-2.64M30.94 52.331a8 8 0 0 1-.371-.496c-.042-.07.208-.287.656-.567 3.846-2.4 6.784-6.057 6.127-7.628l-.145-.348-.428.218c-2.375 1.208-4.302 3.699-4.813 6.22-.119.588-.14.62-.414.62h-.29l-1.078-4.3a427 427 0 0 1-1.081-4.362c0-.034.706.651 1.572 1.522l1.575 1.584 2.4-1.841c1.32-1.013 2.459-1.844 2.53-1.847.162-.01 5.22 3.576 5.22 3.697 0 .048-.063.123-.14.167-.637.365-4.16 3.85-4.16 4.116 0 .047.349.11.775.139 1.005.069 2.172.465 3.153 1.069l.778.48-1.828.052c-2.676.078-4.82.49-9.581 1.842-.091.026-.277-.11-.457-.337" class="r-r2b"/>
			<path d="M28.852 60.77a17 17 0 0 1-.18-.995l-.14-.875.309-.015c.17-.01.444-.027.609-.042l.8-.068c1.897-.159 4.194-.39 4.7-.472.33-.054.893-.119 1.25-.144a30 30 0 0 0 1.75-.209c1.39-.205 4.35-.43 4.41-.334.024.04-.143.45-.373.913l-.417.841-1.35.065c-.744.036-1.91.065-2.59.065-.892 0-1.32.041-1.522.146-.156.08-.301.128-.324.105-.06-.06-2.148.222-3.434.464a63 63 0 0 1-1.63.288c-.292.045-.584.124-.65.176-.2.157-1.174.231-1.218.093zm-.587-4.187c-.075-.28-.086-2.111-.014-2.3.037-.096.217-.124.64-.1 1.018.058 5.496-.523 11.15-1.445 2.277-.372 2.83-.434 3.012-.337.3.16 2.001 1.878 1.93 1.949-.146.146-1.823.79-2.583.991-1.027.273-1.978.407-4.35.612-.99.086-1.974.202-2.186.258a2.2 2.2 0 0 1-.75.048c-.2-.03-1.016.012-1.814.092a65 65 0 0 1-3.85.287c-.385.018-.795.065-.911.105-.168.058-.224.025-.274-.16" class="r-r2b"/>
		</g>
		<g id="recri2_black_n4" class="b-r2b">
			<path d="M25.8 30.9c-2.2-6.4-4.5-12.8-6.75-19.1 1.8.3 3.6.8 5.4 1.2.5 1.97 1.08 3.9 1.75 5.86.82 2.89 1.47 5.82 2.28 8.72 1.22-.2 2.44-.55 3.58-1-.19-2.78-.4-5.58-1.04-8.3-.01-.98-.82-1.57-1.5-1.59 1.04-.35 2.11-.71 3.05-1.27.54-.18.34 1.29.54 1.71.52 2.99 1.03 5.99 1.66 8.96.88-.21 2.81.17 2.6-1.2.15-3.12.36-6.26.34-9.39.42-.52 1.75.49 2.47.7.52.39 2.63.81 1.26 1.37-1.06 1.05-1.12 2.68-1.41 4.07-.19 1.23-.31 2.47-.4 3.71 1.07.01 2.26-.08 3.19.53.39.82 1.3 1.83.75 2.75-.49.28-1.43 1.65-1.75 1.19.34-1.35-1.25-1.56-2.21-1.47-3.65.08-7.2 1.11-10.69 2.11-.99.29-1.97.62-2.96.94-.06-.18-.12-.37-.19-.56z"/>
			<path d="M41.9 29.77c.2-1.22.92-2.25 1.32-3.4 1.48-2.93 2.02-6.22 2.43-9.45.06-.39.13-.79-.3-.99-1.06-.9-2.58-.58-3.86-.66-3.53-.06-6.99.73-10.44 1.34-1.28.29-2.59.52-3.85.9-.48-.05-1.84.92-1.59-.02.06-1 .12-2.01.25-3.01 3.99-1.17 8.08-2.03 12.23-2.45 3.61-.29 7.42-.35 10.81 1.12a6.64 6.64 0 0 1 2.92 2.48c-1.56 4.71-4.13 9.16-7.7 12.64-.73.66-1.45 1.36-2.25 1.94-.01-.14.02-.28.04-.42z"/>
		</g>
		<g id="recri2_black_n5" class="b-r2b">
			<path d="M29.8 10.3 19.5 20.8l.4.5 7-4c-.6 1.5-4.3 11.6-4.3 11.6l3.3 3.5s2.4-15.6 2.4-15.9c.3-.2 5.1-2.9 5.1-2.9L30 9.9z"/>
			<path d="M42.6 10.2h-1.9s-.6 1.3-.9 1.9l-.1-.1-5.9 3.5.2.7s3-.2 3.9-.2c-.4.8-2.2 4.5-2.3 4.8-.4 0-6.3.5-6.3.5l-.1.7 4 1.6s.7-.3 1.3-.5c-.6 1.2-2.5 5.2-2.7 5.5-1.3.1-2.3.1-2.9 0h-.4l.5 3.7.3-.1c1.4-.2 12.2-1.6 14.1-1.7 1.8-.1 7.3 2.1 7.4 2.1l.7.3-.2-.7c-.1-.4-1.3-3.9-2.2-4.8l-.1-.1h-.1c-.8-.2-3.6 0-7.5.4.9-1 4.3-4.6 4.3-4.6l-3.2-3.4s-2.9 7.8-3 8.2c-.3 0-2.7.3-3.5.3.4-.9 2.5-6.5 2.6-6.7.3-.1 3.2-1.2 3.2-1.2l-.2-.7s-1.7.3-2.5.4c.3-.9 1.6-4.1 1.7-4.4.2 0 1.2-.1 1.2-.1s-.6-.9-.7-1.1c.1-.3 1.7-4.4 1.7-4.4h-.4z"/>
		</g>
		<g id="recri2_black_n6" class="b-r2b">
			<path d="M33.2 9.8v1c0 1.6-.2 3.7-.7 6.2-5.9.7-11.1 1.5-11.2 1.5H21V21s9.9-.4 10.7-.5c-.2.7-1 4-1 4l.6.3s2.9-4.1 3.1-4.4c11.7-.3 14.4.2 15 .5l.6.4-.6-3.5c-.3-1-2-2.1-12.2-1.3.6-.9 3.2-4.6 3.2-4.6l-7.2-2.7zm-5.6 15s.8 4.7-1.6 8.5l.5.5c4.4-2.9 5.9-6.6 5.9-6.7l.1-.3-5-2.6z"/>
			<path d="M37.1 23.7c.2.3 5.9 7.7 7.9 9.6l.1.1h.2c.4 0 .8-.3 1.1-.7.8-1.1 1.3-3.2 1-4.3-.4-1.3-7.6-4.3-9.8-5.2l-1.2-.5z"/>
		</g>
		<g id="recri2_black_coin" class="n">
			<circle cx="9" cy="9" r="8.5" stroke-width="1.3"/>
			<circle cx="9" cy="9" r="7.2" stroke-width="1.2"/>
			<circle cx="9" cy="9" r="5.15" stroke-width="1.1"/>
			<circle cx="12.6" cy="9" r="3.6"/>
			<circle cx="9" cy="12.6" r="3.6"/>
			<circle cx="5.4" cy="9" r="3.6"/>
			<circle cx="9" cy="5.4" r="3.6"/>
		</g>
		<g id="recri2_black_b3" class="s-g-r2b">
			<use xlink:href="#recri2_black_b1" transform="matrix(.73 0 0 .77 19.5 13.5)"/>
			<use xlink:href="#recri2_black_b1" transform="matrix(.73 0 0 .77 43.5 13.5)"/>
			<use xlink:href="#recri2_black_bamboo-rgt" transform="matrix(.77 0 0 .77 28 14)"/>
			<use xlink:href="#recri2_black_bamboo-lft" transform="matrix(.77 0 0 .77 35 14)"/>
		</g>
		<g id="recri2_black_season">
			<path fill="#e3e4ff" d="M1 1h43v67H1z" class="s-o1-r2b"/>
			<path fill="#cae0ff" stroke="#99b9ff" d="m4.69 42.38 4.33-2.62 1.18 4.57-3.94 3.93 2.36 1.63 1.58-1.63.78 3.26 3.93-.33-.39-3.26 2.75 1.31 1.58-1.96-4.72-3.27-.79-4.57 5.9 1.96 1.57 4.57 2.75-.98-.79-2.29 3.94 1.63 1.57-3.26-4.32-1.63 3.15-.99-1.19-2.28-5.5 1.63-5.51-1.96 5.12-2.94 5.89.98.39-2.61-3.14-.33 3.14-1.96-2.35-2.61L20.81 28v-1.96l-2.75-.33-.79 4.9-4.72 2.62-.78-4.57 3.93-4.25-2.75-1.31-1.57 1.96-.8-3.59-3.53.65.4 3.27-2.76-1.31-1.57 1.63 4.33 2.95.78 4.89-5.11-1.63L1 27.81v7.11l.16-.06 5.1 1.96-4.71 2.94-.55-.1v5.4l.16-.07-.16.92v1.4l2.51.29z"/>
			<path d="M40.63 26.67c1.1 0 2.17-.13 3.21-.35V1.5h-14.3c-2.44 2.67-3.95 6.22-3.95 10.13 0 8.31 6.73 15.04 15.04 15.04z" class="s-o1-r2b o2-r2b"/>
			<path fill="#c9d3f2" stroke="#9eb3e8" stroke-width=".5" d="m22.61 14.9-.31-.31-1.34 2.31 2.31 1.33.12-.42zm11.84 13.97-.42.11 1.33 2.31 2.31-1.33-.32-.31zM23.39 5.45l-.12-.42-2.31 1.33 1.34 2.31.31-.31zm3.27 18.02-.43-.11v2.66h2.67l-.12-.42z"/>
			<path fill="#798cd8" d="M43.83 30.1v-.39l-.24.25z"/>
			<path d="M23.31 15.6V7.66l-.7.7-.31.31-2.96 2.96 2.96 2.96.31.31zm14.04 14.05.32.31 2.96 2.96 2.96-2.96.24-.25v-.76h-7.17zm-1.94-1.04-6.88-3.97.25.96.12.42 1.08 4.05 4.05-1.09.42-.11zm-7.8-4.88-3.97-6.88-.25.96-.12.42-1.08 4.04 4.04 1.09.43.11zM23.39 5.45l.25.96 2.84-4.91h-4.15l.94 3.53zm7.28 41.22s2.32-3 7-3c5.67 0 5.67 9.33 5.67 9.33H19.67s-.33-6.67 7.67-6.67c3.67 0 6 4 6 4" class="s-o1-r2b o2-r2b"/>
			<path d="m29.5 57.27-4.67 8.09m9.39-9.68-5.54 10.27M23.33 61l-2.83 4.91m16.96-11.28-4.21 7.96m7.21-.42-2.33 4.04M27.11 54.52l-2.67 4.62M31.67 54l-1 1.73m10.31-.13-3.17 5.49m-13.97-6.05-1.66 2.88m-1.05-2.29-4.22 7.96M36 63.6l-1 1.73" class="o2-r2b s-o1-r2b"/>
			<path d="M2 2h41v65H2z" class="n s-o1-r2b"/>
		</g>
		<g id="recri2_black_flower">
			<path fill="#f8f6d8" d="M1 1h43v67H1z"/>
			<path d="m11.27 58.16-.71-8.35c1.76-.67 2.92-1.76 2.83-2.86s-1.42-1.91-3.26-2.16l-.71-8.36c1.76-.67 2.92-1.76 2.83-2.86-.13-1.56-2.69-2.54-5.71-2.19s-5.37 1.89-5.23 3.44c.09 1.1 1.42 1.91 3.25 2.16l.71 8.36c-1.76.67-2.92 1.76-2.83 2.86s1.42 1.91 3.25 2.16l.71 8.36c-1.76.67-2.92 1.76-2.83 2.86.13 1.55 2.69 2.53 5.71 2.19 3.02-.35 5.37-1.89 5.23-3.44-.08-1.11-1.4-1.92-3.24-2.17M4.34 34.47c-.05-.58 1-1.18 2.34-1.34 1.34-.15 2.47.2 2.52.78.04.49-.7.99-1.74 1.23l.61 7.13c.05.56-.19 1.04-.52 1.08-.34.04-.65-.38-.7-.94l-.61-7.13c-1.05 0-1.86-.32-1.9-.81m.23 13.48c-.05-.58 1.41-1.23 3.25-1.44 1.85-.21 3.39.09 3.43.67.05.58-1.41 1.23-3.25 1.44-1.85.22-3.38-.08-3.43-.67M9.15 62c-1.34.15-2.47-.19-2.52-.78-.04-.49.7-.99 1.74-1.23l-.61-7.13c-.05-.56.19-1.04.52-1.08s.65.38.69.94l.61 7.13c1.06 0 1.87.32 1.91.81.05.59-1 1.19-2.34 1.34" class="f2-r2b"/>
			<path stroke-width=".25" d="m11.27 58.16-.71-8.35c1.76-.67 2.92-1.76 2.83-2.86s-1.42-1.91-3.26-2.16l-.71-8.36c1.76-.67 2.92-1.76 2.83-2.86-.13-1.56-2.69-2.54-5.71-2.19s-5.37 1.89-5.23 3.44c.09 1.1 1.42 1.91 3.25 2.16l.71 8.36c-1.76.67-2.92 1.76-2.83 2.86s1.42 1.91 3.25 2.16l.71 8.36c-1.76.67-2.92 1.76-2.83 2.86.13 1.55 2.69 2.53 5.71 2.19 3.02-.35 5.37-1.89 5.23-3.44-.08-1.11-1.4-1.92-3.24-2.17zM4.34 34.47c-.05-.58 1-1.18 2.34-1.34 1.34-.15 2.47.2 2.52.78.04.49-.7.99-1.74 1.23l.61 7.13c.05.56-.19 1.04-.52 1.08-.34.04-.65-.38-.7-.94l-.61-7.13c-1.05 0-1.86-.32-1.9-.81zm.23 13.48c-.05-.58 1.41-1.23 3.25-1.44 1.85-.21 3.39.09 3.43.67.05.58-1.41 1.23-3.25 1.44-1.85.22-3.38-.08-3.43-.67zM9.15 62c-1.34.15-2.47-.19-2.52-.78-.04-.49.7-.99 1.74-1.23l-.61-7.13c-.05-.56.19-1.04.52-1.08s.65.38.69.94l.61 7.13c1.06 0 1.87.32 1.91.81.05.59-1 1.19-2.34 1.34z" class="s-f1-r2b n"/>
			<path stroke-width=".25" d="M5.23 67.99C7.72 59.81 1.9 49.21 1.9 49.21S12.3 59.8 9.38 67.99z" class="s-f1-r2b f4-r2b"/>
			<path d="M19.02 36.17c-2.92-.98-5.59-.56-5.97.94-.27 1.06.7 2.38 2.33 3.41l-2.03 8.06c-1.85-.14-3.28.37-3.54 1.43-.27 1.06.7 2.38 2.33 3.41l-2.03 8.06c-1.84-.14-3.27.37-3.54 1.43-.38 1.5 1.68 3.51 4.6 4.5 2.92.98 5.59.56 5.96-.94.27-1.06-.7-2.38-2.32-3.41L16.84 55c1.85.14 3.28-.37 3.55-1.43s-.71-2.38-2.33-3.41l2.03-8.06c1.84.14 3.28-.37 3.54-1.43.36-1.51-1.69-3.52-4.61-4.5m-4.61 20.87-1.73 6.88c.98.45 1.63 1.1 1.51 1.58-.14.56-1.31.66-2.6.23-1.3-.44-2.23-1.25-2.09-1.81.12-.47.97-.62 2.01-.39l1.73-6.88c.13-.54.51-.88.83-.77.32.1.47.62.34 1.16m3.91-4.16c-.14.56-1.7.53-3.48-.07s-3.11-1.54-2.97-2.11c.14-.56 1.7-.53 3.48.07s3.11 1.55 2.97 2.11m2.36-13.21c-.12.47-.97.62-2.01.39l-1.73 6.88c-.13.54-.51.88-.83.77s-.48-.63-.34-1.17l1.73-6.88c-.98-.45-1.63-1.1-1.51-1.58.14-.56 1.31-.67 2.6-.23 1.3.45 2.23 1.26 2.09 1.82" class="f3-r2b"/>
			<path stroke-width=".25" d="M19.02 36.17c-2.92-.98-5.59-.56-5.97.94-.27 1.06.7 2.38 2.33 3.41l-2.03 8.06c-1.85-.14-3.28.37-3.54 1.43-.27 1.06.7 2.38 2.33 3.41l-2.03 8.06c-1.84-.14-3.27.37-3.54 1.43-.38 1.5 1.68 3.51 4.6 4.5 2.92.98 5.59.56 5.96-.94.27-1.06-.7-2.38-2.32-3.41L16.84 55c1.85.14 3.28-.37 3.55-1.43s-.71-2.38-2.33-3.41l2.03-8.06c1.84.14 3.28-.37 3.54-1.43.36-1.51-1.69-3.52-4.61-4.5zm-4.61 20.87-1.73 6.88c.98.45 1.63 1.1 1.51 1.58-.14.56-1.31.66-2.6.23-1.3-.44-2.23-1.25-2.09-1.81.12-.47.97-.62 2.01-.39l1.73-6.88c.13-.54.51-.88.83-.77.32.1.47.62.34 1.16zm3.91-4.16c-.14.56-1.7.53-3.48-.07s-3.11-1.54-2.97-2.11c.14-.56 1.7-.53 3.48.07s3.11 1.55 2.97 2.11zm2.36-13.21c-.12.47-.97.62-2.01.39l-1.73 6.88c-.13.54-.51.88-.83.77s-.48-.63-.34-1.17l1.73-6.88c-.98-.45-1.63-1.1-1.51-1.58.14-.56 1.31-.67 2.6-.23 1.3.45 2.23 1.26 2.09 1.82z" class="s-f1-r2b n"/>
			<path fill="#eada9b" stroke-width=".25" d="M19.85 67.7c-1.77-5.79 2.35-13.28 2.35-13.28s-7.35 7.49-5.29 13.28z" class="s-f1-r2b"/>
			<path d="M30.33 52.2c-10.89 0-12.13-1.84-15.85-5.97 4.7-3.44 10.9-3.9 16.34 4.82z" class="s-f1-r2b f6-r2b"/>
			<path d="M27.52 50.68c-6.89 0-7.68-1.16-10.03-3.78 2.98-2.18 6.9-2.47 10.34 3.05z" class="f7-r2b"/>
			<path d="M42.27 47.51c-.36 2.52-6.85 4.67-9.62 5.14s1.52-5.63 6.18-9.5c2.95-.51 3.67 2.79 3.44 4.36z" class="s-f1-r2b f6-r2b"/>
			<path d="M37.59 49.31c-.15 1.08-2.95 2.01-4.14 2.21s.66-2.42 2.66-4.09c1.27-.22 1.58 1.2 1.48 1.88" class="f7-r2b"/>
			<path fill="#e5d389" stroke-width=".75" d="M38.25 67.92c-7.82-3.7-5.44-11.92-5.44-18.72l-2.23-.29s-2.8 17.48 4.83 18.76z" class="s-f1-r2b"/>
			<path d="M43.33 52.91v7.75s-2.47 2.07-4.21 2.07c-1.73 0-6.93-9.55-6.44-10.59.51-1.04 10.16-1.29 10.65.77z" class="s-f1-r2b f6-r2b"/>
			<path d="M40.06 53.5c1.02.72 0 3.43 0 3.43s-1.33.91-2.27.91c-.93 0-3.73-4.22-3.47-4.68s4.72-.37 5.74.34" class="f7-r2b"/>
			<path d="M31.45 52.39c-12.87-1.29-10.89 4.39-14.11 10.07 10.15 2.84 10.89-5.42 14.11-10.07z" class="s-f1-r2b f6-r2b"/>
			<path d="M30.26 53.1c-8.21-.82-6.95 2.8-9 6.42 6.48 1.82 6.95-3.45 9-6.42" class="f9-r2b"/>
			<path d="M32.93 50.42s3.69-9.06-.25-11.11c-4.04-2.11-6.64-1.29-7.13 0-.5 1.29 3.91 12.41 5.65 12.66 1.73.26 1.73-1.55 1.73-1.55z" class="s-f1-r2b f6-r2b"/>
			<path d="M32.14 50.27s2.05-5.67-.14-6.95c-2.24-1.32-3.68-.81-3.96 0s2.17 7.76 3.13 7.92c.97.16.97-.97.97-.97" class="f7-r2b"/>
			<path stroke-width=".25" d="M31.45 51.12s-1.48-2.54-1.23-4.87" class="s-f1-r2b f4-r2b"/>
			<path d="M30.33 52.6s-4.13 5.57-2.01 5.48c2.41-.11 2.6 0 5.1.46 2.57.47.2-5.55-1.6-6.32z" class="s-f1-r2b f6-r2b"/>
			<path stroke-width=".5" d="M27.27 48.13s2.02 2.93 3.35 2.93.61 2.18 0 1.56c-.62-.63-2.47-2.43-3.57-2.62-.82 0-1.01-2.34.22-1.87z" class="s-f1-r2b f3-r2b"/>
			<path d="M44 12.51c-4.46 0-8.54 2.85-8.54 6.37s4.08 6.37 8.54 6.37zM33.33 7.64c0-3.52-3.62-6.23-8.08-6.23s-8.08 2.71-8.08 6.23 3.62 6.37 8.08 6.37 8.08-2.85 8.08-6.37z" class="f2-r2b s-f2-r2b"/>
			<ellipse cx="29.56" cy="17.54" class="f2-r2b s-f2-r2b" rx="8.08" ry="6.37"/>
			<path d="M44 16.35V1.42H30.9c-2.93 1.56-3.79 4.49-3.79 7.49 0 4.79 4.93 8.68 11.02 8.68 2.08-.01 4.21-.46 5.87-1.24z" class="f3-r2b s-f2-r2b"/>
			<path d="M31.94 15.47s-.72 1.82-3.03 1.82M27.19 6.62s-1.73.57-3.17-1.02" class="f2-r2b s-f2-r2b"/>
			<path d="M31.13 52.9s-1.71 2.31-.83 2.27c1-.04 1.08 0 2.11.19 1.06.2.08-2.3-.66-2.62z" class="f9-r2b"/>
			<path stroke="#633" stroke-width="2" d="M2 2h41v65H2z" class="n"/>
		</g>
		<use xlink:href="#recri2_black_coin" id="recri2_black_c1" class="s-db-r2b"/>
		<use xlink:href="#recri2_black_coin" id="recri2_black_c2" class="s-r-r2b"/>
		<use xlink:href="#recri2_black_bamboo" id="recri2_black_b1" class="s-g-r2b"/>
		<use xlink:href="#recri2_black_bamboo" id="recri2_black_b2" class="s-r-r2b"/>
		<style>
			.r-r2b{fill:#f0a023}.g-r2b{fill:#03c203}.b-r2b{fill:#dbdbff}.db-r2b{fill:#568fb8}.n{fill:none}.s-r-r2b{stroke:#f0a023}.s-db-r2b{stroke:#568fb8}.s-g-r2b{stroke:#03c203}.s-o1-r2b{stroke:#678ed3}.o2-r2b{fill:#99b9ff}.s-f1-r2b{stroke:#7c5a2d}.s-f2-r2b{stroke:#af9a41}.f2-r2b{fill:#d3bb54}.f3-r2b{fill:#dbc879}.f4-r2b{fill:#eadda7}.f6-r2b{fill:#bfaa52}.f7-r2b{fill:#dbc775}.f9-r2b{fill:#e2cf7f}
		</style>
	</defs>
	<g id="t_preview">
		<path d="M0 0h675v800H0z"/>
		<use xlink:href="#t_do1" width="75" height="100"/>
		<use xlink:href="#t_do2" width="75" height="100" x="75"/>
		<use xlink:href="#t_do3" width="75" height="100" x="150"/>
		<use xlink:href="#t_do4" width="75" height="100" x="225"/>
		<use xlink:href="#t_do5" width="75" height="100" x="300"/>
		<use xlink:href="#t_do6" width="75" height="100" x="375"/>
		<use xlink:href="#t_do7" width="75" height="100" x="450"/>
		<use xlink:href="#t_do8" width="75" height="100" x="525"/>
		<use xlink:href="#t_do9" width="75" height="100" x="600"/>
		<use xlink:href="#t_ch1" width="75" height="100" y="100"/>
		<use xlink:href="#t_ch2" width="75" height="100" x="75" y="100"/>
		<use xlink:href="#t_ch3" width="75" height="100" x="150" y="100"/>
		<use xlink:href="#t_ch4" width="75" height="100" x="225" y="100"/>
		<use xlink:href="#t_ch5" width="75" height="100" x="300" y="100"/>
		<use xlink:href="#t_ch6" width="75" height="100" x="375" y="100"/>
		<use xlink:href="#t_ch7" width="75" height="100" x="450" y="100"/>
		<use xlink:href="#t_ch8" width="75" height="100" x="525" y="100"/>
		<use xlink:href="#t_ch9" width="75" height="100" x="600" y="100"/>
		<use xlink:href="#t_ba1" width="75" height="100" y="200"/>
		<use xlink:href="#t_ba2" width="75" height="100" x="75" y="200"/>
		<use xlink:href="#t_ba3" width="75" height="100" x="150" y="200"/>
		<use xlink:href="#t_ba4" width="75" height="100" x="225" y="200"/>
		<use xlink:href="#t_ba5" width="75" height="100" x="300" y="200"/>
		<use xlink:href="#t_ba6" width="75" height="100" x="375" y="200"/>
		<use xlink:href="#t_ba7" width="75" height="100" x="450" y="200"/>
		<use xlink:href="#t_ba8" width="75" height="100" x="525" y="200"/>
		<use xlink:href="#t_ba9" width="75" height="100" x="600" y="200"/>
		<use xlink:href="#t_wi_north" width="75" height="100" y="300"/>
		<use xlink:href="#t_wi_west" width="75" height="100" x="75" y="300"/>
		<use xlink:href="#t_wi_south" width="75" height="100" x="150" y="300"/>
		<use xlink:href="#t_wi_east" width="75" height="100" x="225" y="300"/>
		<use xlink:href="#t_fl_plum" width="75" height="100" x="375" y="300"/>
		<use xlink:href="#t_fl_orchid" width="75" height="100" x="450" y="300"/>
		<use xlink:href="#t_fl_chrysanthemum" width="75" height="100" x="525" y="300"/>
		<use xlink:href="#t_fl_bamboo" width="75" height="100" x="600" y="300"/>
		<use xlink:href="#t_se_spring" width="75" height="100" y="400"/>
		<use xlink:href="#t_se_summer" width="75" height="100" x="75" y="400"/>
		<use xlink:href="#t_se_fall" width="75" height="100" x="150" y="400"/>
		<use xlink:href="#t_se_winter" width="75" height="100" x="225" y="400"/>
		<use xlink:href="#t_dr_red" width="75" height="100" x="450" y="400"/>
		<use xlink:href="#t_dr_green" width="75" height="100" x="525" y="400"/>
		<use xlink:href="#t_dr_white" width="75" height="100" x="600" y="400"/>
		<use xlink:href="#t_g1" width="75" height="100" y="500"/>
		<use xlink:href="#t_g2" width="75" height="100" x="75" y="500"/>
		<use xlink:href="#t_g3" width="75" height="100" x="150" y="500"/>
		<use xlink:href="#t_g4" width="75" height="100" x="225" y="500"/>
		<use xlink:href="#t_g5" width="75" height="100" x="300" y="500"/>
		<use xlink:href="#t_g6" width="75" height="100" x="375" y="500"/>
		<use xlink:href="#t_g7" width="75" height="100" x="450" y="500"/>
		<use xlink:href="#t_g8" width="75" height="100" x="525" y="500"/>
		<use xlink:href="#t_g9" width="75" height="100" x="600" y="500"/>
		<use xlink:href="#t_g10" width="75" height="100" y="600"/>
		<use xlink:href="#t_g11" width="75" height="100" x="75" y="600"/>
		<use xlink:href="#t_g12" width="75" height="100" x="150" y="600"/>
		<use xlink:href="#t_g13" width="75" height="100" x="225" y="600"/>
		<use xlink:href="#t_g14" width="75" height="100" x="300" y="600"/>
		<use xlink:href="#t_g15" width="75" height="100" x="375" y="600"/>
		<use xlink:href="#t_g16" width="75" height="100" x="450" y="600"/>
		<use xlink:href="#t_g17" width="75" height="100" x="525" y="600"/>
		<use xlink:href="#t_g18" width="75" height="100" x="600" y="600"/>
		<use xlink:href="#t_e1" width="75" height="100" y="700"/>
		<use xlink:href="#t_e2" width="75" height="100" x="75" y="700"/>
		<use xlink:href="#t_e3" width="75" height="100" x="150" y="700"/>
		<use xlink:href="#t_e4" width="75" height="100" x="225" y="700"/>
		<use xlink:href="#t_e5" width="75" height="100" x="300" y="700"/>
		<use xlink:href="#t_e6" width="75" height="100" x="375" y="700"/>
		<use xlink:href="#t_e7" width="75" height="100" x="450" y="700"/>
		<use xlink:href="#t_e8" width="75" height="100" x="525" y="700"/>
		<use xlink:href="#t_e9" width="75" height="100" x="600" y="700"/>
	</g>
</svg>
