<svg xmlns="http://www.w3.org/2000/svg" xmlns:xlink="http://www.w3.org/1999/xlink" viewBox="0 0 675 800">
	<defs>
		<image id="recri_black_image" style="filter: invert(100%);" xlink:href="./recri.png" x="0" y="0" width="7128" height="216"/>
		<svg id="t_do1" x="0" y="0" viewBox="0 0 170 215">
			<use xlink:href="#recri_black_image"/>
		</svg>
		<svg id="t_do2" x="0" y="0" viewBox="170 0 170 215">
			<use xlink:href="#recri_black_image"/>
		</svg>
		<svg id="t_do3" x="0" y="0" viewBox="340 0 170 215">
			<use xlink:href="#recri_black_image"/>
		</svg>
		<svg id="t_do4" x="0" y="0" viewBox="510 0 170 215">
			<use xlink:href="#recri_black_image"/>
		</svg>
		<svg id="t_do5" x="0" y="0" viewBox="680 0 170 215">
			<use xlink:href="#recri_black_image"/>
		</svg>
		<svg id="t_do6" x="0" y="0" viewBox="850 0 170 215">
			<use xlink:href="#recri_black_image"/>
		</svg>
		<svg id="t_do7" x="0" y="0" viewBox="1020 0 170 215">
			<use xlink:href="#recri_black_image"/>
		</svg>
		<svg id="t_do8" x="0" y="0" viewBox="1190 0 170 215">
			<use xlink:href="#recri_black_image"/>
		</svg>
		<svg id="t_do9" x="0" y="0" viewBox="1360 0 170 215">
			<use xlink:href="#recri_black_image"/>
		</svg>
		<svg id="t_wi_north" x="0" y="0" viewBox="1530 0 170 215">
			<use xlink:href="#recri_black_image"/>
		</svg>
		<svg id="t_wi_west" x="0" y="0" viewBox="1700 0 170 215">
			<use xlink:href="#recri_black_image"/>
		</svg>
		<svg id="t_wi_south" x="0" y="0" viewBox="1870 0 170 215">
			<use xlink:href="#recri_black_image"/>
		</svg>
		<svg id="t_wi_east" x="0" y="0" viewBox="2040 0 170 215">
			<use xlink:href="#recri_black_image"/>
		</svg>
		<svg id="t_dr_red" x="0" y="0" viewBox="2210 0 170 215">
			<use xlink:href="#recri_black_image"/>
		</svg>
		<svg id="t_dr_green" x="0" y="0" viewBox="2380 0 170 215">
			<use xlink:href="#recri_black_image"/>
		</svg>
		<svg id="t_ch1" x="0" y="0" viewBox="2550 0 170 215">
			<use xlink:href="#recri_black_image"/>
		</svg>
		<svg id="t_ch2" x="0" y="0" viewBox="2720 0 170 215">
			<use xlink:href="#recri_black_image"/>
		</svg>
		<svg id="t_ch3" x="0" y="0" viewBox="2890 0 170 215">
			<use xlink:href="#recri_black_image"/>
		</svg>
		<svg id="t_ch4" x="0" y="0" viewBox="3060 0 170 215">
			<use xlink:href="#recri_black_image"/>
		</svg>
		<svg id="t_ch5" x="0" y="0" viewBox="3230 0 170 215">
			<use xlink:href="#recri_black_image"/>
		</svg>
		<svg id="t_ch6" x="0" y="0" viewBox="3400 0 170 215">
			<use xlink:href="#recri_black_image"/>
		</svg>
		<svg id="t_ch7" x="0" y="0" viewBox="3570 0 170 215">
			<use xlink:href="#recri_black_image"/>
		</svg>
		<svg id="t_ch8" x="0" y="0" viewBox="3740 0 170 215">
			<use xlink:href="#recri_black_image"/>
		</svg>
		<svg id="t_ch9" x="0" y="0" viewBox="3910 0 170 215">
			<use xlink:href="#recri_black_image"/>
		</svg>
		<svg id="t_ba1" x="0" y="0" viewBox="4070 0 170 215">
			<use xlink:href="#recri_black_image"/>
		</svg>
		<svg id="t_ba2" x="0" y="0" viewBox="4240 0 170 215">
			<use xlink:href="#recri_black_image"/>
		</svg>
		<svg id="t_ba3" x="0" y="0" viewBox="4410 0 170 215">
			<use xlink:href="#recri_black_image"/>
		</svg>
		<svg id="t_ba4" x="0" y="0" viewBox="4580 0 170 215">
			<use xlink:href="#recri_black_image"/>
		</svg>
		<svg id="t_ba5" x="0" y="0" viewBox="4750 0 170 215">
			<use xlink:href="#recri_black_image"/>
		</svg>
		<svg id="t_ba6" x="0" y="0" viewBox="4920 0 170 215">
			<use xlink:href="#recri_black_image"/>
		</svg>
		<svg id="t_ba7" x="0" y="0" viewBox="5090 0 170 215">
			<use xlink:href="#recri_black_image"/>
		</svg>
		<svg id="t_ba8" x="0" y="0" viewBox="5260 0 170 215">
			<use xlink:href="#recri_black_image"/>
		</svg>
		<svg id="t_ba9" x="0" y="0" viewBox="5430 0 170 215">
			<use xlink:href="#recri_black_image"/>
		</svg>
		<svg id="t_se_spring" x="0" y="0" viewBox="5600 0 170 215">
			<use xlink:href="#recri_black_image"/>
		</svg>
		<svg id="t_se_summer" x="0" y="0" viewBox="5770 0 170 215">
			<use xlink:href="#recri_black_image"/>
		</svg>
		<svg id="t_se_fall" x="0" y="0" viewBox="5940 0 170 215">
			<use xlink:href="#recri_black_image"/>
		</svg>
		<svg id="t_se_winter" x="0" y="0" viewBox="6110 0 170 215">
			<use xlink:href="#recri_black_image"/>
		</svg>
		<svg id="t_dr_white" x="0" y="0" viewBox="6280 0 170 215">
			<use xlink:href="#recri_black_image"/>
		</svg>
		<svg id="t_fl_bamboo" x="0" y="0" viewBox="6450 0 170 215">
			<use xlink:href="#recri_black_image"/>
		</svg>
		<svg id="t_fl_chrysanthemum" x="0" y="0" viewBox="6620 0 170 215">
			<use xlink:href="#recri_black_image"/>
		</svg>
		<svg id="t_fl_orchid" x="0" y="0" viewBox="6790 0 170 215">
			<use xlink:href="#recri_black_image"/>
		</svg>
		<svg id="t_fl_plum" x="0" y="0" viewBox="6960 0 170 215">
			<use xlink:href="#recri_black_image"/>
		</svg>
		<svg id="t_g1" viewBox="-190 430 180 20">
			<path fill="#fff" d="M-141.3 365.4c25.8-2.7 36.9-4 48.3-6.1 10.7-1.9 18.2-3.5 25.6-3.6.3.1 5 .2 6.2.5 2.4.5 4 1.2 5.7 2.8 1.5 1.4 3.2 2.9 2.8 4.2-1 2.9-5 2.3-7.8 2.8-14.8 1.4-5.3-2.6-41.6 3.6 1.6 1.1 2.4.2 3.9 2.1 1 1.4.1 2.7-1.5 3.9-1.7 1.3-3.7 1.9-7.5 3.4-4.2 1.6-7.2 4-11.9 6.1-4.4 2-7.6 4.1-8.5 6.6-.5 1.6-.7 3-.3 4.1 0 .4.2.8.7 1.3 1.5-1.4 3.4-2.8 5.6-4 4.8-2.8 10.5-5.3 17-7.6 6.5-2.1 12.4-2.6 17.5-1.5 4.3.4 7.7 1.9 10.3 4.6 2.6 2.5 3.8 4.7 3.6 6.4 1.9 11.5 2.3 20.9 1.5 28.2-.8 7.2-3.2 12.9-7.4 17.1-.5.6-1.5.9-2.9 1.1-1.4-.1-3.4-.7-5.9-1.7-4.5-2.4-8.5-5-12.1-7.9-1.4-.2-2.9-.3-4.4-.3-1.4 0-3.4.1-5.9.4-2.2.1-5.5.8-9.8 1.8-.5.1-1.1.1-1.8.2 0 .9-.7 1.7-2 2.3-2.1.8-4.2.4-6.4-1.2q-3.75-3.9-5.4-12.9c-.9-6-1.1-10.9-.8-14.6s.5-6.6.7-8.9c0-2.1 1.1-5.9 3.5-9.3 1.8-2.6 5-5.7 9.6-8.8 4.6-3.2 7.4-5.5 8.5-7.2.3-.6.3-1.3-.2-2-7.1.9-14 2-20.8 3.1-2.4.3-12.1 2.2-16.2 1-3.7-1.1-5.6-2.5-7.4-4.9-.7-1 .3-2.8 5-3.5 1-.5 10.9-1.4 12.5-1.6m53.8 64.1c1.6-8.6 2.4-16.1 2.3-22.7 0-6.4-.9-10.3-2.8-11.6-.5-1.6-4.4-1.7-11.4-.1-10.9 2.3-20.6 4.8-27.2 7.5 0 1-.4 2.3-.5 3.8-.1 1.2 0 3.6.1 4.8 1.8-.9 5.6-1.8 10.1-2.64.5-.8 7.1-1.2 9.8-1.8 1.3-.3 9-2 10.2-1.6s4.3 1.9 5.4 3.5c1 1.4 1.5 2.5 1.1 3-1.6 2-12 4.5-13.6 4.8-4.7 1.1 8.3-4.7.3-3.2-.4.1-19.1 4.4-22.8 4.3 0 .1.3 2.9.9 4.1.3.9 1 2.4 2 5 2.6-.8 5.1-1.4 7.5-1.7q3.45-.6 5.7-.6c1.6 0 2.6-.1 2.9-.3 2.2-.6 6.6 0 9.2 1.8 2.6 1.6 4.1 3 4.4 4.1v.4c1.3.3.8.5 2.6.6 2 .14 3.2-.36 3.8-1.46"/>
			<path fill="#f0a023" d="M-62.6 502.6c-13.5-4.2-16.6-20.5-32.9-20.9-2.8 3-5.9 5.8-7.9 9.3 6.3-.4 29-7.4 22.7 1.6-3 2.8-5.3 2.5-7.5 3.9-4.7 2.5-9.8 2.9-15.2 2.1-1.1.2-3.6 1.4-4.6 3 .5 1.9 1.6 3.7 3.8 4.8 3 0 18.7-6.3 21-8 4 .1 9.2 2.5 10.5 5.8 1.6 3.8-1.9 7.5-3.1 11.1 1.2 2 0 4.2-1.2 5.9-4.6 1.9-9.8.4-14.8 1-2.6.3-4.6 1.9-7.1 2.1l-.8 2c-10.2-1.5-13.9-24-10.4-26.4 2.2-1.4 4.7-2.5 7-3.7-.4-.9-1.6-1.4-2.3-2.1-2.2 1-6.6 5.8-8.5 7.6-5.3 5.2-6.7 3-12 5.6 0 7.4-.4 20.1-2.7 21.4-1 .1-2.1-.4-2.7-1.3-4.3-6.1-10.5-11.1-15.9-16.5 4.6 1 8.6 4.2 13.5 3.6 1.6-.5 1.6-11.4 1.8-16.2-4.3 2.9-9.6 5.6-13.7 8.7-1.8 1.3-3 2.2-5 2.4-1.6-.9-1.2-2.1-2.2-3.1-.4-3-3.2-6.4.9-8.4 2.3 1.3 4 .3 5.9-1 4.3-2.6 9.4-4.2 13.9-6.8l.2-8.3c-1.9 1.3-4.2 2.6-6.1 3.4-2.1 1.2-5.3 2.5-7.8 2.2-4.4-.7-7.8-4.1-10.1-6.9 0-1.5-3.4-2.6-.1-4 7.9 3.8 16.6-1.9 22.6-5.8 4.3-2.8 2.6-7.7 3.1-11.5 0-2.2-3.8-4.7-5.1-7.4 3.1-1.2 12.8 1.2 15.1 4.7.7 2.6-1.1 6.3-1.3 9.2l2.2-.1c1.2.2 1.8.7 3.3 1.6.9 1.1 1.8 1.8 1.2 3.6-.7 2.5-5.5 3.5-7.5 5.3-.5 3.1-1.5 6-1.3 9.1 2.6-1.2 7-3.3 8.8-5.3l-.6 1.6c-1.6 7.3-10.8 8.5-10.4 16.8.1 1.9-.4 3.7-.1 5.6 7.5-4.4 19.9-18.6 24.2-25.5-1.1-.8-.8-1.4-1.6-2.7-4.2 1.4-9.1.8-10.9-3.3-1.2-2.7 9-3.5 9.5-4.4 1.7-3.2-5.4-6.6-5.5-11.9 2.8.1 2.6 2.3 4.3 2.5 3 .5 6.1-.7 8.5 1.5 1.5 1.2.7 2.2 1.6 3.4 1.9-.8 4-.9 6.1-1.4 4-1.1 6.5-7.7 5-10.6-.8-1.8-2.7-4-5.1-4.1.4-2.5 3.2-1.2 5.3-1.1 2.2.9 4.6 1.6 6.7 2.7 3.8 1.9-.8 7.3 2.6 9.1 2.8-.2 6 .9 6.9 3.2 3.2 8.7-7.7 1.8-14 10.4-2.3 1.8-4.3 4.1-7.4 4.7 8.2 2.5 15.8 11.4 24.9 15.1 5.4 2.1 12 4.3 17.1 6.7 2.8 1.8 2.6 3.8.4 3.8-3.9 2.5-11.3 1.9-15.2.6m-38.6 8.7c1.2 2.1.3 4.8 1.9 6.7 10.4-1.2 16.8-1.7 17-11.8-6.4 1.5-12.6 3.6-18.9 5.1m5.7-44.8c-1.6 1.8-1.2 4.6-2.2 6.7 1.5.8 3.4.9 5 1.5 2.4-1.2 3.8-3.8 4-5.9-2.2-1-4.3-2.2-6.8-2.3"/>
		</svg>
		<svg id="t_g2" viewBox="-190 400 123 240">
			<path fill="#f0a023" d="M-113.5 493.2c-1.9 0-3.5-1-5.8-3.5h-.8c-1.6 1.5-2 2.5-2 4 0 4.6 4 11.1 7 11.1 1.2 0 2.4-1.1 4.6-4.3 2.7-4.1 4-5.4 8.8-9.6l-.3-.5c-4 1.1-5.7 1.5-7.4 2.1-1.6.4-3.1.7-4.1.7m23.2-5.5c-2.6 0-4.4.5-8.2 2.1v.4c5 1 6.1 1.4 7.5 3.7l-5.7 2.2.3.6c6.9.2 8.6.3 11 1 3.2.8 5.7 1.2 6.6 1.2 1.2 0 2.2-1 2.2-2.1 0-4.7-6.6-9.1-13.7-9.1m-55.3 13.4c-2 2.4-2.4 3.3-2.4 5.8 0 4.1 1.8 7.1 4.2 7.1 3.1 0 5.7-6 5.7-13.6 0-3.1-.3-4-1.6-5.8h-.7c-3.6 4.3-4.4 5.4-5.2 6.5m-33.2 5.3c-1.8.5-2.6.7-5.5.9l-.5.8c3.2 2.6 5.3 4 6.7 4 .8 0 2-.3 3.5-1 2-1 4-1.8 5.7-2.3 3.9-1.2 6.6-2.1 7.3-2.3l1.5-.8c-.3 2.5-.8 3.6-2 3.6q-.45 0-1.2-.3l-.5.4c1.6 2.7 1.9 3.3 2.7 4.9 2 4.4 2 4.4 2.3 4.8.7 1.1 1.5 1.8 2.2 1.8 1.2 0 3.8-3.5 4.7-6.5.9-3.3.9-3.3 1.1-16.9l.4-25c.3-7.7.9-13.7 1.9-16.1.7-1.9.9-3.2.9-4 0-1.3-.9-2.7-3.5-5.2 5.3-1.4 6.9-2.3 6.9-3.4 0-1.9-4.4-4.8-7.3-4.8-1.3 0-3.1.4-5.1 1.2-9.4 3.4-15.2 4.9-19.4 4.9-.9 0-2.3-.1-4.2-.4l-.4.5c.3 2.3 4.2 5.8 8.1 7.1-3.6 4.8-5 10.3-5.1 20.5v10c-6.3 2-7.4 2.2-9.6 2.2-.7 0-1.3-.1-2.4-.4l-.4.4c.3 1.9.7 2.5 1.9 3.7 1.9 1.9 4.6 3.4 5.9 3.4s3.8-1.3 11.8-6.4c5.4-3.2 8.3-4.6 11.6-5.3v11c-.1 3.8-.4 7.1-1.1 12.8-2.3-1.9-3.6-2.5-5.1-2.5-.5 0-1.3.2-2.4.5l.4-2.1c5.7-2.1 6.3-2.4 6.3-3.4 0-.9-2.2-1.8-4.3-1.8-.4 0-1.1.1-1.9.2l.7-2.5c.8-.5 1.6-.9 2-1 1.1-.4 1.9-.8 2.2-1 .4-.2.5-.5.5-.8 0-1.2-2.2-2.6-3.9-2.6-1.5 0-2.7.4-7 2.6-4 2.1-5.3 2.5-8.9 3.5l-.3.6c1.3 1.6 2.7 2.4 4.6 2.4.7 0 1.3 0 2.3-.1l-.3 1.6c-2.8 1.2-3.8 1.4-8.3 1.8l-.3.7c3.4 2.3 4 2.5 8.6 2.9l-.4 2c-1.8.7-2.8 1.1-3.4 1.2m20.2-37.2c-2.6-1.1-3.8-1.4-5.1-1.4-1.9 0-4 .9-7.3 3.1l.1-5.2c5.3-1.4 6.6-1.9 12.4-4.1zm-.6-19.9c1.1 1.3 1.2 1.9 1.2 3.5 0 1.1-.1 3.3-.3 5.2-1.3-.6-2.2-.8-3-.8-1.9 0-3.9.7-9.2 3l-.5-2.4c-.1-.5-.1-1-.1-1.2 0-2.9 4-5.4 11.9-7.3m-1.4 27.2c-2.4 0-4.8.9-10.6 3.7l.3-4.3c2.3-.7 3.9-1.1 4.6-1.3l6.3-2.2c.1-.1.7-.2 1.3-.4l-.3 4.7c-.8-.1-1.3-.2-1.6-.2m28.1 26c4.4 11.8 13.2 17 27.9 17 12.4 0 20.7-2.2 20.7-5.3 0-1.5-.9-2.3-10.9-9.1-2.3-1.9-4.6-3.7-6.9-5.7-.5-.3-1.9-1.2-3.9-2.4l-.5.1c.4 1.3.7 2.1.8 2.4.4 1 1.9 3.8 4 8 .3.5.4 1 .4 1.2 0 1.4-2.4 2.3-6.7 2.3-9.8 0-15.2-2.6-18.2-9.1-2.2-4.5-2.4-4.9-3.4-5.8-1.5-1.3-3.2-2.1-5-2.1-1.2 0-1.9.2-3 1.2l.1.4c2.5 1.9 2.8 2.3 4.6 6.9m26.2-15.7c3.6.1 5.4-.5 5.4-1.9 0-2.4-5.7-5.9-9.4-5.9-1.1 0-3 .4-5.3 1.1-2.7.9-2.7.9-16.3 4.4-10.2 2.6-10.2 2.6-12.7 2.6-1.9 0-2.8-.2-4.4-1.1l-.8.1c-.1.7-.1 1.1-.1 1.5 0 3 4 5.9 8.3 5.9 1.9 0 2.6-.2 9.2-2.3 9.9-3 18-4.3 26.1-4.4m-34.6-33.3c1.9 1.5 5.5 3.2 7.1 3.2.9 0 2.4-.4 4.3-1.2l-2.4 5.9c-2.8.8-4.7 1.3-5.7 1.6-1.2.5-2.2 1.2-3.8 2.7-2.2-.5-2.6-.8-4.4-2.4h-.7c-.9 1.3-1.3 2.1-1.3 2.7 0 .5.4 1.5.8 2.7.5 1.1.9 2.3 1.1 3.6 1.2 6.6 1.2 6.6 2.7 8.2.9 1 2.3 1.8 3.2 1.8.7 0 1.2-.5 1.8-1.8 1.2.1 2.2.3 2.7.4 1.2.2 2 .3 2.6.3.5 0 1.8-.2 3.1-.7 7.7-2.6 16.2-4.6 19.7-4.6 1.3 0 2.8.2 4.4.5 1.1.3 2 .4 2.6.4 2.2 0 3.2-1 7.5-6.6.7-.9 2.2-2.5 3.9-4.4 1.5-1.5 2.3-3 2.3-4.1 0-2.4-8.6-8.1-12.3-8.1-2.6 0-5 .6-11.8 2.6-3.8 1.1-4.2 1.2-8.2 2.3l2.7-5.9c6.3-1.5 7.8-2 14.1-3.4 3.2-.7 4.7-1.4 4.7-2.5 0-2.2-4.3-4.6-8.1-4.6-1.8 0-4.6.8-8.3 2.2 1.9-5.1 2.8-7.9 2.8-8.6 0-1.1-.9-2.3-2.2-3-2.8-1.5-7.7-2.7-11.2-2.7-.9 0-1.8.1-3.2.7l-.1.8c3.1 2.4 4 4.1 4 7 0 2.2-.4 5.4-1.1 8.7-7.7 2.1-9.3 2.3-15.3 2.3l-.4.5c.7 1.9 1.3 2.6 2.4 3.5m2.5 23.9c-.7-3.5-1.1-5.9-1.1-7.3 0-2.4 1.1-3.5 3.2-3.5.4 0 1.1 0 1.6.1.9 4.5 1.1 5.3 2.6 9zm31.8-16.9c2.2 0 3.6.8 3.6 2 0 1.5-1.1 3.7-5 9.7-1.9-.3-2.8-.4-4-.4h-1.6c1.5-3.8 2.3-5.8 2.3-5.9 0-1-.7-2-2.4-3.8 3.6-1.2 5.2-1.6 7.1-1.6m-20.1 10.9c.1-2.1.3-3.5.3-3.6 0-.6 0-1.4-.3-2.7l6.3-1.1c.8 1.4 1.1 2.1 1.1 2.9 0 1.1-.4 2.1-1.9 5.9l-5.7 1.6c.1-1.3.1-2.3.2-3m29.3 58.4c-5.9-4.3-12.3-6.9-17-6.9-10.9 0-30.4 4.4-42.3 9.7l-.3 1c2.7 2.5 5.8 4 8.5 4 .4 0 1.3-.1 2.6-.3.4-.1 1.3-.2 2.6-.4 2.8 2.5 3.5 4.3 3.5 8.9v1.8c-6.1 1.5-7.1 1.6-13.7 2.2l-.4.5c1.2 4.4 5.9 8.3 10.2 8.3 1.2 0 2.7-.1 4.3-.4-4.4 6.8-6.3 8.6-12.1 11.9-1.2.6-1.5.8-3.6 1l-.4 1c3.8 5.1 6.6 7.2 9.7 7.2.7 0 2.4-.4 4.8-1.3.1 11.9.7 17.8 1.8 21.5.9 2.9 2.2 4.6 3.4 4.6.7 0 1.8-1 2.8-2.8 2.7-4.6 3.1-7.4 4.4-27 3.4-.6 4-.8 6.5-1 5.9-.5 5.9-.5 6.1-.5 1.3-.3 1.9-.9 1.9-2.1 0-4.4-3.5-8-8.2-8-1.8 0-3.9.3-6.5.9l-.1-2.6c3.9-3.2 5.3-4.2 10-6.9 3.4-1.8 4.6-3.1 4.6-4.5 0-2.2-6.6-5.6-10.9-5.6q-.75 0-2.4.3c.4-2.5.5-3 .8-3.8.3-.9.4-1.5.4-1.8 0-1.4-1.9-2.8-6.5-4.6 7.4-2 12.3-2.8 16.7-2.8s6.1 1.5 6.1 5.6v6c0 6.5.1 15.1.4 27 .3 10.7.4 16.9.4 19.4 0 5.1 0 5.3-1.3 5.3-3.4 0-9-1.2-17.8-3.9l-.7.8c2.4 3.1 3.5 4.1 8.9 7.6 2.6 1.6 5.1 3.3 5.3 3.6l4 3.3c5.3 4.3 5.7 4.5 7.3 4.5 2.6 0 7-8.7 7-13.8 0-1.7-.1-4.4-.5-7.6-.7-5.7-.9-12.6-.9-21.3 0-17.7.8-25.6 3.2-31 .5-1.3.8-2.5.8-3.1-.3-1.2-1.2-2.3-3.4-3.9m-57.3 9c0-1.7-1.5-3.2-4.7-4.6-2.8-1.3-5.5-1.9-7.7-1.9-1.5 0-2.8.3-5.4 1.1l.1.8c4.8 2.7 5.3 3.8 5.3 16.6 0 11.9-1.6 29.6-3.2 35.5-1.8 6.7-3.3 11.1-7.6 15-.5.5-2.6 2.9-2.6 2.9 16.8-4.5 21.9-12.9 23.1-39.2.8-14.5.9-15.9 1.3-18.8 0-.4.5-2.6 1.2-5.9.2-.6.2-1.2.2-1.5"/>
		</svg>
		<svg id="t_g3" viewBox="-190 430 190 20">
			<path fill="#f0a023" d="M-153.5 440.7c2.3-1 4.4-1.4 6.1-1.4 2.7 0 6.8 1.4 9.9 3.4 1.9 1.2 3.2 3.2 4.2 7.1 3.4-2.4 4-2.8 7.4-5 .6-8.1.8-12.5.8-19.4 0-3.2-1.1-5-3-5-.2 0-.2 0-4.7.7-1 .2-2.1.1-3.1-.1l-.2-.6c1.7-6.1 6.8-9.9 12.9-9.9s11.6 5.9 11.6 12.7l-1.3 13.7c6.1-3.4 9.3-4.8 12.1-4.8 6.8 0 19.5 7.5 19.5 11.5 0 1.4-.8 4-2.5 6.7-4.2 7.1-6.8 19.2-6.8 32.9 0 8.1 1.9 12.7 6.6 16 5.7 4 13.5 6.3 21.6 6.3 10.8 0 18.8-2.6 18.8-5.7 0-2-1.9-6.9-6.6-16l1.1.2c2.7 2 4.4 3.4 5.1 4 4 4 6.7 7.1 10.6 11 2.1 2.5 2.8 5.6 2.3 9.2-.7 5.2-9.7 9.3-28.9 9.3-15.9 0-24.5-2.6-32.1-9.1-7.4-6.3-9.9-13.5-9.9-26.7 0-9.5.8-18.6 2.7-29.5.4-1.6.6-3.2.6-4.4 0-2.2-1.7-4.2-3.4-4.2-2.3 0-4.7 1.6-11 7.7-.6 8.7-.6 11.7-.6 17.8l.8 27.7c0 8.9-5.3 25-8.2 25-1.5 0-3-2.2-5.1-6.3-.4-1.2-.4-1.2-6.1-16-1.5-4.4-.6-3.3-3.3-8.1l-.7-1.8c3.4 2.6 6.3 5 7.4 5.9 1.3 1 2.3 1.8 3 1.8 1.1 0 1.3-2.8 1.3-14.1 0-3.6-.2-12.3-.6-21.8-5.7 3.2-7.6 4.6-10.2 7.1-3 21.4-5.7 29.9-12.3 37.8-4 4.6-7.4 7.3-9.5 7.3-1.7 0-2.3-1.4-2.7-7.5-.2-1.6-1.1-4.4-2.5-7.1-4.2-8.9-6.8-16.4-6.8-20.4 0-1.4 1.1-3.4 2.7-4.8.6-.8 7.4-5.9 20.1-15.5.2-1 .2-1.8.2-2.6 0-2-1.1-3.4-2.5-3.4-1.3 0-2.7.4-4.7 1-1.7.6-3.4 1-4.4 1-2.7 0-5.3-1-8.9-3.4-1.9-1.2-2.1-1.6-2.5-3.8l.2-1c3.4-.6 5.5-1.2 6.3-1.6zm7.4 33.6c-2.5 1-4.7 1.6-6.1 1.8-10.4 1.8-11 2-12.1 3.6-.6.4-.8 1.2-.8 1.8 0 2 5.5 11.5 8 14.1 1.1 1 1.9 1.4 2.5 1.4 3.2 0 6.1-7.9 8.2-20.8zm4.3-94c1.5.2 2.7.2 3.6.2 2.5 0 5.3-.8 9.7-2.6 5.7-2.4 5.7-2.4 20.9-12.3 2.5-1.6 5.1-2.4 7.4-2.4 5.7 0 15.4 6.3 15.4 10.3 0 1.2-1.1 3-2.5 5-5.9 7.5-10.2 19.6-10.2 30.1 0 5.3 2.3 10.3 6.1 12.9 2.7 2 7.2 3 14.6 3 4.9 0 7.2-1 7.2-3 0-1.2-.2-2.6-1.1-4.2l.6-.2c1.3.2 1.9.4 2.1.6l5.7 3.2c10.2 2.6 10.2 2.6 11.8 4.2.8.8 1.5 1.8 1.5 2.6 0 4.6-10.2 7.9-23.5 7.9-22.2 0-35.3-10.7-35.3-28.3 0-6.1 0-6.1 3.2-19.6.2-.8.2-1.6.2-2 0-1-.4-1.6-1.5-1.6-.8 0-2.1.6-4.4 2.4-5.3 4.4-10.4 6.5-14.4 6.5-3.4 0-7.4-1.8-12.9-5.7-4-3-4.4-3.6-4.9-6.1zm53.2 36.6c1.5-1.2 2.2-2 2.4-2l2.7-1.6c.4-.4.8-.8.8-1 0-.4 0-.6-3.4-1.6s-5.5-3.6-5.5-6.7c0-2.6 1.5-4.6 7.2-10.5 2.5-2.6 4.2-5.5 4.2-7.5 0-1.4-.4-3.2-1.3-5.3l.8-.6c1.3-.2 2.3-.4 3-.4 5.5 0 12.5 4.4 12.5 7.7 0 2.4-.8 3.2-12.7 12.1-1.5 1-2.1 1.8-2.1 2.4 0 .8.8 1.6 1.5 1.4l12.7-1.4c.4 0 3.8 2.2 5.1 3.2 1.5 1.6 2.1 3 2.1 4.6 0 3.2-2.3 4.4-8.7 4.4-4.9 0-5.7.2-12.7 2l-3 .8c-.4 0-3.4.8-6.6 1.4zm3.2 70.5c.7-.8 1.5-1.5 2.4-1.9.6-.3 1.4-.7 2.3-1.2 2.7-1.4 5.5-2.8 8.2-4 2.1-1.2 3.6-2.2 3.6-2.8 0-.4-.4-.6-3-1.2-2.5-.6-6.6-6.1-6.6-9.3 0-1.6.8-4 2.5-6.9 3.4-6.7 5.1-10.9 5.1-12.3 0-.4 0-.8-.2-.8-2.3-1.4-2.3-1.4-3.4-2.8l.4-1c2.1-1 4-1.4 5.3-1.4 3.6 0 8 3.8 8 7.1 0 2.2-3 8.7-6.3 14.5-.6 1-1.1 1.8-1.1 2.2 0 .6.8 1.2 1.7 1.2.2 0 2.1-.2 4.7-.6h1.9c6.8 0 12.9 4.6 12.9 9.9 0 3-.6 3.2-15.2 7.1l-16.3 3.2q-1.35.3-4.5.9c-.7.2-1.5.2-2.4.1"/>
		</svg>
		<svg id="t_g4" viewBox="-190 430 180 20">
			<path fill="#fff" d="M-101.9 379.1c-4.7 7.8-7.7 15.3-10.3 23.9-.9 2.8-10.7 13.4-14.1 10.6-1.3-1.9-6.2-10.2-8.8-10.2-6.9 4.7-8.4 1.9-15.4 9.5-1.5 1.5-3.4 2.3-5.8 2.1-3.2-4.7-5.4-14-1.7-18.9 1.1-1.5 1.9-2.8 2.4-4.5 6.6 0 9.6-3.6 13.7-7.4.6-2.8 4.9-5.5 2.4-8.3-1.3-1.3-.9-2.5.9-3.6 7.7-1.7 13.9 8.1 17.4 12.7 2.8 3.6-1.5 7.4-.4 10.8-1.1.2 1.3.6 1.5.6 5.1-2.8 13.3-18.2 17.1-23.5-.6-1.1 1.7-2.7 2.6-3.4 1.1 3 .4 6.4-1.5 9.6m-37.7 86.9c-.4 4.4-1.5 36.9-.6 39.4-.9 1.9-2.4 4.2-5.1 3.8-1.3-1.5-2.6-3-4.7-4.2-6.2-8.7-4.5-14.2-3.9-24.4l.4-3.4c.6-13.4 5.4-26.9 1.3-40.1 1.5-3 1.7-8 7.1-7.4 1.1 9.5 5.6 18.4 7.1 27.8-1.4 2.8.1 5.8-1.6 8.5m52.7 14.4c5.8 7 1.1 5.3-1.9 8-4.7-.4-16.3.9-21 1.9-1.3-1.1-3 .2-4.3.4-.9 2.5 1.9 3.8-.4 7-2.8 0-5.6-.4-8.4-1.3-3-4.9-5.8-9.8-9.2-14.6-.2-6.8-7.3-12.7-3.6-19.7 1.7-.6 2.4-1.5 4.3-.9 1.1 1.1 2.4 2.7 4.1 3 11.4-5.3 36.9-17.2 47.6-6.1 1.9 2.1.2 5.1 2.1 6.8 2.1 6.6-9.7 9.2-9.3 15.5m3.4-37.5c-3.9 0-6.4 2.5-10.5 2.1-2.6 1.1-6.2.8-8.1 2.8-16.5 8-37.5-9.5-23.4-12.3 5.4-.9 12 0 16.9-1.3 4.3-1.1 8.4-2.5 12.6-3.2 4.7-5.3 10.3 0 12.9 3.8.1 2.6 4.3 6.2-.4 8.1m27-56.2c-5.8-1.1-10.1 1.1-15.6 1.9-.4.6-.9 1.3-.4 1.9.6 1.3 5.8 4.5 7.3 6.8 4.5 6.1.4 13.4-7.5 15.1 1.9 2.5 13.3 6.4 17.1 8 2.4 2.3 3.6 5.1 5.1 7.8 1.1 14.6 7.3 84.3-4.9 93.9-.6 2.8-4.7 2.3-7.1 2.5-3.6-5.3-10.1-8.3-15.9-11.9-2.1-5.7-16.9-11-12.4-18.2 3.2-.6 2.8 3.6 5.4 3 1.5 1.3 14.6 3.2 16.9 2.8 7.7-4.4 2.8-63.2-1.5-71.6-3.6-1.7-2.6-7.2-7.7-5.9-1.5-1.5-3.9-1.7-5.8-2.8-4.9 2.1-18.6 5.5-24.2 7-5.8 1.3-12-.4-17.8.6l-4.5-.9c-1.5-11.7 36.2-10.4 42.4-19.1 3.2-.9 6-5.7 8.4-7.8-.9-1.5-1.7-6.1-4.1-6.6-2.8 2.5-6.6 3.8-8.6 6.8-2.6 0-5.8 3.6-7.5.2-2.6-1.5-1.9-4.9-3-7.2 1.1-1.9 1.1-3.2 1.3-5.1.6-6.1 13.1-11.7 11.6-21.2-.6-3.6-5.6-3-7.3-7.4 3.6-.9 2.4-2.3 7.1-2.1 11.1.6 17.6 13.3 16.9 21.4 13.9-1.1 14.6-6.6 30-.6 3.9 1.5 3.2 3 3.2 6.1-2.9 4.1-12.2 2-16.9 2.6m-43.3 80.4c-2.6 2.1-14.4 2.1-18 2.1-4.5 0-5.4 2.8-5.1 4.4 3.4 1.5 2.6 5.3 4.7 7.8 4.7 1.7 6.6-2.8 11.6-2.1 4.7-3 9-7 10.1-12.1h-3.3z"/>
		</svg>
		<svg id="t_g5" viewBox="-190 430 180 20">
			<path fill="#c070c0" d="M-59.4 430.8c-4.1.6-7.1-1.5-11.1-1.3 1.4-4.4 5.1-2.2 6.7-4.4 4.3-2 13-3.7 13.8-8.7-6.3-3.3-17.8-1.7-24.9-1.7-4.7 1.5-15.2-1.1-17.6 3.5.4.4 1.4 1.1 1.6 1.7l1 .7c.4 2.2.6 4.4 0 6.6-2.2-.2-16.4 10.1-16.8 12.2 2.2.7 7.9 1.7 9.1-.9 6.1-5 10.1-11.8 15.4-17.3 2 2.4 10.1 2.4 9.9 5.5l1.4 1.7c0 6.1-27.1 23-31.6 30.2 6.3.7 12.4-.9 18.2-2.4-.6-1.5-1.2-2.9-1.6-4.4-3.2 2.4.2-1.8.6-2.2l1.2-1.3c9.3 2.4 14 2.8 18.4 11.6.2 3.3 1.2 9.8-3 11.6-2 .2-4.9.2-6.9-.6-4.7-4.4-4-8.7-11.5-4.1.8 3.1.8 6.6-.4 9.8 1 13.6-.8 27.3-2.2 40.7-.6.9-.8 1.8-1.2 2.8-.6 1.5-2.4 1.1-4.1.7-5.3-1.5-20.7-18.4-24.9-23.2-6.1 4.4-9.3 8.5-12.8 14.6-1.6 2.8-3.6 2.2-6.7 1.8-4.9-5.9-10.5-12.7-7.3-20.5 1.8-4.2.4-9.2 7.1-8.8.4.4 1 .7 1.6.9 1.8 2.4 4.5 4.6 6.5 7 7.7-2.4 15.4-4.4 23.3-6.5l-.2 3.1c-1.8.4-3 1.7-4.9 2.4-1.4 1.7-4.3 2.8-2.4 5.2 2.4.9 10.7.7 13.4.2 2-.6 3.2-23.2-2.6-26.2-4.3.6-19 9-21.9 6.8-4.9-3.9-3.2-10.5-1.2-15.3 3.8-2.6 16-6.5 17-11.2-4.3-.7-7.9 1.3-11.9 2-1.2 1.1-3.4.9-4.3 2.8-3 .9-3.2-.9-5.1-2.4 1-3.9-1.2-7.7.2-11.6 3-3.3 7.9-4.6 11.1-7.6 4.9-4.4 9.9-8.8 13.6-14.2-3.4-.7-8.9 2.4-13.2 2.4-4.9 0-14.4 2-18.2 5-1.8 1.5-2.6 3.7-4.3 5.3-1.8 10.1-6.7 20.3-9.7 30.2l-2.4.7c-1.6-.7-2.2-1.5-4.3-1.1-2.6-5.2-7.1-10.7-6.5-16.8.6-4.4 5.1-5.7 7.1-9.2 1.4-2.4 5.3-12.7 5.3-15.3 0-4.2-7.7-1.5-6.9-7.6 1.4-.6 5.5-.2 7.1.2 1.8.7 7.5 3.5 11.5 4.8 0 1.7 3.8-.6 4.7-.9 2.8-3.5 22.7-9.2 27.7-9.4.8-1.3 2-2.6 2.2-4.2-7.1-.6-23.9-10-26.3-16.2 4.5-.6 6.7-.2 11.3 0l2.2-.4c5.1.2 9.9-1.5 15-2.4 3-3.7 2.6-9.8 1.2-14-2.6-1.8-5.7-3.3-8.7-4.6-.2-1.1-.4-2.2-1-2.9 1.2-2.4 3.2-4.6 6.3-5.3 7.9 3.1 19.8 6.1 20.9 15.1.2 2.2-.2 4.8 1.2 6.8 8.9 2 11.3-2.8 17.2 6.8 1.2 7.2-14.8 8.3-19.8 10.7-.4 2.8-1.8 5.3-1.8 8.5 8.3.9 16.6-.9 24.9-.9 3.4-1.7 19.4 2.4 22.9 4.1 5.1 2.6 15 15.2 4.7 18.9-4.9 1.9-15.8 1.4-22.3 2.4m3.2 72.6c-.6-.9-2-.6-2.8-.6l-1.2-.7c-9.3-5.7-16-12.9-24.9-19.2 1-4.2 5.3-.9 7.5-2.4 8.7.4 21.7.7 26.3 8.5 3.4 5.7 5.7 15.3-4.9 14.4"/>
		</svg>
		<svg id="t_g6" viewBox="-190 430 180 20">
			<path fill="#f0a023" d="M-35.9 474c-7.5 12.7-8.7 27.3-19.8 38.5-2.6 2.8-8.5 7.6-12.6 7.7-1-.9-2-1.8-3.6-2.2-.4-3.1-3.2-5.2-4.9-7.9-2.6-1.5-10.7-10.7-13.2-13.3 9.1 4.6 13.8 3.3 23.1 5 5.5-4.4 16-30.2 14-36.5-1.2-4.1-27.5-1.5-31.6.4 3.8 6.1 15.8 6.5 14.4 19.4.6 2.2-.4 4.2-1.6 5.9-5.5 1.5-6.9-1.7-10.1-4.6-12.2-.2-40.7 12.5-43.7 12.5-3.4-4.6-13.4-6.1-7.3-13.5 5.5 1.1 12.6-2.4 17.2-5 1.6-2.2 2.4-5.3 1.2-7.9l-27.5 9.8c2.2 10.1 4.9 18.3 2.2 28.8-3.8-2-5.7-4.8-7.9-8.3-5.5-3.9-2.4-10-4.5-15.1-2.4.4-4.5 1.5-6.7 1.7-4.1 1.7-11.3-6.6-8.1-8.8 3.6-.9 8.1-1.7 11.3-3.5 0-2.8-.4-6.8 3.6-7.7 3.4-2.6 22.7-11.4 23.1-13.3-8.7-3.9-13.8-23-17-31 .4-2-1-5.7 1.8-6.6 1.2-1.3 3-1.7 4.7-1.3l1 1.7c4.7-2.4 8.9-5.5 13.8-7.2-2.8-3.3-3-8.1-4.9-10-2.6 1.1-17.4 8.8-19 8.1-2.2-.9-3-3.1-5.3-4.4.8-1.3-4.5-5.5-2.4-9.2 4.5-1.5 3.8-1.7 7.9.6 4.3 0 13.4-1.7 17.2-3.3 4.1-1.8-8.3-21.9-7.7-25.4 4.5.6 9.3 1.5 13.2 4.1 3.4 2.2 11.7 11.2 10.7 15.3 1 2.4 14.6-.7 16.8-1.3 2.4-4.6 3.2-10 4.9-14.7 1.4-4.1-3.8-8.8-7.3-10.7.2-4.2 15.2-1.1 17.8.2 10.3 5.3 7.5 12.9 2.4 20.3 2.4.9 16.2-4.6 20.9-3.5 1.6 2.9 10.5 6.8 9.3 11.2-4.1 0-35 4.2-36.7 5.5-3.2.6-7.7 8.8-10.9 10.9 6.9-.7 15.4-2.6 22.3-2 6.3.4 19.8 7.9 17.8 14.6-1.8 6.3-14.8 28.2-21.1 30.8-1.6 1.5-5.1.6-7.1-.2l-.4-2c-2.8.6-3.4 2.6-7.7 2.6-1.6 0-3.4.2-4.9 1.1-1 5.7-.6 2.8-1 9.2 2.2-.2 4.5-.7 6.7-1.3 10.7-2.4 27.9-5.2 38.9-3.9 3.8-2.4 12.6.4 15.6 3.1 2 1.8 5.9 5.5 6.3 8.1.7 3.5-1.8 5.2-3.6 8.5m-81.2-17.5c-5.5.2-29.2 12-32.8 15.7 2.6 3.7 30-7.7 35.2-9.6 1.2-2.2.6-4.8.6-7.2zm-.2-39.1c-4.3.9-15.2 2.2-17.2 5.5.2 2.8-.8 5.7.6 8.3 2.8 5.5 4.1 9.8 3.8 15.9 5.3-2.8 10.3-6.8 14.2-10.7-3.8-.2-15.4-2-17.2-5.3 5.1-2.9 15.2-4.8 18.6-7.7 2.7-2.3-2-3.8-2.8-6m11.5-27.6c-2.2.2-7.7 2.4-9.7 3.3-.4 4.2-5.9 13.5-5.3 16.6 8.9-.6 18.8-12.7 21.1-19.9zm13.8 78.3c-2.6 0-5.3.6-7.9.9-.2 2.9-.2 5.9-1 9 4.5-.2 9.5-.2 13.8-1.3-1.9-2.5-3.3-5.6-4.9-8.6m-8.1-53.1c2.6 1.1 1.4 3.3 4.3 4.4 1.4.6 2.8.7 4.3 1.5 1.6.2 2.8 2 4.3 2.6 2.8 6.3-7.9 7.7-10.9 10.9l-.6 4.8c5.3-.2 3.4-.7 7.9 1.1 2.6 1.7 1.4 1.1 3.4 1.8 0-1.1 0-8.5.4-9.6.8 2.8.4 1.8 3 2.4 1.4-3.1 10.7-21.4 6.9-22.9-8.6-3.2-14.9 2.3-23 3"/>
		</svg>
		<svg id="t_g7" viewBox="-210 430 190 140">
			<path fill="#fff" d="m-92.548 430-.202.8c1.1 4.5 5.001 10.4 7.801 12.2 1.4 1 2.3 1.8 2.3 2.4-.2 1.2-4.2 5.9-9 10.4l.2 1c1.9-.6 3.4-1.2 4.1-1.4l8.5-3.5c1.2-.4 2.8-.799 4.9-1.199 6.4-.6 6.4-.6 7.8-1.6 1.6-1 2.6-2.9 2.6-4.9 0-6.3-5.6-10-15.2-10.4-3.5 0-5.8-.401-6.7-.801l-4.8-2.398c-.2-.2-1.1-.402-2.3-.602m-67.202 8.102c2.9 14.5-10.398 37.8-18.398 49.1-3.6 4.9-5.8 5.498-11.3 7.798-1.9 4.2 1.5 7.3 4.3 9.3l2.6 2c3.9 2.9 16.6-9.1 21.5-10-2.7 6-9.202 20.4-16.202 22l-2.199.2c-8.7 4-.9 12.4 4.1 14.9l2.4-.699c5.3-4.5 15.2-13.5 21.5-15.3-3.6 5.3-5.8 6.9-9.6 12.2 6.7-4.4 11.3-8.901 16.9-13.601 3.1-2.5 3.9 5.101 7 2.701 5.8-10.1 3.2-19.4-4.3-26.5-1.7-.4-3.4-.901-4.8-2.201 2.2-3.8 6.2-10.4 10.8-16.5 1.8-2.5 3.4-4.7 4.3-5.6 1.5-3-1-12-4.4-11.1-16.7-2.2-1.5-18.898-24.2-18.698m39.801 4.699-.5.6c1.6 4.7 2.3 7.4 2.3 8 0 3.3-5.1 11.4-7.1 11.4-.7 0-1.1-.4-1.2-1.6h-.7q-1.35 3.6-2.1 5.7c-.9 2.2-1.4 4.1-1.4 5.3 0 2.2 2.1 5.1 3.9 5.1 1.4 0 3.5-1.4 5.6-3.5 3.5-3.5 6.7-6.5 9.5-9 6.5-5.7 8.6-8.401 8.6-10.801 0-2.5-4.6-8.199-7.9-9.799-1.9-1-4.4-1.4-7.6-1.4zm-24.26 13.023c.814.085.86 1.951.36 5.576-2 8.2-6.6 14.902-10.2 22.202-1.2 2.5-9.9 3.098-12.8 3.798 5.3-10.5 13.5-20.498 20.3-29.798 1.088-1.238 1.852-1.829 2.34-1.778m45.36 4.676c-.4 0-1.1.4-1.9 1l-.5.8c.5 2.4.7 3.3.7 4.5 0 5.9-10.9 22.7-19.2 29.6-3.2 2.5-4.2 3.902-4.2 5.702 0 .8 1.4 5.9 2.3 8 .9 2.3 2.8 4.1 4.2 4.1.9 0 2.1-.6 3-1.6 7.3-7.1 9.5-8.702 17.7-12.602 4.2-2.2 16.9-6.5 18.9-6.5.9 0 1.6 1.001 1.6 2.201 0 1-.4 1.8-1.4 3.1l.2 1c1.9.6 1.9.6 4.4 2 2.6 1.4 2.6 1.4 2.8 1.4.7 0 1.8-.6 2.5-1.4 1.2-1.6 3.2-8.6 3.2-11.6 0-5.5-4.6-10.6-18.5-20.8l-.5.599c.4 3.9.4 3.902 2.8 10.602.4.6 1.1 2.5 1.8 4.5-7.2 1.4-15.9 3.9-23.1 7.1l-2.3.4c0-.4 1.4-2.002 4.1-4.702 11.3-11.4 11.3-11.399 11.3-13.699 0-4.5-6.5-13.701-9.9-13.701m-50.1 34.3c1.9 2.4 2.2 5.6 2.4 8.7 0 2.1-8.9 4.802-10.6 5.102 2.7-4.5 5.6-9.101 8.2-13.801m88.5 16.5c-4.4 0-7.9 1-14.6 4.5l-.4 1c12.4 4.3 13.6 4.901 13.6 5.901 0 .8-.7 1.6-1.9 2.5V526c1.2.2 1.6.4 3 .4 11.1 0 12.7-.6 12.7-3.5 0-6.5-5.5-11.6-12.4-11.6m-36.2 1.6c-2.6 4.1-3.5 7.201-3.5 12.301 0 7.2 4.1 13.9 8.5 13.9 1.2 0 2.3-2 2.8-5.7 1.1-6.5 1.9-7.8 7.8-14.5l-.4-.6c-3.9 1.6-5.3 2-7.2 2-2.7 0-4.1-1.5-6.9-7.2zm-20.1 9.6-.4.8c2.3 12.3 4.1 17.8 7.8 23.7 5.6 8.8 16.6 14.9 27.4 14.9 9.5 0 20.6-2.899 25.8-6.699 1.4-1 2.5-2.901 2.5-4.701-.1-2.1-1.5-4.7-3.6-6.5q-2.85-2.4-6-5.1c-1.1-.8-4.4-4.499-9.7-10.199-.5-.8-2.3-2.5-4.1-4.5l-.7.2c6.5 17 7.9 20.999 7.9 23.099 0 1.2-.4 1.4-1.8 1.8-7.1 1.6-7.4 1.6-11.3 1.6-12.4 0-21-5.7-25.2-16.6l-2.6-6.9c-.4-.8-.7-1.599-1.4-2.199-1.1-1.4-2.1-2.001-4.6-2.701m-13.1 3.602-.7.798c.7 3.7 1.1 5.501 1.1 7.801 0 2.4-.4 4.5-1.1 6.5-1.6 4.5-1.6 4.5-1.6 7.1 0 6.7 4.1 13.9 7.8 13.9 2.1 0 4.2-4.5 4.1-9-.5-12.9-.5-12.901-.5-13.701 0-2.9.2-5.299.9-10.799l-.8.1c-.7.8-.9 1-1.2 2-.7 1.2-.7 1.199-.9 1.199 0 0-.2 0-.2-.2l-.9-1.198-1.4-1.602c-.7-.6-1.9-1.598-4.6-2.898m-18.381.814a3.5 3.5 0 0 0-.719.084c-1.2.5-2.6.5-3.9.5l3.9 4.701c-.5 6.5 4.1 8.4 7 14.7h1.5c7.72-10.77-2.637-20.088-7.781-19.985m-14.52 6.584-2.699.201c1.2 3.3-1.4 7.8-.5 12.2.3 2.7 2.9 11.1 6.7 9.3 1.7-.7 2.4-17.101 2.7-20.201-2-.9-2.1.4-3.3.9-.9-1.1-1.9-1.8-2.9-2.4m-18.699 6.8c-2.4 8-6.1 18.7 1.7 28 1.2-2.9 2.4-6.199 3.2-9.599 1.4-5.1 1.2-10.5 2.2-15.6-4.5 2.3-3.5-2.8-7.1-2.8"/>
		</svg>
		<svg id="t_g8" viewBox="-190 430 180 20">
			<path fill="#f0a023" d="M-34.9 511.3c-6.1 1.5-6.5-.8-11.6-2.1-10.7-3-22.9-4.2-34-3.9-18.2.6-49.6 4.1-65.4 11.8-5.7 2.8-9.7 3.7-16 2.8-1.2-3.5-13.8-12.4-3-14.2l45.6-7.9c5.9-1.1 11.5-6.5 12.8-11.4-4.9.9-13.8 5-18.4 3.1-4.7-2-13.2-6.8-14-11.8 1.8-2 29.2-4.8 35.2-6.6.4-1.8-.2-9.8-3.4-9.8-12.8.2-14.8 2.6-27.7-1.8-.8-1.5-.8-3.3 0-5 8.5-2.9 17.2-5.7 26.3-6.8 5.1-.7 10.3-.2 15-1.8 6.9.7 17.8-1.7 21.7 5 4.5 7.6-8.1 7.2-13.6 7.6-1.6 3.3-3.8 6.8-4.7 10.5 3.8 0 7.3-1.7 11.1-1.5 5.1 2.6 7.1 7 8.9 11.6-2.4 6.1-18.6.7-20.9 5.5-1.4 3.1-2 6.5-2.6 10 3 .4 6.5-.4 9.5-1.1 13.8-2 26.9-.9 40.5 2.6 6.9 1.7 8.5 4.5 11.8 9.9 0 2.4-.8 4.1-3.1 5.3m-36-77.5c-4.3 5.3-10.5 1.5-14.2 6.3-9.3.9-17.8 1.7-26.9 4.6-4.9 1.7-9.1.6-13.8 1.7-10.7-4.2-7.9-31-19-41.1-1-2.9-2.2-5.9-1-8.8 9.3-4.6 28.4-13.1 32.4-21.9 1.6-3.5-10.1-8.3-.8-11.4 11.5-3.9 14.6 6.6 20.7 12.5.2 2.8-2.4 5.2-2.2 7.2 12.4-4.4 25.5-.7 35.2 6.5 3.8 2.8 9.3 9.8 7.7 14.2-1.3 3.7-15.3 26.9-18.1 30.2m-66.5-33.9 9.9 7.9c1.6-5.2 6.5-8.8 8.3-13.8-6 1.5-12.7 2.9-18.2 5.9m33.7-3.9c-3.8-.9-7.7-2-11.7-1.7-3 4.2-5.5 10.5-6.7 15.5 7.3-1.8 14.4-4.1 21.5-6.1 5.7-4.6 18.6 1.7 18.4 8.3-9.9 8.7-20.9 4.8-29 10.9-3 1.5-3.4-.6-3-2.4-2-1.1-4.9-2-6.7-3.5-.4-.4-1-1.1-1.6-1.1-1.2 5.7.2 12.5 1.2 18.3 9.9-2.6 31.6-9.4 40.9-8.3 3.8-10.5 11.5-21.9 6.7-33.2-13.4 2-14.5 7.4-30 3.3"/>
		</svg>
		<svg id="t_g9" viewBox="-190 430 180 20">
			<path fill="#f0a023" d="M-31.3 448.9c-11.5 2.6-8.4.4-19.2 1.2-20-8.7-35.2-34.8-54.3-45.3l-8.5-5.7c-6.3 8.3-15.3 23.3-21.4 31.6 6.1.6 36.3-5.9 40.3-9.2 4.5-.4 6.1 3.1 9.3 3.1l.8.4c4.3 2 15 9 3.8 11.8-2.6.6-6.5.4-9.3.7-9.5 1.5-18.6 4.6-27.1 8.7-3.2-.4-6.5-.9-9.3-2.2-7.5 10.9-12.2 9.2.2 19.7 8.3-3.3 29.8-15.7 36.7-16.4 8.3-.9 21.5 6.8 23.5 14.2 1.4 5.2-3.6 6.6-6.1 10.3-3.6 5.3-6.5 11.6-8.5 17.5 1.4 3.7 6.3 5.3 3 9.8-5.9 7.9-16-.4-23.5 1.7-5.3 1.3-10.1 2.4-15.8 2.4-1.2 2.2-2.4 4.4-4.3 6.5-11.5 1.1-13.2-23.2-18.8-29.5-1-6.1-4.9-11.4-1.6-17.5.4-7.4.8-15.9 8.1-20.5l1.8-3.3c-2-1.3-4.5-2.8-6.9-2.8-11.1 13.3-15.1 21.3-32.1 28.7-1.8.2-3.9.6-4.3-1.8 2-4.2-.8-7.3 2.5-9.2 3-2.3-1 6.2 8.2-6.8 11.3-18.8 25.7-35.9 37.9-54.2 3.6-5.5 6.3-11.6 10.1-17.1.4-2.2-2.4-3.9-3.8-5.5 1.2-3.7 4.7-2 7.9-1.5 4.7-2 12.4 3.9 14.2 7.7 1.8 3.5-1.2 5.5-3.4 8.1-2.8 1.1-4.1 4.1-5.1 6.3 6.1 1.1 10.8 5.9 16 8.9 5.3 2.9 10.3 10.2 15 13.7 11.9 9.2 13.7 12.4 26.7 20.3 8.5 5.3 11.5 7.3 14.3 10.3 2 1.1 6.1 3.8 3 4.9m-91.7 25.9c-.4.7 2.8 16.2 3.4 18.4 7.1-1.3 16.4-4.4 22.7-7.9 2.8-5.5 7.3-12.4 7.9-18.6-5 .9-32.2 4.6-34 8.1"/>
		</svg>
		<svg id="t_g10" viewBox="-190 430 180 20">
			<path fill="#c070c0" d="M-34.7 479.8c-1.4-.4-2.2-3.5-3-4.6-2.6-7.4-5.7-14.7-8.9-22.1-2-.2 0-4.1-4.7-3.9l-1 2c2.2 7.7 2.8 25.4-3.2 31.9-7.5 8.1-45.5 11.1-47.3.7-1.2-7.2 6.9-20.1 10.5-26.5 1.2-2 5.5-10.1 8.3-10.5 6.4-9.9-1.7-15.2-12.6-16 1.4 1.4 1.9 3.4.3 5.5-1.6 2.2-3.5 4.7-5.2 6.8-1.2 1.6-1.8 3-3.2 4.5-.8 2-1.8 3.9-2.9 5.5-3.8 13.1-15 24.7-7.9 38.9.8 1.7 2.2 3.9 3.6 5.2 10.9 10 39 8.3 53.6 5.3 8.1-1.7 16.2-3.5 23.9-6.8 3.1-4.8 3.1-11.1-.3-15.9"/>
			<path fill="#f0a023" d="M-128.1 402.4c-2.8 2.4-7.7 5.7-9.9 7.9-.8.9-.2 2 1.2 1.7 3.2-1.3 7.1-3.5 10.3-5 11.9-5 23.7-9.8 34.2-17.1 2.6-1.8 4.9-2 7.9-2.8 3.6-.9 5.5-2.6 6.9-5.7 2.6-6.1 1.6-7.6-2.6-12.5-1.2-1.8-10.7-2.8-13.4-2.9-3-.2-3 .9-5.7 1.8-4.5 4.2-27.1 12.7-33.6 12-2.8-.4-5.3-.6-8.1-.4 2 5 5.1 9.6 6.9 14.6 2.7 1.6 7.6 5.1 5.9 8.4"/>
			<path fill="#fff" d="M-125.5 441.1c-1.2 2.5-17.3 20.5-19.3 23.7-4.5 4.8-13 18.2-20.9 16.7-2 4.8-3.4 10-2.4 15.1 2.4 2.6 3.6 3.3 7.3 2.4 9.3-2.2 29.4-36.9 33.8-39.1 1.4-2.4 4.8-6.5 8.7-10.6.4-.6 7.9-9.3 8.3-10 5-11.1-7.3-2.2-15.5 1.8"/>
			<path fill="#f0a023" d="M-59.9 408.1c-2-3.5-5.5-3.7-8.5-5.7-4.5-.2-13 0-16.6 2.2-1.8 3.5-7.1 7-10.9 8.8-1.8.9-4.1 1.5-5.9 2.2-5.9 2.2-11.5 4.6-17.2 7-5.3 2.2-35.2 16.4-40.5 11.8-1.4-1.3-.8-3.7.6-5-4.9-1.5-4.9.4-7.3 2.9-1.2 9.8 1.1 14.3 10.4 19.3.5.6 3 .8 4.2 1 1.8-.3 7.3-2.5 8.7-3.2 14.6-7.9 18.7-8.4 33.8-15.2 1.5-.7 5.8-2.3 9.5-3.5 1.8-.8 3.7-1.5 4.3-2.3 2.2-3 13.6-6.3 17.8-8.5 1.2 0 2.2-.6 3-1.3 6.7-1.6 16-2.2 14.6-10.5"/>
		</svg>
		<svg id="t_g11" viewBox="-190 430 180 20">
			<path fill="#fff" d="M-41.9 465.1c-9.1-1.1-14.4-2.7-23.5-2.7-2.8 0-24.3 0-27.2-.3-26.7 4.6-38.5 12.2-63.4 18.7-8.3 2.2-9.9.6-17.6-2.2-.6-2-.6-4.1 0-6.1 3.4-2.8 8.5-2.2 12.8-3.3 5.1-1.5 32.2-8.7 33.4-8.9 1.4-.6-9.1-6.6-8.3-7.6-2.8-4.4-.4-7.6 5.9-5.3-4.5-7.2-9.1-18.2-7.7-26.9l1-3.5-2.4-1.1c-3.4-1.5-6.9-3.9-9.3-6.5-1.8-1.7 0-6.8 3.6-4.4 13 1.7 25.4-4.6 34.3-5.2l.1-5.9c-2.8-.2-18.8 6.1-21 4.6l-2.6-.4c-4.5-4.4-8.9-6.3-13-11.1l-1.3-1.9c2.2.7 3.1 1.2 5.9.8l7.5-.9c3.2.7 8.1 1.1 10.9-.7 5.9 0 7.8-1.2 12.8-3.7.6-3.3.3-5.1-1.2-7.9-1.9-3.3-5.2-2.4-6-6.3-1-3.7-.9-4.7 3.8-5.4 1.6-.4 3.2-.6 4.9-1.5 12.8 3.1 14.2 3.3 16.6 15.1 1.4.4 14.1-3.6 15.5-3.6 6.3 4.2 7.7-2 10.9 8.3-1 1.7-.6 4.6-3.8 3.9-3.8.7-19.3 4.1-22.2 6.7-5.3.4-5.9 7-3.8 7.6 2 .7 12.5-3.3 14.5-3.8 6.3 2.2 9.5-.2 13.8 6.1 2.2.6 1 3.1 1.2 4.4-5.7 3.5-21.5.4-25.7 3.7-13.2 2.9-24.7 6.6-37.7 10.5-1 1.3.4 2.6 1 4.1.4.4 1.8 2 2 2.6 1.6-2 4.7-2 6.9-2.9 5.1-1.7 26.9-7.1 31.4-8.9 4.1-1.7 21.5 4.1 17.8 12.9-2 4.8-4.8 9.1-7.9 13.2 6.6.9 7.5.3 10.5 4.1 1 3.3-7.5 7.7-5.3 8.7 10.7-1.1 14.7-2.2 30.4-1.1 10.1 1.5 10.3 4.4 12.2 11.2-1.2 2.5-8.1 5-10.7 2.8m-31.5 47.3c-3.4.4-3.2-.2-6.5-.7-3.2-1.1-13.4-.9-15.6-.2-8.3 0-18.4 3.1-23.9 6.8-8.3-1.8-7.9-8.7-12.6-13.5-1-8.8-8.7-19.7-4.1-27.3.4 1.3 9.9 2.4 11.1 3.1 5.1-3.1 10.7-1.8 15.6-5.2 2.2 0 10.3-2.8 12.4-3.5 7.3-2.4 16.4-2.4 17.8-.6 2.4.4 3.8 2.6 6.3 2.6 10.9 12.4 6.3 12.7-.6 25.4 0 4.4 3.8 3.5 2.6 8.5-.2 1.5-2.7 3.2-2.5 4.6m-34.4-84.3c-3 .9-9.7 2.7-15.3 2.7-2-.6 2.6 5.2 2 6.5.4 2.2-.4 3.5 1.7 3.8 1-.9 13.5-4.6 14.7-5 3.4-.7 15.4-.1 17.7-2.8 2.2-2.7 4.2-8.3-2.2-10.2-4.4.4-15.3 4.3-18.6 5m20.7 55.4c-7.3-.9-25.3 6.1-35 6.3-.6 3.3 4.1 8.3 4.3 11.6 1.2.6 5.3-.7 10.1-.9 4.7 0 11.3-.4 14.4-3.5 5.3-.4 7.5-5.3 6.3-9.8-.3-.6.1-4.1-.1-3.7m-30.8-33.3c-.8 1.5 3.6 5.7 3.8 7.3 6.7-1.8 20.3-3.4 27-4.9.4-2.4 2.2-6.9 2.2-9.3-21.2 1.5-25.4 6.4-33 6.9"/>
		</svg>
		<svg id="t_g12" viewBox="-205 430 180 170">
			<path fill="#f0a023" d="M-97.8 430c-1.2 3.9.8 7.702-.4 11.602.8 6.3-3.8 11.599-8.1 16.199-15.6 17.5-27.9 35-53.1 42-2.8.6-6.3 2.4-9.3 1.3-2.6 0-4.7 1.3-6.3 3-1.5 4.2 5 3.5 5.4 7.2 4.7 3.9 10.5 6.099 17.2 5.699 7.1-2.9 12.2-7.899 19.8-10.299l-1.5 1.799c2.5-1.1 5.2-1.998 7.5-2.898 3.3-1.4 6.5-2.9 9.9-4 3.1-1 6.2-.901 9.2-1.801.7-.2 1.3-.3 1.9-.2 4-2.9 8.3-5.5 12.9-7.9 5.5-2.8 9.9-5.901 9.7-12.201-6.9-2-13.2-2.599-20.3.201-1.8 3.1-10.9 5.299-14.6 6.299 1.8-1.7 3.4-3.899 5.7-5.299 9.1-12.2 25.9-19 36.5-29.9 4.1-4.4-4.9-11.201-8.5-13.801-3.8-3.1-8.1-6.1-13.6-7m-23.8 16.5c-4.7 4.1-16.4 17.002-23.3 10.102-3-2.8-3.2-4.602-8.3-4.202 7.1 5.2 1.2 8.302 2.9 14.202-1.2 1.5-.4 3.498-.6 5.298 1.4 3.1 4.9 7.401 7.3 9.801 10.5 10.5 14.8-3.7 11.9-10.3.6-6.3 7.3-12 10.1-17.5-.2-3.1 1-3.701 0-7.401"/>
			<path fill="#fff" d="M-133.6 526c3.5-1.3 5.7-6 4.9-8.3-.7-2 .4-3.1-2.2-4.3-.4-.2-4.3-1.7-3.5-1.5-4.8-1-5.6 1.4-7.4 4.3-3 3-5.1 3.9-7.8 7.1-1.3 1.6-3.2 3.1-4.6 5.2-.4.3-1.1 2.2-2.3 2.7l.1.1c-6.8 8.3-15.9 15.3-21.7 24.1-2.1 0 1.7-8.8 1.9-10-5 5.9-4.5 7.7-7.4 14-6 3.3-4.5 8.8-6.4 14 1.2 1.3 2.1 2.8 4.3 2.6 1.6-1.5 4.1-1.8 5.8-3.3l20.7-18.6c1.6-1.5 2.5-4.1 4.8-4.4.6 5.7.4 11.2-1 16.8-6.2 5.3.8 24.7 8.9 25.8 4.5-9.6 4.3-29.7 10.7-36.3.5-1.7 1.6-4.2 3-7.2q0-1.5.3-3c.2-.9.5-1.7.8-2.5.2-.6.3-2.7.6-1.4-.3-1.3-.1-2.5.4-3.5-.2-.5-.2-.9-.3-1.4l-9.6 15.3-.6-1.1c.2-4.2-.4-8.8-3.3-12.2 2.5-5.1 4.1-5.9 10.9-13"/>
			<path fill="#c070c0" d="M-47.3 570.8c-4.6-6.1-6-18.6-9.2-21.9-1.2-1.5-2.5-9.6-7.5-12.5 1.6 9.2 2.1 20.6.2 29.7-9 12.5-44.7 10.3-44.9 1.1-.5-31.8 30.5-34.8 30.5-53.6-4.4-5.7-.9-15.3-18.3-14.4-1.8 1.7-3.7 1.1-5.9 3.5l5.3 1.8c2 2.9 1.4 6.8 1.2 10.1-2.1 3.7-8.5 16.3-11.7 19.3 1.8-10.8-2.1-17.4-7.8-18.3-4.1-.6-6.6 2-9.6 4.4-1.6 2.6-3 9.1-3.1 12 1.3.2 2.5-5.3 4.1-7 1.7-2.6 3.1.9 3.1.9-.4 6.1-.7 23.5-1.1 24.7.5 6.5-1.9 12.5.5 19.3 6.6 19.4 27.8 19.4 44.3 17.7 8.9-.9 18.9-1.8 26.4-7 3-3.8 3.3-7 3.5-9.8"/>
		</svg>
		<svg id="t_g13" viewBox="-190 430 180 20">
			<path fill="#f0a023" d="M-30.8 454.3c-4.9-3.3-12.7-7-15.9-7.1-16.2-.8-30.4-18.5-47-16.1.5-2.3-.8.2.6-3.1 12.2-4.4 26.9-2.2 39.9-2 8.1-5.3 2-7.6-1.8-12-8.1-4.6-20.5-.6-29.4.4 3.4-2 22.9-10.5 23.5-12.2 1.6-3.5-2.8-6.6-3.6-10-3.2-1.5-5.1-5.2-9.3-4.8-4.5 4.6-11.7 3.5-17.4 5.9l-6.3-5c8.1-3.1 17.2-3.7 25.3-7.2 1.4-1.7 1.4-3.5 1.6-5.3-1.8-5.5-7.9-9.6-14-11.4-16 10.3-36 17.1-54.1 24l-1.2 2.2c3.2 3.5 6.5-.9 8.3 2.2 7.7-.4 15.2-1.8 22.9-3.1l-.2 1.1c-3.6 4.1-.4 4.1.4 7.9-9.3 3.7-18.6 7.9-28.8 10-.6-1.7-1-3.3-1.6-5h-4.9c-3.2 1.5-.4 3.9-2 5.5.6 6.6.2 14.6 5.1 20.1-9.5 5.7-23.3 8.3-34 12.4 2.4 4.4 7.1 6.5 11.9 8.1 9.5 3.1 18.8-5 26.3-9 .4-.2 4.1-2.2 4.7-1.7.6.7-1 2.4-1.4 2.9-8.5 11.6-17.8 24.1-30.6 32.1-2.8 1.7-6.3 1.8-7.7 5l4.9 1.1c11.3-5.4 14.9.7 28.6-13.8 1.9-1.9 20.6-24.5 27.1-33.4l2-.9c-.3 7.6-.7 15.3.2 22.9.3 1.4 2.7 4.2 3.5 4.1 1.2-.3 3.1-1.5 4.5-1.2.7.2 5.2-2.7 5.7-4.2.1-3.3.5-17.6 1.3-20 4.3.9 11.8 9.7 15.8 11.2 12 4.3 18.3 16.3 30.5 16.5 5.7.2 5-1.6 10.8-3.8 3.4-2.8 6.4-1.6 5.8-3.3m-59-58.4c3.8-.6 7.9-2.2 11.7-1.3-2.6 5-9.7 13.1-14 17 .3-4.6 3.5-11.8 2.3-15.7m-17.2 20.7c-1.8 2.8-21.1 9.2-25.1 9.8-.6-.2-2-.7-2.2-1.1 6.1-6.5 13.2-12.2 20.9-17 .8-2.6 4.1-3.1 6.5-3.3l.8 1.5c-.3 1.8-.1 9-.9 10.1"/>
			<path fill="#fff" d="M-99.2 456.9c-2.3-.1-7.3-.9-14.5 3.8-4.6 4.5-13.2 6.8-16.8 13.2l.1-2.4c.3-1.8-.5-6.9-.9-7.6-1.8-2.6-.9-4.7-3.5-4.4-1.8.4-5.9 5.3-6.7 7.3-2.6 13.1 2.4 32.6 12.8 41.9 2.4 2 7.9 4.4 10.9 5.9 8.3-2.4 16.4-6.1 25.3-6.3 3.2 2.6 3.8 6.8 6.1 10 2.6.7 4.9 1.7 7.3 1.8 18-9.6 17.6-29.7 23.5-45.2 2.4-6.3-4.3-8.3-6.1-13.5-11.2-5.8-24.7-6.9-37.5-4.5m-15.3 35.3c2.4.7 5.1.9 7.3 2-3.8 3.5-9.7 6.3-14.6 8.5-3.6-7.6-4.1-15.9-6.5-23.8 1.6-2.6.2-5.3 4.3-5.9 5.7-.6 11.1-2.4 17-2.4l.2 7.9c-6.5 1.5-12.8 3.9-19.4 4.8.4 5.5 8.9 5 11.7 8.9m35.1 9c-4.7-2.6-12.8-5.7-18.4-5.3 1.8-6.5 16.8-7 15.2-12.9-4.1-2-6.3-5.3-11.5-5.2-.2-5.5 3.2-7.9 7.9-10.7 3.4 0 12.2 0 14.8 1.1.3 11.4-2.8 22.7-8 33"/>
		</svg>
		<svg id="t_g14" viewBox="-210 430 180 140">
			<path fill="#f0a023" d="m-141.474 430-3.4.4q-8.25.15-8.1.899c.1.5.3.9.6 1.3s11 1.801 11 8.801l.199 2.2c-.8 3-1.3 8-9.5 16.8-9.1 9.8-28.899 32.4-32.299 36.6-2.9 3.6-3.5-1.9-6 4.6-.6 1.6-1.601 6.5-.601 7.3 1.8 1.4 4.8-.1 5.3-.3 3.1-1.1 9.2-4.501 12-6.301 1.5-1 3.4-3.1 5-5 3.6-3.9 16-19.099 19-21.299 3.2-2.4 6.101-5.7 9.801-7.8l10.5-9.2 7.7-9.3c1.7-5 .7-7.3-1.2-9.6 0 0-1.1-1.501-7-4.801s-10.3-5.099-13-5.299m33.1 13.299c.1.3 6.7 1.201 9 5.701.9 1.8 1.199 4.9.199 5.7l-2.7 6.2c-.3.2-3.8 5.9-6 9s-7.6 7.6-10.3 10.7l-7.299 9s-10.201 11.5-15.601 18c.1 0-7.8 8.199-7.8 8.199l-7.7 6.701c-2 2.8-3.4 4.9-4.3 5.5s-3.3 4.2-3.3 4.2c-.3.5-4.3 4.1-8.2 9.3l-5.3 2.5c0 1-5.8 2.1-6.2 2.2-.3.1-.8.6-1.3 1.3l1.201 4.1.2 7.6c0 1.6.499 3.2 1.599 4.8s4.001 1.7 8.701.2c4.2-1.6 17.699-4.2 21.299-6.1 3.6-1.8 6.3-2.1 8.4-2.6 2.1-.6 20.301-4.8 20.301-4.8.8-.5 5.2-.801 5.5-.901s2.6-.499 6-1.299c3.4-.7 5.6-.6 8.1-.8 2.5-.1 3.8.1 4.6-.1 1.9-.7 4.3-1 4.8-.9.4.1.5 2 1.1 3l.799 4.599c0 .7.3 1.601.8 2.601 0 0 9.9 10.3 12.2 9 0 0 5.5-2.7 6.7-4.4h1.6l2-4.201-.5-9.7c0-.7-1.8-9.699-1.8-9.699-2-3.9-3.8-10.9-6-13.2s-6.5-10.201-9.8-12.901c-3.2-2.8-6.7-5.199-10.4-7.399-3.7-2.1-8.7-6.3-11.8-8.3l14.7-15.7c1.3-1.1 7.1-8.5 7.8-10.3s2.9-3.8 3.2-5.2c0-.7 2.5-3.1 1.7-4.8l-.2-2c1.6-3.1.4-3.6-7.5-8.5s-9.6-5.6-11.2-6-4.2-.301-7.3-.301m-4.4 55.8 5.699 8.6 2 4.1c.3.7 3.2 7.201 3.2 7.201l2 4.6c0 .7 1.7 4.9 1.7 4.9l1.8 7c-5.7.6-12.1 0-15.7-.6s-6.2-.9-7.7-.7c-1.5.1-17.6 2.8-17.6 2.8-3.1.2-12.1 2.1-12.5 2.2-.3.1-6.299 1.9-7.099 1.4z"/>
		</svg>
		<svg id="t_g15" viewBox="-190 430 180 20">
			<path fill="#fff" d="M-55.1 429.8c-4.6-.7-9.2 1.2-13.8 1.2 0 4.3-2.9 8.5-1.1 12.6-1.3 5.2.2 10.5-.7 15.6 1.1.2 4 .2 4.8-.7 5.9-1.4 13-3 17.3 3 2.9.5 2.6 2.8 4.8 4.1 1.5 2.5 2.6 3.9 1.1 6.9-3.5 3.4-5.7 2.8-10.1 2.7-8.8-2-18.9-.9-26.8 2.8-3.3-.5-6.8.2-9.6 1.8-1.8 2.1-10.1 2.1-12.9 1.8-2.6-1.4-9.9-8-8.8-11 2.6-1.4 6.6.2 7.9-1.8 5-1.6 10.7-3.7 15.8-5.7 1.7-.7 1.1-2.8 1.1-4.3.2-4.3 1.3-16.9.4-20.3-2.9 1.4-8.1 3-10.3 5.5-4.2 1.8-7.5-1.1-11.2-3 0-1.2-3.7-2.5-4.6-2.8-2-.7-3.3 2.3-6.6 1.6-1.1.4-2-.5-3.1-.4-2 0-3.7 2-5.5 2.5-2.4 2.7-6.1 5.5-5.7 9.6.4 3 1.5 5.9 1.7 9.1.4 6.6-.6 13.1.4 19.9-1.7 6.2 4.4 12.3-1.1 17.9-2.8.9-3.9-.2-5.9-1.8-1.5-3.7-3.3-7.3-5-11-4.4-4.3-1.3-10-1.5-14.9 0-7.3 1.8-14.8-.2-22-1.1-.7-2.9-2.5-3.9-2.7-2.8 2.1-5.1 4.8-7.2 7.6-1.7-.2-2.6.9-3.7 2-7.2 6.2-8.4-12.3-4.4-17.6 7-.4 17.6-25.8 22.6-31.1 4.2-11.7 7.7-11.4-.6-22.9 5-3 19.7 8.4 21.9 12.6.4 2.7 2.2 3.9.9 6.8-2.8 7.1-7.7 13-11.6 19.7-2.9 2.1-9.2 10.3-11.6 13.5 0 2.7 4.4 5.7 5.5 8.2.4.4 1.3.9 1.5 1.4 6.8-13.5 39.1-16.5 50.5-25.1.6-14.9 2.4-22.6-3.7-37-1.1-2.7-1.3-6.6 1.8-8 1.7-.9 3.3-1.2 5.3-1.2 19.3 5.5 8.3 24.5 11.9 38.2 6.2 2.7 12.1-4.8 18.9 0 5.1 3.7 10.7 5.3 8.8 12.8-1 6.1-9.6 2.5-13.7 3.9m-27.7-48.7c-4.6 2.1-1.8 5.7.2 9.1z"/>
		</svg>
		<svg id="t_g16" viewBox="-190 430 180 20">
			<path fill="#fff" d="M-171.3 454.8c1.7 1.9 2.9 2.7 4.1 2.7.6 0 1.5-.4 2.9-.9 1.7-.9 5.6-2.3 11.2-4.2 2.9-.8 12.4-4.6 22.3-8.7V429c-5.4.6-7.4 1.7-20.3 11.6-8.1 6.1-10.6 7.8-15.5 10.1l-1-.6c1.2-1.1 2.1-2.3 2.7-2.7 5.6-6.1 7-7.8 8.9-11.8-8.1-6.6-11-9.7-11-11.9 0-1.1.2-1.7 4.5-6.8 2.7-2.8 4.1-4.4 4.1-4.4.4-.4 3.7-8.2 4.5-9.9 1.2-3.4 1.7-5.9 1.7-9.3 0-4.7-.4-5.9-2.3-8.3l.4-.9c1.2-.4 2.1-.8 2.7-.8 1.9 0 6.2 2.1 9.1 4.4 3.1 2.5 5.2 6.1 5.2 9.1 0 4.6-2.3 12.3-5.8 19 1.5.6 2.5.8 3.1.8 1 0 2.9-.6 5.4-1.1 1.2-.4 3.1-.9 5.4-1.5l.6-16.3c.2-2.8.2-7.2.2-13.3 0-6.4-1-8.5-6-11.6v-1.5c2.5-.8 4.8-1.3 6.4-1.3 7 0 16.8 9.9 16.8 16.9 0 2.7 0 2.7-2.9 14-2.5 9.7-4.6 24.1-4.6 32.4v1.5l.2 11c2.3.8 2.7.9 4.6 2.1 7.2 0 13.7-1.9 31.2-8.3 7-2.8 7.4-2.8 13.2-4.7v-1.5c0-4.7-.8-6.3-4.6-10.2-16.1 14.2-24.4 19.2-32.3 19.2-3.9 0-6.4-1.9-9.3-6.8l.6-.6c1.4.4 2.3.6 2.9.6 4.1 0 7.4-1.9 16.1-9.5-4.8-5.1-5.4-6.1-7.2-11.6l-3.3.2c-1.9.4-3.5.6-3.9.6-.6 0-1.5-.2-2.9-.4l-.2-1.1c5.2-3 7-4.9 10.8-10.6 8.3-12.5 13-21.8 13-25.8 0-2.3-1.2-3.8-5.8-7.8l-.2-1.9c6.2-1.3 6.6-1.3 7.7-1.3 2.9 0 7.7 2.1 10.8 4.7 2.7 2.3 3.5 4.4 3.5 9.1 4.8-1.1 7-1.7 8.1-2.1.6-.2 1.5-.8 3.1-1.3l2.7-1.3c.8-.4 1.7-.6 2.9-.6 3.1 0 4.1.6 11.4 7.8 3.9 3.6 5 5.5 5 7.8 0 2.5-.6 3-6.2 6.8-1 .4-4.3 3.4-7.5 6.6-1.7 1.7-6.8 6.8-12.4 12.1 2.5.9 4.6 1.9 5.4 2.3 6.8 2.7 9.3 5.1 9.3 9.3 0 .9-.2 2.1-.4 3.4 4.6-1.3 7.4-2.1 8.7-2.1 4.1 0 4 2.2 8.3 5.6 2.9 2.5 4.1 4.2 4.1 6.6 0 2.8-2.5 4.7-6.4 4.7-1.2 0-4.6-.1-6.8-.1-1.9 0-4.5.2-7.9.4-.2 7-.4 12.3-.4 15.7 0 4.9.2 11.6.6 19.3.2 4.4.2 8.2.2 11.2 0 12.1-3.7 22.6-10.8 29.6-1.9 1.9-3.3 2.8-4.1 2.8-1.4 0-1.7-.2-6.4-6.1-1.4-1.9-4.3-4.9-7.9-8.3l-7.9-7.6c-2.5-2.8-4.1-4.6-11.2-13.3l.2-.9c2.5 1.1 4.1 1.9 4.6 2.1 4.6 2.5 9.3 4.7 13.9 7 3.7 1.7 6.4 2.7 7.9 2.7 3.7 0 5.4-7.2 5.4-23.7 0-6.4-.2-11.9-1-27.7-3.1.8-5.2 1.5-5.8 1.7-4.1 1.7-8.1 3.4-12.4 5.3-.6.2-3.5 1.3-6.4 2.5 9.1 4.6 12.4 8.3 12.4 13.8 0 3.4-2.7 6.8-5.6 6.8-1.2 0-3.5-.6-6.6-1.5-3.7-1.3-6.4-1.7-15.1-1.9v-.8c5.2-3.4 6.4-4.6 8.7-7.6-1-1.1-1.5-1.7-1.7-2.1l-1.9-4.4s-.6-1.3-1.4-2.5c-4.5-1.3-5.4-1.9-9.1-5.5-1.4 1.9-1.7 2.1-4.3 3l-.2 32.4c0 17.3-1.9 26.7-5.2 26.7-1 0-1.9-1.1-3.1-3.8-4.1-8.2-5.4-13.8-5.4-21.6v-1.7l.4-26.4-14.3 6.3c.8 3.6.8 5.3.8 9.1 0 7-1 11-4.3 17.3s-6.4 9.3-9.3 9.3c-1.7 0-4.5-5.9-4.5-9.9 0-1.1 0-1.1 2.9-4.7 1.4-1.7 2.5-6.8 2.5-10.6 0-2.7-.4-4-1.7-7-5.6-1.9-8.1-3.2-10.6-5.7-2.3-2.3-4.1-4.9-4.1-6.4 0-.9.8-2.5 1.9-4.2zm89.8-43.1c-4.3-3.6-4.8-4.2-8.5-8.3-2.9 3.8-3.5 4.4-6.6 7.2 4.5 2.1 5.2 2.7 9.7 6.3zm-1.6-15.9c6.2 2.3 7.2 2.8 11 6.1 5.8-7.8 7.2-10.1 8.5-14.8-2.1.2-4.3.6-5 .8-4.8.9-8.1 1.7-8.5 1.7l-1.2-.2z"/>
		</svg>
		<svg id="t_g17" viewBox="-190 430 180 20">
			<path fill="#fff" d="M-48.2 455.3c-12.4.2-23.2 2.5-35.4 4.8l1-3.2c-5.3 0-45.6 13.3-50.7 16.5-7 1.2-23.5 13.7-32 11.2-.7-2-2.1-3.4-3.3-5.2-1.4-2.1-1.5-3.9-.5-6.2 3.6-8 14.8-2 19.6-8.4 3.3-.2 20.5-8.2 24.4-10-.9-4.1-3.4-9.1-3.1-13.3.5-7.8 4.5-14.6 2.8-22.7-6.9-3.2-8.8-11.6-8.1-18.7 6.9-8.9 13.9-13.9 22.3-20.8 2.2.2 2.4-3 3.4-4.4-.7-2.8-3.8-3.6-2.6-7.5 8.1-1.6 20.6 3.6 24.2 11.7 4.6 10.7-19.1 17.2-24.9 21.5-3.1.7-6 2-8.4 3.9 3.1 3.9 7.6 6.4 10.7 10.5 1.4-.2 2.2-3.4 4.5-4.3C-96 407-94 399.1-84 399.9c4.5.4 5.8 2.3 9.6 3.6 3.3 6.6 10 11.6 4.3 18.8-.5 4.4-6 2.8-6.9 5.9-1.2 4.6-2.1 9.2-3.1 13.7 8.9-2.5 29.2-4.6 36.3 2.7 1.9 2 2.9 5.7.7 7.8-.6 2.1-3 2.9-5.1 2.9m-66.9 30.3c-5.3 5.5-13.4 11.2-13.1 20.1-2.2 2.5-5.8 2.3-8.8 1.2-6.4-2.5-5.8-11-8.1-16.7 2.1-4.3 6-6.8 8.9-10.1 2.1-2.7 4.5-8.4 8.3-5.2l1.2.7c-.2 2-2.8 6.8-1.2 8.2 8.4-3.9 16.7-8.4 26-9.2.9 3.5-11.6 7.9-13.2 11m20.3-57.6-3.4.4c-2.2 2.5-6.4 3.2-8.8 5.5-3.1 3-4.5 9.6-1.9 13.3 14.8-4.4 7.7-5 14.6-17.4zm27.3 70.4c-2.9-4.8-7.2-8.5-10.5-13.2 1.9-1.8-.2-6.8 4.1-5.9 1.2-1.1-.9-3.7-1.5-4.4-2.9-3.7-5.8-2.8-10-3 2.1-2.8 4.6-3.2 8.1-4.1 21.1-6 31.8 24.2 17.2 33.1-3.1.3-4.8-.4-7.4-2.5"/>
		</svg>
		<svg id="t_g18" viewBox="-190 430 180 20">
			<path fill="#c070c0" d="M-44.7 453.5c-4.1.7-13.5-1.2-18.1-2-10.6-1.4-21.6-2.1-32.2-.5-.9 18.5-1.1 37-1.9 55.4-.7 2.8-1.1 5.5-3.2 7.5h-1.6v1.1c-10.6-5-5-57.6-8.7-60.1-4.2-2.7-32 11.4-37.2 14.4-3.7 2.3-9 3.2-13.5 3.6-6-5.2-5.8-3.7-5.3-11.7.9-1.6 1.8-3 3.9-3.4.9 1.1 6.7-.4 8.5-.5 13.3-6 26.9-11.6 40.9-16.3.7-4.1-6-7.5-8-11.6-3.5 1.1-11.9 11.7-19.5 14.2-4.1-4.3-1.9-15.8 3.7-17.9 6.2-7.6 12.9-15.1 17-24-6.5 1.6-12.4 5.9-19.1 7.1-5.3-.2-9.4-2-12.6-6-.7-3.7-2.5-8.4 1.1-11.4 1.8-.5 3.5-1.4 5.5-1.4 9.2-4.3 19.8-3.6 28.7-8.9 2.3-1.2 9.6-6.8 9.9-9.1-3.5-4.1-8.3-7.6-11.3-12.1v-2c5.1-.4 18.1-.4 22.7 1.4 1.9.9 2.3 2.7 3.4 4.3l1.2.5c2.5 5.2 1.1 11.2-2.7 15.5 3.4-.7 15.2-4.1 17.3-1.1 3.7 1.6 6.5 4.4 5.7 8.7-5.5 2.5-12.7 6.4-18.8 4.6.4 1.6 4.2 3.6 5.8 4.3 3.7 4.1 3.2 7.8 3.4 13 2.5 1.1 5.8-.9 8.7 1.6 1.8.2 3 1.6 4.4 2.5.2 2.5.4 5 1.2 7.3-3.2 5.5-24.3 19.2-30.6 20.6.2.5.4 1.2.7 1.6 2.1-.5 4.4-1.4 6.5-1.2 6.4-1.6 37.2-5.9 41.1-1.6.4.2.9.4 1.1.4 4.6 1.8 5.8 6 6.7 10.3-1 1.8-2.9 2.7-4.8 2.9m-82-63.7c-3 0-16.8 1.6-18.1 3.9 3.7.4 6.9-.4 10.3.4 2.1-1.4 6.7-.7 8.1-3 .2-.4.6-1.3-.3-1.3m23.5 7.9c-7.6.7-18.8 17.2-13.1 22.6 7.1-1.4 8.3-10.3 11.7-15.5 1.6-2.5 3.7-5 4.4-8-1-.2-2.2 0-3 .9m8.9.7c-9.4 8.7-11 17.9-13.5 29.9h2.8c.2-2.8 1.8-5.2 3.4-7.5 4.6-1.8 11-16.3 11.2-21.3-1.3-.6-2.5-1.1-3.9-1.1m3.7 25.2c-2.3 2.5-4.6 5-7.4 6.8-.4.4-2.1 1.4-1.2 2 3.5 2.1 11.5-5.7 13.8-8-1.1-2.7-3.4-1.5-5.2-.8"/>
		</svg>
		<svg id="t_e1" viewBox="-20 -120 340 370">
			<path fill="#fff" d="M52.894 69.96c-17.507-.113-9.053 18.899-.906 19.472 56.421 12.318 92.34-11.637 131.425-9.525 20.679 2.05 53.824 11.04 61.514 15.63 1.638.978 3.978.741 4.995.2 8.34-4.393 7.713-25.104 4.358-36.853-.932-3.487-8.67-7.71-15.057.179-2.094 2.11-10.85.64-12.705-.625-8.379-5.713-31.444-11.186-43.558-8.082-46.229 9.757-82.747 26.55-130.066 19.604"/>
		</svg>
		<svg id="t_e2" viewBox="-20 -120 340 370">
			<path fill="#fff" d="M59.02 102.596c-15.912-3.454-14.93 14.041-.939 17.702 58.429 18.963 99.345-16.313 139.821-15.484 20.31 1.175 35.046 16.991 53.722 14.628 34.982-7.283 16.15-30.758-1.646-33.7-14.285-2.46-27.333-7.527-52.908-3.771-49.696 9.559-98.759 31.719-138.05 20.625m39.8-55.703c-6.437 1.433-9.592 15.777.387 17.61 34.313-.094 73.546-13.36 112.424-18.667 6.64-1.364 7.75-14.503 8.194-19.04 1.47-7.125-3.421-9.18-9.243-7.885-38.857 9.785-72.906 22.044-111.762 27.982"/>
		</svg>
		<svg id="t_e3" viewBox="-20 -120 340 370">
			<path fill="#fff" d="M62.003 124.593c-15.658.145-14.692 16.46-.924 17.702 58.87 1.546 97.758-27.332 137.587-22.024 19.986 1.175 39.022 17.275 57.4 14.912 9.427-7.967 7.546-30.352-1.242-31.71-49.953-9.825-27.623-12.214-56.976-6.046-48.902 9.56-97.13 27.166-135.845 27.166m27.345-92.747c-6.912 1.55-10.3 17.061.416 19.043 36.846 6.148 78.975-10.708 120.724-20.185 7.13-1.476 10.94-13.125 11.417-18.03 1.579-7.705-6.291-12.487-12.543-11.086-41.003 16.914-78.1 31.254-120.014 30.258m.18 44.368c-6.115 1.428-9.113 15.716.368 17.542 32.602 5.663 74.423-9.864 111.361-18.594 6.309-1.36 7.364-14.447 7.786-18.967 1.397-7.097-3.25-9.144-8.782-7.853-36.278 15.58-73.648 28.79-110.733 27.872"/>
		</svg>
		<svg id="t_e4" viewBox="-20 -120 340 370">
			<path fill="#fff" d="M186.107 16.16c-6.14.268-12.523 5.278-13.779 9.85l-.119.677c-2.908.33-5.866.682-8.973 1.108C131.502 33.057 76.74 56.61 59.74 49.425c-7.093-3.206-15.217-7.936-22.664-11.77-9.428-5.158-15.307-2.582-10.574 8.923l62.424 72.537c3.998 6.062 11.77 5 17.656 3.606 41.351-14.46 66.158-9.593 100.5.367 7.945 2.133 11.702.728 17.53-3.72 19.483-16.498 47.015-40.227 47.511-47.583.602-3.396 3.504-23.468-3.13-27.89-15.575-9.31-31.31-19.389-68.74-19.065-1.042.01-2.18.064-3.257.09-2.163-6.68-6.462-8.953-10.889-8.76m15.774 25.625c11.209 1.28 22.061 4.792 32.217 11.7 4.417 3.76 3.348 8.842.379 13.415-7.825 12.612-14.648 22.206-28.006 33.053-2.31 1.67-4.598 3.388-7.164 3.51-8.538-1.012-9.776-4.464-21.203-5.305 8.472-20.88 17.685-44.583 23.777-56.373M169.3 43.21l-9.752 55.408c-5.136.451-11.201 1.152-18.444 2.174 10.404-17.643 7.813-34.886 4.73-52.469 7.772-1.989 15.622-3.81 23.466-5.113m-49.952 12.11c1.733 16.157 2.364 32.314 2.734 48.471-1.972.333-3.768.616-5.867.984-5.23.091-7.552-.906-9.444-2.681l-29.273-36.73c-2.844-5.219 2.687-4.34 6.234-4.362 10.909.027 22.96-2.465 35.616-5.682"/>
		</svg>
		<svg id="t_e5" viewBox="-20 -120 340 370">
			<path fill="#fff" d="M229.004 7.283c-1.987.012-3.99.205-5.996.64-36.25 7.882-54.035 37.745-92.865 25.382-3.315-6.6-8.542-9.56-10.748-8.282-6.92 4.626-10.652 5.814-13.495 15.582-.45 1.58-.794 7.783 1.287 12.038 18.032 17.664-47.14 56.042-70.439 72.195-15.165 9.94-10.008 21.085 9.883 11.316 16.359-7.608 40.658-16.023 58.44-30.424.423 2.262.648 4.317.425 5.76-3.513 9.018-8.424 12.445-10.385 22.041-.84 5.28 16.422 21.602 21.38 19.022 5.403-3.666 8.625-10.654 9.396-15.114 17.228-12.503 39.884-11.623 61.892-7.486l-.021.283c-.46 7.308 8.432 6.159 15.06 2.99 27.327 6.516 51.325 14.496 59.18 2.805 1.994-3.38 2.405-10.13.508-13.37-1.61-3.384-18.835-12.233-51.395-13.4 1.115-25.247-.02-55.832-1.574-56.78-3.02-1.99-5.939-3.318-10.414-4.227-2.46-.46-9.488 7.167-9.47 9.928.011.474.016.944.027 1.418-7.85 2.343-16.155 6.214-24.336 10.039 3.06-8.073 6.014-16.159 8.304-24.346 22.592-9.264 44.515-20.291 69.104-8.147 13.553 6.253 27.574-20.648 9.818-25.109-6.67-1.475-14.955-4.805-23.566-4.754m-88.04 37.18c2.236.122 4.33.925 6.089 3.473.684.99 1.361 2.188 2.117 3.148.784 6.498-1.747 16.496-5.608 27.693-7.092 2.243-13.556 3.085-18.863 1.108a50 50 0 0 0 1.725-5.496c.086-3.942 2.714-5.601 6.472-6.54 3.853-.944 2.834-12.893.764-22.763 2.441-.145 4.949-.751 7.305-.623m48.923 32.517a670 670 0 0 1-.8 32.647c-11.341.746-24.008 2.401-37.954 5.248 1.654-9.859 4.69-19.503 8.144-29.078 10.259-3.505 20.86-7.21 30.61-8.817m-71.541 14.858c5.351 2.436 12.384 2.004 20.308.21-3.802 9.744-8 19.71-11.502 28.624-1.077.3-2.153.599-3.244.912-2.304-8.734-5.863-16.962-8.017-26.49a60 60 0 0 0 2.455-3.256"/>
		</svg>
		<svg id="t_e6" viewBox="-20 -120 340 370">
			<path fill="#fff" d="M133.053 6.146c-2.062-.096-3.9 1.153-6.332 3.063-3.9 3.998-7.614 6.227-9.403 14.145-.967 4.359-.135 13.043 1.952 20.488 1.287 3.662 6.018 7.38 11.003 8.78 1.48.468-.068 6.614-1.689 11.071-19.926 3.363-38.31 3.407-59.006 1.827-26.568-1.541-14.62 13.108-3.027 14.308 49.472 3.27 66.653-1.69 116.11-13.85 12.945-3.471 49.9 15.78 66.372 20.985 11.637.837 15.32-21.586 12.666-29.494-2.108-5.216-53.523-19.247-60.431-17.56-21.849 9.808-40.119 16.318-56.791 20.46-1.701-4.315-3.679-8.937-2.985-10.023 5.1-7.982 10.837-18.725 10.862-22.764.07-3.682-5.628-10.163-11.624-16.422-3.33-3.475-5.616-4.917-7.677-5.014m1.88 76.297c-5.562-.033-23.557 13.886-23.958 16.59-.845 5.325 4.785 12.92 2.298 14.19-35.138 18.204-47.381 19.283-65.466 22.486-21.425 4.198-16.073 15.919 0 14.164 50.84-5.295 39.72-11.784 92.173-21.98 4.08-.896 11.87-18.058 11.87-24.793 0-5.73-10.278-17.435-15.979-20.457-.251-.134-.567-.197-.937-.2m27.575 9.442c-2.032-.118-2.566.66-2.08 1.812 10.907 25.897 58.795 61.46 61.326 56.121 7.436-17.119 5.178-19.57 2.027-24.69-11.856-19.094-43.21-31.988-61.273-33.243"/>
		</svg>
		<svg id="t_e7" viewBox="-20 -120 340 370">
			<path fill="#fff" d="M118.59 5.285c-9.742-.073-19.567 19.022-20.164 24.055 1.642 11.464 11.661 15.442 13.277 20.178 3.854 13.74 6.21 31.68 7.961 46.92-13.347 4.033-31.566 7.824-57.314 11.244-11.41 2.792-12.894 19.662.49 18.787 26.52-4.373 45.2-8.629 58.783-12.774.616 5.201 1.17 9.19 1.734 11.143 2.443 8.022 62.095 13.845 66.313 11.736 13.153-8.01 19.15-31.323 7.615-29.215-24.316 3.13-43.899 3.42-49.04.633-.692-.423-1.526-1.99-2.419-4.203 28.259-16.614.746-31.315 101.469-44.377 6.31-.676 7.033-28.806.787-27.697C145.3 47.46 173.823 69.195 141.061 87.78c-3.406-13.848-6.18-30.046-4.881-32.453 2.765-5.515 13.274-12.683 12.01-17.484-1.149-5.104-16.674-30.792-28.659-32.49a7 7 0 0 0-.941-.069"/>
		</svg>
		<svg id="t_e8" viewBox="-20 -120 340 370">
			<path fill="#fff" d="M120.79 78.902c-4.9-.897-13.726 19.713-17.34 22.375-20.47 14.835-36.47 16.142-58.928 22.736-11.793 3.536-10.531 14.935 3.169 12.412 22.616-5.155 89.457-10.862 95.468-38.813 1.904-10.71-12.803-15.949-22.37-18.71zm9.784-45.931c1.634-5.083 15.03-13.6 24.352-15.235 9.456-1.036 27.343 45.911 34.26 52.797 13.27 11.972 85.134 48.774 80.164 66.744-2.999 10.131-57.188-18.02-85.497-33.417-15.896-11.317-28.368-30.592-36.262-53.304-1.408-5.019-18.738-12.78-17.017-17.585"/>
		</svg>
		<svg id="t_e9" viewBox="-20 -120 340 370">
			<path fill="#fff" d="M213.773 8.38c-3.61.077-10.464 7.475-20.591 10.141-7.421 1.954-16.53 5.099-26.147 8.483-.841-6.665-7.456-4.125-10.336 3.629a833 833 0 0 1-8.119 2.8 219 219 0 0 0-.353-6.359c.545-9.272-36.814-17.957-33.247-4.27 2.478 8.56 4.137 16.24 5.045 23.225-1.187 1.01-3.748 1.948-9.16 2.543-4.205.462-2.574 8.249-1.974 9.149 2.771 4.188 6.725 7.112 11.27 9.248-4.231 28.345-28.632 41.498-71.946 56.676-4.171 1.146-5.27 9.32 1.846 7.117 59.13-18.328 97.05-23.769 98.628-85.37 2.6-.628 5.133-1.202 7.575-1.695-1.622 28.3-15.814 65.921 5.728 90.87 11.286 13.07 72.51 13.303 84.393 4.714 17.017-14.572 7.852-28.295-2.367-27.88-19.383 1.45-19.42-50.073-27.58-48.899-8.695 1.635.64 48.839-6.381 54.135-11.28 8.357-30.813-3.748-36.188-11.114-12.074-16.544-6.71-43.584-6.152-63.79 16.896-2.425 31.729-2.575 52.603-5.64 7.896-1.956 6.404-28.517-5.867-27.626a2.2 2.2 0 0 0-.68-.086"/>
		</svg>
	</defs>
	<g id="t_preview">
		<path d="M0 0h675v800H0z"/>
		<use xlink:href="#t_do1" width="75" height="100"/>
		<use xlink:href="#t_do2" width="75" height="100" x="75"/>
		<use xlink:href="#t_do3" width="75" height="100" x="150"/>
		<use xlink:href="#t_do4" width="75" height="100" x="225"/>
		<use xlink:href="#t_do5" width="75" height="100" x="300"/>
		<use xlink:href="#t_do6" width="75" height="100" x="375"/>
		<use xlink:href="#t_do7" width="75" height="100" x="450"/>
		<use xlink:href="#t_do8" width="75" height="100" x="525"/>
		<use xlink:href="#t_do9" width="75" height="100" x="600"/>
		<use xlink:href="#t_ch1" width="75" height="100" y="100"/>
		<use xlink:href="#t_ch2" width="75" height="100" x="75" y="100"/>
		<use xlink:href="#t_ch3" width="75" height="100" x="150" y="100"/>
		<use xlink:href="#t_ch4" width="75" height="100" x="225" y="100"/>
		<use xlink:href="#t_ch5" width="75" height="100" x="300" y="100"/>
		<use xlink:href="#t_ch6" width="75" height="100" x="375" y="100"/>
		<use xlink:href="#t_ch7" width="75" height="100" x="450" y="100"/>
		<use xlink:href="#t_ch8" width="75" height="100" x="525" y="100"/>
		<use xlink:href="#t_ch9" width="75" height="100" x="600" y="100"/>
		<use xlink:href="#t_ba1" width="75" height="100" y="200"/>
		<use xlink:href="#t_ba2" width="75" height="100" x="75" y="200"/>
		<use xlink:href="#t_ba3" width="75" height="100" x="150" y="200"/>
		<use xlink:href="#t_ba4" width="75" height="100" x="225" y="200"/>
		<use xlink:href="#t_ba5" width="75" height="100" x="300" y="200"/>
		<use xlink:href="#t_ba6" width="75" height="100" x="375" y="200"/>
		<use xlink:href="#t_ba7" width="75" height="100" x="450" y="200"/>
		<use xlink:href="#t_ba8" width="75" height="100" x="525" y="200"/>
		<use xlink:href="#t_ba9" width="75" height="100" x="600" y="200"/>
		<use xlink:href="#t_wi_north" width="75" height="100" y="300"/>
		<use xlink:href="#t_wi_west" width="75" height="100" x="75" y="300"/>
		<use xlink:href="#t_wi_south" width="75" height="100" x="150" y="300"/>
		<use xlink:href="#t_wi_east" width="75" height="100" x="225" y="300"/>
		<use xlink:href="#t_fl_plum" width="75" height="100" x="375" y="300"/>
		<use xlink:href="#t_fl_orchid" width="75" height="100" x="450" y="300"/>
		<use xlink:href="#t_fl_chrysanthemum" width="75" height="100" x="525" y="300"/>
		<use xlink:href="#t_fl_bamboo" width="75" height="100" x="600" y="300"/>
		<use xlink:href="#t_se_spring" width="75" height="100" y="400"/>
		<use xlink:href="#t_se_summer" width="75" height="100" x="75" y="400"/>
		<use xlink:href="#t_se_fall" width="75" height="100" x="150" y="400"/>
		<use xlink:href="#t_se_winter" width="75" height="100" x="225" y="400"/>
		<use xlink:href="#t_dr_red" width="75" height="100" x="450" y="400"/>
		<use xlink:href="#t_dr_green" width="75" height="100" x="525" y="400"/>
		<use xlink:href="#t_dr_white" width="75" height="100" x="600" y="400"/>
		<use xlink:href="#t_g1" width="75" height="100" y="500"/>
		<use xlink:href="#t_g2" width="75" height="100" x="75" y="500"/>
		<use xlink:href="#t_g3" width="75" height="100" x="150" y="500"/>
		<use xlink:href="#t_g4" width="75" height="100" x="225" y="500"/>
		<use xlink:href="#t_g5" width="75" height="100" x="300" y="500"/>
		<use xlink:href="#t_g6" width="75" height="100" x="375" y="500"/>
		<use xlink:href="#t_g7" width="75" height="100" x="450" y="500"/>
		<use xlink:href="#t_g8" width="75" height="100" x="525" y="500"/>
		<use xlink:href="#t_g9" width="75" height="100" x="600" y="500"/>
		<use xlink:href="#t_g10" width="75" height="100" y="600"/>
		<use xlink:href="#t_g11" width="75" height="100" x="75" y="600"/>
		<use xlink:href="#t_g12" width="75" height="100" x="150" y="600"/>
		<use xlink:href="#t_g13" width="75" height="100" x="225" y="600"/>
		<use xlink:href="#t_g14" width="75" height="100" x="300" y="600"/>
		<use xlink:href="#t_g15" width="75" height="100" x="375" y="600"/>
		<use xlink:href="#t_g16" width="75" height="100" x="450" y="600"/>
		<use xlink:href="#t_g17" width="75" height="100" x="525" y="600"/>
		<use xlink:href="#t_g18" width="75" height="100" x="600" y="600"/>
		<use xlink:href="#t_e1" width="75" height="100" y="700"/>
		<use xlink:href="#t_e2" width="75" height="100" x="75" y="700"/>
		<use xlink:href="#t_e3" width="75" height="100" x="150" y="700"/>
		<use xlink:href="#t_e4" width="75" height="100" x="225" y="700"/>
		<use xlink:href="#t_e5" width="75" height="100" x="300" y="700"/>
		<use xlink:href="#t_e6" width="75" height="100" x="375" y="700"/>
		<use xlink:href="#t_e7" width="75" height="100" x="450" y="700"/>
		<use xlink:href="#t_e8" width="75" height="100" x="525" y="700"/>
		<use xlink:href="#t_e9" width="75" height="100" x="600" y="700"/>
	</g>
</svg>

