<svg xmlns="http://www.w3.org/2000/svg" xmlns:xlink="http://www.w3.org/1999/xlink" viewBox="0 0 675 800">
	<defs>
		<image id="recri_image" xlink:href="./recri.png" x="0" y="0" width="7128" height="216"/>
		<svg id="t_do1" x="0" y="0" viewBox="0 0 170 215">
			<use xlink:href="#recri_image"/>
		</svg>
		<svg id="t_do2" x="0" y="0" viewBox="170 0 170 215">
			<use xlink:href="#recri_image"/>
		</svg>
		<svg id="t_do3" x="0" y="0" viewBox="340 0 170 215">
			<use xlink:href="#recri_image"/>
		</svg>
		<svg id="t_do4" x="0" y="0" viewBox="510 0 170 215">
			<use xlink:href="#recri_image"/>
		</svg>
		<svg id="t_do5" x="0" y="0" viewBox="680 0 170 215">
			<use xlink:href="#recri_image"/>
		</svg>
		<svg id="t_do6" x="0" y="0" viewBox="850 0 170 215">
			<use xlink:href="#recri_image"/>
		</svg>
		<svg id="t_do7" x="0" y="0" viewBox="1020 0 170 215">
			<use xlink:href="#recri_image"/>
		</svg>
		<svg id="t_do8" x="0" y="0" viewBox="1190 0 170 215">
			<use xlink:href="#recri_image"/>
		</svg>
		<svg id="t_do9" x="0" y="0" viewBox="1360 0 170 215">
			<use xlink:href="#recri_image"/>
		</svg>
		<svg id="t_wi_north" x="0" y="0" viewBox="1530 0 170 215">
			<use xlink:href="#recri_image"/>
		</svg>
		<svg id="t_wi_west" x="0" y="0" viewBox="1700 0 170 215">
			<use xlink:href="#recri_image"/>
		</svg>
		<svg id="t_wi_south" x="0" y="0" viewBox="1870 0 170 215">
			<use xlink:href="#recri_image"/>
		</svg>
		<svg id="t_wi_east" x="0" y="0" viewBox="2040 0 170 215">
			<use xlink:href="#recri_image"/>
		</svg>
		<svg id="t_dr_red" x="0" y="0" viewBox="2210 0 170 215">
			<use xlink:href="#recri_image"/>
		</svg>
		<svg id="t_dr_green" x="0" y="0" viewBox="2380 0 170 215">
			<use xlink:href="#recri_image"/>
		</svg>
		<svg id="t_ch1" x="0" y="0" viewBox="2550 0 170 215">
			<use xlink:href="#recri_image"/>
		</svg>
		<svg id="t_ch2" x="0" y="0" viewBox="2720 0 170 215">
			<use xlink:href="#recri_image"/>
		</svg>
		<svg id="t_ch3" x="0" y="0" viewBox="2890 0 170 215">
			<use xlink:href="#recri_image"/>
		</svg>
		<svg id="t_ch4" x="0" y="0" viewBox="3060 0 170 215">
			<use xlink:href="#recri_image"/>
		</svg>
		<svg id="t_ch5" x="0" y="0" viewBox="3230 0 170 215">
			<use xlink:href="#recri_image"/>
		</svg>
		<svg id="t_ch6" x="0" y="0" viewBox="3400 0 170 215">
			<use xlink:href="#recri_image"/>
		</svg>
		<svg id="t_ch7" x="0" y="0" viewBox="3570 0 170 215">
			<use xlink:href="#recri_image"/>
		</svg>
		<svg id="t_ch8" x="0" y="0" viewBox="3740 0 170 215">
			<use xlink:href="#recri_image"/>
		</svg>
		<svg id="t_ch9" x="0" y="0" viewBox="3910 0 170 215">
			<use xlink:href="#recri_image"/>
		</svg>
		<svg id="t_ba1" x="0" y="0" viewBox="4070 0 170 215">
			<use xlink:href="#recri_image"/>
		</svg>
		<svg id="t_ba2" x="0" y="0" viewBox="4240 0 170 215">
			<use xlink:href="#recri_image"/>
		</svg>
		<svg id="t_ba3" x="0" y="0" viewBox="4410 0 170 215">
			<use xlink:href="#recri_image"/>
		</svg>
		<svg id="t_ba4" x="0" y="0" viewBox="4580 0 170 215">
			<use xlink:href="#recri_image"/>
		</svg>
		<svg id="t_ba5" x="0" y="0" viewBox="4750 0 170 215">
			<use xlink:href="#recri_image"/>
		</svg>
		<svg id="t_ba6" x="0" y="0" viewBox="4920 0 170 215">
			<use xlink:href="#recri_image"/>
		</svg>
		<svg id="t_ba7" x="0" y="0" viewBox="5090 0 170 215">
			<use xlink:href="#recri_image"/>
		</svg>
		<svg id="t_ba8" x="0" y="0" viewBox="5260 0 170 215">
			<use xlink:href="#recri_image"/>
		</svg>
		<svg id="t_ba9" x="0" y="0" viewBox="5430 0 170 215">
			<use xlink:href="#recri_image"/>
		</svg>
		<svg id="t_se_spring" x="0" y="0" viewBox="5600 0 170 215">
			<use xlink:href="#recri_image"/>
		</svg>
		<svg id="t_se_summer" x="0" y="0" viewBox="5770 0 170 215">
			<use xlink:href="#recri_image"/>
		</svg>
		<svg id="t_se_fall" x="0" y="0" viewBox="5940 0 170 215">
			<use xlink:href="#recri_image"/>
		</svg>
		<svg id="t_se_winter" x="0" y="0" viewBox="6110 0 170 215">
			<use xlink:href="#recri_image"/>
		</svg>
		<svg id="t_dr_white" x="0" y="0" viewBox="6280 0 170 215">
			<use xlink:href="#recri_image"/>
		</svg>
		<svg id="t_fl_bamboo" x="0" y="0" viewBox="6450 0 170 215">
			<use xlink:href="#recri_image"/>
		</svg>
		<svg id="t_fl_chrysanthemum" x="0" y="0" viewBox="6620 0 170 215">
			<use xlink:href="#recri_image"/>
		</svg>
		<svg id="t_fl_orchid" x="0" y="0" viewBox="6790 0 170 215">
			<use xlink:href="#recri_image"/>
		</svg>
		<svg id="t_fl_plum" x="0" y="0" viewBox="6960 0 170 215">
			<use xlink:href="#recri_image"/>
		</svg>
		<svg id="t_g1" viewBox="-190 430 180 20">
			<path fill="#2a3b92" d="M-141.3 365.4c25.8-2.7 36.9-4 48.3-6.1 10.7-1.9 18.2-3.5 25.6-3.6.3.1 5 .2 6.2.5 2.4.5 4 1.2 5.7 2.8 1.5 1.4 3.2 2.9 2.8 4.2-1 2.9-5 2.3-7.8 2.8-14.8 1.4-5.3-2.6-41.6 3.6 1.6 1.1 2.4.2 3.9 2.1 1 1.4.1 2.7-1.5 3.9-1.7 1.3-3.7 1.9-7.5 3.4-4.2 1.6-7.2 4-11.9 6.1-4.4 2-7.6 4.1-8.5 6.6-.5 1.6-.7 3-.3 4.1 0 .4.2.8.7 1.3 1.5-1.4 3.4-2.8 5.6-4 4.8-2.8 10.5-5.3 17-7.6 6.5-2.1 12.4-2.6 17.5-1.5 4.3.4 7.7 1.9 10.3 4.6 2.6 2.5 3.8 4.7 3.6 6.4 1.9 11.5 2.3 20.9 1.5 28.2-.8 7.2-3.2 12.9-7.4 17.1-.5.6-1.5.9-2.9 1.1-1.4-.1-3.4-.7-5.9-1.7-4.5-2.4-8.5-5-12.1-7.9-1.4-.2-2.9-.3-4.4-.3-1.4 0-3.4.1-5.9.4-2.2.1-5.5.8-9.8 1.8-.5.1-1.1.1-1.8.2 0 .9-.7 1.7-2 2.3-2.1.8-4.2.4-6.4-1.2q-3.75-3.9-5.4-12.9c-.9-6-1.1-10.9-.8-14.6s.5-6.6.7-8.9c0-2.1 1.1-5.9 3.5-9.3 1.8-2.6 5-5.7 9.6-8.8 4.6-3.2 7.4-5.5 8.5-7.2.3-.6.3-1.3-.2-2-7.1.9-14 2-20.8 3.1-2.4.3-12.1 2.2-16.2 1-3.7-1.1-5.6-2.5-7.4-4.9-.7-1 .3-2.8 5-3.5 1-.5 10.9-1.4 12.5-1.6m53.8 64.1c1.6-8.6 2.4-16.1 2.3-22.7 0-6.4-.9-10.3-2.8-11.6-.5-1.6-4.4-1.7-11.4-.1-10.9 2.3-20.6 4.8-27.2 7.5 0 1-.4 2.3-.5 3.8-.1 1.2 0 3.6.1 4.8 1.8-.9 5.6-1.8 10.1-2.6s7.1-1.2 9.8-1.8c1.3-.3 9-2 10.2-1.6s4.3 1.9 5.4 3.5c1 1.4 1.5 2.5 1.1 3-1.6 2-12 4.5-13.6 4.8-4.7 1.1 8.3-4.7.3-3.2-.4.1-19.1 4.4-22.8 4.3 0 .1.3 2.9.9 4.1.3.9 1 2.4 2 5 2.6-.8 5.1-1.4 7.5-1.7q3.45-.6 5.7-.6c1.6 0 2.6-.1 2.9-.3 2.2-.6 6.6 0 9.2 1.8 2.6 1.6 4.1 3 4.4 4.1v.4c1.3.3.8.5 2.6.6 2 .1 3.2-.4 3.8-1.5"/>
			<path fill="#bf3718" d="M-62.6 502.6c-13.5-4.2-16.6-20.5-32.9-20.9-2.8 3-5.9 5.8-7.9 9.3 6.3-.4 29-7.4 22.7 1.6-3 2.8-5.3 2.5-7.5 3.9-4.7 2.5-9.8 2.9-15.2 2.1-1.1.2-3.6 1.4-4.6 3 .5 1.9 1.6 3.7 3.8 4.8 3 0 18.7-6.3 21-8 4 .1 9.2 2.5 10.5 5.8 1.6 3.8-1.9 7.5-3.1 11.1 1.2 2 0 4.2-1.2 5.9-4.6 1.9-9.8.4-14.8 1-2.6.3-4.6 1.9-7.1 2.1l-.8 2c-10.2-1.5-13.9-24-10.4-26.4 2.2-1.4 4.7-2.5 7-3.7-.4-.9-1.6-1.4-2.3-2.1-2.2 1-6.6 5.8-8.5 7.6-5.3 5.2-6.7 3-12 5.6 0 7.4-.4 20.1-2.7 21.4-1 .1-2.1-.4-2.7-1.3-4.3-6.1-10.5-11.1-15.9-16.5 4.6 1 8.6 4.2 13.5 3.6 1.6-.5 1.6-11.4 1.8-16.2-4.3 2.9-9.6 5.6-13.7 8.7-1.8 1.3-3 2.2-5 2.4-1.6-.9-1.2-2.1-2.2-3.1-.4-3-3.2-6.4.9-8.4 2.3 1.3 4 .3 5.9-1 4.3-2.6 9.4-4.2 13.9-6.8l.2-8.3c-1.9 1.3-4.2 2.6-6.1 3.4-2.1 1.2-5.3 2.5-7.8 2.2-4.4-.7-7.8-4.1-10.1-6.9 0-1.5-3.4-2.6-.1-4 7.9 3.8 16.6-1.9 22.6-5.8 4.3-2.8 2.6-7.7 3.1-11.5 0-2.2-3.8-4.7-5.1-7.4 3.1-1.2 12.8 1.2 15.1 4.7.7 2.6-1.1 6.3-1.3 9.2l2.2-.1c1.2.2 1.8.7 3.3 1.6.9 1.1 1.8 1.8 1.2 3.6-.7 2.5-5.5 3.5-7.5 5.3-.5 3.1-1.5 6-1.3 9.1 2.6-1.2 7-3.3 8.8-5.3l-.6 1.6c-1.6 7.3-10.8 8.5-10.4 16.8.1 1.9-.4 3.7-.1 5.6 7.5-4.4 19.9-18.6 24.2-25.5-1.1-.8-.8-1.4-1.6-2.7-4.2 1.4-9.1.8-10.9-3.3-1.2-2.7 9-3.5 9.5-4.4 1.7-3.2-5.4-6.6-5.5-11.9 2.8.1 2.6 2.3 4.3 2.5 3 .5 6.1-.7 8.5 1.5 1.5 1.2.7 2.2 1.6 3.4 1.9-.8 4-.9 6.1-1.4 4-1.1 6.5-7.7 5-10.6-.8-1.8-2.7-4-5.1-4.1.4-2.5 3.2-1.2 5.3-1.1 2.2.9 4.6 1.6 6.7 2.7 3.8 1.9-.8 7.3 2.6 9.1 2.8-.2 6 .9 6.9 3.2 3.2 8.7-7.7 1.8-14 10.4-2.3 1.8-4.3 4.1-7.4 4.7 8.2 2.5 15.8 11.4 24.9 15.1 5.4 2.1 12 4.3 17.1 6.7 2.8 1.8 2.6 3.8.4 3.8-3.9 2.5-11.3 1.9-15.2.6m-38.6 8.7c1.2 2.1.3 4.8 1.9 6.7 10.4-1.2 16.8-1.7 17-11.8-6.4 1.5-12.6 3.6-18.9 5.1m5.7-44.8c-1.6 1.8-1.2 4.6-2.2 6.7 1.5.8 3.4.9 5 1.5 2.4-1.2 3.8-3.8 4-5.9-2.2-1-4.3-2.2-6.8-2.3"/>
		</svg>
		<svg id="t_g2" viewBox="-190 430 180 20">
			<g fill="#bf3718">
				<path d="M-110.1 375.9c1.9 1.5 5.5 3.2 7.1 3.2.9 0 2.4-.4 4.3-1.2l-2.4 5.9c-2.8.8-4.7 1.3-5.7 1.6-1.2.5-2.2 1.2-3.8 2.7-2.2-.5-2.6-.8-4.4-2.4h-.7c-.9 1.3-1.3 2.1-1.3 2.7 0 .5.4 1.5.8 2.7.5 1.1.9 2.3 1.1 3.6 1.2 6.6 1.2 6.6 2.7 8.2.9 1 2.3 1.8 3.2 1.8.7 0 1.2-.5 1.8-1.8 1.2.1 2.2.3 2.7.4 1.2.2 2 .3 2.6.3.5 0 1.8-.2 3.1-.7 7.7-2.6 16.2-4.6 19.7-4.6 1.3 0 2.8.2 4.4.5 1.1.3 2 .4 2.6.4 2.2 0 3.2-1 7.5-6.6.7-.9 2.2-2.5 3.9-4.4 1.5-1.5 2.3-3 2.3-4.1 0-2.4-8.6-8.1-12.3-8.1-2.6 0-5 .6-11.8 2.6-3.8 1.1-4.2 1.2-8.2 2.3l2.7-5.9c6.3-1.5 7.8-2 14.1-3.4 3.2-.7 4.7-1.4 4.7-2.5 0-2.2-4.3-4.6-8.1-4.6-1.8 0-4.6.8-8.3 2.2 1.9-5.1 2.8-7.9 2.8-8.6 0-1.1-.9-2.3-2.2-3-2.8-1.5-7.7-2.7-11.2-2.7-.9 0-1.8.1-3.2.7l-.1.8c3.1 2.4 4 4.1 4 7 0 2.2-.4 5.4-1.1 8.7-7.7 2.1-9.3 2.3-15.3 2.3l-.4.5c.7 1.9 1.3 2.6 2.4 3.5m2.5 23.9c-.7-3.5-1.1-5.9-1.1-7.3 0-2.4 1.1-3.5 3.2-3.5.4 0 1.1 0 1.6.1.9 4.5 1.1 5.3 2.6 9zm31.8-16.9c2.2 0 3.6.8 3.6 2 0 1.5-1.1 3.7-5 9.7-1.9-.3-2.8-.4-4-.4h-1.6c1.5-3.8 2.3-5.8 2.3-5.9 0-1-.7-2-2.4-3.8 3.6-1.2 5.2-1.6 7.1-1.6m-20.1 10.9c.1-2.1.3-3.5.3-3.6 0-.6 0-1.4-.3-2.7l6.3-1.1c.8 1.4 1.1 2.1 1.1 2.9 0 1.1-.4 2.1-1.9 5.9l-5.7 1.6c.1-1.3.1-2.3.2-3m20.4 15.4c3.6.1 5.4-.5 5.4-1.9 0-2.4-5.7-5.9-9.4-5.9-1.1 0-3 .4-5.3 1.1-2.7.9-2.7.9-16.3 4.4-10.2 2.6-10.2 2.6-12.7 2.6-1.9 0-2.8-.2-4.4-1.1l-.8.1c-.1.7-.1 1.1-.1 1.5 0 3 4 5.9 8.3 5.9 1.9 0 2.6-.2 9.2-2.3 9.9-3 18-4.3 26.1-4.4m-26.2 15.7c4.4 11.8 13.2 17 27.9 17 12.4 0 20.7-2.2 20.7-5.3 0-1.5-.9-2.3-10.9-9.1-2.3-1.9-4.6-3.7-6.9-5.7-.5-.3-1.9-1.2-3.9-2.4l-.5.1c.4 1.3.7 2.1.8 2.4.4 1 1.9 3.8 4 8 .3.5.4 1 .4 1.2 0 1.4-2.4 2.3-6.7 2.3-9.8 0-15.2-2.6-18.2-9.1-2.2-4.5-2.4-4.9-3.4-5.8-1.5-1.3-3.2-2.1-5-2.1-1.2 0-1.9.2-3 1.2l.1.4c2.5 1.9 2.8 2.3 4.6 6.9"/>
				<path d="M-148 428.8c-1.8.5-2.6.7-5.5.9l-.5.8c3.2 2.6 5.3 4 6.7 4 .8 0 2-.3 3.5-1 2-1 4-1.8 5.7-2.3 3.9-1.2 6.6-2.1 7.3-2.3l1.5-.8c-.3 2.5-.8 3.6-2 3.6q-.45 0-1.2-.3l-.5.4c1.6 2.7 1.9 3.3 2.7 4.9 2 4.4 2 4.4 2.3 4.8.7 1.1 1.5 1.8 2.2 1.8 1.2 0 3.8-3.5 4.7-6.5.9-3.3.9-3.3 1.1-16.9l.4-25c.3-7.7.9-13.7 1.9-16.1.7-1.9.9-3.2.9-4 0-1.3-.9-2.7-3.5-5.2 5.3-1.4 6.9-2.3 6.9-3.4 0-1.9-4.4-4.8-7.3-4.8-1.3 0-3.1.4-5.1 1.2-9.4 3.4-15.2 4.9-19.4 4.9-.9 0-2.3-.1-4.2-.4l-.4.5c.3 2.3 4.2 5.8 8.1 7.1-3.6 4.8-5 10.3-5.1 20.5v10c-6.3 2-7.4 2.2-9.6 2.2-.7 0-1.3-.1-2.4-.4l-.4.4c.3 1.9.7 2.5 1.9 3.7 1.9 1.9 4.6 3.4 5.9 3.4s3.8-1.3 11.8-6.4c5.4-3.2 8.3-4.6 11.6-5.3v11c-.1 3.8-.4 7.1-1.1 12.8-2.3-1.9-3.6-2.5-5.1-2.5-.5 0-1.3.2-2.4.5l.4-2.1c5.7-2.1 6.3-2.4 6.3-3.4 0-.9-2.2-1.8-4.3-1.8-.4 0-1.1.1-1.9.2l.7-2.5c.8-.5 1.6-.9 2-1 1.1-.4 1.9-.8 2.2-1 .4-.2.5-.5.5-.8 0-1.2-2.2-2.6-3.9-2.6-1.5 0-2.7.4-7 2.6-4 2.1-5.3 2.5-8.9 3.5l-.3.6c1.3 1.6 2.7 2.4 4.6 2.4.7 0 1.3 0 2.3-.1l-.3 1.6c-2.8 1.2-3.8 1.4-8.3 1.8l-.3.7c3.4 2.3 4 2.5 8.6 2.9l-.4 2c-1.8.7-2.8 1.1-3.4 1.2m20.2-37.2c-2.6-1.1-3.8-1.4-5.1-1.4-1.9 0-4 .9-7.3 3.1l.1-5.2c5.3-1.4 6.6-1.9 12.4-4.1zm-.6-19.9c1.1 1.3 1.2 1.9 1.2 3.5 0 1.1-.1 3.3-.3 5.2-1.3-.6-2.2-.8-3-.8-1.9 0-3.9.7-9.2 3l-.5-2.4c-.1-.5-.1-1-.1-1.2 0-2.9 4-5.4 11.9-7.3m-1.4 27.2c-2.4 0-4.8.9-10.6 3.7l.3-4.3c2.3-.7 3.9-1.1 4.6-1.3l6.3-2.2c.1-.1.7-.2 1.3-.4l-.3 4.7c-.8-.1-1.3-.2-1.6-.2m15 24.6c-2 2.4-2.4 3.3-2.4 5.8 0 4.1 1.8 7.1 4.2 7.1 3.1 0 5.7-6 5.7-13.6 0-3.1-.3-4-1.6-5.8h-.7c-3.6 4.3-4.4 5.4-5.2 6.5m55.3-13.4c-2.6 0-4.4.5-8.2 2.1v.4c5 1 6.1 1.4 7.5 3.7l-5.7 2.2.3.6c6.9.2 8.6.3 11 1 3.2.8 5.7 1.2 6.6 1.2 1.2 0 2.2-1 2.2-2.1 0-4.7-6.6-9.1-13.7-9.1m-23.2 5.5c-1.9 0-3.5-1-5.8-3.5h-.8c-1.6 1.5-2 2.5-2 4 0 4.6 4 11.1 7 11.1 1.2 0 2.4-1.1 4.6-4.3 2.7-4.1 4-5.4 8.8-9.6l-.3-.5c-4 1.1-5.7 1.5-7.4 2.1-1.6.4-3.1.7-4.1.7m-41.2 45.6c0-1.7-1.5-3.2-4.7-4.6-2.8-1.3-5.5-1.9-7.7-1.9-1.5 0-2.8.3-5.4 1.1l.1.8c4.8 2.7 5.3 3.8 5.3 16.6 0 11.9-1.6 29.6-3.2 35.5-1.8 6.7-3.3 11.1-7.6 15-.5.5-2.6 2.9-2.6 2.9 16.8-4.5 21.9-12.9 23.1-39.2.8-14.5.9-15.9 1.3-18.8 0-.4.5-2.6 1.2-5.9.2-.6.2-1.2.2-1.5"/>
				<path d="M-66.6 452.2c-5.9-4.3-12.3-6.9-17-6.9-10.9 0-30.4 4.4-42.3 9.7l-.3 1c2.7 2.5 5.8 4 8.5 4 .4 0 1.3-.1 2.6-.3.4-.1 1.3-.2 2.6-.4 2.8 2.5 3.5 4.3 3.5 8.9v1.8c-6.1 1.5-7.1 1.6-13.7 2.2l-.4.5c1.2 4.4 5.9 8.3 10.2 8.3 1.2 0 2.7-.1 4.3-.4-4.4 6.8-6.3 8.6-12.1 11.9-1.2.6-1.5.8-3.6 1l-.4 1c3.8 5.1 6.6 7.2 9.7 7.2.7 0 2.4-.4 4.8-1.3.1 11.9.7 17.8 1.8 21.5.9 2.9 2.2 4.6 3.4 4.6.7 0 1.8-1 2.8-2.8 2.7-4.6 3.1-7.4 4.4-27 3.4-.6 4-.8 6.5-1 5.9-.5 5.9-.5 6.1-.5 1.3-.3 1.9-.9 1.9-2.1 0-4.4-3.5-8-8.2-8-1.8 0-3.9.3-6.5.9l-.1-2.6c3.9-3.2 5.3-4.2 10-6.9 3.4-1.8 4.6-3.1 4.6-4.5 0-2.2-6.6-5.6-10.9-5.6q-.75 0-2.4.3c.4-2.5.5-3 .8-3.8.3-.9.4-1.5.4-1.8 0-1.4-1.9-2.8-6.5-4.6 7.4-2 12.3-2.8 16.7-2.8s6.1 1.5 6.1 5.6v6c0 6.5.1 15.1.4 27 .3 10.7.4 16.9.4 19.4 0 5.1 0 5.3-1.3 5.3-3.4 0-9-1.2-17.8-3.9l-.7.8c2.4 3.1 3.5 4.1 8.9 7.6 2.6 1.6 5.1 3.3 5.3 3.6l4 3.3c5.3 4.3 5.7 4.5 7.3 4.5 2.6 0 7-8.7 7-13.8 0-1.7-.1-4.4-.5-7.6-.7-5.7-.9-12.6-.9-21.3 0-17.7.8-25.6 3.2-31 .5-1.3.8-2.5.8-3.1-.3-1.2-1.2-2.3-3.4-3.9"/>
			</g>
		</svg>
		<svg id="t_g3" viewBox="-190 430 180 20">
			<path fill="#bf3718" d="M-153.5 440.7c2.3-1 4.4-1.4 6.1-1.4 2.7 0 6.8 1.4 9.9 3.4 1.9 1.2 3.2 3.2 4.2 7.1 3.4-2.4 4-2.8 7.4-5 .6-8.1.8-12.5.8-19.4 0-3.2-1.1-5-3-5-.2 0-.2 0-4.7.7-1 .2-2.1.1-3.1-.1l-.2-.6c1.7-6.1 6.8-9.9 12.9-9.9s11.6 5.9 11.6 12.7l-1.3 13.7c6.1-3.4 9.3-4.8 12.1-4.8 6.8 0 19.5 7.5 19.5 11.5 0 1.4-.8 4-2.5 6.7-4.2 7.1-6.8 19.2-6.8 32.9 0 8.1 1.9 12.7 6.6 16 5.7 4 13.5 6.3 21.6 6.3 10.8 0 18.8-2.6 18.8-5.7 0-2-1.9-6.9-6.6-16l1.1.2c2.7 2 4.4 3.4 5.1 4 4 4 6.7 7.1 10.6 11 2.1 2.5 2.8 5.6 2.3 9.2-.7 5.2-9.7 9.3-28.9 9.3-15.9 0-24.5-2.6-32.1-9.1-7.4-6.3-9.9-13.5-9.9-26.7 0-9.5.8-18.6 2.7-29.5.4-1.6.6-3.2.6-4.4 0-2.2-1.7-4.2-3.4-4.2-2.3 0-4.7 1.6-11 7.7-.6 8.7-.6 11.7-.6 17.8l.8 27.7c0 8.9-5.3 25-8.2 25-1.5 0-3-2.2-5.1-6.3-.4-1.2-.4-1.2-6.1-16-1.5-4.4-.6-3.3-3.3-8.1l-.7-1.8c3.4 2.6 6.3 5 7.4 5.9 1.3 1 2.3 1.8 3 1.8 1.1 0 1.3-2.8 1.3-14.1 0-3.6-.2-12.3-.6-21.8-5.7 3.2-7.6 4.6-10.2 7.1-3 21.4-5.7 29.9-12.3 37.8-4 4.6-7.4 7.3-9.5 7.3-1.7 0-2.3-1.4-2.7-7.5-.2-1.6-1.1-4.4-2.5-7.1-4.2-8.9-6.8-16.4-6.8-20.4 0-1.4 1.1-3.4 2.7-4.8.6-.8 7.4-5.9 20.1-15.5.2-1 .2-1.8.2-2.6 0-2-1.1-3.4-2.5-3.4-1.3 0-2.7.4-4.7 1-1.7.6-3.4 1-4.4 1-2.7 0-5.3-1-8.9-3.4-1.9-1.2-2.1-1.6-2.5-3.8l.2-1c3.4-.6 5.5-1.2 6.3-1.6zm7.4 33.6c-2.5 1-4.7 1.6-6.1 1.8-10.4 1.8-11 2-12.1 3.6-.6.4-.8 1.2-.8 1.8 0 2 5.5 11.5 8 14.1 1.1 1 1.9 1.4 2.5 1.4 3.2 0 6.1-7.9 8.2-20.8zm4.3-94c1.5.2 2.7.2 3.6.2 2.5 0 5.3-.8 9.7-2.6 5.7-2.4 5.7-2.4 20.9-12.3 2.5-1.6 5.1-2.4 7.4-2.4 5.7 0 15.4 6.3 15.4 10.3 0 1.2-1.1 3-2.5 5-5.9 7.5-10.2 19.6-10.2 30.1 0 5.3 2.3 10.3 6.1 12.9 2.7 2 7.2 3 14.6 3 4.9 0 7.2-1 7.2-3 0-1.2-.2-2.6-1.1-4.2l.6-.2c1.3.2 1.9.4 2.1.6l5.7 3.2c10.2 2.6 10.2 2.6 11.8 4.2.8.8 1.5 1.8 1.5 2.6 0 4.6-10.2 7.9-23.5 7.9-22.2 0-35.3-10.7-35.3-28.3 0-6.1 0-6.1 3.2-19.6.2-.8.2-1.6.2-2 0-1-.4-1.6-1.5-1.6-.8 0-2.1.6-4.4 2.4-5.3 4.4-10.4 6.5-14.4 6.5-3.4 0-7.4-1.8-12.9-5.7-4-3-4.4-3.6-4.9-6.1zm53.2 36.6c1.5-1.2 2.2-2 2.4-2l2.7-1.6c.4-.4.8-.8.8-1 0-.4 0-.6-3.4-1.6s-5.5-3.6-5.5-6.7c0-2.6 1.5-4.6 7.2-10.5 2.5-2.6 4.2-5.5 4.2-7.5 0-1.4-.4-3.2-1.3-5.3l.8-.6c1.3-.2 2.3-.4 3-.4 5.5 0 12.5 4.4 12.5 7.7 0 2.4-.8 3.2-12.7 12.1-1.5 1-2.1 1.8-2.1 2.4 0 .8.8 1.6 1.5 1.4l12.7-1.4c.4 0 3.8 2.2 5.1 3.2 1.5 1.6 2.1 3 2.1 4.6 0 3.2-2.3 4.4-8.7 4.4-4.9 0-5.7.2-12.7 2l-3 .8c-.4 0-3.4.8-6.6 1.4zm3.2 70.5c.7-.8 1.5-1.5 2.4-1.9.6-.3 1.4-.7 2.3-1.2 2.7-1.4 5.5-2.8 8.2-4 2.1-1.2 3.6-2.2 3.6-2.8 0-.4-.4-.6-3-1.2-2.5-.6-6.6-6.1-6.6-9.3 0-1.6.8-4 2.5-6.9 3.4-6.7 5.1-10.9 5.1-12.3 0-.4 0-.8-.2-.8-2.3-1.4-2.3-1.4-3.4-2.8l.4-1c2.1-1 4-1.4 5.3-1.4 3.6 0 8 3.8 8 7.1 0 2.2-3 8.7-6.3 14.5-.6 1-1.1 1.8-1.1 2.2 0 .6.8 1.2 1.7 1.2.2 0 2.1-.2 4.7-.6h1.9c6.8 0 12.9 4.6 12.9 9.9 0 3-.6 3.2-15.2 7.1l-16.3 3.2q-1.35.3-4.5.9c-.7.2-1.5.2-2.4.1"/>
		</svg>
		<svg id="t_g4" viewBox="-190 430 180 20">
			<path fill="#2a3b92" d="M-101.9 379.1c-4.7 7.8-7.7 15.3-10.3 23.9-.9 2.8-10.7 13.4-14.1 10.6-1.3-1.9-6.2-10.2-8.8-10.2-6.9 4.7-8.4 1.9-15.4 9.5-1.5 1.5-3.4 2.3-5.8 2.1-3.2-4.7-5.4-14-1.7-18.9 1.1-1.5 1.9-2.8 2.4-4.5 6.6 0 9.6-3.6 13.7-7.4.6-2.8 4.9-5.5 2.4-8.3-1.3-1.3-.9-2.5.9-3.6 7.7-1.7 13.9 8.1 17.4 12.7 2.8 3.6-1.5 7.4-.4 10.8-1.1.2 1.3.6 1.5.6 5.1-2.8 13.3-18.2 17.1-23.5-.6-1.1 1.7-2.7 2.6-3.4 1.1 3 .4 6.4-1.5 9.6m-37.7 86.9c-.4 4.4-1.5 36.9-.6 39.4-.9 1.9-2.4 4.2-5.1 3.8-1.3-1.5-2.6-3-4.7-4.2-6.2-8.7-4.5-14.2-3.9-24.4l.4-3.4c.6-13.4 5.4-26.9 1.3-40.1 1.5-3 1.7-8 7.1-7.4 1.1 9.5 5.6 18.4 7.1 27.8-1.4 2.8.1 5.8-1.6 8.5m52.7 14.4c5.8 7 1.1 5.3-1.9 8-4.7-.4-16.3.9-21 1.9-1.3-1.1-3 .2-4.3.4-.9 2.5 1.9 3.8-.4 7-2.8 0-5.6-.4-8.4-1.3-3-4.9-5.8-9.8-9.2-14.6-.2-6.8-7.3-12.7-3.6-19.7 1.7-.6 2.4-1.5 4.3-.9 1.1 1.1 2.4 2.7 4.1 3 11.4-5.3 36.9-17.2 47.6-6.1 1.9 2.1.2 5.1 2.1 6.8 2.1 6.6-9.7 9.2-9.3 15.5m3.4-37.5c-3.9 0-6.4 2.5-10.5 2.1-2.6 1.1-6.2.8-8.1 2.8-16.5 8-37.5-9.5-23.4-12.3 5.4-.9 12 0 16.9-1.3 4.3-1.1 8.4-2.5 12.6-3.2 4.7-5.3 10.3 0 12.9 3.8.1 2.6 4.3 6.2-.4 8.1m27-56.2c-5.8-1.1-10.1 1.1-15.6 1.9-.4.6-.9 1.3-.4 1.9.6 1.3 5.8 4.5 7.3 6.8 4.5 6.1.4 13.4-7.5 15.1 1.9 2.5 13.3 6.4 17.1 8 2.4 2.3 3.6 5.1 5.1 7.8 1.1 14.6 7.3 84.3-4.9 93.9-.6 2.8-4.7 2.3-7.1 2.5-3.6-5.3-10.1-8.3-15.9-11.9-2.1-5.7-16.9-11-12.4-18.2 3.2-.6 2.8 3.6 5.4 3 1.5 1.3 14.6 3.2 16.9 2.8 7.7-4.4 2.8-63.2-1.5-71.6-3.6-1.7-2.6-7.2-7.7-5.9-1.5-1.5-3.9-1.7-5.8-2.8-4.9 2.1-18.6 5.5-24.2 7-5.8 1.3-12-.4-17.8.6l-4.5-.9c-1.5-11.7 36.2-10.4 42.4-19.1 3.2-.9 6-5.7 8.4-7.8-.9-1.5-1.7-6.1-4.1-6.6-2.8 2.5-6.6 3.8-8.6 6.8-2.6 0-5.8 3.6-7.5.2-2.6-1.5-1.9-4.9-3-7.2 1.1-1.9 1.1-3.2 1.3-5.1.6-6.1 13.1-11.7 11.6-21.2-.6-3.6-5.6-3-7.3-7.4 3.6-.9 2.4-2.3 7.1-2.1 11.1.6 17.6 13.3 16.9 21.4 13.9-1.1 14.6-6.6 30-.6 3.9 1.5 3.2 3 3.2 6.1-2.9 4.1-12.2 2-16.9 2.6m-43.3 80.4c-2.6 2.1-14.4 2.1-18 2.1-4.5 0-5.4 2.8-5.1 4.4 3.4 1.5 2.6 5.3 4.7 7.8 4.7 1.7 6.6-2.8 11.6-2.1 4.7-3 9-7 10.1-12.1h-3.3z"/>
		</svg>
		<svg id="t_g5" viewBox="-190 430 180 20">
			<path fill="#038249" d="M-59.4 430.8c-4.1.6-7.1-1.5-11.1-1.3 1.4-4.4 5.1-2.2 6.7-4.4 4.3-2 13-3.7 13.8-8.7-6.3-3.3-17.8-1.7-24.9-1.7-4.7 1.5-15.2-1.1-17.6 3.5.4.4 1.4 1.1 1.6 1.7l1 .7c.4 2.2.6 4.4 0 6.6-2.2-.2-16.4 10.1-16.8 12.2 2.2.7 7.9 1.7 9.1-.9 6.1-5 10.1-11.8 15.4-17.3 2 2.4 10.1 2.4 9.9 5.5l1.4 1.7c0 6.1-27.1 23-31.6 30.2 6.3.7 12.4-.9 18.2-2.4-.6-1.5-1.2-2.9-1.6-4.4-3.2 2.4.2-1.8.6-2.2l1.2-1.3c9.3 2.4 14 2.8 18.4 11.6.2 3.3 1.2 9.8-3 11.6-2 .2-4.9.2-6.9-.6-4.7-4.4-4-8.7-11.5-4.1.8 3.1.8 6.6-.4 9.8 1 13.6-.8 27.3-2.2 40.7-.6.9-.8 1.8-1.2 2.8-.6 1.5-2.4 1.1-4.1.7-5.3-1.5-20.7-18.4-24.9-23.2-6.1 4.4-9.3 8.5-12.8 14.6-1.6 2.8-3.6 2.2-6.7 1.8-4.9-5.9-10.5-12.7-7.3-20.5 1.8-4.2.4-9.2 7.1-8.8.4.4 1 .7 1.6.9 1.8 2.4 4.5 4.6 6.5 7 7.7-2.4 15.4-4.4 23.3-6.5l-.2 3.1c-1.8.4-3 1.7-4.9 2.4-1.4 1.7-4.3 2.8-2.4 5.2 2.4.9 10.7.7 13.4.2 2-.6 3.2-23.2-2.6-26.2-4.3.6-19 9-21.9 6.8-4.9-3.9-3.2-10.5-1.2-15.3 3.8-2.6 16-6.5 17-11.2-4.3-.7-7.9 1.3-11.9 2-1.2 1.1-3.4.9-4.3 2.8-3 .9-3.2-.9-5.1-2.4 1-3.9-1.2-7.7.2-11.6 3-3.3 7.9-4.6 11.1-7.6 4.9-4.4 9.9-8.8 13.6-14.2-3.4-.7-8.9 2.4-13.2 2.4-4.9 0-14.4 2-18.2 5-1.8 1.5-2.6 3.7-4.3 5.3-1.8 10.1-6.7 20.3-9.7 30.2l-2.4.7c-1.6-.7-2.2-1.5-4.3-1.1-2.6-5.2-7.1-10.7-6.5-16.8.6-4.4 5.1-5.7 7.1-9.2 1.4-2.4 5.3-12.7 5.3-15.3 0-4.2-7.7-1.5-6.9-7.6 1.4-.6 5.5-.2 7.1.2 1.8.7 7.5 3.5 11.5 4.8 0 1.7 3.8-.6 4.7-.9 2.8-3.5 22.7-9.2 27.7-9.4.8-1.3 2-2.6 2.2-4.2-7.1-.6-23.9-10-26.3-16.2 4.5-.6 6.7-.2 11.3 0l2.2-.4c5.1.2 9.9-1.5 15-2.4 3-3.7 2.6-9.8 1.2-14-2.6-1.8-5.7-3.3-8.7-4.6-.2-1.1-.4-2.2-1-2.9 1.2-2.4 3.2-4.6 6.3-5.3 7.9 3.1 19.8 6.1 20.9 15.1.2 2.2-.2 4.8 1.2 6.8 8.9 2 11.3-2.8 17.2 6.8 1.2 7.2-14.8 8.3-19.8 10.7-.4 2.8-1.8 5.3-1.8 8.5 8.3.9 16.6-.9 24.9-.9 3.4-1.7 19.4 2.4 22.9 4.1 5.1 2.6 15 15.2 4.7 18.9-4.9 1.9-15.8 1.4-22.3 2.4m3.2 72.6c-.6-.9-2-.6-2.8-.6l-1.2-.7c-9.3-5.7-16-12.9-24.9-19.2 1-4.2 5.3-.9 7.5-2.4 8.7.4 21.7.7 26.3 8.5 3.4 5.7 5.7 15.3-4.9 14.4"/>
		</svg>
		<svg id="t_g6" viewBox="-190 430 180 20">
			<path fill="#bf3718" d="M-35.9 474c-7.5 12.7-8.7 27.3-19.8 38.5-2.6 2.8-8.5 7.6-12.6 7.7-1-.9-2-1.8-3.6-2.2-.4-3.1-3.2-5.2-4.9-7.9-2.6-1.5-10.7-10.7-13.2-13.3 9.1 4.6 13.8 3.3 23.1 5 5.5-4.4 16-30.2 14-36.5-1.2-4.1-27.5-1.5-31.6.4 3.8 6.1 15.8 6.5 14.4 19.4.6 2.2-.4 4.2-1.6 5.9-5.5 1.5-6.9-1.7-10.1-4.6-12.2-.2-40.7 12.5-43.7 12.5-3.4-4.6-13.4-6.1-7.3-13.5 5.5 1.1 12.6-2.4 17.2-5 1.6-2.2 2.4-5.3 1.2-7.9l-27.5 9.8c2.2 10.1 4.9 18.3 2.2 28.8-3.8-2-5.7-4.8-7.9-8.3-5.5-3.9-2.4-10-4.5-15.1-2.4.4-4.5 1.5-6.7 1.7-4.1 1.7-11.3-6.6-8.1-8.8 3.6-.9 8.1-1.7 11.3-3.5 0-2.8-.4-6.8 3.6-7.7 3.4-2.6 22.7-11.4 23.1-13.3-8.7-3.9-13.8-23-17-31 .4-2-1-5.7 1.8-6.6 1.2-1.3 3-1.7 4.7-1.3l1 1.7c4.7-2.4 8.9-5.5 13.8-7.2-2.8-3.3-3-8.1-4.9-10-2.6 1.1-17.4 8.8-19 8.1-2.2-.9-3-3.1-5.3-4.4.8-1.3-4.5-5.5-2.4-9.2 4.5-1.5 3.8-1.7 7.9.6 4.3 0 13.4-1.7 17.2-3.3 4.1-1.8-8.3-21.9-7.7-25.4 4.5.6 9.3 1.5 13.2 4.1 3.4 2.2 11.7 11.2 10.7 15.3 1 2.4 14.6-.7 16.8-1.3 2.4-4.6 3.2-10 4.9-14.7 1.4-4.1-3.8-8.8-7.3-10.7.2-4.2 15.2-1.1 17.8.2 10.3 5.3 7.5 12.9 2.4 20.3 2.4.9 16.2-4.6 20.9-3.5 1.6 2.9 10.5 6.8 9.3 11.2-4.1 0-35 4.2-36.7 5.5-3.2.6-7.7 8.8-10.9 10.9 6.9-.7 15.4-2.6 22.3-2 6.3.4 19.8 7.9 17.8 14.6-1.8 6.3-14.8 28.2-21.1 30.8-1.6 1.5-5.1.6-7.1-.2l-.4-2c-2.8.6-3.4 2.6-7.7 2.6-1.6 0-3.4.2-4.9 1.1-1 5.7-.6 2.8-1 9.2 2.2-.2 4.5-.7 6.7-1.3 10.7-2.4 27.9-5.2 38.9-3.9 3.8-2.4 12.6.4 15.6 3.1 2 1.8 5.9 5.5 6.3 8.1.7 3.5-1.8 5.2-3.6 8.5m-81.2-17.5c-5.5.2-29.2 12-32.8 15.7 2.6 3.7 30-7.7 35.2-9.6 1.2-2.2.6-4.8.6-7.2zm-.2-39.1c-4.3.9-15.2 2.2-17.2 5.5.2 2.8-.8 5.7.6 8.3 2.8 5.5 4.1 9.8 3.8 15.9 5.3-2.8 10.3-6.8 14.2-10.7-3.8-.2-15.4-2-17.2-5.3 5.1-2.9 15.2-4.8 18.6-7.7 2.7-2.3-2-3.8-2.8-6m11.5-27.6c-2.2.2-7.7 2.4-9.7 3.3-.4 4.2-5.9 13.5-5.3 16.6 8.9-.6 18.8-12.7 21.1-19.9zm13.8 78.3c-2.6 0-5.3.6-7.9.9-.2 2.9-.2 5.9-1 9 4.5-.2 9.5-.2 13.8-1.3-1.9-2.5-3.3-5.6-4.9-8.6m-8.1-53.1c2.6 1.1 1.4 3.3 4.3 4.4 1.4.6 2.8.7 4.3 1.5 1.6.2 2.8 2 4.3 2.6 2.8 6.3-7.9 7.7-10.9 10.9l-.6 4.8c5.3-.2 3.4-.7 7.9 1.1 2.6 1.7 1.4 1.1 3.4 1.8 0-1.1 0-8.5.4-9.6.8 2.8.4 1.8 3 2.4 1.4-3.1 10.7-21.4 6.9-22.9-8.6-3.2-14.9 2.3-23 3"/>
		</svg>
		<svg id="t_g7" viewBox="-190 430 180 20">
			<path fill="#2a3b92" d="M-166.5 480c-2.4 8-6.1 18.7 1.7 28 1.2-2.9 2.4-6.2 3.2-9.6 1.4-5.1 1.2-10.5 2.2-15.6-4.5 2.3-3.5-2.8-7.1-2.8m21.6-4.4c-.9-1.1-1.9-1.8-2.9-2.4l-2.7.2c1.2 3.3-1.4 7.8-.5 12.2.3 2.7 2.9 11.1 6.7 9.3 1.7-.7 2.4-17.1 2.7-20.2-2-.9-2.1.4-3.3.9m18.4-43.7c-1.7-.4-3.4-.9-4.8-2.2 2.2-3.8 6.2-10.4 10.8-16.5 1.8-2.5 3.4-4.7 4.3-5.6 1.5-3-1-12-4.4-11.1-16.7-2.2-1.5-18.9-24.2-18.7 2.9 14.5-10.4 37.8-18.4 49.1-3.6 4.9-5.8 5.5-11.3 7.8-1.9 4.2 1.5 7.3 4.3 9.3l2.6 2c3.9 2.9 16.6-9.1 21.5-10-2.7 6-9.2 20.4-16.2 22l-2.2.2c-8.7 4-.9 12.4 4.1 14.9l2.4-.7c5.3-4.5 15.2-13.5 21.5-15.3-3.6 5.3-5.8 6.9-9.6 12.2 6.7-4.4 11.3-8.9 16.9-13.6 3.1-2.5 3.9 5.1 7 2.7 5.8-10.1 3.2-19.4-4.3-26.5m-25.4-4.8c5.3-10.5 13.5-20.5 20.3-29.8 2.9-3.3 3.5-2 2.7 3.8-2 8.2-6.6 14.9-10.2 22.2-1.2 2.5-9.9 3.1-12.8 3.8m9.7 21.2c2.7-4.5 5.6-9.1 8.2-13.8 1.9 2.4 2.2 5.6 2.4 8.7 0 2.1-8.9 4.8-10.6 5.1m8.2 18.4c-1.2.5-2.6.5-3.9.5l3.9 4.7c-.5 6.5 4.1 8.4 7 14.7h1.5c8.1-11.3-3.7-21-8.5-19.9"/>
			<g fill="#2a3b92">
				<path d="M-45.5 451c-4.4 0-7.9 1-14.6 4.5l-.4 1c12.4 4.3 13.6 4.9 13.6 5.9 0 .8-.7 1.6-1.9 2.5v.8c1.2.2 1.6.4 3 .4 11.1 0 12.7-.6 12.7-3.5 0-6.5-5.5-11.6-12.4-11.6m-66.7-50.1q-1.35 3.6-2.1 5.7c-.9 2.2-1.4 4.1-1.4 5.3 0 2.2 2.1 5.1 3.9 5.1 1.4 0 3.5-1.4 5.6-3.5 3.5-3.5 6.7-6.5 9.5-9 6.5-5.7 8.6-8.4 8.6-10.8 0-2.5-4.6-8.2-7.9-9.8-1.9-1-4.4-1.4-7.6-1.4h-1.4l-.5.6c1.6 4.7 2.3 7.4 2.3 8 0 3.3-5.1 11.4-7.1 11.4-.7 0-1.1-.4-1.2-1.6zm31.6 51.9-1.1-.2c-2.6 4.1-3.5 7.2-3.5 12.3 0 7.2 4.1 13.9 8.5 13.9 1.2 0 2.3-2 2.8-5.7 1.1-6.5 1.9-7.8 7.8-14.5l-.4-.6c-3.9 1.6-5.3 2-7.2 2-2.7 0-4.1-1.5-6.9-7.2m10.6-70.1c1.4 1 2.3 1.8 2.3 2.4-.2 1.2-4.2 5.9-9 10.4l.2 1c1.9-.6 3.4-1.2 4.1-1.4l8.5-3.5c1.2-.4 2.8-.8 4.9-1.2 6.4-.6 6.4-.6 7.8-1.6 1.6-1 2.6-2.9 2.6-4.9 0-6.3-5.6-10-15.2-10.4-3.5 0-5.8-.4-6.7-.8l-4.8-2.4c-.2-.2-1.1-.4-2.3-.6l-.2.8c1.1 4.5 5 10.4 7.8 12.2"/>
				<path d="M-42.3 483.7q-2.85-2.4-6-5.1c-1.1-.8-4.4-4.5-9.7-10.2-.5-.8-2.3-2.5-4.1-4.5l-.7.2c6.5 17 7.9 21 7.9 23.1 0 1.2-.4 1.4-1.8 1.8-7.1 1.6-7.4 1.6-11.3 1.6-12.4 0-21-5.7-25.2-16.6l-2.6-6.9c-.4-.8-.7-1.6-1.4-2.2-1.1-1.4-2.1-2-4.6-2.7l-.4.8c2.3 12.3 4.1 17.8 7.8 23.7 5.6 8.8 16.6 14.9 27.4 14.9 9.5 0 20.6-2.9 25.8-6.7 1.4-1 2.5-2.9 2.5-4.7-.1-2.1-1.5-4.7-3.6-6.5m-39.5-44c4.2-2.2 16.9-6.5 18.9-6.5.9 0 1.6 1 1.6 2.2 0 1-.4 1.8-1.4 3.1l.2 1c1.9.6 1.9.6 4.4 2 2.6 1.4 2.6 1.4 2.8 1.4.7 0 1.8-.6 2.5-1.4 1.2-1.6 3.2-8.6 3.2-11.6 0-5.5-4.6-10.6-18.5-20.8l-.5.6c.4 3.9.4 3.9 2.8 10.6.4.6 1.1 2.5 1.8 4.5-7.2 1.4-15.9 3.9-23.1 7.1l-2.3.4c0-.4 1.4-2 4.1-4.7C-74 416.2-74 416.2-74 413.9c0-4.5-6.5-13.7-9.9-13.7-.4 0-1.1.4-1.9 1l-.5.8c.5 2.4.7 3.3.7 4.5 0 5.9-10.9 22.7-19.2 29.6-3.2 2.5-4.2 3.9-4.2 5.7 0 .8 1.4 5.9 2.3 8 .9 2.3 2.8 4.1 4.2 4.1.9 0 2.1-.6 3-1.6 7.3-7.1 9.5-8.7 17.7-12.6m-23.9 28.8c-.7.8-.9 1-1.2 2-.7 1.2-.7 1.2-.9 1.2 0 0-.2 0-.2-.2l-.9-1.2-1.4-1.6c-.7-.6-1.9-1.6-4.6-2.9l-.7.8c.7 3.7 1.1 5.5 1.1 7.8 0 2.4-.4 4.5-1.1 6.5-1.6 4.5-1.6 4.5-1.6 7.1 0 6.7 4.1 13.9 7.8 13.9 2.1 0 4.2-4.5 4.1-9-.5-12.9-.5-12.9-.5-13.7 0-2.9.2-5.3.9-10.8z"/>
			</g>
		</svg>
		<svg id="t_g8" viewBox="-190 430 180 20">
			<path fill="#d37f11" d="M-34.9 511.3c-6.1 1.5-6.5-.8-11.6-2.1-10.7-3-22.9-4.2-34-3.9-18.2.6-49.6 4.1-65.4 11.8-5.7 2.8-9.7 3.7-16 2.8-1.2-3.5-13.8-12.4-3-14.2l45.6-7.9c5.9-1.1 11.5-6.5 12.8-11.4-4.9.9-13.8 5-18.4 3.1-4.7-2-13.2-6.8-14-11.8 1.8-2 29.2-4.8 35.2-6.6.4-1.8-.2-9.8-3.4-9.8-12.8.2-14.8 2.6-27.7-1.8-.8-1.5-.8-3.3 0-5 8.5-2.9 17.2-5.7 26.3-6.8 5.1-.7 10.3-.2 15-1.8 6.9.7 17.8-1.7 21.7 5 4.5 7.6-8.1 7.2-13.6 7.6-1.6 3.3-3.8 6.8-4.7 10.5 3.8 0 7.3-1.7 11.1-1.5 5.1 2.6 7.1 7 8.9 11.6-2.4 6.1-18.6.7-20.9 5.5-1.4 3.1-2 6.5-2.6 10 3 .4 6.5-.4 9.5-1.1 13.8-2 26.9-.9 40.5 2.6 6.9 1.7 8.5 4.5 11.8 9.9 0 2.4-.8 4.1-3.1 5.3m-36-77.5c-4.3 5.3-10.5 1.5-14.2 6.3-9.3.9-17.8 1.7-26.9 4.6-4.9 1.7-9.1.6-13.8 1.7-10.7-4.2-7.9-31-19-41.1-1-2.9-2.2-5.9-1-8.8 9.3-4.6 28.4-13.1 32.4-21.9 1.6-3.5-10.1-8.3-.8-11.4 11.5-3.9 14.6 6.6 20.7 12.5.2 2.8-2.4 5.2-2.2 7.2 12.4-4.4 25.5-.7 35.2 6.5 3.8 2.8 9.3 9.8 7.7 14.2-1.3 3.7-15.3 26.9-18.1 30.2m-66.5-33.9 9.9 7.9c1.6-5.2 6.5-8.8 8.3-13.8-6 1.5-12.7 2.9-18.2 5.9m33.7-3.9c-3.8-.9-7.7-2-11.7-1.7-3 4.2-5.5 10.5-6.7 15.5 7.3-1.8 14.4-4.1 21.5-6.1 5.7-4.6 18.6 1.7 18.4 8.3-9.9 8.7-20.9 4.8-29 10.9-3 1.5-3.4-.6-3-2.4-2-1.1-4.9-2-6.7-3.5-.4-.4-1-1.1-1.6-1.1-1.2 5.7.2 12.5 1.2 18.3 9.9-2.6 31.6-9.4 40.9-8.3 3.8-10.5 11.5-21.9 6.7-33.2-13.4 2-14.5 7.4-30 3.3"/>
		</svg>
		<svg id="t_g9" viewBox="-190 430 180 20">
			<path fill="#bf3718" d="M-31.3 448.9c-11.5 2.6-8.4.4-19.2 1.2-20-8.7-35.2-34.8-54.3-45.3l-8.5-5.7c-6.3 8.3-15.3 23.3-21.4 31.6 6.1.6 36.3-5.9 40.3-9.2 4.5-.4 6.1 3.1 9.3 3.1l.8.4c4.3 2 15 9 3.8 11.8-2.6.6-6.5.4-9.3.7-9.5 1.5-18.6 4.6-27.1 8.7-3.2-.4-6.5-.9-9.3-2.2-7.5 10.9-12.2 9.2.2 19.7 8.3-3.3 29.8-15.7 36.7-16.4 8.3-.9 21.5 6.8 23.5 14.2 1.4 5.2-3.6 6.6-6.1 10.3-3.6 5.3-6.5 11.6-8.5 17.5 1.4 3.7 6.3 5.3 3 9.8-5.9 7.9-16-.4-23.5 1.7-5.3 1.3-10.1 2.4-15.8 2.4-1.2 2.2-2.4 4.4-4.3 6.5-11.5 1.1-13.2-23.2-18.8-29.5-1-6.1-4.9-11.4-1.6-17.5.4-7.4.8-15.9 8.1-20.5l1.8-3.3c-2-1.3-4.5-2.8-6.9-2.8-11.1 13.3-15.1 21.3-32.1 28.7-1.8.2-3.9.6-4.3-1.8 2-4.2-.8-7.3 2.5-9.2 3-2.3-1 6.2 8.2-6.8 11.3-18.8 25.7-35.9 37.9-54.2 3.6-5.5 6.3-11.6 10.1-17.1.4-2.2-2.4-3.9-3.8-5.5 1.2-3.7 4.7-2 7.9-1.5 4.7-2 12.4 3.9 14.2 7.7 1.8 3.5-1.2 5.5-3.4 8.1-2.8 1.1-4.1 4.1-5.1 6.3 6.1 1.1 10.8 5.9 16 8.9 5.3 2.9 10.3 10.2 15 13.7 11.9 9.2 13.7 12.4 26.7 20.3 8.5 5.3 11.5 7.3 14.3 10.3 2 1.1 6.1 3.8 3 4.9m-91.7 25.9c-.4.7 2.8 16.2 3.4 18.4 7.1-1.3 16.4-4.4 22.7-7.9 2.8-5.5 7.3-12.4 7.9-18.6-5 .9-32.2 4.6-34 8.1"/>
		</svg>
		<svg id="t_g10" viewBox="-190 430 180 20">
			<path fill="#038249" d="M-34.7 479.8c-1.4-.4-2.2-3.5-3-4.6-2.6-7.4-5.7-14.7-8.9-22.1-2-.2 0-4.1-4.7-3.9l-1 2c2.2 7.7 2.8 25.4-3.2 31.9-7.5 8.1-45.5 11.1-47.3.7-1.2-7.2 6.9-20.1 10.5-26.5 1.2-2 5.5-10.1 8.3-10.5 6.4-9.9-1.7-15.2-12.6-16 1.4 1.4 1.9 3.4.3 5.5-1.6 2.2-3.5 4.7-5.2 6.8-1.2 1.6-1.8 3-3.2 4.5-.8 2-1.8 3.9-2.9 5.5-3.8 13.1-15 24.7-7.9 38.9.8 1.7 2.2 3.9 3.6 5.2 10.9 10 39 8.3 53.6 5.3 8.1-1.7 16.2-3.5 23.9-6.8 3.1-4.8 3.1-11.1-.3-15.9"/>
			<path fill="#bf3718" d="M-128.1 402.4c-2.8 2.4-7.7 5.7-9.9 7.9-.8.9-.2 2 1.2 1.7 3.2-1.3 7.1-3.5 10.3-5 11.9-5 23.7-9.8 34.2-17.1 2.6-1.8 4.9-2 7.9-2.8 3.6-.9 5.5-2.6 6.9-5.7 2.6-6.1 1.6-7.6-2.6-12.5-1.2-1.8-10.7-2.8-13.4-2.9-3-.2-3 .9-5.7 1.8-4.5 4.2-27.1 12.7-33.6 12-2.8-.4-5.3-.6-8.1-.4 2 5 5.1 9.6 6.9 14.6 2.7 1.6 7.6 5.1 5.9 8.4"/>
			<path fill="#2a3b92" d="M-125.5 441.1c-1.2 2.5-17.3 20.5-19.3 23.7-4.5 4.8-13 18.2-20.9 16.7-2 4.8-3.4 10-2.4 15.1 2.4 2.6 3.6 3.3 7.3 2.4 9.3-2.2 29.4-36.9 33.8-39.1 1.4-2.4 4.8-6.5 8.7-10.6.4-.6 7.9-9.3 8.3-10 5-11.1-7.3-2.2-15.5 1.8"/>
			<path fill="#bf3718" d="M-59.9 408.1c-2-3.5-5.5-3.7-8.5-5.7-4.5-.2-13 0-16.6 2.2-1.8 3.5-7.1 7-10.9 8.8-1.8.9-4.1 1.5-5.9 2.2-5.9 2.2-11.5 4.6-17.2 7-5.3 2.2-35.2 16.4-40.5 11.8-1.4-1.3-.8-3.7.6-5-4.9-1.5-4.9.4-7.3 2.9-1.2 9.8 1.1 14.3 10.4 19.3.5.6 3 .8 4.2 1 1.8-.3 7.3-2.5 8.7-3.2 14.6-7.9 18.7-8.4 33.8-15.2 1.5-.7 5.8-2.3 9.5-3.5 1.8-.8 3.7-1.5 4.3-2.3 2.2-3 13.6-6.3 17.8-8.5 1.2 0 2.2-.6 3-1.3 6.7-1.6 16-2.2 14.6-10.5"/>
		</svg>
		<svg id="t_g11" viewBox="-190 430 180 20">
			<path fill="#2a3b92" d="M-41.9 465.1c-9.1-1.1-14.4-2.7-23.5-2.7-2.8 0-24.3 0-27.2-.3-26.7 4.6-38.5 12.2-63.4 18.7-8.3 2.2-9.9.6-17.6-2.2-.6-2-.6-4.1 0-6.1 3.4-2.8 8.5-2.2 12.8-3.3 5.1-1.5 32.2-8.7 33.4-8.9 1.4-.6-9.1-6.6-8.3-7.6-2.8-4.4-.4-7.6 5.9-5.3-4.5-7.2-9.1-18.2-7.7-26.9l1-3.5-2.4-1.1c-3.4-1.5-6.9-3.9-9.3-6.5-1.8-1.7 0-6.8 3.6-4.4 13 1.7 25.4-4.6 34.3-5.2l.1-5.9c-2.8-.2-18.8 6.1-21 4.6l-2.6-.4c-4.5-4.4-8.9-6.3-13-11.1l-1.3-1.9c2.2.7 3.1 1.2 5.9.8l7.5-.9c3.2.7 8.1 1.1 10.9-.7 5.9 0 7.8-1.2 12.8-3.7.6-3.3.3-5.1-1.2-7.9-1.9-3.3-5.2-2.4-6-6.3-1-3.7-.9-4.7 3.8-5.4 1.6-.4 3.2-.6 4.9-1.5 12.8 3.1 14.2 3.3 16.6 15.1 1.4.4 14.1-3.6 15.5-3.6 6.3 4.2 7.7-2 10.9 8.3-1 1.7-.6 4.6-3.8 3.9-3.8.7-19.3 4.1-22.2 6.7-5.3.4-5.9 7-3.8 7.6 2 .7 12.5-3.3 14.5-3.8 6.3 2.2 9.5-.2 13.8 6.1 2.2.6 1 3.1 1.2 4.4-5.7 3.5-21.5.4-25.7 3.7-13.2 2.9-24.7 6.6-37.7 10.5-1 1.3.4 2.6 1 4.1.4.4 1.8 2 2 2.6 1.6-2 4.7-2 6.9-2.9 5.1-1.7 26.9-7.1 31.4-8.9 4.1-1.7 21.5 4.1 17.8 12.9-2 4.8-4.8 9.1-7.9 13.2 6.6.9 7.5.3 10.5 4.1 1 3.3-7.5 7.7-5.3 8.7 10.7-1.1 14.7-2.2 30.4-1.1 10.1 1.5 10.3 4.4 12.2 11.2-1.2 2.5-8.1 5-10.7 2.8m-31.5 47.3c-3.4.4-3.2-.2-6.5-.7-3.2-1.1-13.4-.9-15.6-.2-8.3 0-18.4 3.1-23.9 6.8-8.3-1.8-7.9-8.7-12.6-13.5-1-8.8-8.7-19.7-4.1-27.3.4 1.3 9.9 2.4 11.1 3.1 5.1-3.1 10.7-1.8 15.6-5.2 2.2 0 10.3-2.8 12.4-3.5 7.3-2.4 16.4-2.4 17.8-.6 2.4.4 3.8 2.6 6.3 2.6 10.9 12.4 6.3 12.7-.6 25.4 0 4.4 3.8 3.5 2.6 8.5-.2 1.5-2.7 3.2-2.5 4.6m-34.4-84.3c-3 .9-9.7 2.7-15.3 2.7-2-.6 2.6 5.2 2 6.5.4 2.2-.4 3.5 1.7 3.8 1-.9 13.5-4.6 14.7-5 3.4-.7 15.4-.1 17.7-2.8 2.2-2.7 4.2-8.3-2.2-10.2-4.4.4-15.3 4.3-18.6 5m20.7 55.4c-7.3-.9-25.3 6.1-35 6.3-.6 3.3 4.1 8.3 4.3 11.6 1.2.6 5.3-.7 10.1-.9 4.7 0 11.3-.4 14.4-3.5 5.3-.4 7.5-5.3 6.3-9.8-.3-.6.1-4.1-.1-3.7m-30.8-33.3c-.8 1.5 3.6 5.7 3.8 7.3 6.7-1.8 20.3-3.4 27-4.9.4-2.4 2.2-6.9 2.2-9.3-21.2 1.5-25.4 6.4-33 6.9"/>
		</svg>
		<svg id="t_g12" viewBox="-190 430 180 20">
			<path fill="#bf3718" d="M-135.3 388.3c-1.2 1.5-.4 3.5-.6 5.3 1.4 3.1 4.9 7.4 7.3 9.8 10.5 10.5 14.8-3.7 11.9-10.3.6-6.3 7.3-12 10.1-17.5-.2-3.1 1-3.7 0-7.4-4.7 4.1-16.4 17-23.3 10.1-3-2.8-3.2-4.6-8.3-4.2 7.1 5.2 1.2 8.3 2.9 14.2"/>
			<path fill="#2a3b92" d="M-118.6 447.7c3.5-1.3 5.7-6 4.9-8.3-.7-2 .4-3.1-2.2-4.3-.4-.2-4.3-1.7-3.5-1.5-4.8-1-5.6 1.4-7.4 4.3-3 3-5.1 3.9-7.8 7.1-1.3 1.6-3.2 3.1-4.6 5.2-.4.3-1.1 2.2-2.3 2.7l.1.1c-6.8 8.3-15.9 15.3-21.7 24.1-2.1 0 1.7-8.8 1.9-10-5 5.9-4.5 7.7-7.4 14-6 3.3-4.5 8.8-6.4 14 1.2 1.3 2.1 2.8 4.3 2.6 1.6-1.5 4.1-1.8 5.8-3.3l20.7-18.6c1.6-1.5 2.5-4.1 4.8-4.4.6 5.7.4 11.2-1 16.8-6.2 5.3.8 24.7 8.9 25.8 4.5-9.6 4.3-29.7 10.7-36.3.5-1.7 1.6-4.2 3-7.2q0-1.5.3-3c.2-.9.5-1.7.8-2.5.2-.6.3-2.7.6-1.4-.3-1.3-.1-2.5.4-3.5-.2-.5-.2-.9-.3-1.4l-9.6 15.3-.6-1.1c.2-4.2-.4-8.8-3.3-12.2 2.5-5.1 4.1-5.9 10.9-13"/>
			<path fill="#038249" d="M-32.3 492.5c-4.6-6.1-6-18.6-9.2-21.9-1.2-1.5-2.5-9.6-7.5-12.5 1.6 9.2 2.1 20.6.2 29.7-9 12.5-44.7 10.3-44.9 1.1-.5-31.8 30.5-34.8 30.5-53.6-4.4-5.7-.9-15.3-18.3-14.4-1.8 1.7-3.7 1.1-5.9 3.5l5.3 1.8c2 2.9 1.4 6.8 1.2 10.1-2.1 3.7-8.5 16.3-11.7 19.3 1.8-10.8-2.1-17.4-7.8-18.3-4.1-.6-6.6 2-9.6 4.4-1.6 2.6-3 9.1-3.1 12 1.3.2 2.5-5.3 4.1-7 1.7-2.6 3.1.9 3.1.9-.4 6.1-.7 23.5-1.1 24.7.5 6.5-1.9 12.5.5 19.3 6.6 19.4 27.8 19.4 44.3 17.7 8.9-.9 18.9-1.8 26.4-7 3-3.8 3.3-7 3.5-9.8"/>
			<path fill="#bf3718" d="M-154.6 433c4.7 3.9 10.5 6.1 17.2 5.7 7.1-2.9 12.2-7.9 19.8-10.3l-1.5 1.8c2.5-1.1 5.2-2 7.5-2.9 3.3-1.4 6.5-2.9 9.9-4 3.1-1 6.2-.9 9.2-1.8.7-.2 1.3-.3 1.9-.2 4-2.9 8.3-5.5 12.9-7.9 5.5-2.8 9.9-5.9 9.7-12.2-6.9-2-13.2-2.6-20.3.2-1.8 3.1-10.9 5.3-14.6 6.3 1.8-1.7 3.4-3.9 5.7-5.3 9.1-12.2 25.9-19 36.5-29.9 4.1-4.4-4.9-11.2-8.5-13.8-3.8-3.1-8.1-6.1-13.6-7-1.2 3.9.8 7.7-.4 11.6.8 6.3-3.8 11.6-8.1 16.2-15.6 17.5-27.9 35-53.1 42-2.8.6-6.3 2.4-9.3 1.3-2.6 0-4.7 1.3-6.3 3-1.5 4.2 5 3.5 5.4 7.2"/>
		</svg>
		<svg id="t_g13" viewBox="-190 430 180 20">
			<path fill="#bf3718" d="M-30.8 454.3c-4.9-3.3-12.7-7-15.9-7.1-16.2-.8-30.4-18.5-47-16.1.5-2.3-.8.2.6-3.1 12.2-4.4 26.9-2.2 39.9-2 8.1-5.3 2-7.6-1.8-12-8.1-4.6-20.5-.6-29.4.4 3.4-2 22.9-10.5 23.5-12.2 1.6-3.5-2.8-6.6-3.6-10-3.2-1.5-5.1-5.2-9.3-4.8-4.5 4.6-11.7 3.5-17.4 5.9l-6.3-5c8.1-3.1 17.2-3.7 25.3-7.2 1.4-1.7 1.4-3.5 1.6-5.3-1.8-5.5-7.9-9.6-14-11.4-16 10.3-36 17.1-54.1 24l-1.2 2.2c3.2 3.5 6.5-.9 8.3 2.2 7.7-.4 15.2-1.8 22.9-3.1l-.2 1.1c-3.6 4.1-.4 4.1.4 7.9-9.3 3.7-18.6 7.9-28.8 10-.6-1.7-1-3.3-1.6-5h-4.9c-3.2 1.5-.4 3.9-2 5.5.6 6.6.2 14.6 5.1 20.1-9.5 5.7-23.3 8.3-34 12.4 2.4 4.4 7.1 6.5 11.9 8.1 9.5 3.1 18.8-5 26.3-9 .4-.2 4.1-2.2 4.7-1.7.6.7-1 2.4-1.4 2.9-8.5 11.6-17.8 24.1-30.6 32.1-2.8 1.7-6.3 1.8-7.7 5l4.9 1.1c11.3-5.4 14.9.7 28.6-13.8 1.9-1.9 20.6-24.5 27.1-33.4l2-.9c-.3 7.6-.7 15.3.2 22.9.3 1.4 2.7 4.2 3.5 4.1 1.2-.3 3.1-1.5 4.5-1.2.7.2 5.2-2.7 5.7-4.2.1-3.3.5-17.6 1.3-20 4.3.9 11.8 9.7 15.8 11.2 12 4.3 18.3 16.3 30.5 16.5 5.7.2 5-1.6 10.8-3.8 3.4-2.8 6.4-1.6 5.8-3.3m-59-58.4c3.8-.6 7.9-2.2 11.7-1.3-2.6 5-9.7 13.1-14 17 .3-4.6 3.5-11.8 2.3-15.7m-17.2 20.7c-1.8 2.8-21.1 9.2-25.1 9.8-.6-.2-2-.7-2.2-1.1 6.1-6.5 13.2-12.2 20.9-17 .8-2.6 4.1-3.1 6.5-3.3l.8 1.5c-.3 1.8-.1 9-.9 10.1"/>
			<path fill="#2a3b92" d="M-99.2 456.9c-2.3-.1-7.3-.9-14.5 3.8-4.6 4.5-13.2 6.8-16.8 13.2l.1-2.4c.3-1.8-.5-6.9-.9-7.6-1.8-2.6-.9-4.7-3.5-4.4-1.8.4-5.9 5.3-6.7 7.3-2.6 13.1 2.4 32.6 12.8 41.9 2.4 2 7.9 4.4 10.9 5.9 8.3-2.4 16.4-6.1 25.3-6.3 3.2 2.6 3.8 6.8 6.1 10 2.6.7 4.9 1.7 7.3 1.8 18-9.6 17.6-29.7 23.5-45.2 2.4-6.3-4.3-8.3-6.1-13.5-11.2-5.8-24.7-6.9-37.5-4.5m-15.3 35.3c2.4.7 5.1.9 7.3 2-3.8 3.5-9.7 6.3-14.6 8.5-3.6-7.6-4.1-15.9-6.5-23.8 1.6-2.6.2-5.3 4.3-5.9 5.7-.6 11.1-2.4 17-2.4l.2 7.9c-6.5 1.5-12.8 3.9-19.4 4.8.4 5.5 8.9 5 11.7 8.9m35.1 9c-4.7-2.6-12.8-5.7-18.4-5.3 1.8-6.5 16.8-7 15.2-12.9-4.1-2-6.3-5.3-11.5-5.2-.2-5.5 3.2-7.9 7.9-10.7 3.4 0 12.2 0 14.8 1.1.3 11.4-2.8 22.7-8 33"/>
		</svg>
		<svg id="t_g14" viewBox="-190 430 180 20">
			<path fill="#bf3718" d="M-162.8 450.3c1.8 1.4 4.8-.1 5.3-.3 3.1-1.1 9.2-4.5 12-6.3 1.5-1 3.4-3.1 5-5 3.6-3.9 16-19.1 19-21.3 3.2-2.4 6.1-5.7 9.8-7.8l10.5-9.2 7.7-9.3c1.7-5 .7-7.3-1.2-9.6 0 0-1.1-1.5-7-4.8s-10.3-5.1-13-5.3l-3.4.4q-8.25.15-8.1.9c.1.5.3.9.6 1.3s11 1.8 11 8.8l.2 2.2c-.8 3-1.3 8-9.5 16.8-9.1 9.8-28.9 32.4-32.3 36.6-2.9 3.6-3.5-1.9-6 4.6-.6 1.6-1.6 6.5-.6 7.3M-43 489c0-.7-1.8-9.7-1.8-9.7-2-3.9-3.8-10.9-6-13.2s-6.5-10.2-9.8-12.9c-3.2-2.8-6.7-5.2-10.4-7.4-3.7-2.1-8.7-6.3-11.8-8.3l14.7-15.7c1.3-1.1 7.1-8.5 7.8-10.3s2.9-3.8 3.2-5.2c0-.7 2.5-3.1 1.7-4.8l-.2-2c1.6-3.1.4-3.6-7.5-8.5s-9.6-5.6-11.2-6-4.2-.3-7.3-.3c.1.3 6.7 1.2 9 5.7.9 1.8 1.2 4.9.2 5.7l-2.7 6.2c-.3.2-3.8 5.9-6 9s-7.6 7.6-10.3 10.7l-7.3 9s-10.2 11.5-15.6 18c.1 0-7.8 8.2-7.8 8.2l-7.7 6.7c-2 2.8-3.4 4.9-4.3 5.5s-3.3 4.2-3.3 4.2c-.3.5-4.3 4.1-8.2 9.3l-5.3 2.5c0 1-5.8 2.1-6.2 2.2-.3.1-.8.6-1.3 1.3l1.2 4.1.2 7.6c0 1.6.5 3.2 1.6 4.8s4 1.7 8.7.2c4.2-1.6 17.7-4.2 21.3-6.1 3.6-1.8 6.3-2.1 8.4-2.6 2.1-.6 20.3-4.8 20.3-4.8.8-.5 5.2-.8 5.5-.9s2.6-.5 6-1.3c3.4-.7 5.6-.6 8.1-.8 2.5-.1 3.8.1 4.6-.1 1.9-.7 4.3-1 4.8-.9.4.1.5 2 1.1 3l.8 4.6c0 .7.3 1.6.8 2.6 0 0 9.9 10.3 12.2 9 0 0 5.5-2.7 6.7-4.4h1.6l2-4.2zm-42.3-12.7c-3.6-.6-6.2-.9-7.7-.7-1.5.1-17.6 2.8-17.6 2.8-3.1.2-12.1 2.1-12.5 2.2-.3.1-6.3 1.9-7.1 1.4l44.2-41.5 5.7 8.6 2 4.1c.3.7 3.2 7.2 3.2 7.2l2 4.6c0 .7 1.7 4.9 1.7 4.9l1.8 7c-5.7.6-12.1 0-15.7-.6"/>
		</svg>
		<svg id="t_g15" viewBox="-190 430 180 20">
			<path fill="#2a3b92" d="M-55.1 429.8c-4.6-.7-9.2 1.2-13.8 1.2 0 4.3-2.9 8.5-1.1 12.6-1.3 5.2.2 10.5-.7 15.6 1.1.2 4 .2 4.8-.7 5.9-1.4 13-3 17.3 3 2.9.5 2.6 2.8 4.8 4.1 1.5 2.5 2.6 3.9 1.1 6.9-3.5 3.4-5.7 2.8-10.1 2.7-8.8-2-18.9-.9-26.8 2.8-3.3-.5-6.8.2-9.6 1.8-1.8 2.1-10.1 2.1-12.9 1.8-2.6-1.4-9.9-8-8.8-11 2.6-1.4 6.6.2 7.9-1.8 5-1.6 10.7-3.7 15.8-5.7 1.7-.7 1.1-2.8 1.1-4.3.2-4.3 1.3-16.9.4-20.3-2.9 1.4-8.1 3-10.3 5.5-4.2 1.8-7.5-1.1-11.2-3 0-1.2-3.7-2.5-4.6-2.8-2-.7-3.3 2.3-6.6 1.6-1.1.4-2-.5-3.1-.4-2 0-3.7 2-5.5 2.5-2.4 2.7-6.1 5.5-5.7 9.6.4 3 1.5 5.9 1.7 9.1.4 6.6-.6 13.1.4 19.9-1.7 6.2 4.4 12.3-1.1 17.9-2.8.9-3.9-.2-5.9-1.8-1.5-3.7-3.3-7.3-5-11-4.4-4.3-1.3-10-1.5-14.9 0-7.3 1.8-14.8-.2-22-1.1-.7-2.9-2.5-3.9-2.7-2.8 2.1-5.1 4.8-7.2 7.6-1.7-.2-2.6.9-3.7 2-7.2 6.2-8.4-12.3-4.4-17.6 7-.4 17.6-25.8 22.6-31.1 4.2-11.7 7.7-11.4-.6-22.9 5-3 19.7 8.4 21.9 12.6.4 2.7 2.2 3.9.9 6.8-2.8 7.1-7.7 13-11.6 19.7-2.9 2.1-9.2 10.3-11.6 13.5 0 2.7 4.4 5.7 5.5 8.2.4.4 1.3.9 1.5 1.4 6.8-13.5 39.1-16.5 50.5-25.1.6-14.9 2.4-22.6-3.7-37-1.1-2.7-1.3-6.6 1.8-8 1.7-.9 3.3-1.2 5.3-1.2 19.3 5.5 8.3 24.5 11.9 38.2 6.2 2.7 12.1-4.8 18.9 0 5.1 3.7 10.7 5.3 8.8 12.8-1 6.1-9.6 2.5-13.7 3.9m-27.7-48.7c-4.6 2.1-1.8 5.7.2 9.1z"/>
		</svg>
		<svg id="t_g16" viewBox="-190 430 180 20">
			<path fill="#2a3b92" d="M-171.3 454.8c1.7 1.9 2.9 2.7 4.1 2.7.6 0 1.5-.4 2.9-.9 1.7-.9 5.6-2.3 11.2-4.2 2.9-.8 12.4-4.6 22.3-8.7V429c-5.4.6-7.4 1.7-20.3 11.6-8.1 6.1-10.6 7.8-15.5 10.1l-1-.6c1.2-1.1 2.1-2.3 2.7-2.7 5.6-6.1 7-7.8 8.9-11.8-8.1-6.6-11-9.7-11-11.9 0-1.1.2-1.7 4.5-6.8 2.7-2.8 4.1-4.4 4.1-4.4.4-.4 3.7-8.2 4.5-9.9 1.2-3.4 1.7-5.9 1.7-9.3 0-4.7-.4-5.9-2.3-8.3l.4-.9c1.2-.4 2.1-.8 2.7-.8 1.9 0 6.2 2.1 9.1 4.4 3.1 2.5 5.2 6.1 5.2 9.1 0 4.6-2.3 12.3-5.8 19 1.5.6 2.5.8 3.1.8 1 0 2.9-.6 5.4-1.1 1.2-.4 3.1-.9 5.4-1.5l.6-16.3c.2-2.8.2-7.2.2-13.3 0-6.4-1-8.5-6-11.6v-1.5c2.5-.8 4.8-1.3 6.4-1.3 7 0 16.8 9.9 16.8 16.9 0 2.7 0 2.7-2.9 14-2.5 9.7-4.6 24.1-4.6 32.4v1.5l.2 11c2.3.8 2.7.9 4.6 2.1 7.2 0 13.7-1.9 31.2-8.3 7-2.8 7.4-2.8 13.2-4.7v-1.5c0-4.7-.8-6.3-4.6-10.2-16.1 14.2-24.4 19.2-32.3 19.2-3.9 0-6.4-1.9-9.3-6.8l.6-.6c1.4.4 2.3.6 2.9.6 4.1 0 7.4-1.9 16.1-9.5-4.8-5.1-5.4-6.1-7.2-11.6l-3.3.2c-1.9.4-3.5.6-3.9.6-.6 0-1.5-.2-2.9-.4l-.2-1.1c5.2-3 7-4.9 10.8-10.6 8.3-12.5 13-21.8 13-25.8 0-2.3-1.2-3.8-5.8-7.8l-.2-1.9c6.2-1.3 6.6-1.3 7.7-1.3 2.9 0 7.7 2.1 10.8 4.7 2.7 2.3 3.5 4.4 3.5 9.1 4.8-1.1 7-1.7 8.1-2.1.6-.2 1.5-.8 3.1-1.3l2.7-1.3c.8-.4 1.7-.6 2.9-.6 3.1 0 4.1.6 11.4 7.8 3.9 3.6 5 5.5 5 7.8 0 2.5-.6 3-6.2 6.8-1 .4-4.3 3.4-7.5 6.6-1.7 1.7-6.8 6.8-12.4 12.1 2.5.9 4.6 1.9 5.4 2.3 6.8 2.7 9.3 5.1 9.3 9.3 0 .9-.2 2.1-.4 3.4 4.6-1.3 7.4-2.1 8.7-2.1 4.1 0 4 2.2 8.3 5.6 2.9 2.5 4.1 4.2 4.1 6.6 0 2.8-2.5 4.7-6.4 4.7-1.2 0-4.6-.1-6.8-.1-1.9 0-4.5.2-7.9.4-.2 7-.4 12.3-.4 15.7 0 4.9.2 11.6.6 19.3.2 4.4.2 8.2.2 11.2 0 12.1-3.7 22.6-10.8 29.6-1.9 1.9-3.3 2.8-4.1 2.8-1.4 0-1.7-.2-6.4-6.1-1.4-1.9-4.3-4.9-7.9-8.3l-7.9-7.6c-2.5-2.8-4.1-4.6-11.2-13.3l.2-.9c2.5 1.1 4.1 1.9 4.6 2.1 4.6 2.5 9.3 4.7 13.9 7 3.7 1.7 6.4 2.7 7.9 2.7 3.7 0 5.4-7.2 5.4-23.7 0-6.4-.2-11.9-1-27.7-3.1.8-5.2 1.5-5.8 1.7-4.1 1.7-8.1 3.4-12.4 5.3-.6.2-3.5 1.3-6.4 2.5 9.1 4.6 12.4 8.3 12.4 13.8 0 3.4-2.7 6.8-5.6 6.8-1.2 0-3.5-.6-6.6-1.5-3.7-1.3-6.4-1.7-15.1-1.9v-.8c5.2-3.4 6.4-4.6 8.7-7.6-1-1.1-1.5-1.7-1.7-2.1l-1.9-4.4s-.6-1.3-1.4-2.5c-4.5-1.3-5.4-1.9-9.1-5.5-1.4 1.9-1.7 2.1-4.3 3l-.2 32.4c0 17.3-1.9 26.7-5.2 26.7-1 0-1.9-1.1-3.1-3.8-4.1-8.2-5.4-13.8-5.4-21.6v-1.7l.4-26.4-14.3 6.3c.8 3.6.8 5.3.8 9.1 0 7-1 11-4.3 17.3s-6.4 9.3-9.3 9.3c-1.7 0-4.5-5.9-4.5-9.9 0-1.1 0-1.1 2.9-4.7 1.4-1.7 2.5-6.8 2.5-10.6 0-2.7-.4-4-1.7-7-5.6-1.9-8.1-3.2-10.6-5.7-2.3-2.3-4.1-4.9-4.1-6.4 0-.9.8-2.5 1.9-4.2zm89.8-43.1c-4.3-3.6-4.8-4.2-8.5-8.3-2.9 3.8-3.5 4.4-6.6 7.2 4.5 2.1 5.2 2.7 9.7 6.3zm-1.6-15.9c6.2 2.3 7.2 2.8 11 6.1 5.8-7.8 7.2-10.1 8.5-14.8-2.1.2-4.3.6-5 .8-4.8.9-8.1 1.7-8.5 1.7l-1.2-.2z"/>
		</svg>
		<svg id="t_g17" viewBox="-190 430 180 20">
			<path fill="#bf3718" d="M-48.2 455.3c-12.4.2-23.2 2.5-35.4 4.8l1-3.2c-5.3 0-45.6 13.3-50.7 16.5-7 1.2-23.5 13.7-32 11.2-.7-2-2.1-3.4-3.3-5.2-1.4-2.1-1.5-3.9-.5-6.2 3.6-8 14.8-2 19.6-8.4 3.3-.2 20.5-8.2 24.4-10-.9-4.1-3.4-9.1-3.1-13.3.5-7.8 4.5-14.6 2.8-22.7-6.9-3.2-8.8-11.6-8.1-18.7 6.9-8.9 13.9-13.9 22.3-20.8 2.2.2 2.4-3 3.4-4.4-.7-2.8-3.8-3.6-2.6-7.5 8.1-1.6 20.6 3.6 24.2 11.7 4.6 10.7-19.1 17.2-24.9 21.5-3.1.7-6 2-8.4 3.9 3.1 3.9 7.6 6.4 10.7 10.5 1.4-.2 2.2-3.4 4.5-4.3C-96 407-94 399.1-84 399.9c4.5.4 5.8 2.3 9.6 3.6 3.3 6.6 10 11.6 4.3 18.8-.5 4.4-6 2.8-6.9 5.9-1.2 4.6-2.1 9.2-3.1 13.7 8.9-2.5 29.2-4.6 36.3 2.7 1.9 2 2.9 5.7.7 7.8-.6 2.1-3 2.9-5.1 2.9m-66.9 30.3c-5.3 5.5-13.4 11.2-13.1 20.1-2.2 2.5-5.8 2.3-8.8 1.2-6.4-2.5-5.8-11-8.1-16.7 2.1-4.3 6-6.8 8.9-10.1 2.1-2.7 4.5-8.4 8.3-5.2l1.2.7c-.2 2-2.8 6.8-1.2 8.2 8.4-3.9 16.7-8.4 26-9.2.9 3.5-11.6 7.9-13.2 11m20.3-57.6-3.4.4c-2.2 2.5-6.4 3.2-8.8 5.5-3.1 3-4.5 9.6-1.9 13.3 14.8-4.4 7.7-5 14.6-17.4zm27.3 70.4c-2.9-4.8-7.2-8.5-10.5-13.2 1.9-1.8-.2-6.8 4.1-5.9 1.2-1.1-.9-3.7-1.5-4.4-2.9-3.7-5.8-2.8-10-3 2.1-2.8 4.6-3.2 8.1-4.1 21.1-6 31.8 24.2 17.2 33.1-3.1.3-4.8-.4-7.4-2.5"/>
		</svg>
		<svg id="t_g18" viewBox="-190 430 180 20">
			<path fill="#038249" d="M-44.7 453.5c-4.1.7-13.5-1.2-18.1-2-10.6-1.4-21.6-2.1-32.2-.5-.9 18.5-1.1 37-1.9 55.4-.7 2.8-1.1 5.5-3.2 7.5h-1.6v1.1c-10.6-5-5-57.6-8.7-60.1-4.2-2.7-32 11.4-37.2 14.4-3.7 2.3-9 3.2-13.5 3.6-6-5.2-5.8-3.7-5.3-11.7.9-1.6 1.8-3 3.9-3.4.9 1.1 6.7-.4 8.5-.5 13.3-6 26.9-11.6 40.9-16.3.7-4.1-6-7.5-8-11.6-3.5 1.1-11.9 11.7-19.5 14.2-4.1-4.3-1.9-15.8 3.7-17.9 6.2-7.6 12.9-15.1 17-24-6.5 1.6-12.4 5.9-19.1 7.1-5.3-.2-9.4-2-12.6-6-.7-3.7-2.5-8.4 1.1-11.4 1.8-.5 3.5-1.4 5.5-1.4 9.2-4.3 19.8-3.6 28.7-8.9 2.3-1.2 9.6-6.8 9.9-9.1-3.5-4.1-8.3-7.6-11.3-12.1v-2c5.1-.4 18.1-.4 22.7 1.4 1.9.9 2.3 2.7 3.4 4.3l1.2.5c2.5 5.2 1.1 11.2-2.7 15.5 3.4-.7 15.2-4.1 17.3-1.1 3.7 1.6 6.5 4.4 5.7 8.7-5.5 2.5-12.7 6.4-18.8 4.6.4 1.6 4.2 3.6 5.8 4.3 3.7 4.1 3.2 7.8 3.4 13 2.5 1.1 5.8-.9 8.7 1.6 1.8.2 3 1.6 4.4 2.5.2 2.5.4 5 1.2 7.3-3.2 5.5-24.3 19.2-30.6 20.6.2.5.4 1.2.7 1.6 2.1-.5 4.4-1.4 6.5-1.2 6.4-1.6 37.2-5.9 41.1-1.6.4.2.9.4 1.1.4 4.6 1.8 5.8 6 6.7 10.3-1 1.8-2.9 2.7-4.8 2.9m-82-63.7c-3 0-16.8 1.6-18.1 3.9 3.7.4 6.9-.4 10.3.4 2.1-1.4 6.7-.7 8.1-3 .2-.4.6-1.3-.3-1.3m23.5 7.9c-7.6.7-18.8 17.2-13.1 22.6 7.1-1.4 8.3-10.3 11.7-15.5 1.6-2.5 3.7-5 4.4-8-1-.2-2.2 0-3 .9m8.9.7c-9.4 8.7-11 17.9-13.5 29.9h2.8c.2-2.8 1.8-5.2 3.4-7.5 4.6-1.8 11-16.3 11.2-21.3-1.3-.6-2.5-1.1-3.9-1.1m3.7 25.2c-2.3 2.5-4.6 5-7.4 6.8-.4.4-2.1 1.4-1.2 2 3.5 2.1 11.5-5.7 13.8-8-1.1-2.7-3.4-1.5-5.2-.8"/>
		</svg>
		<svg id="t_e1" viewBox="-20 -120 340 370">
			<path fill-rule="evenodd" d="M52.894 69.96c-17.507-.113-9.053 18.899-.906 19.472 56.421 12.318 92.34-11.637 131.425-9.525 20.679 2.05 53.824 11.04 61.514 15.63 1.638.978 3.978.741 4.995.2 8.34-4.393 7.713-25.104 4.358-36.853-.932-3.487-8.67-7.71-15.057.179-2.094 2.11-10.85.64-12.705-.625-8.379-5.713-31.444-11.186-43.558-8.082-46.229 9.757-82.747 26.55-130.066 19.604"/>
		</svg>
		<svg id="t_e2" viewBox="-20 -120 340 370">
			<path fill-rule="evenodd" d="M59.02 102.596c-15.912-3.454-14.93 14.041-.939 17.702 58.429 18.963 99.345-16.313 139.821-15.484 20.31 1.175 35.046 16.991 53.722 14.628 34.982-7.283 16.15-30.758-1.646-33.7-14.285-2.46-27.333-7.527-52.908-3.771-49.696 9.559-98.759 31.719-138.05 20.625m39.8-55.703c-6.437 1.433-9.592 15.777.387 17.61 34.313-.094 73.546-13.36 112.424-18.667 6.64-1.364 7.75-14.503 8.194-19.04 1.47-7.125-3.421-9.18-9.243-7.885-38.857 9.785-72.906 22.044-111.762 27.982"/>
		</svg>
		<svg id="t_e3" viewBox="-20 -120 340 370">
			<path fill-rule="evenodd" d="M62.003 124.593c-15.658.145-14.692 16.46-.924 17.702 58.87 1.546 97.758-27.332 137.587-22.024 19.986 1.175 39.022 17.275 57.4 14.912 9.427-7.967 7.546-30.352-1.242-31.71-49.953-9.825-27.623-12.214-56.976-6.046-48.902 9.56-97.13 27.166-135.845 27.166m27.345-92.747c-6.912 1.55-10.3 17.061.416 19.043 36.846 6.148 78.975-10.708 120.724-20.185 7.13-1.476 10.94-13.125 11.417-18.03 1.579-7.705-6.291-12.487-12.543-11.086-41.003 16.914-78.1 31.254-120.014 30.258m.18 44.368c-6.115 1.428-9.113 15.716.368 17.542 32.602 5.663 74.423-9.864 111.361-18.594 6.309-1.36 7.364-14.447 7.786-18.967 1.397-7.097-3.25-9.144-8.782-7.853-36.278 15.58-73.648 28.79-110.733 27.872"/>
		</svg>
		<svg id="t_e4" viewBox="-20 -120 340 370">
			<g fill-rule="evenodd">
				<path d="M200.254 22.83c-10.48.092-22.663.998-37.018 2.965C131.502 31.057 76.74 54.61 59.74 47.425c-7.093-3.207-15.217-7.936-22.664-11.771-9.428-5.157-15.307-2.581-10.574 8.924l62.423 72.537c3.998 6.062 11.772 5 17.658 3.606 41.351-14.459 66.158-9.593 100.5.367 7.945 2.133 11.702.729 17.529-3.72 19.484-16.497 47.016-40.226 47.512-47.582.602-3.396 3.503-23.47-3.132-27.892-15.574-9.31-31.308-19.387-68.738-19.063zm33.844 28.654c4.417 3.761 3.347 8.843.378 13.416-7.825 12.612-14.648 22.207-28.006 33.054-2.31 1.67-4.598 3.386-7.164 3.508-15.774-1.87-6.317-12.143-83.092 1.314-5.23.091-7.551-.908-9.443-2.683l-29.272-36.73c-2.844-5.218 2.686-4.34 6.233-4.362 43.133.106 104.006-39.048 150.366-7.517"/>
				<path d="M117.812 40.972c3.039 20.833 3.86 41.666 4.316 62.5l16.252-.475c15.704-22.176 9.492-43.628 5.885-65.82zm79.657-16.389c-4.472-18.217-22.908-8.7-25.14-.573l-13.57 77.09 16.963.948c11.095-27.016 24.251-61.9 30.01-68.547z"/>
			</g>
		</svg>
		<svg id="t_e5" viewBox="-20 -120 340 370">
			<g fill-rule="evenodd">
				<path d="M119.395 21.023c-6.92 4.626-10.652 5.815-13.495 15.583-.451 1.58-.793 7.782 1.288 12.037 18.032 17.664-47.141 56.041-70.44 72.194-15.165 9.94-10.008 21.087 9.883 11.318 25.665-11.936 70.901-25.835 79.792-61.766.086-3.942 2.715-5.602 6.473-6.54 5.752-1.41.7-27.485-2.606-34.281s-8.657-9.842-10.895-8.545"/>
				<path d="M100.883 86.2c1.198 4.583 5.375 16.356 4.613 21.29-3.513 9.018-8.424 12.446-10.385 22.042-.841 5.28 16.423 21.6 21.38 19.02 6.334-4.297 9.7-13.186 9.595-17.18-.687-19.204-11.628-32.803-12.023-54.911zm25.792-58.082c41.276 15.334 59.018-16.083 96.332-24.195 10.699-2.326 21.354 2.298 29.564 4.114 17.756 4.461 3.733 31.363-9.82 25.11-32.281-15.944-59.96 8.059-90.6 15.564-2.266.41-3.65-2.678-5.098-4.775-4.689-6.794-11.765-1.189-17.535-3.308z"/>
				<path d="m175.275 35.005-28.048 6.835c8.697 10.69-11.9 52.85-22.254 80.496l25.17-3.802c2.53-28.77 18.63-55.422 25.132-83.529"/>
				<path d="M114.246 64.55c13.95 34.475 61.058-13.835 91.153-11.049v19.192c-30.88-5.599-82.694 35.118-95.04 6.633z"/>
				<path d="M199.124 44.254c-2.46-.46-9.488 7.166-9.471 9.927.608 24.199.074 47.857-1.896 72.055-.714 11.333 21.106 2.356 22.009-3.012 3.033-25.336 1.728-73.548-.228-74.743-3.02-1.99-5.939-3.318-10.414-4.227"/>
				<path d="M112.933 120.888c96.527-30.72 146.762-8.13 149.572-2.228 1.897 3.24 1.487 9.99-.507 13.371-16.651 24.78-105.629-38.901-145.753 10.582z"/>
			</g>
		</svg>
		<svg id="t_e6" viewBox="-20 -120 340 370">
			<g fill-rule="evenodd">
				<path d="M138.731 9.16c-6.661-6.95-9.144-5.771-14.01-1.951-3.9 3.998-7.614 6.227-9.403 14.145-.967 4.359-.136 13.042 1.951 20.487 1.287 3.662 6.02 7.381 11.005 8.78 1.71.542-.622 8.672-2.439 13.007l18.21-.975c-1.541-4.9-5.491-12.838-4.552-14.308 5.1-7.982 10.835-18.724 10.86-22.763.07-3.682-5.626-10.163-11.622-16.422"/>
				<path d="M64.55 77.828c-11.593-1.2-23.54-15.849 3.028-14.308 42.501 3.245 75.194-.247 131.69-25.611 6.908-1.686 58.324 12.344 60.432 17.56 2.654 7.908-1.029 30.331-12.666 29.494-16.472-5.205-53.428-24.456-66.374-20.984-49.456 12.159-66.638 17.118-116.11 13.849"/>
				<path d="M133.871 80.643c-4.023-2.139-24.469 13.505-24.897 16.39-.845 5.325 4.787 12.92 2.3 14.19-35.138 18.204-47.383 19.283-65.468 22.486-21.425 4.198-16.073 15.92 0 14.165 50.84-5.295 39.72-11.786 92.174-21.982 4.079-.896 11.869-18.057 11.869-24.792 0-5.73-10.277-17.435-15.978-20.457m26.636 9.241c-2.032-.118-2.566.662-2.08 1.814 10.907 25.897 58.795 61.458 61.326 56.12 7.436-17.119 5.18-19.57 2.029-24.69-11.856-19.095-43.212-31.989-61.275-33.244"/>
			</g>
		</svg>
		<svg id="t_e7" viewBox="-20 -120 340 370">
			<g fill-rule="evenodd">
				<path d="M115.532 3.354c-10.041-1.388-20.49 18.791-21.107 23.986 1.642 11.464 11.662 15.442 13.278 20.178 7.222 25.751 9.331 67.28 11.654 75.32 2.443 8.022 62.095 13.845 66.313 11.736 13.153-8.01 19.151-31.322 7.616-29.214-24.316 3.13-43.9 3.418-49.042.632-4.41-2.698-14.314-48.492-12.065-52.663 2.765-5.515 13.275-12.685 12.01-17.486-1.148-5.104-16.672-30.791-28.657-32.489"/>
				<path d="M58.84 124.468c-13.384.875-11.9-15.995-.49-18.787 154.19-20.478 42.557-54.033 185.733-75.967 6.246-1.109 5.523 27.023-.788 27.699C98.962 76.13 218.105 98.206 58.84 124.468"/>
			</g>
		</svg>
		<svg id="t_e8" viewBox="-20 -120 340 370">
			<path fill-rule="evenodd" d="M120.79 78.902c-4.9-.897-13.726 19.713-17.34 22.375-20.47 14.835-36.47 16.142-58.928 22.736-11.793 3.536-10.531 14.935 3.169 12.412 22.616-5.155 89.457-10.862 95.468-38.813 1.904-10.71-12.803-15.949-22.37-18.71zm9.784-45.931c1.634-5.083 15.03-13.6 24.352-15.235 9.456-1.036 27.343 45.911 34.26 52.797 13.27 11.972 85.134 48.774 80.164 66.744-2.999 10.131-57.188-18.02-85.497-33.417-15.896-11.317-28.368-30.592-36.262-53.304-1.408-5.019-18.738-12.78-17.017-17.585"/>
		</svg>
		<svg id="t_e9" viewBox="-20 -120 340 370">
			<g fill-rule="evenodd">
				<path d="M146.226 25.074c.545-9.272-36.812-17.958-33.245-4.27 17.95 62.019-5.543 79.388-66.767 100.841-4.171 1.146-5.269 9.32 1.846 7.116 64.537-20.004 103.842-24.603 98.166-103.687"/>
				<path d="M121.254 66.289c-5.843-2.202-10.977-5.452-14.363-10.568-.6-.9-2.23-8.686 1.975-9.148 16.174-1.78 7.18-6.608 10.673-7.333 21.63-4.487 52.321-17.632 71.642-22.718 10.802-2.844 17.882-11.073 21.272-10.055 12.271-.891 13.764 25.669 5.868 27.626-31.095 4.564-48.763 2.638-79.858 11.443z"/>
				<path d="M165.12 27.361c.56-10.217-8.39-6.918-11.028 3.186 3.165 28.798-18.621 73.622 5.9 102.02 11.286 13.07 72.51 13.303 84.392 4.714 17.017-14.572 7.853-28.294-2.366-27.88-19.383 1.45-19.42-50.074-27.58-48.9-8.694 1.635.641 48.839-6.381 54.135-11.28 8.357-30.812-3.746-36.187-11.112-14.781-20.253-3.422-56.25-6.75-76.163"/>
			</g>
		</svg>
	</defs>
	<g id="t_preview">
		<use xlink:href="#t_do1" width="75" height="100"/>
		<use xlink:href="#t_do2" width="75" height="100" x="75"/>
		<use xlink:href="#t_do3" width="75" height="100" x="150"/>
		<use xlink:href="#t_do4" width="75" height="100" x="225"/>
		<use xlink:href="#t_do5" width="75" height="100" x="300"/>
		<use xlink:href="#t_do6" width="75" height="100" x="375"/>
		<use xlink:href="#t_do7" width="75" height="100" x="450"/>
		<use xlink:href="#t_do8" width="75" height="100" x="525"/>
		<use xlink:href="#t_do9" width="75" height="100" x="600"/>
		<use xlink:href="#t_ch1" width="75" height="100" y="100"/>
		<use xlink:href="#t_ch2" width="75" height="100" x="75" y="100"/>
		<use xlink:href="#t_ch3" width="75" height="100" x="150" y="100"/>
		<use xlink:href="#t_ch4" width="75" height="100" x="225" y="100"/>
		<use xlink:href="#t_ch5" width="75" height="100" x="300" y="100"/>
		<use xlink:href="#t_ch6" width="75" height="100" x="375" y="100"/>
		<use xlink:href="#t_ch7" width="75" height="100" x="450" y="100"/>
		<use xlink:href="#t_ch8" width="75" height="100" x="525" y="100"/>
		<use xlink:href="#t_ch9" width="75" height="100" x="600" y="100"/>
		<use xlink:href="#t_ba1" width="75" height="100" y="200"/>
		<use xlink:href="#t_ba2" width="75" height="100" x="75" y="200"/>
		<use xlink:href="#t_ba3" width="75" height="100" x="150" y="200"/>
		<use xlink:href="#t_ba4" width="75" height="100" x="225" y="200"/>
		<use xlink:href="#t_ba5" width="75" height="100" x="300" y="200"/>
		<use xlink:href="#t_ba6" width="75" height="100" x="375" y="200"/>
		<use xlink:href="#t_ba7" width="75" height="100" x="450" y="200"/>
		<use xlink:href="#t_ba8" width="75" height="100" x="525" y="200"/>
		<use xlink:href="#t_ba9" width="75" height="100" x="600" y="200"/>
		<use xlink:href="#t_wi_north" width="75" height="100" y="300"/>
		<use xlink:href="#t_wi_west" width="75" height="100" x="75" y="300"/>
		<use xlink:href="#t_wi_south" width="75" height="100" x="150" y="300"/>
		<use xlink:href="#t_wi_east" width="75" height="100" x="225" y="300"/>
		<use xlink:href="#t_fl_plum" width="75" height="100" x="375" y="300"/>
		<use xlink:href="#t_fl_orchid" width="75" height="100" x="450" y="300"/>
		<use xlink:href="#t_fl_chrysanthemum" width="75" height="100" x="525" y="300"/>
		<use xlink:href="#t_fl_bamboo" width="75" height="100" x="600" y="300"/>
		<use xlink:href="#t_se_spring" width="75" height="100" y="400"/>
		<use xlink:href="#t_se_summer" width="75" height="100" x="75" y="400"/>
		<use xlink:href="#t_se_fall" width="75" height="100" x="150" y="400"/>
		<use xlink:href="#t_se_winter" width="75" height="100" x="225" y="400"/>
		<use xlink:href="#t_dr_red" width="75" height="100" x="450" y="400"/>
		<use xlink:href="#t_dr_green" width="75" height="100" x="525" y="400"/>
		<use xlink:href="#t_dr_white" width="75" height="100" x="600" y="400"/>
		<use xlink:href="#t_g1" width="75" height="100" y="500"/>
		<use xlink:href="#t_g2" width="75" height="100" x="75" y="500"/>
		<use xlink:href="#t_g3" width="75" height="100" x="150" y="500"/>
		<use xlink:href="#t_g4" width="75" height="100" x="225" y="500"/>
		<use xlink:href="#t_g5" width="75" height="100" x="300" y="500"/>
		<use xlink:href="#t_g6" width="75" height="100" x="375" y="500"/>
		<use xlink:href="#t_g7" width="75" height="100" x="450" y="500"/>
		<use xlink:href="#t_g8" width="75" height="100" x="525" y="500"/>
		<use xlink:href="#t_g9" width="75" height="100" x="600" y="500"/>
		<use xlink:href="#t_g10" width="75" height="100" y="600"/>
		<use xlink:href="#t_g11" width="75" height="100" x="75" y="600"/>
		<use xlink:href="#t_g12" width="75" height="100" x="150" y="600"/>
		<use xlink:href="#t_g13" width="75" height="100" x="225" y="600"/>
		<use xlink:href="#t_g14" width="75" height="100" x="300" y="600"/>
		<use xlink:href="#t_g15" width="75" height="100" x="375" y="600"/>
		<use xlink:href="#t_g16" width="75" height="100" x="450" y="600"/>
		<use xlink:href="#t_g17" width="75" height="100" x="525" y="600"/>
		<use xlink:href="#t_g18" width="75" height="100" x="600" y="600"/>
		<use xlink:href="#t_e1" width="75" height="100" y="700"/>
		<use xlink:href="#t_e2" width="75" height="100" x="75" y="700"/>
		<use xlink:href="#t_e3" width="75" height="100" x="150" y="700"/>
		<use xlink:href="#t_e4" width="75" height="100" x="225" y="700"/>
		<use xlink:href="#t_e5" width="75" height="100" x="300" y="700"/>
		<use xlink:href="#t_e6" width="75" height="100" x="375" y="700"/>
		<use xlink:href="#t_e7" width="75" height="100" x="450" y="700"/>
		<use xlink:href="#t_e8" width="75" height="100" x="525" y="700"/>
		<use xlink:href="#t_e9" width="75" height="100" x="600" y="700"/>
	</g>
</svg>
