<svg xmlns="http://www.w3.org/2000/svg" xml:space="preserve" viewBox="0 0 160 70">
  <path fill="red" d="M23.45 6.445c-.634.635-.493 2.61.283 5.186.494 1.517.74 3.457.811 5.82l.071 3.528-3.175 1.023c-1.729.53-4.092 1.306-5.221 1.658l-2.082.67-1.093-1.093c-1.658-1.552-3.281-2.152-4.445-1.587-.494.247-.953.776-1.023 1.164-.106.67 2.328 4.798 8.502 14.499.776 1.235 1.658 2.258 1.975 2.258 1.059.07 1.976-.106 2.434-.494.53-.423 4.304-.741 4.34-.353.035.176.07 2.893.14 6.103.248 10.795.46 14.817 1.094 17.745.812 3.986 1.905 4.974 2.364 2.187.106-.6.282-1.446.388-1.94.67-2.752.847-6.033 1.058-17.569.07-3.739.212-6.879.353-7.02.247-.247.67-.282 4.551-.6 2.505-.176 3.28-.81 6.068-4.974 3.916-5.891 4.233-7.126 2.47-9.701-3.246-4.798-5.786-5.786-10.69-4.269l-2.258.706.106-2.717c.07-1.481.353-3.386.635-4.233.706-1.94.494-2.258-2.963-4.586-2.822-1.834-3.916-2.187-4.692-1.411m13.371 17.639c.459.811.212 2.575-.776 5.891l-.847 2.752-2.293.353c-1.27.211-2.399.317-2.54.211-.353-.176-.176-8.431.177-8.82.352-.352 3.598-1.022 4.939-.987.564 0 1.164.247 1.34.6m-12.065 5.891.07 4.198-1.693.388c-1.587.353-1.728.318-2.399-.494-.423-.493-1.164-1.728-1.693-2.751-.53-.988-1.27-2.329-1.658-2.928l-.706-1.094 2.188-.459c1.234-.211 2.293-.423 2.399-.458.105 0 .811-.212 1.587-.459.776-.211 1.517-.353 1.623-.282.141.07.282 2.046.282 4.34"/>
	<path fill="#494368" d="M99.772 61.463h-4.944v-32.75L84.491 50.998h-2.947L71.281 28.713v32.75h-4.62V23.455h6.743l9.913 21.161 9.588-21.161h6.867zm31.288 0h-4.67v-3.037q-.624.434-1.698 1.225-1.048.766-2.047 1.225-1.174.587-2.697.97-1.523.409-3.57.409-3.771 0-6.393-2.553t-2.622-6.51q0-3.241 1.349-5.232 1.373-2.017 3.895-3.165 2.547-1.149 6.118-1.557 3.57-.409 7.665-.613v-.74q0-1.634-.574-2.706-.55-1.072-1.598-1.685-.999-.587-2.397-.791t-2.922-.204q-1.847 0-4.12.51-2.272.485-4.694 1.43h-.25v-4.876q1.374-.383 3.97-.842 2.597-.46 5.12-.46 2.946 0 5.118.51 2.198.486 3.796 1.685 1.573 1.175 2.397 3.038.824 1.864.824 4.62zm-4.67-7.02v-7.938q-2.147.128-5.068.383-2.897.255-4.595.74-2.023.587-3.271 1.838-1.249 1.225-1.249 3.395 0 2.45 1.449 3.701 1.448 1.226 4.42 1.226 2.471 0 4.519-.97 2.048-.996 3.795-2.374m37.031 7.02h-4.694V45.23q0-1.966-.225-3.676-.225-1.736-.824-2.706-.624-1.072-1.798-1.583-1.173-.536-3.046-.536-1.923 0-4.02.97-2.098.97-4.02 2.476v21.29h-4.695v-39.72h4.694v14.372q2.198-1.864 4.545-2.91t4.82-1.047q4.519 0 6.891 2.782t2.372 8.016z" aria-label="Mah" transform="translate(-13.896 -6.634)"/>
</svg>
