<svg xmlns="http://www.w3.org/2000/svg" xmlns:xlink="http://www.w3.org/1999/xlink" width="675" height="800">
	<defs>
		<image id="cheshire137" xlink:href="./cheshire137.png" x="0" y="0" width="1080" height="1280"/>

		<svg id="t_do1" x="0" y="0" height="160px" width="120px" viewBox="0 0 120 160"><use xlink:href="#cheshire137"/></svg>
		<svg id="t_do2" x="0" y="0" height="160px" width="120px" viewBox="120 0 120 160"><use xlink:href="#cheshire137"/></svg>
		<svg id="t_do3" x="0" y="0" height="160px" width="120px" viewBox="240 0 120 160"><use xlink:href="#cheshire137"/></svg>
		<svg id="t_do4" x="0" y="0" height="160px" width="120px" viewBox="360 0 120 160"><use xlink:href="#cheshire137"/></svg>
		<svg id="t_do5" x="0" y="0" height="160px" width="120px" viewBox="480 0 120 160"><use xlink:href="#cheshire137"/></svg>
		<svg id="t_do6" x="0" y="0" height="160px" width="120px" viewBox="600 0 120 160"><use xlink:href="#cheshire137"/></svg>
		<svg id="t_do7" x="0" y="0" height="160px" width="120px" viewBox="720 0 120 160"><use xlink:href="#cheshire137"/></svg>
		<svg id="t_do8" x="0" y="0" height="160px" width="120px" viewBox="840 0 120 160"><use xlink:href="#cheshire137"/></svg>
		<svg id="t_do9" x="0" y="0" height="160px" width="120px" viewBox="960 0 120 160"><use xlink:href="#cheshire137"/></svg>

		<svg id="t_ba1" x="0" y="0" height="160px" width="120px" viewBox="0 320 120 160"><use xlink:href="#cheshire137"/></svg>
		<svg id="t_ba2" x="0" y="0" height="160px" width="120px" viewBox="120 320 120 160"><use xlink:href="#cheshire137"/></svg>
		<svg id="t_ba3" x="0" y="0" height="160px" width="120px" viewBox="240 320 120 160"><use xlink:href="#cheshire137"/></svg>
		<svg id="t_ba4" x="0" y="0" height="160px" width="120px" viewBox="360 320 120 160"><use xlink:href="#cheshire137"/></svg>
		<svg id="t_ba5" x="0" y="0" height="160px" width="120px" viewBox="480 320 120 160"><use xlink:href="#cheshire137"/></svg>
		<svg id="t_ba6" x="0" y="0" height="160px" width="120px" viewBox="600 320 120 160"><use xlink:href="#cheshire137"/></svg>
		<svg id="t_ba7" x="0" y="0" height="160px" width="120px" viewBox="720 320 120 160"><use xlink:href="#cheshire137"/></svg>
		<svg id="t_ba8" x="0" y="0" height="160px" width="120px" viewBox="840 320 120 160"><use xlink:href="#cheshire137"/></svg>
		<svg id="t_ba9" x="0" y="0" height="160px" width="120px" viewBox="960 320 120 160"><use xlink:href="#cheshire137"/></svg>

		<svg id="t_ch1" x="0" y="0" height="160px" width="120px" viewBox="0 160 120 160"><use xlink:href="#cheshire137"/></svg>
		<svg id="t_ch2" x="0" y="0" height="160px" width="120px" viewBox="120 160 120 160"><use xlink:href="#cheshire137"/></svg>
		<svg id="t_ch3" x="0" y="0" height="160px" width="120px" viewBox="240 160 120 160"><use xlink:href="#cheshire137"/></svg>
		<svg id="t_ch4" x="0" y="0" height="160px" width="120px" viewBox="360 160 120 160"><use xlink:href="#cheshire137"/></svg>
		<svg id="t_ch5" x="0" y="0" height="160px" width="120px" viewBox="480 160 120 160"><use xlink:href="#cheshire137"/></svg>
		<svg id="t_ch6" x="0" y="0" height="160px" width="120px" viewBox="600 160 120 160"><use xlink:href="#cheshire137"/></svg>
		<svg id="t_ch7" x="0" y="0" height="160px" width="120px" viewBox="720 160 120 160"><use xlink:href="#cheshire137"/></svg>
		<svg id="t_ch8" x="0" y="0" height="160px" width="120px" viewBox="840 160 120 160"><use xlink:href="#cheshire137"/></svg>
		<svg id="t_ch9" x="0" y="0" height="160px" width="120px" viewBox="960 160 120 160"><use xlink:href="#cheshire137"/></svg>

		<svg id="t_se_spring" x="0" y="0" height="160px" width="120px" viewBox="0 640 120 160"><use xlink:href="#cheshire137"/></svg>
		<svg id="t_se_summer" x="0" y="0" height="160px" width="120px" viewBox="120 640 120 160"><use xlink:href="#cheshire137"/></svg>
		<svg id="t_se_fall" x="0" y="0" height="160px" width="120px" viewBox="240 640 120 160"><use xlink:href="#cheshire137"/></svg>
		<svg id="t_se_winter" x="0" y="0" height="160px" width="120px" viewBox="360 640 120 160"><use xlink:href="#cheshire137"/></svg>

		<svg id="t_fl_plum" x="0" y="0" height="160px" width="120px" viewBox="600 480 120 160"><use xlink:href="#cheshire137"/></svg>
		<svg id="t_fl_orchid" x="0" y="0" height="160px" width="120px" viewBox="720 480 120 160"><use xlink:href="#cheshire137"/></svg>
		<svg id="t_fl_chrysanthemum" x="0" y="0" height="160px" width="120px" viewBox="840 480 120 160"><use xlink:href="#cheshire137"/></svg>
		<svg id="t_fl_bamboo" x="0" y="0" height="160px" width="120px" viewBox="960 480 120 160"><use xlink:href="#cheshire137"/></svg>

		<svg id="t_wi_east" x="0" y="0" height="160px" width="120px" viewBox="360 480 120 160"><use xlink:href="#cheshire137"/></svg>
		<svg id="t_wi_south" x="0" y="0" height="160px" width="120px" viewBox="240 480 120 160"><use xlink:href="#cheshire137"/></svg>
		<svg id="t_wi_north" x="0" y="0" height="160px" width="120px" viewBox="0 480 120 160"><use xlink:href="#cheshire137"/></svg>
		<svg id="t_wi_west" x="0" y="0" height="160px" width="120px" viewBox="120 480 120 160"><use xlink:href="#cheshire137"/></svg>

		<svg id="t_dr_green" x="0" y="0" height="160px" width="120px" viewBox="840 640 120 160"><use xlink:href="#cheshire137"/></svg>
		<svg id="t_dr_white" x="0" y="0" height="160px" width="120px" viewBox="960 640 120 160"><use xlink:href="#cheshire137"/></svg>
		<svg id="t_dr_red" x="0" y="0" height="160px" width="120px" viewBox="720 640 120 160"><use xlink:href="#cheshire137"/></svg>

		<svg id="t_g1" x="0" y="0" height="160px" width="120px" viewBox="0 800 120 160"><use xlink:href="#cheshire137"/></svg>
		<svg id="t_g2" x="0" y="0" height="160px" width="120px" viewBox="120 800 120 160"><use xlink:href="#cheshire137"/></svg>
		<svg id="t_g3" x="0" y="0" height="160px" width="120px" viewBox="240 800 120 160"><use xlink:href="#cheshire137"/></svg>
		<svg id="t_g4" x="0" y="0" height="160px" width="120px" viewBox="360 800 120 160"><use xlink:href="#cheshire137"/></svg>
		<svg id="t_g5" x="0" y="0" height="160px" width="120px" viewBox="480 800 120 160"><use xlink:href="#cheshire137"/></svg>
		<svg id="t_g6" x="0" y="0" height="160px" width="120px" viewBox="600 800 120 160"><use xlink:href="#cheshire137"/></svg>
		<svg id="t_g7" x="0" y="0" height="160px" width="120px" viewBox="720 800 120 160"><use xlink:href="#cheshire137"/></svg>
		<svg id="t_g8" x="0" y="0" height="160px" width="120px" viewBox="840 800 120 160"><use xlink:href="#cheshire137"/></svg>
		<svg id="t_g9" x="0" y="0" height="160px" width="120px" viewBox="960 800 120 160"><use xlink:href="#cheshire137"/></svg>

		<svg id="t_g10" x="0" y="0" height="160px" width="120px" viewBox="0 960 120 160"><use xlink:href="#cheshire137"/></svg>
		<svg id="t_g11" x="0" y="0" height="160px" width="120px" viewBox="120 960 120 160"><use xlink:href="#cheshire137"/></svg>
		<svg id="t_g12" x="0" y="0" height="160px" width="120px" viewBox="240 960 120 160"><use xlink:href="#cheshire137"/></svg>
		<svg id="t_g13" x="0" y="0" height="160px" width="120px" viewBox="360 960 120 160"><use xlink:href="#cheshire137"/></svg>
		<svg id="t_g14" x="0" y="0" height="160px" width="120px" viewBox="480 960 120 160"><use xlink:href="#cheshire137"/></svg>
		<svg id="t_g15" x="0" y="0" height="160px" width="120px" viewBox="600 960 120 160"><use xlink:href="#cheshire137"/></svg>
		<svg id="t_g16" x="0" y="0" height="160px" width="120px" viewBox="720 960 120 160"><use xlink:href="#cheshire137"/></svg>
		<svg id="t_g17" x="0" y="0" height="160px" width="120px" viewBox="840 960 120 160"><use xlink:href="#cheshire137"/></svg>
		<svg id="t_g18" x="0" y="0" height="160px" width="120px" viewBox="960 960 120 160"><use xlink:href="#cheshire137"/></svg>

		<svg id="t_e1" x="0" y="0" height="160px" width="120px" viewBox="0 1120 120 160"><use xlink:href="#cheshire137"/></svg>
		<svg id="t_e2" x="0" y="0" height="160px" width="120px" viewBox="120 1120 120 160"><use xlink:href="#cheshire137"/></svg>
		<svg id="t_e3" x="0" y="0" height="160px" width="120px" viewBox="240 1120 120 160"><use xlink:href="#cheshire137"/></svg>
		<svg id="t_e4" x="0" y="0" height="160px" width="120px" viewBox="360 1120 120 160"><use xlink:href="#cheshire137"/></svg>
		<svg id="t_e5" x="0" y="0" height="160px" width="120px" viewBox="480 1120 120 160"><use xlink:href="#cheshire137"/></svg>
		<svg id="t_e6" x="0" y="0" height="160px" width="120px" viewBox="600 1120 120 160"><use xlink:href="#cheshire137"/></svg>
		<svg id="t_e7" x="0" y="0" height="160px" width="120px" viewBox="720 1120 120 160"><use xlink:href="#cheshire137"/></svg>
		<svg id="t_e8" x="0" y="0" height="160px" width="120px" viewBox="840 1120 120 160"><use xlink:href="#cheshire137"/></svg>
		<svg id="t_e9" x="0" y="0" height="160px" width="120px" viewBox="960 1120 120 160"><use xlink:href="#cheshire137"/></svg>
	</defs>
	<g id="t_preview">
		<use x="0" y="0" height="100px" width="75px" xlink:href="#t_do1"/>
		<use x="75" y="0" height="100px" width="75px" xlink:href="#t_do2"/>
		<use x="150" y="0" height="100px" width="75px" xlink:href="#t_do3"/>
		<use x="225" y="0" height="100px" width="75px" xlink:href="#t_do4"/>
		<use x="300" y="0" height="100px" width="75px" xlink:href="#t_do5"/>
		<use x="375" y="0" height="100px" width="75px" xlink:href="#t_do6"/>
		<use x="450" y="0" height="100px" width="75px" xlink:href="#t_do7"/>
		<use x="525" y="0" height="100px" width="75px" xlink:href="#t_do8"/>
		<use x="600" y="0" height="100px" width="75px" xlink:href="#t_do9"/>
		<use x="0" y="100" height="100px" width="75px" xlink:href="#t_ch1"/>
		<use x="75" y="100" height="100px" width="75px" xlink:href="#t_ch2"/>
		<use x="150" y="100" height="100px" width="75px" xlink:href="#t_ch3"/>
		<use x="225" y="100" height="100px" width="75px" xlink:href="#t_ch4"/>
		<use x="300" y="100" height="100px" width="75px" xlink:href="#t_ch5"/>
		<use x="375" y="100" height="100px" width="75px" xlink:href="#t_ch6"/>
		<use x="450" y="100" height="100px" width="75px" xlink:href="#t_ch7"/>
		<use x="525" y="100" height="100px" width="75px" xlink:href="#t_ch8"/>
		<use x="600" y="100" height="100px" width="75px" xlink:href="#t_ch9"/>
		<use x="0" y="200" height="100px" width="75px" xlink:href="#t_ba1"/>
		<use x="75" y="200" height="100px" width="75px" xlink:href="#t_ba2"/>
		<use x="150" y="200" height="100px" width="75px" xlink:href="#t_ba3"/>
		<use x="225" y="200" height="100px" width="75px" xlink:href="#t_ba4"/>
		<use x="300" y="200" height="100px" width="75px" xlink:href="#t_ba5"/>
		<use x="375" y="200" height="100px" width="75px" xlink:href="#t_ba6"/>
		<use x="450" y="200" height="100px" width="75px" xlink:href="#t_ba7"/>
		<use x="525" y="200" height="100px" width="75px" xlink:href="#t_ba8"/>
		<use x="600" y="200" height="100px" width="75px" xlink:href="#t_ba9"/>
		<use x="0" y="300" height="100px" width="75px" xlink:href="#t_wi_north"/>
		<use x="75" y="300" height="100px" width="75px" xlink:href="#t_wi_west"/>
		<use x="150" y="300" height="100px" width="75px" xlink:href="#t_wi_south"/>
		<use x="225" y="300" height="100px" width="75px" xlink:href="#t_wi_east"/>
		<use x="375" y="300" height="100px" width="75px" xlink:href="#t_fl_plum"/>
		<use x="450" y="300" height="100px" width="75px" xlink:href="#t_fl_orchid"/>
		<use x="525" y="300" height="100px" width="75px" xlink:href="#t_fl_chrysanthemum"/>
		<use x="600" y="300" height="100px" width="75px" xlink:href="#t_fl_bamboo"/>
		<use x="0" y="400" height="100px" width="75px" xlink:href="#t_se_spring"/>
		<use x="75" y="400" height="100px" width="75px" xlink:href="#t_se_summer"/>
		<use x="150" y="400" height="100px" width="75px" xlink:href="#t_se_fall"/>
		<use x="225" y="400" height="100px" width="75px" xlink:href="#t_se_winter"/>
		<use x="450" y="400" height="100px" width="75px" xlink:href="#t_dr_red"/>
		<use x="525" y="400" height="100px" width="75px" xlink:href="#t_dr_green"/>
		<use x="600" y="400" height="100px" width="75px" xlink:href="#t_dr_white"/>

		<use x="0" y="500" height="100px" width="75px" xlink:href="#t_g1"/>
		<use x="75" y="500" height="100px" width="75px" xlink:href="#t_g2"/>
		<use x="150" y="500" height="100px" width="75px" xlink:href="#t_g3"/>
		<use x="225" y="500" height="100px" width="75px" xlink:href="#t_g4"/>
		<use x="300" y="500" height="100px" width="75px" xlink:href="#t_g5"/>
		<use x="375" y="500" height="100px" width="75px" xlink:href="#t_g6"/>
		<use x="450" y="500" height="100px" width="75px" xlink:href="#t_g7"/>
		<use x="525" y="500" height="100px" width="75px" xlink:href="#t_g8"/>
		<use x="600" y="500" height="100px" width="75px" xlink:href="#t_g9"/>
		<use x="0" y="600" height="100px" width="75px" xlink:href="#t_g10"/>
		<use x="75" y="600" height="100px" width="75px" xlink:href="#t_g11"/>
		<use x="150" y="600" height="100px" width="75px" xlink:href="#t_g12"/>
		<use x="225" y="600" height="100px" width="75px" xlink:href="#t_g13"/>
		<use x="300" y="600" height="100px" width="75px" xlink:href="#t_g14"/>
		<use x="375" y="600" height="100px" width="75px" xlink:href="#t_g15"/>
		<use x="450" y="600" height="100px" width="75px" xlink:href="#t_g16"/>
		<use x="525" y="600" height="100px" width="75px" xlink:href="#t_g17"/>
		<use x="600" y="600" height="100px" width="75px" xlink:href="#t_g18"/>

		<use x="0" y="700" height="100px" width="75px" xlink:href="#t_e1"/>
		<use x="75" y="700" height="100px" width="75px" xlink:href="#t_e2"/>
		<use x="150" y="700" height="100px" width="75px" xlink:href="#t_e3"/>
		<use x="225" y="700" height="100px" width="75px" xlink:href="#t_e4"/>
		<use x="300" y="700" height="100px" width="75px" xlink:href="#t_e5"/>
		<use x="375" y="700" height="100px" width="75px" xlink:href="#t_e6"/>
		<use x="450" y="700" height="100px" width="75px" xlink:href="#t_e7"/>
		<use x="525" y="700" height="100px" width="75px" xlink:href="#t_e8"/>
		<use x="600" y="700" height="100px" width="75px" xlink:href="#t_e9"/>
	</g>
</svg>
