<svg xmlns="http://www.w3.org/2000/svg" xmlns:xlink="http://www.w3.org/1999/xlink" width="675" height="800"><defs><image id="t_do1" width="63" height="88" x="0" y="0" xlink:href="./open-fruits/orange.png"/><image id="t_do2" width="63" height="88" x="0" y="0" xlink:href="./open-fruits/peach.png"/><image id="t_do3" width="63" height="88" x="0" y="0" xlink:href="./open-fruits/lime.png"/><image id="t_do4" width="63" height="88" x="0" y="0" xlink:href="./open-fruits/lemon.png"/><image id="t_do5" width="63" height="88" x="0" y="0" xlink:href="./open-fruits/tangerine.png"/><image id="t_do6" width="63" height="88" x="0" y="0" xlink:href="./open-fruits/plum.png"/><image id="t_do7" width="63" height="88" x="0" y="0" xlink:href="./open-fruits/papaya.png"/><image id="t_do8" width="63" height="88" x="0" y="0" xlink:href="./open-fruits/mango.png"/><image id="t_do9" width="63" height="88" x="0" y="0" xlink:href="./open-fruits/apricot.png"/><image id="t_ba1" width="63" height="88" x="0" y="0" xlink:href="./open-fruits/apple.png"/><image id="t_ba2" width="63" height="88" x="0" y="0" xlink:href="./open-fruits/applegreen.png"/><image id="t_ba3" width="63" height="88" x="0" y="0" xlink:href="./open-fruits/pear.png"/><image id="t_ba4" width="63" height="88" x="0" y="0" xlink:href="./open-fruits/asianpear.png"/><image id="t_ba5" width="63" height="88" x="0" y="0" xlink:href="./open-fruits/guava.png"/><image id="t_ba6" width="63" height="88" x="0" y="0" xlink:href="./open-fruits/cantaloupe.png"/><image id="t_ba7" width="63" height="88" x="0" y="0" xlink:href="./open-fruits/pomegranate.png"/><image id="t_ba8" width="63" height="88" x="0" y="0" xlink:href="./open-fruits/coconut.png"/><image id="t_ba9" width="63" height="88" x="0" y="0" xlink:href="./open-fruits/kiwi.png"/><image id="t_ch1" width="63" height="88" x="0" y="0" xlink:href="./open-fruits/strawberry.png"/><image id="t_ch2" width="63" height="88" x="0" y="0" xlink:href="./open-fruits/raspberry.png"/><image id="t_ch3" width="63" height="88" x="0" y="0" xlink:href="./open-fruits/blackberry.png"/><image id="t_ch4" width="63" height="88" x="0" y="0" xlink:href="./open-fruits/blueberries.png"/><image id="t_ch5" width="63" height="88" x="0" y="0" xlink:href="./open-fruits/pineapple.png"/><image id="t_ch6" width="63" height="88" x="0" y="0" xlink:href="./open-fruits/cherries2.png"/><image id="t_ch7" width="63" height="88" x="0" y="0" xlink:href="./open-fruits/banana.png"/><image id="t_ch8" width="63" height="88" x="0" y="0" xlink:href="./open-fruits/mangosteen.png"/><image id="t_ch9" width="63" height="88" x="0" y="0" xlink:href="./open-fruits/fig.png"/><image id="t_se_spring" width="63" height="88" x="0" y="0" xlink:href="./open-fruits/cocktail.png"/><image id="t_se_summer" width="63" height="88" x="0" y="0" xlink:href="./open-fruits/cocktail.png"/><image id="t_se_fall" width="63" height="88" x="0" y="0" xlink:href="./open-fruits/cocktail.png"/><image id="t_se_winter" width="63" height="88" x="0" y="0" xlink:href="./open-fruits/cocktail.png"/><image id="t_wi_north" width="63" height="88" x="0" y="0" xlink:href="./open-fruits/melon.png"/><image id="t_wi_south" width="63" height="88" x="0" y="0" xlink:href="./open-fruits/melon2.png"/><image id="t_wi_east" width="63" height="88" x="0" y="0" xlink:href="./open-fruits/melon3.png"/><image id="t_wi_west" width="63" height="88" x="0" y="0" xlink:href="./open-fruits/watermelon.png"/><image id="t_fl_bamboo" width="63" height="88" x="0" y="0" xlink:href="./open-fruits/drink.png"/><image id="t_fl_chrysanthemum" width="63" height="88" x="0" y="0" xlink:href="./open-fruits/drink.png"/><image id="t_fl_orchid" width="63" height="88" x="0" y="0" xlink:href="./open-fruits/drink.png"/><image id="t_fl_plum" width="63" height="88" x="0" y="0" xlink:href="./open-fruits/drink.png"/><image id="t_dr_green" width="63" height="88" x="0" y="0" xlink:href="./open-fruits/cranberry.png"/><image id="t_dr_white" width="63" height="88" x="0" y="0" xlink:href="./open-fruits/olives.png"/><image id="t_dr_red" width="63" height="88" x="0" y="0" xlink:href="./open-fruits/blackcurrant.png"/><image id="t_g1" width="63" height="88" x="0" y="0" xlink:href="./open-fruits/avocado.png"/><image id="t_g2" width="63" height="88" x="0" y="0" xlink:href="./open-fruits/papayaslice.png"/><image id="t_g3" width="63" height="88" x="0" y="0" xlink:href="./open-fruits/melonhalf.png"/><image id="t_g4" width="63" height="88" x="0" y="0" xlink:href="./open-fruits/apricots.png"/><image id="t_g5" width="63" height="88" x="0" y="0" xlink:href="./open-fruits/plums.png"/><image id="t_g6" width="63" height="88" x="0" y="0" xlink:href="./open-fruits/lemons.png"/><image id="t_g7" width="63" height="88" x="0" y="0" xlink:href="./open-fruits/pears.png"/><image id="t_g8" width="63" height="88" x="0" y="0" xlink:href="./open-fruits/pineapples.png"/><image id="t_g9" width="63" height="88" x="0" y="0" xlink:href="./open-fruits/grapes.png"/><image id="t_g10" width="63" height="88" x="0" y="0" xlink:href="./open-fruits/bananas.png"/><image id="t_g11" width="63" height="88" x="0" y="0" xlink:href="./open-fruits/apples.png"/><image id="t_g12" width="63" height="88" x="0" y="0" xlink:href="./open-fruits/raspberries.png"/><image id="t_g13" width="63" height="88" x="0" y="0" xlink:href="./open-fruits/cocos.png"/><image id="t_g14" width="63" height="88" x="0" y="0" xlink:href="./open-fruits/melonhalves.png"/><image id="t_g15" width="63" height="88" x="0" y="0" xlink:href="./open-fruits/peaches.png"/><image id="t_g16" width="63" height="88" x="0" y="0" xlink:href="./open-fruits/strawberries.png"/><image id="t_g17" width="63" height="88" x="0" y="0" xlink:href="./open-fruits/kiwis.png"/><image id="t_g18" width="63" height="88" x="0" y="0" xlink:href="./open-fruits/redcurrant.png"/><image id="t_e1" width="63" height="88" x="0" y="0" xlink:href="./open-fruits/walnut.png"/><image id="t_e2" width="63" height="88" x="0" y="0" xlink:href="./open-fruits/melonpiece.png"/><image id="t_e3" width="63" height="88" x="0" y="0" xlink:href="./open-fruits/melonpieces.png"/><image id="t_e4" width="63" height="88" x="0" y="0" xlink:href="./open-fruits/orangeslice.png"/><image id="t_e5" width="63" height="88" x="0" y="0" xlink:href="./open-fruits/orangeslices.png"/><image id="t_e6" width="63" height="88" x="0" y="0" xlink:href="./open-fruits/kiwislice.png"/><image id="t_e7" width="63" height="88" x="0" y="0" xlink:href="./open-fruits/cherries3.png"/><image id="t_e8" width="63" height="88" x="0" y="0" xlink:href="./open-fruits/grape.png"/><image id="t_e9" width="63" height="88" x="0" y="0" xlink:href="./open-fruits/avocado2.png"/></defs><g id="t_preview"><use width="75" height="100" x="0" y="0" xlink:href="#t_do1"/><use width="75" height="100" x="75" y="0" xlink:href="#t_do2"/><use width="75" height="100" x="150" y="0" xlink:href="#t_do3"/><use width="75" height="100" x="225" y="0" xlink:href="#t_do4"/><use width="75" height="100" x="300" y="0" xlink:href="#t_do5"/><use width="75" height="100" x="375" y="0" xlink:href="#t_do6"/><use width="75" height="100" x="450" y="0" xlink:href="#t_do7"/><use width="75" height="100" x="525" y="0" xlink:href="#t_do8"/><use width="75" height="100" x="600" y="0" xlink:href="#t_do9"/><use width="75" height="100" x="0" y="100" xlink:href="#t_ch1"/><use width="75" height="100" x="75" y="100" xlink:href="#t_ch2"/><use width="75" height="100" x="150" y="100" xlink:href="#t_ch3"/><use width="75" height="100" x="225" y="100" xlink:href="#t_ch4"/><use width="75" height="100" x="300" y="100" xlink:href="#t_ch5"/><use width="75" height="100" x="375" y="100" xlink:href="#t_ch6"/><use width="75" height="100" x="450" y="100" xlink:href="#t_ch7"/><use width="75" height="100" x="525" y="100" xlink:href="#t_ch8"/><use width="75" height="100" x="600" y="100" xlink:href="#t_ch9"/><use width="75" height="100" x="0" y="200" xlink:href="#t_ba1"/><use width="75" height="100" x="75" y="200" xlink:href="#t_ba2"/><use width="75" height="100" x="150" y="200" xlink:href="#t_ba3"/><use width="75" height="100" x="225" y="200" xlink:href="#t_ba4"/><use width="75" height="100" x="300" y="200" xlink:href="#t_ba5"/><use width="75" height="100" x="375" y="200" xlink:href="#t_ba6"/><use width="75" height="100" x="450" y="200" xlink:href="#t_ba7"/><use width="75" height="100" x="525" y="200" xlink:href="#t_ba8"/><use width="75" height="100" x="600" y="200" xlink:href="#t_ba9"/><use width="75" height="100" x="0" y="300" xlink:href="#t_wi_north"/><use width="75" height="100" x="75" y="300" xlink:href="#t_wi_west"/><use width="75" height="100" x="150" y="300" xlink:href="#t_wi_south"/><use width="75" height="100" x="225" y="300" xlink:href="#t_wi_east"/><use width="75" height="100" x="375" y="300" xlink:href="#t_fl_plum"/><use width="75" height="100" x="450" y="300" xlink:href="#t_fl_orchid"/><use width="75" height="100" x="525" y="300" xlink:href="#t_fl_chrysanthemum"/><use width="75" height="100" x="600" y="300" xlink:href="#t_fl_bamboo"/><use width="75" height="100" x="0" y="400" xlink:href="#t_se_spring"/><use width="75" height="100" x="75" y="400" xlink:href="#t_se_summer"/><use width="75" height="100" x="150" y="400" xlink:href="#t_se_fall"/><use width="75" height="100" x="225" y="400" xlink:href="#t_se_winter"/><use width="75" height="100" x="450" y="400" xlink:href="#t_dr_red"/><use width="75" height="100" x="525" y="400" xlink:href="#t_dr_green"/><use width="75" height="100" x="600" y="400" xlink:href="#t_dr_white"/><use width="75" height="100" x="0" y="500" xlink:href="#t_g1"/><use width="75" height="100" x="75" y="500" xlink:href="#t_g2"/><use width="75" height="100" x="150" y="500" xlink:href="#t_g3"/><use width="75" height="100" x="225" y="500" xlink:href="#t_g4"/><use width="75" height="100" x="300" y="500" xlink:href="#t_g5"/><use width="75" height="100" x="375" y="500" xlink:href="#t_g6"/><use width="75" height="100" x="450" y="500" xlink:href="#t_g7"/><use width="75" height="100" x="525" y="500" xlink:href="#t_g8"/><use width="75" height="100" x="600" y="500" xlink:href="#t_g9"/><use width="75" height="100" x="0" y="600" xlink:href="#t_g10"/><use width="75" height="100" x="75" y="600" xlink:href="#t_g11"/><use width="75" height="100" x="150" y="600" xlink:href="#t_g12"/><use width="75" height="100" x="225" y="600" xlink:href="#t_g13"/><use width="75" height="100" x="300" y="600" xlink:href="#t_g14"/><use width="75" height="100" x="375" y="600" xlink:href="#t_g15"/><use width="75" height="100" x="450" y="600" xlink:href="#t_g16"/><use width="75" height="100" x="525" y="600" xlink:href="#t_g17"/><use width="75" height="100" x="600" y="600" xlink:href="#t_g18"/><use width="75" height="100" x="0" y="700" xlink:href="#t_e1"/><use width="75" height="100" x="75" y="700" xlink:href="#t_e2"/><use width="75" height="100" x="150" y="700" xlink:href="#t_e3"/><use width="75" height="100" x="225" y="700" xlink:href="#t_e4"/><use width="75" height="100" x="300" y="700" xlink:href="#t_e5"/><use width="75" height="100" x="375" y="700" xlink:href="#t_e6"/><use width="75" height="100" x="450" y="700" xlink:href="#t_e7"/><use width="75" height="100" x="525" y="700" xlink:href="#t_e8"/><use width="75" height="100" x="600" y="700" xlink:href="#t_e9"/></g></svg>