<svg xmlns="http://www.w3.org/2000/svg" xmlns:xlink="http://www.w3.org/1999/xlink" width="675" height="700">
    <defs>
        <image id="t_do1" xlink:href="./picasso/Wheel_1.png" x="0" y="0" height="88px" width="63px"/>
        <image id="t_do2" xlink:href="./picasso/Wheel_2.png" x="0" y="0" height="88px" width="63px"/>
        <image id="t_do3" xlink:href="./picasso/Wheel_3.png" x="0" y="0" height="88px" width="63px"/>
        <image id="t_do4" xlink:href="./picasso/Wheel_4.png" x="0" y="0" height="88px" width="63px"/>
        <image id="t_do5" xlink:href="./picasso/Wheel_5.png" x="0" y="0" height="88px" width="63px"/>
        <image id="t_do6" xlink:href="./picasso/Wheel_6.png" x="0" y="0" height="88px" width="63px"/>
        <image id="t_do7" xlink:href="./picasso/Wheel_7.png" x="0" y="0" height="88px" width="63px"/>
        <image id="t_do8" xlink:href="./picasso/Wheel_8.png" x="0" y="0" height="88px" width="63px"/>
        <image id="t_do9" xlink:href="./picasso/Wheel_9.png" x="0" y="0" height="88px" width="63px"/>
        <image id="t_ch1" xlink:href="./picasso/Char_1.png" x="0" y="0" height="88px" width="63px"/>
        <image id="t_ch2" xlink:href="./picasso/Char_2.png" x="0" y="0" height="88px" width="63px"/>
        <image id="t_ch3" xlink:href="./picasso/Char_3.png" x="0" y="0" height="88px" width="63px"/>
        <image id="t_ch4" xlink:href="./picasso/Char_4.png" x="0" y="0" height="88px" width="63px"/>
        <image id="t_ch5" xlink:href="./picasso/Char_5.png" x="0" y="0" height="88px" width="63px"/>
        <image id="t_ch6" xlink:href="./picasso/Char_6.png" x="0" y="0" height="88px" width="63px"/>
        <image id="t_ch7" xlink:href="./picasso/Char_7.png" x="0" y="0" height="88px" width="63px"/>
        <image id="t_ch8" xlink:href="./picasso/Char_8.png" x="0" y="0" height="88px" width="63px"/>
        <image id="t_ch9" xlink:href="./picasso/Char_9.png" x="0" y="0" height="88px" width="63px"/>
        <image id="t_ba1" xlink:href="./picasso/Bamboo_1.png" x="0" y="0" height="88px" width="63px"/>
        <image id="t_ba2" xlink:href="./picasso/Bamboo_2.png" x="0" y="0" height="88px" width="63px"/>
        <image id="t_ba3" xlink:href="./picasso/Bamboo_3.png" x="0" y="0" height="88px" width="63px"/>
        <image id="t_ba4" xlink:href="./picasso/Bamboo_4.png" x="0" y="0" height="88px" width="63px"/>
        <image id="t_ba5" xlink:href="./picasso/Bamboo_5.png" x="0" y="0" height="88px" width="63px"/>
        <image id="t_ba6" xlink:href="./picasso/Bamboo_6.png" x="0" y="0" height="88px" width="63px"/>
        <image id="t_ba7" xlink:href="./picasso/Bamboo_7.png" x="0" y="0" height="88px" width="63px"/>
        <image id="t_ba8" xlink:href="./picasso/Bamboo_8.png" x="0" y="0" height="88px" width="63px"/>
        <image id="t_ba9" xlink:href="./picasso/Bamboo_9.png" x="0" y="0" height="88px" width="63px"/>
        <image id="t_se_spring" xlink:href="./picasso/Season_Spring.png" x="0" y="0" height="88px" width="63px"/>
        <image id="t_se_summer" xlink:href="./picasso/Season_Summer.png" x="0" y="0" height="88px" width="63px"/>
        <image id="t_se_fall" xlink:href="./picasso/Season_Fall.png" x="0" y="0" height="88px" width="63px"/>
        <image id="t_se_winter" xlink:href="./picasso/Season_Winter.png" x="0" y="0" height="88px" width="63px"/>
        <image id="t_wi_north" xlink:href="./picasso/Wind_North.png" x="0" y="0" height="88px" width="63px"/>
        <image id="t_wi_south" xlink:href="./picasso/Wind_South.png" x="0" y="0" height="88px" width="63px"/>
        <image id="t_wi_east" xlink:href="./picasso/Wind_East.png" x="0" y="0" height="88px" width="63px"/>
        <image id="t_wi_west" xlink:href="./picasso/Wind_West.png" x="0" y="0" height="88px" width="63px"/>
        <image id="t_fl_bamboo" xlink:href="./picasso/Flower_1.png" x="0" y="0" height="88px" width="63px"/>
        <image id="t_fl_chrysanthemum" xlink:href="./picasso/Flower_2.png" x="0" y="0" height="88px" width="63px"/>
        <image id="t_fl_orchid" xlink:href="./picasso/Flower_3.png" x="0" y="0" height="88px" width="63px"/>
        <image id="t_fl_plum" xlink:href="./picasso/Flower_4.png" x="0" y="0" height="88px" width="63px"/>
        <image id="t_dr_green" xlink:href="./picasso/Dragon_Green.png" x="0" y="0" height="88px" width="63px"/>
        <image id="t_dr_white" xlink:href="./picasso/Dragon_White.png" x="0" y="0" height="88px" width="63px"/>
        <image id="t_dr_red" xlink:href="./picasso/Dragon_Red.png" x="0" y="0" height="88px" width="63px"/>

				<svg id="t_g1" viewBox="-190 430 180 20">
					<!-- MJj1-Joker.svg-->
					<g>
						<path fill="#2A3B92" d="M-141.3,365.4c25.8-2.7,36.9-4,48.3-6.1c10.7-1.9,18.2-3.5,25.6-3.6c0.3,0.1,5,0.2,6.2,0.5     c2.4,0.5,4,1.2,5.7,2.8c1.5,1.4,3.2,2.9,2.8,4.2c-1,2.9-5,2.3-7.8,2.8c-14.8,1.4-5.3-2.6-41.6,3.6c1.6,1.1,2.4,0.2,3.9,2.1     c1,1.4,0.1,2.7-1.5,3.9c-1.7,1.3-3.7,1.9-7.5,3.4c-4.2,1.6-7.2,4-11.9,6.1c-4.4,2-7.6,4.1-8.5,6.6c-0.5,1.6-0.7,3-0.3,4.1     c0,0.4,0.2,0.8,0.7,1.3c1.5-1.4,3.4-2.8,5.6-4c4.8-2.8,10.5-5.3,17-7.6c6.5-2.1,12.4-2.6,17.5-1.5c4.3,0.4,7.7,1.9,10.3,4.6     c2.6,2.5,3.8,4.7,3.6,6.4c1.9,11.5,2.3,20.9,1.5,28.2c-0.8,7.2-3.2,12.9-7.4,17.1c-0.5,0.6-1.5,0.9-2.9,1.1     c-1.4-0.1-3.4-0.7-5.9-1.7c-4.5-2.4-8.5-5-12.1-7.9c-1.4-0.2-2.9-0.3-4.4-0.3c-1.4,0-3.4,0.1-5.9,0.4c-2.2,0.1-5.5,0.8-9.8,1.8     c-0.5,0.1-1.1,0.1-1.8,0.2c0,0.9-0.7,1.7-2,2.3c-2.1,0.8-4.2,0.4-6.4-1.2c-2.5-2.6-4.3-6.9-5.4-12.9c-0.9-6-1.1-10.9-0.8-14.6     c0.3-3.7,0.5-6.6,0.7-8.9c0-2.1,1.1-5.9,3.5-9.3c1.8-2.6,5-5.7,9.6-8.8c4.6-3.2,7.4-5.5,8.5-7.2c0.3-0.6,0.3-1.3-0.2-2     c-7.1,0.9-14,2-20.8,3.1c-2.4,0.3-12.1,2.2-16.2,1c-3.7-1.1-5.6-2.5-7.4-4.9c-0.7-1,0.3-2.8,5-3.5     C-152.8,366.5-142.9,365.6-141.3,365.4z M-87.5,429.5c1.6-8.6,2.4-16.1,2.3-22.7c0-6.4-0.9-10.3-2.8-11.6     c-0.5-1.6-4.4-1.7-11.4-0.1c-10.9,2.3-20.6,4.8-27.2,7.5c0,1-0.4,2.3-0.5,3.8c-0.1,1.2,0,3.6,0.1,4.8c1.8-0.9,5.6-1.8,10.1-2.6     c4.5-0.8,7.1-1.2,9.8-1.8c1.3-0.3,9-2,10.2-1.6c1.2,0.4,4.3,1.9,5.4,3.5c1,1.4,1.5,2.5,1.1,3c-1.6,2-12,4.5-13.6,4.8     c-4.7,1.1,8.3-4.7,0.3-3.2c-0.4,0.1-19.1,4.4-22.8,4.3c0,0.1,0.3,2.9,0.9,4.1c0.3,0.9,1,2.4,2,5c2.6-0.8,5.1-1.4,7.5-1.7     c2.3-0.4,4.2-0.6,5.7-0.6c1.6,0,2.6-0.1,2.9-0.3c2.2-0.6,6.6,0,9.2,1.8c2.6,1.6,4.1,3,4.4,4.1v0.4c1.3,0.3,0.8,0.5,2.6,0.6     C-89.3,431.1-88.1,430.6-87.5,429.5z"/>
						<path fill="#BF3718" d="M-62.6,502.6c-13.5-4.2-16.6-20.5-32.9-20.9c-2.8,3-5.9,5.8-7.9,9.3c6.3-0.4,29-7.4,22.7,1.6     c-3,2.8-5.3,2.5-7.5,3.9c-4.7,2.5-9.8,2.9-15.2,2.1c-1.1,0.2-3.6,1.4-4.6,3c0.5,1.9,1.6,3.7,3.8,4.8c3,0,18.7-6.3,21-8     c4,0.1,9.2,2.5,10.5,5.8c1.6,3.8-1.9,7.5-3.1,11.1c1.2,2,0,4.2-1.2,5.9c-4.6,1.9-9.8,0.4-14.8,1c-2.6,0.3-4.6,1.9-7.1,2.1l-0.8,2     c-10.2-1.5-13.9-24-10.4-26.4c2.2-1.4,4.7-2.5,7-3.7c-0.4-0.9-1.6-1.4-2.3-2.1c-2.2,1-6.6,5.8-8.5,7.6c-5.3,5.2-6.7,3-12,5.6     c0,7.4-0.4,20.1-2.7,21.4l0,0c-1,0.1-2.1-0.4-2.7-1.3c-4.3-6.1-10.5-11.1-15.9-16.5c4.6,1,8.6,4.2,13.5,3.6     c1.6-0.5,1.6-11.4,1.8-16.2c-4.3,2.9-9.6,5.6-13.7,8.7c-1.8,1.3-3,2.2-5,2.4c-1.6-0.9-1.2-2.1-2.2-3.1c-0.4-3-3.2-6.4,0.9-8.4     c2.3,1.3,4,0.3,5.9-1c4.3-2.6,9.4-4.2,13.9-6.8l0.2-8.3c-1.9,1.3-4.2,2.6-6.1,3.4c-2.1,1.2-5.3,2.5-7.8,2.2     c-4.4-0.7-7.8-4.1-10.1-6.9c0-1.5-3.4-2.6-0.1-4c7.9,3.8,16.6-1.9,22.6-5.8c4.3-2.8,2.6-7.7,3.1-11.5c0-2.2-3.8-4.7-5.1-7.4     c3.1-1.2,12.8,1.2,15.1,4.7c0.7,2.6-1.1,6.3-1.3,9.2l2.2-0.1c1.2,0.2,1.8,0.7,3.3,1.6c0.9,1.1,1.8,1.8,1.2,3.6     c-0.7,2.5-5.5,3.5-7.5,5.3c-0.5,3.1-1.5,6-1.3,9.1c2.6-1.2,7-3.3,8.8-5.3l-0.6,1.6c-1.6,7.3-10.8,8.5-10.4,16.8     c0.1,1.9-0.4,3.7-0.1,5.6c7.5-4.4,19.9-18.6,24.2-25.5c-1.1-0.8-0.8-1.4-1.6-2.7c-4.2,1.4-9.1,0.8-10.9-3.3     c-1.2-2.7,9-3.5,9.5-4.4c1.7-3.2-5.4-6.6-5.5-11.9c2.8,0.1,2.6,2.3,4.3,2.5c3,0.5,6.1-0.7,8.5,1.5c1.5,1.2,0.7,2.2,1.6,3.4     c1.9-0.8,4-0.9,6.1-1.4c4-1.1,6.5-7.7,5-10.6c-0.8-1.8-2.7-4-5.1-4.1c0.4-2.5,3.2-1.2,5.3-1.1c2.2,0.9,4.6,1.6,6.7,2.7     c3.8,1.9-0.8,7.3,2.6,9.1c2.8-0.2,6,0.9,6.9,3.2c3.2,8.7-7.7,1.8-14,10.4c-2.3,1.8-4.3,4.1-7.4,4.7c8.2,2.5,15.8,11.4,24.9,15.1     c5.4,2.1,12,4.3,17.1,6.7c2.8,1.8,2.6,3.8,0.4,3.8C-51.3,504.5-58.7,503.9-62.6,502.6z M-101.2,511.3c1.2,2.1,0.3,4.8,1.9,6.7     c10.4-1.2,16.8-1.7,17-11.8C-88.7,507.7-94.9,509.8-101.2,511.3z M-95.5,466.5c-1.6,1.8-1.2,4.6-2.2,6.7c1.5,0.8,3.4,0.9,5,1.5     c2.4-1.2,3.8-3.8,4-5.9C-90.9,467.8-93,466.6-95.5,466.5z"/>
					</g>
				</svg>
				<svg id="t_g2" viewBox="-190 430 180 20">
					<!--				MJj13-Joker.svg-->
					<g>
						<path fill="#BF3718" d="M-110.1,375.9c1.9,1.5,5.5,3.2,7.1,3.2c0.9,0,2.4-0.4,4.3-1.2l-2.4,5.9c-2.8,0.8-4.7,1.3-5.7,1.6     c-1.2,0.5-2.2,1.2-3.8,2.7c-2.2-0.5-2.6-0.8-4.4-2.4h-0.7c-0.9,1.3-1.3,2.1-1.3,2.7c0,0.5,0.4,1.5,0.8,2.7     c0.5,1.1,0.9,2.3,1.1,3.6c1.2,6.6,1.2,6.6,2.7,8.2c0.9,1,2.3,1.8,3.2,1.8c0.7,0,1.2-0.5,1.8-1.8c1.2,0.1,2.2,0.3,2.7,0.4     c1.2,0.2,2,0.3,2.6,0.3c0.5,0,1.8-0.2,3.1-0.7c7.7-2.6,16.2-4.6,19.7-4.6c1.3,0,2.8,0.2,4.4,0.5c1.1,0.3,2,0.4,2.6,0.4     c2.2,0,3.2-1,7.5-6.6c0.7-0.9,2.2-2.5,3.9-4.4c1.5-1.5,2.3-3,2.3-4.1c0-2.4-8.6-8.1-12.3-8.1c-2.6,0-5,0.6-11.8,2.6     c-3.8,1.1-4.2,1.2-8.2,2.3l2.7-5.9c6.3-1.5,7.8-2,14.1-3.4c3.2-0.7,4.7-1.4,4.7-2.5c0-2.2-4.3-4.6-8.1-4.6     c-1.8,0-4.6,0.8-8.3,2.2c1.9-5.1,2.8-7.9,2.8-8.6c0-1.1-0.9-2.3-2.2-3c-2.8-1.5-7.7-2.7-11.2-2.7c-0.9,0-1.8,0.1-3.2,0.7     l-0.1,0.8c3.1,2.4,4,4.1,4,7c0,2.2-0.4,5.4-1.1,8.7c-7.7,2.1-9.3,2.3-15.3,2.3l-0.4,0.5C-111.8,374.3-111.2,375-110.1,375.9z      M-107.6,399.8c-0.7-3.5-1.1-5.9-1.1-7.3c0-2.4,1.1-3.5,3.2-3.5c0.4,0,1.1,0,1.6,0.1c0.9,4.5,1.1,5.3,2.6,9L-107.6,399.8z      M-75.8,382.9c2.2,0,3.6,0.8,3.6,2c0,1.5-1.1,3.7-5,9.7c-1.9-0.3-2.8-0.4-4-0.4h-1.6c1.5-3.8,2.3-5.8,2.3-5.9c0-1-0.7-2-2.4-3.8     C-79.3,383.3-77.7,382.9-75.8,382.9z M-95.9,393.8c0.1-2.1,0.3-3.5,0.3-3.6c0-0.6,0-1.4-0.3-2.7l6.3-1.1c0.8,1.4,1.1,2.1,1.1,2.9     c0,1.1-0.4,2.1-1.9,5.9l-5.7,1.6C-96,395.5-96,394.5-95.9,393.8z"/>
						<path fill="#BF3718" d="M-75.5,409.2c3.6,0.1,5.4-0.5,5.4-1.9c0-2.4-5.7-5.9-9.4-5.9c-1.1,0-3,0.4-5.3,1.1     c-2.7,0.9-2.7,0.9-16.3,4.4c-10.2,2.6-10.2,2.6-12.7,2.6c-1.9,0-2.8-0.2-4.4-1.1l-0.8,0.1c-0.1,0.7-0.1,1.1-0.1,1.5     c0,3,4,5.9,8.3,5.9c1.9,0,2.6-0.2,9.2-2.3C-91.7,410.6-83.6,409.3-75.5,409.2z"/>
						<path fill="#BF3718" d="M-101.7,424.9c4.4,11.8,13.2,17,27.9,17c12.4,0,20.7-2.2,20.7-5.3c0-1.5-0.9-2.3-10.9-9.1     c-2.3-1.9-4.6-3.7-6.9-5.7c-0.5-0.3-1.9-1.2-3.9-2.4l-0.5,0.1c0.4,1.3,0.7,2.1,0.8,2.4c0.4,1,1.9,3.8,4,8c0.3,0.5,0.4,1,0.4,1.2     c0,1.4-2.4,2.3-6.7,2.3c-9.8,0-15.2-2.6-18.2-9.1c-2.2-4.5-2.4-4.9-3.4-5.8c-1.5-1.3-3.2-2.1-5-2.1c-1.2,0-1.9,0.2-3,1.2l0.1,0.4     C-103.8,419.9-103.5,420.3-101.7,424.9z"/>
						<path fill="#BF3718" d="M-148,428.8c-1.8,0.5-2.6,0.7-5.5,0.9l-0.5,0.8c3.2,2.6,5.3,4,6.7,4c0.8,0,2-0.3,3.5-1c2-1,4-1.8,5.7-2.3     c3.9-1.2,6.6-2.1,7.3-2.3l1.5-0.8c-0.3,2.5-0.8,3.6-2,3.6c-0.3,0-0.7-0.1-1.2-0.3l-0.5,0.4c1.6,2.7,1.9,3.3,2.7,4.9     c2,4.4,2,4.4,2.3,4.8c0.7,1.1,1.5,1.8,2.2,1.8c1.2,0,3.8-3.5,4.7-6.5c0.9-3.3,0.9-3.3,1.1-16.9l0.4-25c0.3-7.7,0.9-13.7,1.9-16.1     c0.7-1.9,0.9-3.2,0.9-4c0-1.3-0.9-2.7-3.5-5.2c5.3-1.4,6.9-2.3,6.9-3.4c0-1.9-4.4-4.8-7.3-4.8c-1.3,0-3.1,0.4-5.1,1.2     c-9.4,3.4-15.2,4.9-19.4,4.9c-0.9,0-2.3-0.1-4.2-0.4l-0.4,0.5c0.3,2.3,4.2,5.8,8.1,7.1c-3.6,4.8-5,10.3-5.1,20.5v10     c-6.3,2-7.4,2.2-9.6,2.2c-0.7,0-1.3-0.1-2.4-0.4l-0.4,0.4c0.3,1.9,0.7,2.5,1.9,3.7c1.9,1.9,4.6,3.4,5.9,3.4     c1.3,0,3.8-1.3,11.8-6.4c5.4-3.2,8.3-4.6,11.6-5.3v11c-0.1,3.8-0.4,7.1-1.1,12.8c-2.3-1.9-3.6-2.5-5.1-2.5     c-0.5,0-1.3,0.2-2.4,0.5l0.4-2.1c5.7-2.1,6.3-2.4,6.3-3.4c0-0.9-2.2-1.8-4.3-1.8c-0.4,0-1.1,0.1-1.9,0.2l0.7-2.5     c0.8-0.5,1.6-0.9,2-1c1.1-0.4,1.9-0.8,2.2-1c0.4-0.2,0.5-0.5,0.5-0.8c0-1.2-2.2-2.6-3.9-2.6c-1.5,0-2.7,0.4-7,2.6     c-4,2.1-5.3,2.5-8.9,3.5l-0.3,0.6c1.3,1.6,2.7,2.4,4.6,2.4c0.7,0,1.3,0,2.3-0.1l-0.3,1.6c-2.8,1.2-3.8,1.4-8.3,1.8l-0.3,0.7     c3.4,2.3,4,2.5,8.6,2.9l-0.4,2C-146.4,428.3-147.4,428.7-148,428.8z M-127.8,391.6c-2.6-1.1-3.8-1.4-5.1-1.4     c-1.9,0-4,0.9-7.3,3.1l0.1-5.2c5.3-1.4,6.6-1.9,12.4-4.1L-127.8,391.6z M-128.4,371.7c1.1,1.3,1.2,1.9,1.2,3.5     c0,1.1-0.1,3.3-0.3,5.2c-1.3-0.6-2.2-0.8-3-0.8c-1.9,0-3.9,0.7-9.2,3l-0.5-2.4c-0.1-0.5-0.1-1-0.1-1.2     C-140.3,376.1-136.3,373.6-128.4,371.7z M-129.8,398.9c-2.4,0-4.8,0.9-10.6,3.7l0.3-4.3c2.3-0.7,3.9-1.1,4.6-1.3l6.3-2.2     c0.1-0.1,0.7-0.2,1.3-0.4l-0.3,4.7C-129,399-129.5,398.9-129.8,398.9z"/>
						<path fill="#BF3718" d="M-114.8,423.5c-2,2.4-2.4,3.3-2.4,5.8c0,4.1,1.8,7.1,4.2,7.1c3.1,0,5.7-6,5.7-13.6c0-3.1-0.3-4-1.6-5.8h-0.7     C-113.2,421.3-114,422.4-114.8,423.5z"/>
						<path fill="#BF3718" d="M-59.5,410.1c-2.6,0-4.4,0.5-8.2,2.1v0.4c5,1,6.1,1.4,7.5,3.7l-5.7,2.2l0.3,0.6c6.9,0.2,8.6,0.3,11,1     c3.2,0.8,5.7,1.2,6.6,1.2c1.2,0,2.2-1,2.2-2.1C-45.8,414.5-52.4,410.1-59.5,410.1z"/>
						<path fill="#BF3718" d="M-82.7,415.6c-1.9,0-3.5-1-5.8-3.5h-0.8c-1.6,1.5-2,2.5-2,4c0,4.6,4,11.1,7,11.1c1.2,0,2.4-1.1,4.6-4.3     c2.7-4.1,4-5.4,8.8-9.6l-0.3-0.5c-4,1.1-5.7,1.5-7.4,2.1C-80.2,415.3-81.7,415.6-82.7,415.6z"/>
						<path fill="#BF3718" d="M-123.9,461.2c0-1.7-1.5-3.2-4.7-4.6c-2.8-1.3-5.5-1.9-7.7-1.9c-1.5,0-2.8,0.3-5.4,1.1l0.1,0.8     c4.8,2.7,5.3,3.8,5.3,16.6c0,11.9-1.6,29.6-3.2,35.5c-1.8,6.7-3.3,11.1-7.6,15c-0.5,0.5-2.6,2.9-2.6,2.9     c16.8-4.5,21.9-12.9,23.1-39.2c0.8-14.5,0.9-15.9,1.3-18.8c0-0.4,0.5-2.6,1.2-5.9C-123.9,462.1-123.9,461.5-123.9,461.2z"/>
						<path fill="#BF3718" d="M-66.6,452.2c-5.9-4.3-12.3-6.9-17-6.9c-10.9,0-30.4,4.4-42.3,9.7l-0.3,1c2.7,2.5,5.8,4,8.5,4     c0.4,0,1.3-0.1,2.6-0.3c0.4-0.1,1.3-0.2,2.6-0.4c2.8,2.5,3.5,4.3,3.5,8.9v1.8c-6.1,1.5-7.1,1.6-13.7,2.2l-0.4,0.5     c1.2,4.4,5.9,8.3,10.2,8.3c1.2,0,2.7-0.1,4.3-0.4c-4.4,6.8-6.3,8.6-12.1,11.9c-1.2,0.6-1.5,0.8-3.6,1l-0.4,1     c3.8,5.1,6.6,7.2,9.7,7.2c0.7,0,2.4-0.4,4.8-1.3c0.1,11.9,0.7,17.8,1.8,21.5c0.9,2.9,2.2,4.6,3.4,4.6c0.7,0,1.8-1,2.8-2.8     c2.7-4.6,3.1-7.4,4.4-27c3.4-0.6,4-0.8,6.5-1c5.9-0.5,5.9-0.5,6.1-0.5c1.3-0.3,1.9-0.9,1.9-2.1c0-4.4-3.5-8-8.2-8     c-1.8,0-3.9,0.3-6.5,0.9l-0.1-2.6c3.9-3.2,5.3-4.2,10-6.9c3.4-1.8,4.6-3.1,4.6-4.5c0-2.2-6.6-5.6-10.9-5.6     c-0.5,0-1.3,0.1-2.4,0.3c0.4-2.5,0.5-3,0.8-3.8c0.3-0.9,0.4-1.5,0.4-1.8c0-1.4-1.9-2.8-6.5-4.6c7.4-2,12.3-2.8,16.7-2.8     c4.4,0,6.1,1.5,6.1,5.6v6c0,6.5,0.1,15.1,0.4,27c0.3,10.7,0.4,16.9,0.4,19.4c0,5.1,0,5.3-1.3,5.3c-3.4,0-9-1.2-17.8-3.9l-0.7,0.8     c2.4,3.1,3.5,4.1,8.9,7.6c2.6,1.6,5.1,3.3,5.3,3.6l4,3.3c5.3,4.3,5.7,4.5,7.3,4.5c2.6,0,7-8.7,7-13.8c0-1.7-0.1-4.4-0.5-7.6     c-0.7-5.7-0.9-12.6-0.9-21.3c0-17.7,0.8-25.6,3.2-31c0.5-1.3,0.8-2.5,0.8-3.1C-63.5,454.9-64.4,453.8-66.6,452.2z"/>
					</g>
				</svg>
				<svg id="t_g3" viewBox="-190 430 180 20">
					<!--				MJj12-Joker.svg-->
					<g>
						<path fill="#BF3718" d="M-153.5,440.7c2.3-1,4.4-1.4,6.1-1.4c2.7,0,6.8,1.4,9.9,3.4c1.9,1.2,3.2,3.2,4.2,7.1c3.4-2.4,4-2.8,7.4-5     c0.6-8.1,0.8-12.5,0.8-19.4c0-3.2-1.1-5-3-5c-0.2,0-0.2,0-4.7,0.7c-1,0.2-2.1,0.1-3.1-0.1c0,0,0,0,0,0l-0.2-0.6     c1.7-6.1,6.8-9.9,12.9-9.9s11.6,5.9,11.6,12.7l-1.3,13.7c6.1-3.4,9.3-4.8,12.1-4.8c6.8,0,19.5,7.5,19.5,11.5c0,1.4-0.8,4-2.5,6.7     c-4.2,7.1-6.8,19.2-6.8,32.9c0,8.1,1.9,12.7,6.6,16c5.7,4,13.5,6.3,21.6,6.3c10.8,0,18.8-2.6,18.8-5.7c0-2-1.9-6.9-6.6-16     l1.1,0.2c2.7,2,4.4,3.4,5.1,4c4,4,6.7,7.1,10.6,11c2.1,2.5,2.8,5.6,2.3,9.2c-0.7,5.2-9.7,9.3-28.9,9.3c-15.9,0-24.5-2.6-32.1-9.1     c-7.4-6.3-9.9-13.5-9.9-26.7c0-9.5,0.8-18.6,2.7-29.5c0.4-1.6,0.6-3.2,0.6-4.4c0-2.2-1.7-4.2-3.4-4.2c-2.3,0-4.7,1.6-11,7.7     c-0.6,8.7-0.6,11.7-0.6,17.8l0.8,27.7c0,8.9-5.3,25-8.2,25c-1.5,0-3-2.2-5.1-6.3c-0.4-1.2-0.4-1.2-6.1-16     c-1.5-4.4-0.6-3.3-3.3-8.1l-0.7-1.8c3.4,2.6,6.3,5,7.4,5.9c1.3,1,2.3,1.8,3,1.8c1.1,0,1.3-2.8,1.3-14.1c0-3.6-0.2-12.3-0.6-21.8     c-5.7,3.2-7.6,4.6-10.2,7.1c-3,21.4-5.7,29.9-12.3,37.8c-4,4.6-7.4,7.3-9.5,7.3c-1.7,0-2.3-1.4-2.7-7.5c-0.2-1.6-1.1-4.4-2.5-7.1     c-4.2-8.9-6.8-16.4-6.8-20.4c0-1.4,1.1-3.4,2.7-4.8c0.6-0.8,7.4-5.9,20.1-15.5c0.2-1,0.2-1.8,0.2-2.6c0-2-1.1-3.4-2.5-3.4     c-1.3,0-2.7,0.4-4.7,1c-1.7,0.6-3.4,1-4.4,1c-2.7,0-5.3-1-8.9-3.4c-1.9-1.2-2.1-1.6-2.5-3.8l0.2-1c3.4-0.6,5.5-1.2,6.3-1.6     L-153.5,440.7z M-146.1,474.3c-2.5,1-4.7,1.6-6.1,1.8c-10.4,1.8-11,2-12.1,3.6c-0.6,0.4-0.8,1.2-0.8,1.8c0,2,5.5,11.5,8,14.1     c1.1,1,1.9,1.4,2.5,1.4c3.2,0,6.1-7.9,8.2-20.8L-146.1,474.3z M-141.8,380.3c1.5,0.2,2.7,0.2,3.6,0.2c2.5,0,5.3-0.8,9.7-2.6     c5.7-2.4,5.7-2.4,20.9-12.3c2.5-1.6,5.1-2.4,7.4-2.4c5.7,0,15.4,6.3,15.4,10.3c0,1.2-1.1,3-2.5,5c-5.9,7.5-10.2,19.6-10.2,30.1     c0,5.3,2.3,10.3,6.1,12.9c2.7,2,7.2,3,14.6,3c4.9,0,7.2-1,7.2-3c0-1.2-0.2-2.6-1.1-4.2l0.6-0.2c1.3,0.2,1.9,0.4,2.1,0.6l5.7,3.2     c10.2,2.6,10.2,2.6,11.8,4.2c0.8,0.8,1.5,1.8,1.5,2.6c0,4.6-10.2,7.9-23.5,7.9c-22.2,0-35.3-10.7-35.3-28.3c0-6.1,0-6.1,3.2-19.6     c0.2-0.8,0.2-1.6,0.2-2c0-1-0.4-1.6-1.5-1.6c-0.8,0-2.1,0.6-4.4,2.4c-5.3,4.4-10.4,6.5-14.4,6.5c-3.4,0-7.4-1.8-12.9-5.7     c-4-3-4.4-3.6-4.9-6.1L-141.8,380.3z M-88.6,416.9c1.5-1.2,2.2-2,2.4-2l2.7-1.6c0.4-0.4,0.8-0.8,0.8-1c0-0.4,0-0.6-3.4-1.6     c-3.4-1-5.5-3.6-5.5-6.7c0-2.6,1.5-4.6,7.2-10.5c2.5-2.6,4.2-5.5,4.2-7.5c0-1.4-0.4-3.2-1.3-5.3l0.8-0.6c1.3-0.2,2.3-0.4,3-0.4     c5.5,0,12.5,4.4,12.5,7.7c0,2.4-0.8,3.2-12.7,12.1c-1.5,1-2.1,1.8-2.1,2.4c0,0.8,0.8,1.6,1.5,1.4l12.7-1.4c0.4,0,3.8,2.2,5.1,3.2     c1.5,1.6,2.1,3,2.1,4.6c0,3.2-2.3,4.4-8.7,4.4c-4.9,0-5.7,0.2-12.7,2l-3,0.8c-0.4,0-3.4,0.8-6.6,1.4L-88.6,416.9z M-85.4,487.4     C-85.4,487.4-85.4,487.4-85.4,487.4c0.7-0.8,1.5-1.5,2.4-1.9c0.6-0.3,1.4-0.7,2.3-1.2c2.7-1.4,5.5-2.8,8.2-4     c2.1-1.2,3.6-2.2,3.6-2.8c0-0.4-0.4-0.6-3-1.2c-2.5-0.6-6.6-6.1-6.6-9.3c0-1.6,0.8-4,2.5-6.9c3.4-6.7,5.1-10.9,5.1-12.3     c0-0.4,0-0.8-0.2-0.8c-2.3-1.4-2.3-1.4-3.4-2.8l0.4-1c2.1-1,4-1.4,5.3-1.4c3.6,0,8,3.8,8,7.1c0,2.2-3,8.7-6.3,14.5     c-0.6,1-1.1,1.8-1.1,2.2c0,0.6,0.8,1.2,1.7,1.2c0.2,0,2.1-0.2,4.7-0.6h1.9c6.8,0,12.9,4.6,12.9,9.9c0,3-0.6,3.2-15.2,7.1     l-16.3,3.2c-0.9,0.2-2.4,0.5-4.5,0.9C-83.7,487.5-84.5,487.5-85.4,487.4L-85.4,487.4z"/>
					</g>
				</svg>
				<svg id="t_g4" viewBox="-190 430 180 20">
					<!--				MJj2-Joker for Dots.svg-->
					<g>
						<path fill="#2A3B92" d="M-101.9,379.1c-4.7,7.8-7.7,15.3-10.3,23.9c-0.9,2.8-10.7,13.4-14.1,10.6c-1.3-1.9-6.2-10.2-8.8-10.2     c-6.9,4.7-8.4,1.9-15.4,9.5c-1.5,1.5-3.4,2.3-5.8,2.1c-3.2-4.7-5.4-14-1.7-18.9c1.1-1.5,1.9-2.8,2.4-4.5c6.6,0,9.6-3.6,13.7-7.4     c0.6-2.8,4.9-5.5,2.4-8.3c-1.3-1.3-0.9-2.5,0.9-3.6c7.7-1.7,13.9,8.1,17.4,12.7c2.8,3.6-1.5,7.4-0.4,10.8     c-1.1,0.2,1.3,0.6,1.5,0.6c5.1-2.8,13.3-18.2,17.1-23.5c-0.6-1.1,1.7-2.7,2.6-3.4C-99.3,372.5-100,375.9-101.9,379.1z      M-139.6,466c-0.4,4.4-1.5,36.9-0.6,39.4c-0.9,1.9-2.4,4.2-5.1,3.8c-1.3-1.5-2.6-3-4.7-4.2c-6.2-8.7-4.5-14.2-3.9-24.4l0.4-3.4     c0.6-13.4,5.4-26.9,1.3-40.1c1.5-3,1.7-8,7.1-7.4c1.1,9.5,5.6,18.4,7.1,27.8C-139.4,460.3-137.9,463.3-139.6,466z M-86.9,480.4     c5.8,7,1.1,5.3-1.9,8c-4.7-0.4-16.3,0.9-21,1.9c-1.3-1.1-3,0.2-4.3,0.4c-0.9,2.5,1.9,3.8-0.4,7c-2.8,0-5.6-0.4-8.4-1.3     c-3-4.9-5.8-9.8-9.2-14.6c-0.2-6.8-7.3-12.7-3.6-19.7c1.7-0.6,2.4-1.5,4.3-0.9c1.1,1.1,2.4,2.7,4.1,3     c11.4-5.3,36.9-17.2,47.6-6.1c1.9,2.1,0.2,5.1,2.1,6.8C-75.5,471.5-87.3,474.1-86.9,480.4z M-83.5,442.9c-3.9,0-6.4,2.5-10.5,2.1     c-2.6,1.1-6.2,0.8-8.1,2.8c-16.5,8-37.5-9.5-23.4-12.3c5.4-0.9,12,0,16.9-1.3c4.3-1.1,8.4-2.5,12.6-3.2c4.7-5.3,10.3,0,12.9,3.8     C-83,437.4-78.8,441-83.5,442.9z M-56.5,386.7c-5.8-1.1-10.1,1.1-15.6,1.9c-0.4,0.6-0.9,1.3-0.4,1.9c0.6,1.3,5.8,4.5,7.3,6.8     c4.5,6.1,0.4,13.4-7.5,15.1c1.9,2.5,13.3,6.4,17.1,8c2.4,2.3,3.6,5.1,5.1,7.8c1.1,14.6,7.3,84.3-4.9,93.9     c-0.6,2.8-4.7,2.3-7.1,2.5c-3.6-5.3-10.1-8.3-15.9-11.9c-2.1-5.7-16.9-11-12.4-18.2c3.2-0.6,2.8,3.6,5.4,3     c1.5,1.3,14.6,3.2,16.9,2.8c7.7-4.4,2.8-63.2-1.5-71.6c-3.6-1.7-2.6-7.2-7.7-5.9c-1.5-1.5-3.9-1.7-5.8-2.8     c-4.9,2.1-18.6,5.5-24.2,7c-5.8,1.3-12-0.4-17.8,0.6l-4.5-0.9c-1.5-11.7,36.2-10.4,42.4-19.1c3.2-0.9,6-5.7,8.4-7.8     c-0.9-1.5-1.7-6.1-4.1-6.6c-2.8,2.5-6.6,3.8-8.6,6.8c-2.6,0-5.8,3.6-7.5,0.2c-2.6-1.5-1.9-4.9-3-7.2c1.1-1.9,1.1-3.2,1.3-5.1     c0.6-6.1,13.1-11.7,11.6-21.2c-0.6-3.6-5.6-3-7.3-7.4c3.6-0.9,2.4-2.3,7.1-2.1c11.1,0.6,17.6,13.3,16.9,21.4     c13.9-1.1,14.6-6.6,30-0.6c3.9,1.5,3.2,3,3.2,6.1C-42.5,388.2-51.8,386.1-56.5,386.7z M-99.8,467.1c-2.6,2.1-14.4,2.1-18,2.1     c-4.5,0-5.4,2.8-5.1,4.4c3.4,1.5,2.6,5.3,4.7,7.8c4.7,1.7,6.6-2.8,11.6-2.1c4.7-3,9-7,10.1-12.1H-99.8z"/>
					</g>
				</svg>
				<svg id="t_g5" viewBox="-190 430 180 20">
					<!--	MJj3-Joker for Sticks.svg			-->
					<g>
						<path fill="#038249" d="M-59.4,430.8c-4.1,0.6-7.1-1.5-11.1-1.3c1.4-4.4,5.1-2.2,6.7-4.4c4.3-2,13-3.7,13.8-8.7     c-6.3-3.3-17.8-1.7-24.9-1.7c-4.7,1.5-15.2-1.1-17.6,3.5c0.4,0.4,1.4,1.1,1.6,1.7l1,0.7c0.4,2.2,0.6,4.4,0,6.6     c-2.2-0.2-16.4,10.1-16.8,12.2c2.2,0.7,7.9,1.7,9.1-0.9c6.1-5,10.1-11.8,15.4-17.3c2,2.4,10.1,2.4,9.9,5.5l1.4,1.7     c0,6.1-27.1,23-31.6,30.2c6.3,0.7,12.4-0.9,18.2-2.4c-0.6-1.5-1.2-2.9-1.6-4.4c-3.2,2.4,0.2-1.8,0.6-2.2l1.2-1.3     c9.3,2.4,14,2.8,18.4,11.6c0.2,3.3,1.2,9.8-3,11.6c-2,0.2-4.9,0.2-6.9-0.6c-4.7-4.4-4-8.7-11.5-4.1c0.8,3.1,0.8,6.6-0.4,9.8     c1,13.6-0.8,27.3-2.2,40.7c-0.6,0.9-0.8,1.8-1.2,2.8c-0.6,1.5-2.4,1.1-4.1,0.7c-5.3-1.5-20.7-18.4-24.9-23.2     c-6.1,4.4-9.3,8.5-12.8,14.6c-1.6,2.8-3.6,2.2-6.7,1.8c-4.9-5.9-10.5-12.7-7.3-20.5c1.8-4.2,0.4-9.2,7.1-8.8     c0.4,0.4,1,0.7,1.6,0.9c1.8,2.4,4.5,4.6,6.5,7c7.7-2.4,15.4-4.4,23.3-6.5l-0.2,3.1c-1.8,0.4-3,1.7-4.9,2.4     c-1.4,1.7-4.3,2.8-2.4,5.2c2.4,0.9,10.7,0.7,13.4,0.2c2-0.6,3.2-23.2-2.6-26.2c-4.3,0.6-19,9-21.9,6.8     c-4.9-3.9-3.2-10.5-1.2-15.3c3.8-2.6,16-6.5,17-11.2c-4.3-0.7-7.9,1.3-11.9,2c-1.2,1.1-3.4,0.9-4.3,2.8c-3,0.9-3.2-0.9-5.1-2.4     c1-3.9-1.2-7.7,0.2-11.6c3-3.3,7.9-4.6,11.1-7.6c4.9-4.4,9.9-8.8,13.6-14.2c-3.4-0.7-8.9,2.4-13.2,2.4c-4.9,0-14.4,2-18.2,5     c-1.8,1.5-2.6,3.7-4.3,5.3c-1.8,10.1-6.7,20.3-9.7,30.2l-2.4,0.7c-1.6-0.7-2.2-1.5-4.3-1.1c-2.6-5.2-7.1-10.7-6.5-16.8     c0.6-4.4,5.1-5.7,7.1-9.2c1.4-2.4,5.3-12.7,5.3-15.3c0-4.2-7.7-1.5-6.9-7.6c1.4-0.6,5.5-0.2,7.1,0.2c1.8,0.7,7.5,3.5,11.5,4.8     c0,1.7,3.8-0.6,4.7-0.9c2.8-3.5,22.7-9.2,27.7-9.4c0.8-1.3,2-2.6,2.2-4.2c-7.1-0.6-23.9-10-26.3-16.2c4.5-0.6,6.7-0.2,11.3,0     l2.2-0.4c5.1,0.2,9.9-1.5,15-2.4c3-3.7,2.6-9.8,1.2-14c-2.6-1.8-5.7-3.3-8.7-4.6c-0.2-1.1-0.4-2.2-1-2.9c1.2-2.4,3.2-4.6,6.3-5.3     c7.9,3.1,19.8,6.1,20.9,15.1c0.2,2.2-0.2,4.8,1.2,6.8c8.9,2,11.3-2.8,17.2,6.8c1.2,7.2-14.8,8.3-19.8,10.7     c-0.4,2.8-1.8,5.3-1.8,8.5c8.3,0.9,16.6-0.9,24.9-0.9c3.4-1.7,19.4,2.4,22.9,4.1c5.1,2.6,15,15.2,4.7,18.9     C-42,430.3-52.9,429.8-59.4,430.8z M-56.2,503.4c-0.6-0.9-2-0.6-2.8-0.6l-1.2-0.7c-9.3-5.7-16-12.9-24.9-19.2     c1-4.2,5.3-0.9,7.5-2.4c8.7,0.4,21.7,0.7,26.3,8.5C-47.9,494.7-45.6,504.3-56.2,503.4z"/>
					</g>
				</svg>
				<svg id="t_g6" viewBox="-190 430 180 20">
					<!--				MJj4-Joker for Characters.svg-->
					<g>
						<path fill="#BF3718" d="M-35.9,474c-7.5,12.7-8.7,27.3-19.8,38.5c-2.6,2.8-8.5,7.6-12.6,7.7c-1-0.9-2-1.8-3.6-2.2     c-0.4-3.1-3.2-5.2-4.9-7.9c-2.6-1.5-10.7-10.7-13.2-13.3c9.1,4.6,13.8,3.3,23.1,5c5.5-4.4,16-30.2,14-36.5     c-1.2-4.1-27.5-1.5-31.6,0.4c3.8,6.1,15.8,6.5,14.4,19.4c0.6,2.2-0.4,4.2-1.6,5.9c-5.5,1.5-6.9-1.7-10.1-4.6     c-12.2-0.2-40.7,12.5-43.7,12.5c-3.4-4.6-13.4-6.1-7.3-13.5c5.5,1.1,12.6-2.4,17.2-5c1.6-2.2,2.4-5.3,1.2-7.9l-27.5,9.8     c2.2,10.1,4.9,18.3,2.2,28.8c-3.8-2-5.7-4.8-7.9-8.3c-5.5-3.9-2.4-10-4.5-15.1c-2.4,0.4-4.5,1.5-6.7,1.7     c-4.1,1.7-11.3-6.6-8.1-8.8c3.6-0.9,8.1-1.7,11.3-3.5c0-2.8-0.4-6.8,3.6-7.7c3.4-2.6,22.7-11.4,23.1-13.3c-8.7-3.9-13.8-23-17-31     c0.4-2-1-5.7,1.8-6.6c1.2-1.3,3-1.7,4.7-1.3l1,1.7c4.7-2.4,8.9-5.5,13.8-7.2c-2.8-3.3-3-8.1-4.9-10c-2.6,1.1-17.4,8.8-19,8.1     c-2.2-0.9-3-3.1-5.3-4.4c0.8-1.3-4.5-5.5-2.4-9.2c4.5-1.5,3.8-1.7,7.9,0.6c4.3,0,13.4-1.7,17.2-3.3c4.1-1.8-8.3-21.9-7.7-25.4     c4.5,0.6,9.3,1.5,13.2,4.1c3.4,2.2,11.7,11.2,10.7,15.3c1,2.4,14.6-0.7,16.8-1.3c2.4-4.6,3.2-10,4.9-14.7     c1.4-4.1-3.8-8.8-7.3-10.7c0.2-4.2,15.2-1.1,17.8,0.2c10.3,5.3,7.5,12.9,2.4,20.3c2.4,0.9,16.2-4.6,20.9-3.5     c1.6,2.9,10.5,6.8,9.3,11.2c-4.1,0-35,4.2-36.7,5.5c-3.2,0.6-7.7,8.8-10.9,10.9c6.9-0.7,15.4-2.6,22.3-2     c6.3,0.4,19.8,7.9,17.8,14.6c-1.8,6.3-14.8,28.2-21.1,30.8c-1.6,1.5-5.1,0.6-7.1-0.2l-0.4-2c-2.8,0.6-3.4,2.6-7.7,2.6     c-1.6,0-3.4,0.2-4.9,1.1c-1,5.7-0.6,2.8-1,9.2c2.2-0.2,4.5-0.7,6.7-1.3c10.7-2.4,27.9-5.2,38.9-3.9c3.8-2.4,12.6,0.4,15.6,3.1     c2,1.8,5.9,5.5,6.3,8.1C-31.6,469-34.1,470.7-35.9,474z M-117.1,456.5c-5.5,0.2-29.2,12-32.8,15.7c2.6,3.7,30-7.7,35.2-9.6     c1.2-2.2,0.6-4.8,0.6-7.2L-117.1,456.5z M-117.3,417.4c-4.3,0.9-15.2,2.2-17.2,5.5c0.2,2.8-0.8,5.7,0.6,8.3     c2.8,5.5,4.1,9.8,3.8,15.9c5.3-2.8,10.3-6.8,14.2-10.7c-3.8-0.2-15.4-2-17.2-5.3c5.1-2.9,15.2-4.8,18.6-7.7     C-111.8,421.1-116.5,419.6-117.3,417.4z M-105.8,389.8c-2.2,0.2-7.7,2.4-9.7,3.3c-0.4,4.2-5.9,13.5-5.3,16.6     c8.9-0.6,18.8-12.7,21.1-19.9H-105.8z M-92,468.1c-2.6,0-5.3,0.6-7.9,0.9c-0.2,2.9-0.2,5.9-1,9c4.5-0.2,9.5-0.2,13.8-1.3     C-89,474.2-90.4,471.1-92,468.1z M-100.1,415c2.6,1.1,1.4,3.3,4.3,4.4c1.4,0.6,2.8,0.7,4.3,1.5c1.6,0.2,2.8,2,4.3,2.6     c2.8,6.3-7.9,7.7-10.9,10.9l-0.6,4.8c5.3-0.2,3.4-0.7,7.9,1.1c2.6,1.7,1.4,1.1,3.4,1.8c0-1.1,0-8.5,0.4-9.6     c0.8,2.8,0.4,1.8,3,2.4c1.4-3.1,10.7-21.4,6.9-22.9C-85.7,408.8-92,414.3-100.1,415z"/>
					</g>
				</svg>
				<svg id="t_g7" viewBox="-190 430 180 20">
					<!--				MJj7v1-Joker.svg-->
					<g>
						<path fill="#2A3B92" d="M-166.5,480c-2.4,8-6.1,18.7,1.7,28c1.2-2.9,2.4-6.2,3.2-9.6c1.4-5.1,1.2-10.5,2.2-15.6     C-163.9,485.1-162.9,480-166.5,480z"/>
						<path fill="#2A3B92" d="M-144.9,475.6c-0.9-1.1-1.9-1.8-2.9-2.4l-2.7,0.2c1.2,3.3-1.4,7.8-0.5,12.2c0.3,2.7,2.9,11.1,6.7,9.3     c1.7-0.7,2.4-17.1,2.7-20.2C-143.6,473.8-143.7,475.1-144.9,475.6z"/>
						<path fill="#2A3B92" d="M-126.5,431.9c-1.7-0.4-3.4-0.9-4.8-2.2c2.2-3.8,6.2-10.4,10.8-16.5c1.8-2.5,3.4-4.7,4.3-5.6     c1.5-3-1-12-4.4-11.1c-16.7-2.2-1.5-18.9-24.2-18.7c2.9,14.5-10.4,37.8-18.4,49.1c-3.6,4.9-5.8,5.5-11.3,7.8     c-1.9,4.2,1.5,7.3,4.3,9.3l2.6,2c3.9,2.9,16.6-9.1,21.5-10c-2.7,6-9.2,20.4-16.2,22l-2.2,0.2c-8.7,4-0.9,12.4,4.1,14.9l2.4-0.7     c5.3-4.5,15.2-13.5,21.5-15.3c-3.6,5.3-5.8,6.9-9.6,12.2c6.7-4.4,11.3-8.9,16.9-13.6c3.1-2.5,3.9,5.1,7,2.7     C-116.4,448.3-119,439-126.5,431.9z M-151.9,427.1c5.3-10.5,13.5-20.5,20.3-29.8c2.9-3.3,3.5-2,2.7,3.8     c-2,8.2-6.6,14.9-10.2,22.2C-140.3,425.8-149,426.4-151.9,427.1z M-142.2,448.3c2.7-4.5,5.6-9.1,8.2-13.8     c1.9,2.4,2.2,5.6,2.4,8.7C-131.6,445.3-140.5,448-142.2,448.3z"/>
						<path fill="#2A3B92" d="M-134,466.7c-1.2,0.5-2.6,0.5-3.9,0.5l3.9,4.7c-0.5,6.5,4.1,8.4,7,14.7h1.5     C-117.4,475.3-129.2,465.6-134,466.7z"/>
					</g>
					<g>
						<path fill="#2A3B92" d="M-45.5,451c-4.4,0-7.9,1-14.6,4.5l-0.4,1c12.4,4.3,13.6,4.9,13.6,5.9c0,0.8-0.7,1.6-1.9,2.5v0.8     c1.2,0.2,1.6,0.4,3,0.4c11.1,0,12.7-0.6,12.7-3.5C-33.1,456.1-38.6,451-45.5,451z"/>
						<path fill="#2A3B92" d="M-112.2,400.9c-0.9,2.4-1.6,4.3-2.1,5.7c-0.9,2.2-1.4,4.1-1.4,5.3c0,2.2,2.1,5.1,3.9,5.1     c1.4,0,3.5-1.4,5.6-3.5c3.5-3.5,6.7-6.5,9.5-9c6.5-5.7,8.6-8.4,8.6-10.8c0-2.5-4.6-8.2-7.9-9.8c-1.9-1-4.4-1.4-7.6-1.4h-1.4     l-0.5,0.6c1.6,4.7,2.3,7.4,2.3,8c0,3.3-5.1,11.4-7.1,11.4c-0.7,0-1.1-0.4-1.2-1.6H-112.2z"/>
						<path fill="#2A3B92" d="M-80.6,452.8l-1.1-0.2c-2.6,4.1-3.5,7.2-3.5,12.3c0,7.2,4.1,13.9,8.5,13.9c1.2,0,2.3-2,2.8-5.7     c1.1-6.5,1.9-7.8,7.8-14.5l-0.4-0.6c-3.9,1.6-5.3,2-7.2,2C-76.4,460-77.8,458.5-80.6,452.8z"/>
						<path fill="#2A3B92" d="M-70,382.7c1.4,1,2.3,1.8,2.3,2.4c-0.2,1.2-4.2,5.9-9,10.4l0.2,1c1.9-0.6,3.4-1.2,4.1-1.4l8.5-3.5     c1.2-0.4,2.8-0.8,4.9-1.2c6.4-0.6,6.4-0.6,7.8-1.6c1.6-1,2.6-2.9,2.6-4.9c0-6.3-5.6-10-15.2-10.4c-3.5,0-5.8-0.4-6.7-0.8     l-4.8-2.4c-0.2-0.2-1.1-0.4-2.3-0.6l-0.2,0.8C-76.7,375-72.8,380.9-70,382.7z"/>
						<path fill="#2A3B92" d="M-42.3,483.7c-1.9-1.6-3.9-3.3-6-5.1c-1.1-0.8-4.4-4.5-9.7-10.2c-0.5-0.8-2.3-2.5-4.1-4.5l-0.7,0.2     c6.5,17,7.9,21,7.9,23.1c0,1.2-0.4,1.4-1.8,1.8c-7.1,1.6-7.4,1.6-11.3,1.6c-12.4,0-21-5.7-25.2-16.6l-2.6-6.9     c-0.4-0.8-0.7-1.6-1.4-2.2c-1.1-1.4-2.1-2-4.6-2.7l-0.4,0.8c2.3,12.3,4.1,17.8,7.8,23.7c5.6,8.8,16.6,14.9,27.4,14.9     c9.5,0,20.6-2.9,25.8-6.7c1.4-1,2.5-2.9,2.5-4.7C-38.8,488.1-40.2,485.5-42.3,483.7z"/>
						<path fill="#2A3B92" d="M-81.8,439.7c4.2-2.2,16.9-6.5,18.9-6.5c0.9,0,1.6,1,1.6,2.2c0,1-0.4,1.8-1.4,3.1l0.2,1     c1.9,0.6,1.9,0.6,4.4,2c2.6,1.4,2.6,1.4,2.8,1.4c0.7,0,1.8-0.6,2.5-1.4c1.2-1.6,3.2-8.6,3.2-11.6c0-5.5-4.6-10.6-18.5-20.8     l-0.5,0.6c0.4,3.9,0.4,3.9,2.8,10.6c0.4,0.6,1.1,2.5,1.8,4.5c-7.2,1.4-15.9,3.9-23.1,7.1l-2.3,0.4c0-0.4,1.4-2,4.1-4.7     c11.3-11.4,11.3-11.4,11.3-13.7c0-4.5-6.5-13.7-9.9-13.7c-0.4,0-1.1,0.4-1.9,1l-0.5,0.8c0.5,2.4,0.7,3.3,0.7,4.5     c0,5.9-10.9,22.7-19.2,29.6c-3.2,2.5-4.2,3.9-4.2,5.7c0,0.8,1.4,5.9,2.3,8c0.9,2.3,2.8,4.1,4.2,4.1c0.9,0,2.1-0.6,3-1.6     C-92.2,445.2-90,443.6-81.8,439.7z"/>
						<path fill="#2A3B92" d="M-105.7,468.5c-0.7,0.8-0.9,1-1.2,2c-0.7,1.2-0.7,1.2-0.9,1.2c0,0-0.2,0-0.2-0.2l-0.9-1.2l-1.4-1.6     c-0.7-0.6-1.9-1.6-4.6-2.9l-0.7,0.8c0.7,3.7,1.1,5.5,1.1,7.8c0,2.4-0.4,4.5-1.1,6.5c-1.6,4.5-1.6,4.5-1.6,7.1     c0,6.7,4.1,13.9,7.8,13.9c2.1,0,4.2-4.5,4.1-9c-0.5-12.9-0.5-12.9-0.5-13.7c0-2.9,0.2-5.3,0.9-10.8L-105.7,468.5z"/>
					</g>
				</svg>
				<svg id="t_g8" viewBox="-190 430 180 20">
					<!--				MJj6-Joker.svg-->
					<g>
						<path fill="#D37F11" d="M-34.9,511.3c-6.1,1.5-6.5-0.8-11.6-2.1c-10.7-3-22.9-4.2-34-3.9c-18.2,0.6-49.6,4.1-65.4,11.8     c-5.7,2.8-9.7,3.7-16,2.8c-1.2-3.5-13.8-12.4-3-14.2l45.6-7.9c5.9-1.1,11.5-6.5,12.8-11.4c-4.9,0.9-13.8,5-18.4,3.1     c-4.7-2-13.2-6.8-14-11.8c1.8-2,29.2-4.8,35.2-6.6c0.4-1.8-0.2-9.8-3.4-9.8c-12.8,0.2-14.8,2.6-27.7-1.8c-0.8-1.5-0.8-3.3,0-5     c8.5-2.9,17.2-5.7,26.3-6.8c5.1-0.7,10.3-0.2,15-1.8c6.9,0.7,17.8-1.7,21.7,5c4.5,7.6-8.1,7.2-13.6,7.6     c-1.6,3.3-3.8,6.8-4.7,10.5c3.8,0,7.3-1.7,11.1-1.5c5.1,2.6,7.1,7,8.9,11.6c-2.4,6.1-18.6,0.7-20.9,5.5c-1.4,3.1-2,6.5-2.6,10     c3,0.4,6.5-0.4,9.5-1.1c13.8-2,26.9-0.9,40.5,2.6c6.9,1.7,8.5,4.5,11.8,9.9C-31.8,508.4-32.6,510.1-34.9,511.3z M-70.9,433.8     c-4.3,5.3-10.5,1.5-14.2,6.3c-9.3,0.9-17.8,1.7-26.9,4.6c-4.9,1.7-9.1,0.6-13.8,1.7c-10.7-4.2-7.9-31-19-41.1     c-1-2.9-2.2-5.9-1-8.8c9.3-4.6,28.4-13.1,32.4-21.9c1.6-3.5-10.1-8.3-0.8-11.4c11.5-3.9,14.6,6.6,20.7,12.5     c0.2,2.8-2.4,5.2-2.2,7.2c12.4-4.4,25.5-0.7,35.2,6.5c3.8,2.8,9.3,9.8,7.7,14.2C-54.1,407.3-68.1,430.5-70.9,433.8z      M-137.4,399.9l9.9,7.9c1.6-5.2,6.5-8.8,8.3-13.8C-125.2,395.5-131.9,396.9-137.4,399.9z M-103.7,396c-3.8-0.9-7.7-2-11.7-1.7     c-3,4.2-5.5,10.5-6.7,15.5c7.3-1.8,14.4-4.1,21.5-6.1c5.7-4.6,18.6,1.7,18.4,8.3c-9.9,8.7-20.9,4.8-29,10.9c-3,1.5-3.4-0.6-3-2.4     c-2-1.1-4.9-2-6.7-3.5c-0.4-0.4-1-1.1-1.6-1.1c-1.2,5.7,0.2,12.5,1.2,18.3c9.9-2.6,31.6-9.4,40.9-8.3     c3.8-10.5,11.5-21.9,6.7-33.2C-87.1,394.7-88.2,400.1-103.7,396z"/>
					</g>
				</svg>
				<svg id="t_g9" viewBox="-190 430 180 20">
					<!--				MJj11-Joker.svg-->
					<g>
						<path fill="#BF3718" d="M-31.3,448.9c-11.5,2.6-8.4,0.4-19.2,1.2c-20-8.7-35.2-34.8-54.3-45.3l-8.5-5.7     c-6.3,8.3-15.3,23.3-21.4,31.6c6.1,0.6,36.3-5.9,40.3-9.2c4.5-0.4,6.1,3.1,9.3,3.1l0.8,0.4c4.3,2,15,9,3.8,11.8     c-2.6,0.6-6.5,0.4-9.3,0.7c-9.5,1.5-18.6,4.6-27.1,8.7c-3.2-0.4-6.5-0.9-9.3-2.2c-7.5,10.9-12.2,9.2,0.2,19.7     c8.3-3.3,29.8-15.7,36.7-16.4c8.3-0.9,21.5,6.8,23.5,14.2c1.4,5.2-3.6,6.6-6.1,10.3c-3.6,5.3-6.5,11.6-8.5,17.5     c1.4,3.7,6.3,5.3,3,9.8c-5.9,7.9-16-0.4-23.5,1.7c-5.3,1.3-10.1,2.4-15.8,2.4c-1.2,2.2-2.4,4.4-4.3,6.5     c-11.5,1.1-13.2-23.2-18.8-29.5c-1-6.1-4.9-11.4-1.6-17.5c0.4-7.4,0.8-15.9,8.1-20.5l1.8-3.3c-2-1.3-4.5-2.8-6.9-2.8     c-11.1,13.3-15.1,21.3-32.1,28.7c-1.8,0.2-3.9,0.6-4.3-1.8c2-4.2-0.8-7.3,2.5-9.2c3-2.3-1,6.2,8.2-6.8     c11.3-18.8,25.7-35.9,37.9-54.2c3.6-5.5,6.3-11.6,10.1-17.1c0.4-2.2-2.4-3.9-3.8-5.5c1.2-3.7,4.7-2,7.9-1.5     c4.7-2,12.4,3.9,14.2,7.7c1.8,3.5-1.2,5.5-3.4,8.1c-2.8,1.1-4.1,4.1-5.1,6.3c6.1,1.1,10.8,5.9,16,8.9c5.3,2.9,10.3,10.2,15,13.7     c11.9,9.2,13.7,12.4,26.7,20.3c8.5,5.3,11.5,7.3,14.3,10.3C-32.3,445.1-28.2,447.8-31.3,448.9z M-123,474.8     c-0.4,0.7,2.8,16.2,3.4,18.4c7.1-1.3,16.4-4.4,22.7-7.9c2.8-5.5,7.3-12.4,7.9-18.6C-94,467.6-121.2,471.3-123,474.8z"/>
					</g>
				</svg>

				<svg id="t_g10" viewBox="-190 430 180 20">
					<!--					MJj9-Joker.svg-->
					<g>
						<path fill="#038249" d="M-34.7,479.8c-1.4-0.4-2.2-3.5-3-4.6c-2.6-7.4-5.7-14.7-8.9-22.1c-2-0.2,0-4.1-4.7-3.9l-1,2     c2.2,7.7,2.8,25.4-3.2,31.9c-7.5,8.1-45.5,11.1-47.3,0.7c-1.2-7.2,6.9-20.1,10.5-26.5c1.2-2,5.5-10.1,8.3-10.5     c6.4-9.9-1.7-15.2-12.6-16c1.4,1.4,1.9,3.4,0.3,5.5c-1.6,2.2-3.5,4.7-5.2,6.8c-1.2,1.6-1.8,3-3.2,4.5c-0.8,2-1.8,3.9-2.9,5.5     c-3.8,13.1-15,24.7-7.9,38.9c0.8,1.7,2.2,3.9,3.6,5.2c10.9,10,39,8.3,53.6,5.3c8.1-1.7,16.2-3.5,23.9-6.8     C-31.3,490.9-31.3,484.6-34.7,479.8z"/>
						<path fill="#BF3718" d="M-128.1,402.4c-2.8,2.4-7.7,5.7-9.9,7.9c-0.8,0.9-0.2,2,1.2,1.7c3.2-1.3,7.1-3.5,10.3-5     c11.9-5,23.7-9.8,34.2-17.1c2.6-1.8,4.9-2,7.9-2.8c3.6-0.9,5.5-2.6,6.9-5.7c2.6-6.1,1.6-7.6-2.6-12.5c-1.2-1.8-10.7-2.8-13.4-2.9     c-3-0.2-3,0.9-5.7,1.8c-4.5,4.2-27.1,12.7-33.6,12c-2.8-0.4-5.3-0.6-8.1-0.4c2,5,5.1,9.6,6.9,14.6     C-131.3,395.6-126.4,399.1-128.1,402.4z"/>
						<path fill="#2A3B92" d="M-125.5,441.1c-1.2,2.5-17.3,20.5-19.3,23.7c-4.5,4.8-13,18.2-20.9,16.7c-2,4.8-3.4,10-2.4,15.1     c2.4,2.6,3.6,3.3,7.3,2.4c9.3-2.2,29.4-36.9,33.8-39.1c1.4-2.4,4.8-6.5,8.7-10.6c0.4-0.6,7.9-9.3,8.3-10     C-105,428.2-117.3,437.1-125.5,441.1z"/>
						<path fill="#BF3718" d="M-59.9,408.1c-2-3.5-5.5-3.7-8.5-5.7c-4.5-0.2-13,0-16.6,2.2c-1.8,3.5-7.1,7-10.9,8.8     c-1.8,0.9-4.1,1.5-5.9,2.2c-5.9,2.2-11.5,4.6-17.2,7c-5.3,2.2-35.2,16.4-40.5,11.8c-1.4-1.3-0.8-3.7,0.6-5     c-4.9-1.5-4.9,0.4-7.3,2.9c-1.2,9.8,1.1,14.3,10.4,19.3c0.5,0.6,3,0.8,4.2,1c1.8-0.3,7.3-2.5,8.7-3.2     c14.6-7.9,18.7-8.4,33.8-15.2c1.5-0.7,5.8-2.3,9.5-3.5c1.8-0.8,3.7-1.5,4.3-2.3c2.2-3,13.6-6.3,17.8-8.5c1.2,0,2.2-0.6,3-1.3     C-67.8,417-58.5,416.4-59.9,408.1z"/>
					</g>
				</svg>
				<svg id="t_g11" viewBox="-190 430 180 20">
					<!--					MJj10-Joker.svg-->
					<g>
						<path fill="#2A3B92" d="M-41.9,465.1c-9.1-1.1-14.4-2.7-23.5-2.7c-2.8,0-24.3,0-27.2-0.3c-26.7,4.6-38.5,12.2-63.4,18.7     c-8.3,2.2-9.9,0.6-17.6-2.2c-0.6-2-0.6-4.1,0-6.1c3.4-2.8,8.5-2.2,12.8-3.3c5.1-1.5,32.2-8.7,33.4-8.9c1.4-0.6-9.1-6.6-8.3-7.6     c-2.8-4.4-0.4-7.6,5.9-5.3c-4.5-7.2-9.1-18.2-7.7-26.9l1-3.5l-2.4-1.1c-3.4-1.5-6.9-3.9-9.3-6.5c-1.8-1.7,0-6.8,3.6-4.4     c13,1.7,25.4-4.6,34.3-5.2l0.1-5.9c-2.8-0.2-18.8,6.1-21,4.6l-2.6-0.4c-4.5-4.4-8.9-6.3-13-11.1l-1.3-1.9     c2.2,0.7,3.1,1.2,5.9,0.8l7.5-0.9c3.2,0.7,8.1,1.1,10.9-0.7c5.9,0,7.8-1.2,12.8-3.7c0.6-3.3,0.3-5.1-1.2-7.9     c-1.9-3.3-5.2-2.4-6-6.3c-1-3.7-0.9-4.7,3.8-5.4c1.6-0.4,3.2-0.6,4.9-1.5c12.8,3.1,14.2,3.3,16.6,15.1c1.4,0.4,14.1-3.6,15.5-3.6     c6.3,4.2,7.7-2,10.9,8.3c-1,1.7-0.6,4.6-3.8,3.9c-3.8,0.7-19.3,4.1-22.2,6.7c-5.3,0.4-5.9,7-3.8,7.6c2,0.7,12.5-3.3,14.5-3.8     c6.3,2.2,9.5-0.2,13.8,6.1c2.2,0.6,1,3.1,1.2,4.4c-5.7,3.5-21.5,0.4-25.7,3.7c-13.2,2.9-24.7,6.6-37.7,10.5c-1,1.3,0.4,2.6,1,4.1     c0.4,0.4,1.8,2,2,2.6c1.6-2,4.7-2,6.9-2.9c5.1-1.7,26.9-7.1,31.4-8.9c4.1-1.7,21.5,4.1,17.8,12.9c-2,4.8-4.8,9.1-7.9,13.2     c6.6,0.9,7.5,0.3,10.5,4.1c1,3.3-7.5,7.7-5.3,8.7c10.7-1.1,14.7-2.2,30.4-1.1c10.1,1.5,10.3,4.4,12.2,11.2     C-32.4,464.8-39.3,467.3-41.9,465.1z M-73.4,512.4c-3.4,0.4-3.2-0.2-6.5-0.7c-3.2-1.1-13.4-0.9-15.6-0.2     c-8.3,0-18.4,3.1-23.9,6.8c-8.3-1.8-7.9-8.7-12.6-13.5c-1-8.8-8.7-19.7-4.1-27.3c0.4,1.3,9.9,2.4,11.1,3.1     c5.1-3.1,10.7-1.8,15.6-5.2c2.2,0,10.3-2.8,12.4-3.5c7.3-2.4,16.4-2.4,17.8-0.6c2.4,0.4,3.8,2.6,6.3,2.6     c10.9,12.4,6.3,12.7-0.6,25.4c0,4.4,3.8,3.5,2.6,8.5C-71.1,509.3-73.6,511-73.4,512.4z M-107.8,428.1c-3,0.9-9.7,2.7-15.3,2.7     c-2-0.6,2.6,5.2,2,6.5c0.4,2.2-0.4,3.5,1.7,3.8c1-0.9,13.5-4.6,14.7-5c3.4-0.7,15.4-0.1,17.7-2.8c2.2-2.7,4.2-8.3-2.2-10.2     C-93.6,423.5-104.5,427.4-107.8,428.1z M-87.1,483.5c-7.3-0.9-25.3,6.1-35,6.3c-0.6,3.3,4.1,8.3,4.3,11.6     c1.2,0.6,5.3-0.7,10.1-0.9c4.7,0,11.3-0.4,14.4-3.5c5.3-0.4,7.5-5.3,6.3-9.8C-87.3,486.6-86.9,483.1-87.1,483.5z M-117.9,450.2     c-0.8,1.5,3.6,5.7,3.8,7.3c6.7-1.8,20.3-3.4,27-4.9c0.4-2.4,2.2-6.9,2.2-9.3C-106.1,444.8-110.3,449.7-117.9,450.2z"/>
					</g>
				</svg>
				<svg id="t_g12" viewBox="-190 430 180 20">
					<!--					MJj8-Joker.svg-->
					<g>
						<path fill="#BF3718" d="M-135.3,388.3c-1.2,1.5-0.4,3.5-0.6,5.3c1.4,3.1,4.9,7.4,7.3,9.8c10.5,10.5,14.8-3.7,11.9-10.3     c0.6-6.3,7.3-12,10.1-17.5c-0.2-3.1,1-3.7,0-7.4c-4.7,4.1-16.4,17-23.3,10.1c-3-2.8-3.2-4.6-8.3-4.2     C-131.1,379.3-137,382.4-135.3,388.3z"/>
						<path fill="#2A3B92" d="M-118.6,447.7c3.5-1.3,5.7-6,4.9-8.3c-0.7-2,0.4-3.1-2.2-4.3c-0.4-0.2-4.3-1.7-3.5-1.5     c-4.8-1-5.6,1.4-7.4,4.3c-3,3-5.1,3.9-7.8,7.1c-1.3,1.6-3.2,3.1-4.6,5.2c-0.4,0.3-1.1,2.2-2.3,2.7c0,0,0.1,0.1,0.1,0.1     c-6.8,8.3-15.9,15.3-21.7,24.1c-2.1,0,1.7-8.8,1.9-10c-5,5.9-4.5,7.7-7.4,14c-6,3.3-4.5,8.8-6.4,14c1.2,1.3,2.1,2.8,4.3,2.6     c1.6-1.5,4.1-1.8,5.8-3.3l20.7-18.6c1.6-1.5,2.5-4.1,4.8-4.4c0.6,5.7,0.4,11.2-1,16.8c-6.2,5.3,0.8,24.7,8.9,25.8     c4.5-9.6,4.3-29.7,10.7-36.3c0.5-1.7,1.6-4.2,3-7.2c0-1,0.1-2,0.3-3c0.2-0.9,0.5-1.7,0.8-2.5c0.2-0.6,0.3-2.7,0.6-1.4     c-0.3-1.3-0.1-2.5,0.4-3.5c-0.2-0.5-0.2-0.9-0.3-1.4l-9.6,15.3l-0.6-1.1c0.2-4.2-0.4-8.8-3.3-12.2     C-127,455.6-125.4,454.8-118.6,447.7z"/>
						<path fill="#038249" d="M-32.3,492.5c-4.6-6.1-6-18.6-9.2-21.9c-1.2-1.5-2.5-9.6-7.5-12.5c1.6,9.2,2.1,20.6,0.2,29.7     c-9,12.5-44.7,10.3-44.9,1.1c-0.5-31.8,30.5-34.8,30.5-53.6c-4.4-5.7-0.9-15.3-18.3-14.4c-1.8,1.7-3.7,1.1-5.9,3.5l5.3,1.8     c2,2.9,1.4,6.8,1.2,10.1c-2.1,3.7-8.5,16.3-11.7,19.3c1.8-10.8-2.1-17.4-7.8-18.3c-4.1-0.6-6.6,2-9.6,4.4c-1.6,2.6-3,9.1-3.1,12     c1.3,0.2,2.5-5.3,4.1-7c1.7-2.6,3.1,0.9,3.1,0.9c-0.4,6.1-0.7,23.5-1.1,24.7c0.5,6.5-1.9,12.5,0.5,19.3     c6.6,19.4,27.8,19.4,44.3,17.7c8.9-0.9,18.9-1.8,26.4-7C-32.8,498.5-32.5,495.3-32.3,492.5z"/>
						<path fill="#BF3718" d="M-154.6,433c4.7,3.9,10.5,6.1,17.2,5.7c7.1-2.9,12.2-7.9,19.8-10.3c-0.5,0.6-1,1.2-1.5,1.8     c2.5-1.1,5.2-2,7.5-2.9c3.3-1.4,6.5-2.9,9.9-4c3.1-1,6.2-0.9,9.2-1.8c0.7-0.2,1.3-0.3,1.9-0.2c4-2.9,8.3-5.5,12.9-7.9     c5.5-2.8,9.9-5.9,9.7-12.2c-6.9-2-13.2-2.6-20.3,0.2c-1.8,3.1-10.9,5.3-14.6,6.3c1.8-1.7,3.4-3.9,5.7-5.3     c9.1-12.2,25.9-19,36.5-29.9c4.1-4.4-4.9-11.2-8.5-13.8c-3.8-3.1-8.1-6.1-13.6-7c-1.2,3.9,0.8,7.7-0.4,11.6     c0.8,6.3-3.8,11.6-8.1,16.2c-15.6,17.5-27.9,35-53.1,42c-2.8,0.6-6.3,2.4-9.3,1.3c-2.6,0-4.7,1.3-6.3,3     C-161.5,430-155,429.3-154.6,433z"/>
					</g>
				</svg>
				<svg id="t_g13" viewBox="-190 430 180 20">
					<!--					MJj5-Joker for Honors.svg-->
					<g>
						<path fill="#BF3718" d="M-30.8,454.3c-4.9-3.3-12.7-7-15.9-7.1c-16.2-0.8-30.4-18.5-47-16.1c0.5-2.3-0.8,0.2,0.6-3.1     c12.2-4.4,26.9-2.2,39.9-2c8.1-5.3,2-7.6-1.8-12c-8.1-4.6-20.5-0.6-29.4,0.4c3.4-2,22.9-10.5,23.5-12.2c1.6-3.5-2.8-6.6-3.6-10     c-3.2-1.5-5.1-5.2-9.3-4.8c-4.5,4.6-11.7,3.5-17.4,5.9l-6.3-5c8.1-3.1,17.2-3.7,25.3-7.2c1.4-1.7,1.4-3.5,1.6-5.3     c-1.8-5.5-7.9-9.6-14-11.4c-16,10.3-36,17.1-54.1,24l-1.2,2.2c3.2,3.5,6.5-0.9,8.3,2.2c7.7-0.4,15.2-1.8,22.9-3.1l-0.2,1.1     c-3.6,4.1-0.4,4.1,0.4,7.9c-9.3,3.7-18.6,7.9-28.8,10c-0.6-1.7-1-3.3-1.6-5h-4.9c-3.2,1.5-0.4,3.9-2,5.5     c0.6,6.6,0.2,14.6,5.1,20.1c-9.5,5.7-23.3,8.3-34,12.4c2.4,4.4,7.1,6.5,11.9,8.1c9.5,3.1,18.8-5,26.3-9c0.4-0.2,4.1-2.2,4.7-1.7     c0.6,0.7-1,2.4-1.4,2.9c-8.5,11.6-17.8,24.1-30.6,32.1c-2.8,1.7-6.3,1.8-7.7,5l4.9,1.1c11.3-5.4,14.9,0.7,28.6-13.8     c1.9-1.9,20.6-24.5,27.1-33.4l2-0.9c-0.3,7.6-0.7,15.3,0.2,22.9c0.3,1.4,2.7,4.2,3.5,4.1c1.2-0.3,3.1-1.5,4.5-1.2     c0.7,0.2,5.2-2.7,5.7-4.2c0.1-3.3,0.5-17.6,1.3-20c4.3,0.9,11.8,9.7,15.8,11.2c12,4.3,18.3,16.3,30.5,16.5     c5.7,0.2,5-1.6,10.8-3.8C-33.2,454.8-30.2,456-30.8,454.3z M-89.8,395.9c3.8-0.6,7.9-2.2,11.7-1.3c-2.6,5-9.7,13.1-14,17     C-91.8,407-88.6,399.8-89.8,395.9z M-107,416.6c-1.8,2.8-21.1,9.2-25.1,9.8c-0.6-0.2-2-0.7-2.2-1.1c6.1-6.5,13.2-12.2,20.9-17     c0.8-2.6,4.1-3.1,6.5-3.3l0.8,1.5C-106.4,408.3-106.2,415.5-107,416.6z"/>
						<path fill="#2A3B92" d="M-99.2,456.9c-2.3-0.1-7.3-0.9-14.5,3.8c-4.6,4.5-13.2,6.8-16.8,13.2l0.1-2.4c0.3-1.8-0.5-6.9-0.9-7.6     c-1.8-2.6-0.9-4.7-3.5-4.4c-1.8,0.4-5.9,5.3-6.7,7.3c-2.6,13.1,2.4,32.6,12.8,41.9c2.4,2,7.9,4.4,10.9,5.9     c8.3-2.4,16.4-6.1,25.3-6.3c3.2,2.6,3.8,6.8,6.1,10c2.6,0.7,4.9,1.7,7.3,1.8c18-9.6,17.6-29.7,23.5-45.2     c2.4-6.3-4.3-8.3-6.1-13.5C-72.9,455.6-86.4,454.5-99.2,456.9z M-114.5,492.2c2.4,0.7,5.1,0.9,7.3,2c-3.8,3.5-9.7,6.3-14.6,8.5     c-3.6-7.6-4.1-15.9-6.5-23.8c1.6-2.6,0.2-5.3,4.3-5.9c5.7-0.6,11.1-2.4,17-2.4l0.2,7.9c-6.5,1.5-12.8,3.9-19.4,4.8     C-125.8,488.8-117.3,488.3-114.5,492.2z M-79.4,501.2c-4.7-2.6-12.8-5.7-18.4-5.3c1.8-6.5,16.8-7,15.2-12.9     c-4.1-2-6.3-5.3-11.5-5.2c-0.2-5.5,3.2-7.9,7.9-10.7c3.4,0,12.2,0,14.8,1.1C-71.1,479.6-74.2,490.9-79.4,501.2z"/>
					</g>
				</svg>
				<svg id="t_g14" viewBox="-190 430 180 20">
					<!--					MJj21v1-Joker.svg-->
					<g>
						<path fill="#BF3718" d="M-162.8,450.3c1.8,1.4,4.8-0.1,5.3-0.3c3.1-1.1,9.2-4.5,12-6.3c1.5-1,3.4-3.1,5-5c3.6-3.9,16-19.1,19-21.3     c3.2-2.4,6.1-5.7,9.8-7.8l10.5-9.2c0,0,7.7-9.3,7.7-9.3c1.7-5,0.7-7.3-1.2-9.6c0,0-1.1-1.5-7-4.8c-5.9-3.3-10.3-5.1-13-5.3     l-3.4,0.4c-5.5,0.1-8.2,0.4-8.1,0.9c0.1,0.5,0.3,0.9,0.6,1.3c0.3,0.4,11,1.8,11,8.8l0.2,2.2c-0.8,3-1.3,8-9.5,16.8     c-9.1,9.8-28.9,32.4-32.3,36.6c-2.9,3.6-3.5-1.9-6,4.6C-162.8,444.6-163.8,449.5-162.8,450.3z"/>
						<path fill="#BF3718" d="M-43,489c0-0.7-1.8-9.7-1.8-9.7c-2-3.9-3.8-10.9-6-13.2c-2.2-2.3-6.5-10.2-9.8-12.9     c-3.2-2.8-6.7-5.2-10.4-7.4c-3.7-2.1-8.7-6.3-11.8-8.3l14.7-15.7c1.3-1.1,7.1-8.5,7.8-10.3c0.7-1.8,2.9-3.8,3.2-5.2     c0-0.7,2.5-3.1,1.7-4.8l-0.2-2c1.6-3.1,0.4-3.6-7.5-8.5c-7.9-4.9-9.6-5.6-11.2-6c-1.6-0.4-4.2-0.3-7.3-0.3c0.1,0.3,6.7,1.2,9,5.7     c0.9,1.8,1.2,4.9,0.2,5.7l-2.7,6.2c-0.3,0.2-3.8,5.9-6,9c-2.2,3.1-7.6,7.6-10.3,10.7l-7.3,9c0,0-10.2,11.5-15.6,18     c0.1,0-7.8,8.2-7.8,8.2l-7.7,6.7c-2,2.8-3.4,4.9-4.3,5.5c-0.9,0.6-3.3,4.2-3.3,4.2c-0.3,0.5-4.3,4.1-8.2,9.3l-5.3,2.5     c0,1-5.8,2.1-6.2,2.2c-0.3,0.1-0.8,0.6-1.3,1.3l1.2,4.1l0.2,7.6c0,1.6,0.5,3.2,1.6,4.8c1.1,1.6,4,1.7,8.7,0.2     c4.2-1.6,17.7-4.2,21.3-6.1c3.6-1.8,6.3-2.1,8.4-2.6c2.1-0.6,20.3-4.8,20.3-4.8c0.8-0.5,5.2-0.8,5.5-0.9c0.3-0.1,2.6-0.5,6-1.3     c3.4-0.7,5.6-0.6,8.1-0.8c2.5-0.1,3.8,0.1,4.6-0.1c1.9-0.7,4.3-1,4.8-0.9c0.4,0.1,0.5,2,1.1,3l0.8,4.6c0,0.7,0.3,1.6,0.8,2.6     c0,0,9.9,10.3,12.2,9c0,0,5.5-2.7,6.7-4.4h1.6l2-4.2L-43,489z M-85.3,476.3c-3.6-0.6-6.2-0.9-7.7-0.7c-1.5,0.1-17.6,2.8-17.6,2.8     c-3.1,0.2-12.1,2.1-12.5,2.2c-0.3,0.1-6.3,1.9-7.1,1.4l44.2-41.5l5.7,8.6l2,4.1c0.3,0.7,3.2,7.2,3.2,7.2l2,4.6     c0,0.7,1.7,4.9,1.7,4.9l1.8,7C-75.3,477.5-81.7,476.9-85.3,476.3z"/>
					</g>
				</svg>
				<svg id="t_g15" viewBox="-190 430 180 20">
					<!--					MJj19-Joker.svg-->
					<g>
						<path fill="#2A3B92" d="M-55.1,429.8c-4.6-0.7-9.2,1.2-13.8,1.2c0,4.3-2.9,8.5-1.1,12.6c-1.3,5.2,0.2,10.5-0.7,15.6     c1.1,0.2,4,0.2,4.8-0.7c5.9-1.4,13-3,17.3,3c2.9,0.5,2.6,2.8,4.8,4.1c1.5,2.5,2.6,3.9,1.1,6.9c-3.5,3.4-5.7,2.8-10.1,2.7     c-8.8-2-18.9-0.9-26.8,2.8c-3.3-0.5-6.8,0.2-9.6,1.8c-1.8,2.1-10.1,2.1-12.9,1.8c-2.6-1.4-9.9-8-8.8-11c2.6-1.4,6.6,0.2,7.9-1.8     c5-1.6,10.7-3.7,15.8-5.7c1.7-0.7,1.1-2.8,1.1-4.3c0.2-4.3,1.3-16.9,0.4-20.3c-2.9,1.4-8.1,3-10.3,5.5c-4.2,1.8-7.5-1.1-11.2-3     c0-1.2-3.7-2.5-4.6-2.8c-2-0.7-3.3,2.3-6.6,1.6c-1.1,0.4-2-0.5-3.1-0.4c-2,0-3.7,2-5.5,2.5c-2.4,2.7-6.1,5.5-5.7,9.6     c0.4,3,1.5,5.9,1.7,9.1c0.4,6.6-0.6,13.1,0.4,19.9c-1.7,6.2,4.4,12.3-1.1,17.9c-2.8,0.9-3.9-0.2-5.9-1.8c-1.5-3.7-3.3-7.3-5-11     c-4.4-4.3-1.3-10-1.5-14.9c0-7.3,1.8-14.8-0.2-22c-1.1-0.7-2.9-2.5-3.9-2.7c-2.8,2.1-5.1,4.8-7.2,7.6c-1.7-0.2-2.6,0.9-3.7,2     c-7.2,6.2-8.4-12.3-4.4-17.6c7-0.4,17.6-25.8,22.6-31.1c4.2-11.7,7.7-11.4-0.6-22.9c5-3,19.7,8.4,21.9,12.6     c0.4,2.7,2.2,3.9,0.9,6.8c-2.8,7.1-7.7,13-11.6,19.7c-2.9,2.1-9.2,10.3-11.6,13.5c0,2.7,4.4,5.7,5.5,8.2c0.4,0.4,1.3,0.9,1.5,1.4     c6.8-13.5,39.1-16.5,50.5-25.1c0.6-14.9,2.4-22.6-3.7-37c-1.1-2.7-1.3-6.6,1.8-8c1.7-0.9,3.3-1.2,5.3-1.2     c19.3,5.5,8.3,24.5,11.9,38.2c6.2,2.7,12.1-4.8,18.9,0c5.1,3.7,10.7,5.3,8.8,12.8C-42.4,432-51,428.4-55.1,429.8z M-82.8,381.1     c-4.6,2.1-1.8,5.7,0.2,9.1L-82.8,381.1z"/>
					</g>
				</svg>
				<svg id="t_g16" viewBox="-190 430 180 20">
					<!--					MJj20-Joker.svg-->
					<g>
						<path fill="#2A3B92" d="M-171.3,454.8c1.7,1.9,2.9,2.7,4.1,2.7c0.6,0,1.5-0.4,2.9-0.9c1.7-0.9,5.6-2.3,11.2-4.2     c2.9-0.8,12.4-4.6,22.3-8.7V429c-5.4,0.6-7.4,1.7-20.3,11.6c-8.1,6.1-10.6,7.8-15.5,10.1l-1-0.6c1.2-1.1,2.1-2.3,2.7-2.7     c5.6-6.1,7-7.8,8.9-11.8c-8.1-6.6-11-9.7-11-11.9c0-1.1,0.2-1.7,4.5-6.8c2.7-2.8,4.1-4.4,4.1-4.4c0.4-0.4,3.7-8.2,4.5-9.9     c1.2-3.4,1.7-5.9,1.7-9.3c0-4.7-0.4-5.9-2.3-8.3l0.4-0.9c1.2-0.4,2.1-0.8,2.7-0.8c1.9,0,6.2,2.1,9.1,4.4c3.1,2.5,5.2,6.1,5.2,9.1     c0,4.6-2.3,12.3-5.8,19c1.5,0.6,2.5,0.8,3.1,0.8c1,0,2.9-0.6,5.4-1.1c1.2-0.4,3.1-0.9,5.4-1.5l0.6-16.3c0.2-2.8,0.2-7.2,0.2-13.3     c0-6.4-1-8.5-6-11.6v-1.5c2.5-0.8,4.8-1.3,6.4-1.3c7,0,16.8,9.9,16.8,16.9c0,2.7,0,2.7-2.9,14c-2.5,9.7-4.6,24.1-4.6,32.4v1.5     l0.2,11c2.3,0.8,2.7,0.9,4.6,2.1c7.2,0,13.7-1.9,31.2-8.3c7-2.8,7.4-2.8,13.2-4.7v-1.5c0-4.7-0.8-6.3-4.6-10.2     c-16.1,14.2-24.4,19.2-32.3,19.2c-3.9,0-6.4-1.9-9.3-6.8l0.6-0.6c1.4,0.4,2.3,0.6,2.9,0.6c4.1,0,7.4-1.9,16.1-9.5     c-4.8-5.1-5.4-6.1-7.2-11.6l-3.3,0.2c-1.9,0.4-3.5,0.6-3.9,0.6c-0.6,0-1.5-0.2-2.9-0.4l-0.2-1.1c5.2-3,7-4.9,10.8-10.6     c8.3-12.5,13-21.8,13-25.8c0-2.3-1.2-3.8-5.8-7.8l-0.2-1.9c6.2-1.3,6.6-1.3,7.7-1.3c2.9,0,7.7,2.1,10.8,4.7     c2.7,2.3,3.5,4.4,3.5,9.1c4.8-1.1,7-1.7,8.1-2.1c0.6-0.2,1.5-0.8,3.1-1.3l2.7-1.3c0.8-0.4,1.7-0.6,2.9-0.6     c3.1,0,4.1,0.6,11.4,7.8c3.9,3.6,5,5.5,5,7.8c0,2.5-0.6,3-6.2,6.8c-1,0.4-4.3,3.4-7.5,6.6c-1.7,1.7-6.8,6.8-12.4,12.1     c2.5,0.9,4.6,1.9,5.4,2.3c6.8,2.7,9.3,5.1,9.3,9.3c0,0.9-0.2,2.1-0.4,3.4c4.6-1.3,7.4-2.1,8.7-2.1c4.1,0,4,2.2,8.3,5.6     c2.9,2.5,4.1,4.2,4.1,6.6c0,2.8-2.5,4.7-6.4,4.7c-1.2,0-4.6-0.1-6.8-0.1c-1.9,0-4.5,0.2-7.9,0.4c-0.2,7-0.4,12.3-0.4,15.7     c0,4.9,0.2,11.6,0.6,19.3c0.2,4.4,0.2,8.2,0.2,11.2c0,12.1-3.7,22.6-10.8,29.6c-1.9,1.9-3.3,2.8-4.1,2.8c-1.4,0-1.7-0.2-6.4-6.1     c-1.4-1.9-4.3-4.9-7.9-8.3l-7.9-7.6c-2.5-2.8-4.1-4.6-11.2-13.3l0.2-0.9c2.5,1.1,4.1,1.9,4.6,2.1c4.6,2.5,9.3,4.7,13.9,7     c3.7,1.7,6.4,2.7,7.9,2.7c3.7,0,5.4-7.2,5.4-23.7c0-6.4-0.2-11.9-1-27.7c-3.1,0.8-5.2,1.5-5.8,1.7c-4.1,1.7-8.1,3.4-12.4,5.3     c-0.6,0.2-3.5,1.3-6.4,2.5c9.1,4.6,12.4,8.3,12.4,13.8c0,3.4-2.7,6.8-5.6,6.8c-1.2,0-3.5-0.6-6.6-1.5c-3.7-1.3-6.4-1.7-15.1-1.9     v-0.8c5.2-3.4,6.4-4.6,8.7-7.6c-1-1.1-1.5-1.7-1.7-2.1l-1.9-4.4c0,0-0.6-1.3-1.4-2.5c-4.5-1.3-5.4-1.9-9.1-5.5     c-1.4,1.9-1.7,2.1-4.3,3l-0.2,32.4c0,17.3-1.9,26.7-5.2,26.7c-1,0-1.9-1.1-3.1-3.8c-4.1-8.2-5.4-13.8-5.4-21.6v-1.7l0.4-26.4     l-14.3,6.3c0.8,3.6,0.8,5.3,0.8,9.1c0,7-1,11-4.3,17.3s-6.4,9.3-9.3,9.3c-1.7,0-4.5-5.9-4.5-9.9c0-1.1,0-1.1,2.9-4.7     c1.4-1.7,2.5-6.8,2.5-10.6c0-2.7-0.4-4-1.7-7c-5.6-1.9-8.1-3.2-10.6-5.7c-2.3-2.3-4.1-4.9-4.1-6.4c0-0.9,0.8-2.5,1.9-4.2H-171.3z      M-81.5,411.7c-4.3-3.6-4.8-4.2-8.5-8.3c-2.9,3.8-3.5,4.4-6.6,7.2c4.5,2.1,5.2,2.7,9.7,6.3L-81.5,411.7z M-83.1,395.8     c6.2,2.3,7.2,2.8,11,6.1c5.8-7.8,7.2-10.1,8.5-14.8c-2.1,0.2-4.3,0.6-5,0.8c-4.8,0.9-8.1,1.7-8.5,1.7l-1.2-0.2L-83.1,395.8z"/>
					</g>
				</svg>
				<svg id="t_g17" viewBox="-190 430 180 20">
					<!--					MJj17-Joker.svg-->
					<g>
						<path fill="#BF3718" d="M-48.2,455.3c-12.4,0.2-23.2,2.5-35.4,4.8l1-3.2c-5.3,0-45.6,13.3-50.7,16.5c-7,1.2-23.5,13.7-32,11.2     c-0.7-2-2.1-3.4-3.3-5.2c-1.4-2.1-1.5-3.9-0.5-6.2c3.6-8,14.8-2,19.6-8.4c3.3-0.2,20.5-8.2,24.4-10c-0.9-4.1-3.4-9.1-3.1-13.3     c0.5-7.8,4.5-14.6,2.8-22.7c-6.9-3.2-8.8-11.6-8.1-18.7c6.9-8.9,13.9-13.9,22.3-20.8c2.2,0.2,2.4-3,3.4-4.4     c-0.7-2.8-3.8-3.6-2.6-7.5c8.1-1.6,20.6,3.6,24.2,11.7c4.6,10.7-19.1,17.2-24.9,21.5c-3.1,0.7-6,2-8.4,3.9     c3.1,3.9,7.6,6.4,10.7,10.5c1.4-0.2,2.2-3.4,4.5-4.3c8.3-3.7,10.3-11.6,20.3-10.8c4.5,0.4,5.8,2.3,9.6,3.6     c3.3,6.6,10,11.6,4.3,18.8c-0.5,4.4-6,2.8-6.9,5.9c-1.2,4.6-2.1,9.2-3.1,13.7c8.9-2.5,29.2-4.6,36.3,2.7c1.9,2,2.9,5.7,0.7,7.8     C-43.7,454.5-46.1,455.3-48.2,455.3z M-115.1,485.6c-5.3,5.5-13.4,11.2-13.1,20.1c-2.2,2.5-5.8,2.3-8.8,1.2     c-6.4-2.5-5.8-11-8.1-16.7c2.1-4.3,6-6.8,8.9-10.1c2.1-2.7,4.5-8.4,8.3-5.2l1.2,0.7c-0.2,2-2.8,6.8-1.2,8.2     c8.4-3.9,16.7-8.4,26-9.2C-101,478.1-113.5,482.5-115.1,485.6z M-94.8,428l-3.4,0.4c-2.2,2.5-6.4,3.2-8.8,5.5     c-3.1,3-4.5,9.6-1.9,13.3c14.8-4.4,7.7-5,14.6-17.4L-94.8,428z M-67.5,498.4c-2.9-4.8-7.2-8.5-10.5-13.2c1.9-1.8-0.2-6.8,4.1-5.9     c1.2-1.1-0.9-3.7-1.5-4.4c-2.9-3.7-5.8-2.8-10-3c2.1-2.8,4.6-3.2,8.1-4.1c21.1-6,31.8,24.2,17.2,33.1     C-63.2,501.2-64.9,500.5-67.5,498.4z"/>
					</g>
				</svg>
				<svg id="t_g18" viewBox="-190 430 180 20">
					<!--					MJj18-Joker.svg-->
					<g>
						<path fill="#038249" d="M-44.7,453.5c-4.1,0.7-13.5-1.2-18.1-2c-10.6-1.4-21.6-2.1-32.2-0.5c-0.9,18.5-1.1,37-1.9,55.4     c-0.7,2.8-1.1,5.5-3.2,7.5h-1.6v1.1c-10.6-5-5-57.6-8.7-60.1c-4.2-2.7-32,11.4-37.2,14.4c-3.7,2.3-9,3.2-13.5,3.6     c-6-5.2-5.8-3.7-5.3-11.7c0.9-1.6,1.8-3,3.9-3.4c0.9,1.1,6.7-0.4,8.5-0.5c13.3-6,26.9-11.6,40.9-16.3c0.7-4.1-6-7.5-8-11.6     c-3.5,1.1-11.9,11.7-19.5,14.2c-4.1-4.3-1.9-15.8,3.7-17.9c6.2-7.6,12.9-15.1,17-24c-6.5,1.6-12.4,5.9-19.1,7.1     c-5.3-0.2-9.4-2-12.6-6c-0.7-3.7-2.5-8.4,1.1-11.4c1.8-0.5,3.5-1.4,5.5-1.4c9.2-4.3,19.8-3.6,28.7-8.9c2.3-1.2,9.6-6.8,9.9-9.1     c-3.5-4.1-8.3-7.6-11.3-12.1v-2c5.1-0.4,18.1-0.4,22.7,1.4c1.9,0.9,2.3,2.7,3.4,4.3l1.2,0.5c2.5,5.2,1.1,11.2-2.7,15.5     c3.4-0.7,15.2-4.1,17.3-1.1c3.7,1.6,6.5,4.4,5.7,8.7c-5.5,2.5-12.7,6.4-18.8,4.6c0.4,1.6,4.2,3.6,5.8,4.3c3.7,4.1,3.2,7.8,3.4,13     c2.5,1.1,5.8-0.9,8.7,1.6c1.8,0.2,3,1.6,4.4,2.5c0.2,2.5,0.4,5,1.2,7.3c-3.2,5.5-24.3,19.2-30.6,20.6c0.2,0.5,0.4,1.2,0.7,1.6     c2.1-0.5,4.4-1.4,6.5-1.2c6.4-1.6,37.2-5.9,41.1-1.6c0.4,0.2,0.9,0.4,1.1,0.4c4.6,1.8,5.8,6,6.7,10.3     C-40.9,452.4-42.8,453.3-44.7,453.5z M-126.7,389.8c-3,0-16.8,1.6-18.1,3.9c3.7,0.4,6.9-0.4,10.3,0.4c2.1-1.4,6.7-0.7,8.1-3     C-126.2,390.7-125.8,389.8-126.7,389.8z M-103.2,397.7c-7.6,0.7-18.8,17.2-13.1,22.6c7.1-1.4,8.3-10.3,11.7-15.5     c1.6-2.5,3.7-5,4.4-8C-101.2,396.6-102.4,396.8-103.2,397.7z M-94.3,398.4c-9.4,8.7-11,17.9-13.5,29.9h2.8     c0.2-2.8,1.8-5.2,3.4-7.5c4.6-1.8,11-16.3,11.2-21.3C-91.7,398.9-92.9,398.4-94.3,398.4z M-90.6,423.6c-2.3,2.5-4.6,5-7.4,6.8     c-0.4,0.4-2.1,1.4-1.2,2c3.5,2.1,11.5-5.7,13.8-8C-86.5,421.7-88.8,422.9-90.6,423.6z"/>
					</g>
				</svg>
    </defs>s
		<g id="t_preview">
		<use x="0" y="0" height="100px" width="75px" xlink:href="#t_do1"/>
		<use x="75" y="0" height="100px" width="75px" xlink:href="#t_do2"/>
		<use x="150" y="0" height="100px" width="75px" xlink:href="#t_do3"/>
		<use x="225" y="0" height="100px" width="75px" xlink:href="#t_do4"/>
		<use x="300" y="0" height="100px" width="75px" xlink:href="#t_do5"/>
		<use x="375" y="0" height="100px" width="75px" xlink:href="#t_do6"/>
		<use x="450" y="0" height="100px" width="75px" xlink:href="#t_do7"/>
		<use x="525" y="0" height="100px" width="75px" xlink:href="#t_do8"/>
		<use x="600" y="0" height="100px" width="75px" xlink:href="#t_do9"/>
		<use x="0" y="100" height="100px" width="75px" xlink:href="#t_ch1"/>
		<use x="75" y="100" height="100px" width="75px" xlink:href="#t_ch2"/>
		<use x="150" y="100" height="100px" width="75px" xlink:href="#t_ch3"/>
		<use x="225" y="100" height="100px" width="75px" xlink:href="#t_ch4"/>
		<use x="300" y="100" height="100px" width="75px" xlink:href="#t_ch5"/>
		<use x="375" y="100" height="100px" width="75px" xlink:href="#t_ch6"/>
		<use x="450" y="100" height="100px" width="75px" xlink:href="#t_ch7"/>
		<use x="525" y="100" height="100px" width="75px" xlink:href="#t_ch8"/>
		<use x="600" y="100" height="100px" width="75px" xlink:href="#t_ch9"/>
		<use x="0" y="200" height="100px" width="75px" xlink:href="#t_ba1"/>
		<use x="75" y="200" height="100px" width="75px" xlink:href="#t_ba2"/>
		<use x="150" y="200" height="100px" width="75px" xlink:href="#t_ba3"/>
		<use x="225" y="200" height="100px" width="75px" xlink:href="#t_ba4"/>
		<use x="300" y="200" height="100px" width="75px" xlink:href="#t_ba5"/>
		<use x="375" y="200" height="100px" width="75px" xlink:href="#t_ba6"/>
		<use x="450" y="200" height="100px" width="75px" xlink:href="#t_ba7"/>
		<use x="525" y="200" height="100px" width="75px" xlink:href="#t_ba8"/>
		<use x="600" y="200" height="100px" width="75px" xlink:href="#t_ba9"/>
		<use x="0" y="300" height="100px" width="75px" xlink:href="#t_wi_north"/>
		<use x="75" y="300" height="100px" width="75px" xlink:href="#t_wi_west"/>
		<use x="150" y="300" height="100px" width="75px" xlink:href="#t_wi_south"/>
		<use x="225" y="300" height="100px" width="75px" xlink:href="#t_wi_east"/>
		<use x="375" y="300" height="100px" width="75px" xlink:href="#t_fl_plum"/>
		<use x="450" y="300" height="100px" width="75px" xlink:href="#t_fl_orchid"/>
		<use x="525" y="300" height="100px" width="75px" xlink:href="#t_fl_chrysanthemum"/>
		<use x="600" y="300" height="100px" width="75px" xlink:href="#t_fl_bamboo"/>
		<use x="0" y="400" height="100px" width="75px" xlink:href="#t_se_spring"/>
		<use x="75" y="400" height="100px" width="75px" xlink:href="#t_se_summer"/>
		<use x="150" y="400" height="100px" width="75px" xlink:href="#t_se_fall"/>
		<use x="225" y="400" height="100px" width="75px" xlink:href="#t_se_winter"/>
		<use x="450" y="400" height="100px" width="75px" xlink:href="#t_dr_red"/>
		<use x="525" y="400" height="100px" width="75px" xlink:href="#t_dr_green"/>
		<use x="600" y="400" height="100px" width="75px" xlink:href="#t_dr_white"/>

		<use x="0" y="500" height="100px" width="75px" xlink:href="#t_g1"/>
		<use x="75" y="500" height="100px" width="75px" xlink:href="#t_g2"/>
		<use x="150" y="500" height="100px" width="75px" xlink:href="#t_g3"/>
		<use x="225" y="500" height="100px" width="75px" xlink:href="#t_g4"/>
		<use x="300" y="500" height="100px" width="75px" xlink:href="#t_g5"/>
		<use x="375" y="500" height="100px" width="75px" xlink:href="#t_g6"/>
		<use x="450" y="500" height="100px" width="75px" xlink:href="#t_g7"/>
		<use x="525" y="500" height="100px" width="75px" xlink:href="#t_g8"/>
		<use x="600" y="500" height="100px" width="75px" xlink:href="#t_g9"/>
		<use x="0" y="600" height="100px" width="75px" xlink:href="#t_g10"/>
		<use x="75" y="600" height="100px" width="75px" xlink:href="#t_g11"/>
		<use x="150" y="600" height="100px" width="75px" xlink:href="#t_g12"/>
		<use x="225" y="600" height="100px" width="75px" xlink:href="#t_g13"/>
		<use x="300" y="600" height="100px" width="75px" xlink:href="#t_g14"/>
		<use x="375" y="600" height="100px" width="75px" xlink:href="#t_g15"/>
		<use x="450" y="600" height="100px" width="75px" xlink:href="#t_g16"/>
		<use x="525" y="600" height="100px" width="75px" xlink:href="#t_g17"/>
		<use x="600" y="600" height="100px" width="75px" xlink:href="#t_g18"/>
	</g>
</svg>

