<svg xmlns="http://www.w3.org/2000/svg" xmlns:xlink="http://www.w3.org/1999/xlink" width="675" height="800">
    <defs>
				<image id="recri_black_image" style="filter: invert(100%);" xlink:href="./recri/recri.png" x="0" y="0" width="7128" height="216"/>
        <svg id="t_do1" viewBox="0 0 170 215" x="0" y="0" height="100" width="75"><use xlink:href="#recri_black_image"/></svg>
        <svg id="t_do2" viewBox="170 0 170 215" x="0" y="0" height="100" width="75"><use xlink:href="#recri_black_image"/></svg>
        <svg id="t_do3" viewBox="340 0 170 215" x="0" y="0" height="100" width="75"><use xlink:href="#recri_black_image"/></svg>
        <svg id="t_do4" viewBox="510 0 170 215" x="0" y="0" height="100" width="75"><use xlink:href="#recri_black_image"/></svg>
        <svg id="t_do5" viewBox="680 0 170 215" x="0" y="0" height="100" width="75"><use xlink:href="#recri_black_image"/></svg>
        <svg id="t_do6" viewBox="850 0 170 215" x="0" y="0" height="100" width="75"><use xlink:href="#recri_black_image"/></svg>
        <svg id="t_do7" viewBox="1020 0 170 215" x="0" y="0" height="100" width="75"><use xlink:href="#recri_black_image"/></svg>
        <svg id="t_do8" viewBox="1190 0 170 215" x="0" y="0" height="100" width="75"><use xlink:href="#recri_black_image"/></svg>
        <svg id="t_do9" viewBox="1360 0 170 215" x="0" y="0" height="100" width="75"><use xlink:href="#recri_black_image"/></svg>
        <svg id="t_wi_north" viewBox="1530 0 170 215" x="0" y="0" height="100" width="75"><use xlink:href="#recri_black_image"/></svg>
        <svg id="t_wi_west" viewBox="1700 0 170 215" x="0" y="0" height="100" width="75"><use xlink:href="#recri_black_image"/></svg>
        <svg id="t_wi_south" viewBox="1870 0 170 215" x="0" y="0" height="100" width="75"><use xlink:href="#recri_black_image"/></svg>
        <svg id="t_wi_east" viewBox="2040 0 170 215" x="0" y="0" height="100" width="75"><use xlink:href="#recri_black_image"/></svg>
        <svg id="t_dr_red" viewBox="2210 0 170 215" x="0" y="0" height="100" width="75"><use xlink:href="#recri_black_image"/></svg>
        <svg id="t_dr_green" viewBox="2380 0 170 215" x="0" y="0" height="100" width="75"><use xlink:href="#recri_black_image"/></svg>
        <svg id="t_ch1" viewBox="2550 0 170 215" x="0" y="0" height="100" width="75"><use xlink:href="#recri_black_image"/></svg>
        <svg id="t_ch2" viewBox="2720 0 170 215" x="0" y="0" height="100" width="75"><use xlink:href="#recri_black_image"/></svg>
        <svg id="t_ch3" viewBox="2890 0 170 215" x="0" y="0" height="100" width="75"><use xlink:href="#recri_black_image"/></svg>
        <svg id="t_ch4" viewBox="3060 0 170 215" x="0" y="0" height="100" width="75"><use xlink:href="#recri_black_image"/></svg>
        <svg id="t_ch5" viewBox="3230 0 170 215" x="0" y="0" height="100" width="75"><use xlink:href="#recri_black_image"/></svg>
        <svg id="t_ch6" viewBox="3400 0 170 215" x="0" y="0" height="100" width="75"><use xlink:href="#recri_black_image"/></svg>
        <svg id="t_ch7" viewBox="3570 0 170 215" x="0" y="0" height="100" width="75"><use xlink:href="#recri_black_image"/></svg>
        <svg id="t_ch8" viewBox="3740 0 170 215" x="0" y="0" height="100" width="75"><use xlink:href="#recri_black_image"/></svg>
        <svg id="t_ch9" viewBox="3910 0 170 215" x="0" y="0" height="100" width="75"><use xlink:href="#recri_black_image"/></svg>
        <svg id="t_ba1" viewBox="4070 0 170 215" x="0" y="0" height="100" width="75"><use xlink:href="#recri_black_image"/></svg>
        <svg id="t_ba2" viewBox="4240 0 170 215" x="0" y="0" height="100" width="75"><use xlink:href="#recri_black_image"/></svg>
        <svg id="t_ba3" viewBox="4410 0 170 215" x="0" y="0" height="100" width="75"><use xlink:href="#recri_black_image"/></svg>
        <svg id="t_ba4" viewBox="4580 0 170 215" x="0" y="0" height="100" width="75"><use xlink:href="#recri_black_image"/></svg>
        <svg id="t_ba5" viewBox="4750 0 170 215" x="0" y="0" height="100" width="75"><use xlink:href="#recri_black_image"/></svg>
        <svg id="t_ba6" viewBox="4920 0 170 215" x="0" y="0" height="100" width="75"><use xlink:href="#recri_black_image"/></svg>
        <svg id="t_ba7" viewBox="5090 0 170 215" x="0" y="0" height="100" width="75"><use xlink:href="#recri_black_image"/></svg>
        <svg id="t_ba8" viewBox="5260 0 170 215" x="0" y="0" height="100" width="75"><use xlink:href="#recri_black_image"/></svg>
        <svg id="t_ba9" viewBox="5430 0 170 215" x="0" y="0" height="100" width="75"><use xlink:href="#recri_black_image"/></svg>
        <svg id="t_se_spring" viewBox="5600 0 170 215" x="0" y="0" height="100" width="75"><use xlink:href="#recri_black_image"/></svg>
        <svg id="t_se_summer" viewBox="5770 0 170 215" x="0" y="0" height="100" width="75"><use xlink:href="#recri_black_image"/></svg>
        <svg id="t_se_fall" viewBox="5940 0 170 215" x="0" y="0" height="100" width="75"><use xlink:href="#recri_black_image"/></svg>
        <svg id="t_se_winter" viewBox="6110 0 170 215" x="0" y="0" height="100" width="75"><use xlink:href="#recri_black_image"/></svg>
        <svg id="t_dr_white" viewBox="6280 0 170 215" x="0" y="0" height="100" width="75"><use xlink:href="#recri_black_image"/></svg>
        <svg id="t_fl_bamboo" viewBox="6450 0 170 215" x="0" y="0" height="100" width="75"><use xlink:href="#recri_black_image"/></svg>
        <svg id="t_fl_chrysanthemum" viewBox="6620 0 170 215" x="0" y="0" height="100" width="75"><use xlink:href="#recri_black_image"/></svg>
        <svg id="t_fl_orchid" viewBox="6790 0 170 215" x="0" y="0" height="100" width="75"><use xlink:href="#recri_black_image"/></svg>
        <svg id="t_fl_plum" viewBox="6960 0 170 215" x="0" y="0" height="100" width="75"><use xlink:href="#recri_black_image"/></svg>

			<svg id="t_g1" viewBox="-190 430 180 20">
				<!-- MJj1-Joker.svg -->
				<path fill="#fff"
							d="M-141.3,365.4c25.8-2.7,36.9-4,48.3-6.1c10.7-1.9,18.2-3.5,25.6-3.6c0.3,0.1,5,0.2,6.2,0.5c2.4,0.5,4,1.2,5.7,2.8c1.5,1.4,3.2,2.9,2.8,4.2c-1,2.9-5,2.3-7.8,2.8c-14.8,1.4-5.3-2.6-41.6,3.6c1.6,1.1,2.4,0.2,3.9,2.1c1,1.4,0.1,2.7-1.5,3.9c-1.7,1.3-3.7,1.9-7.5,3.4c-4.2,1.6-7.2,4-11.9,6.1c-4.4,2-7.6,4.1-8.5,6.6c-0.5,1.6-0.7,3-0.3,4.1c0,0.4,0.2,0.8,0.7,1.3c1.5-1.4,3.4-2.8,5.6-4c4.8-2.8,10.5-5.3,17-7.6c6.5-2.1,12.4-2.6,17.5-1.5c4.3,0.4,7.7,1.9,10.3,4.6c2.6,2.5,3.8,4.7,3.6,6.4c1.9,11.5,2.3,20.9,1.5,28.2c-0.8,7.2-3.2,12.9-7.4,17.1c-0.5,0.6-1.5,0.9-2.9,1.1c-1.4-0.1-3.4-0.7-5.9-1.7c-4.5-2.4-8.5-5-12.1-7.9c-1.4-0.2-2.9-0.3-4.4-0.3c-1.4,0-3.4,0.1-5.9,0.4c-2.2,0.1-5.5,0.8-9.8,1.8c-0.5,0.1-1.1,0.1-1.8,0.2c0,0.9-0.7,1.7-2,2.3c-2.1,0.8-4.2,0.4-6.4-1.2c-2.5-2.6-4.3-6.9-5.4-12.9c-0.9-6-1.1-10.9-0.8-14.6c0.3-3.7,0.5-6.6,0.7-8.9c0-2.1,1.1-5.9,3.5-9.3c1.8-2.6,5-5.7,9.6-8.8c4.6-3.2,7.4-5.5,8.5-7.2c0.3-0.6,0.3-1.3-0.2-2c-7.1,0.9-14,2-20.8,3.1c-2.4,0.3-12.1,2.2-16.2,1c-3.7-1.1-5.6-2.5-7.4-4.9c-0.7-1,0.3-2.8,5-3.5C-152.8,366.5-142.9,365.6-141.3,365.4z M-87.5,429.5c1.6-8.6,2.4-16.1,2.3-22.7c0-6.4-0.9-10.3-2.8-11.6c-0.5-1.6-4.4-1.7-11.4-0.1c-10.9,2.3-20.6,4.8-27.2,7.5c0,1-0.4,2.3-0.5,3.8c-0.1,1.2,0,3.6,0.1,4.8c1.8-0.9,5.6-1.8,10.1-2.64.5-0.8,7.1-1.2,9.8-1.8c1.3-0.3,9-2,10.2-1.6c1.2,0.4,4.3,1.9,5.4,3.5c1,1.4,1.5,2.5,1.1,3c-1.6,2-12,4.5-13.6,4.8c-4.7,1.1,8.3-4.7,0.3-3.2c-0.4,0.1-19.1,4.4-22.8,4.3c0,0.1,0.3,2.9,0.9,4.1c0.3,0.9,1,2.4,2,5c2.6-0.8,5.1-1.4,7.5-1.7c2.3-0.4,4.2-0.6,5.7-0.6c1.6,0,2.6-0.1,2.9-0.3c2.2-0.6,6.6,0,9.2,1.8c2.6,1.6,4.1,3,4.4,4.1v0.4c1.3,0.3,0.8,0.5,2.6,0.6C-89.3,431.1-88.1,430.6-87.5,429.5z"/>
				<path fill="#f0a023"
							d="M-62.6,502.6c-13.5-4.2-16.6-20.5-32.9-20.9c-2.8,3-5.9,5.8-7.9,9.3c6.3-0.4,29-7.4,22.7,1.6c-3,2.8-5.3,2.5-7.5,3.9c-4.7,2.5-9.8,2.9-15.2,2.1c-1.1,0.2-3.6,1.4-4.6,3c0.5,1.9,1.6,3.7,3.8,4.8c3,0,18.7-6.3,21-8c4,0.1,9.2,2.5,10.5,5.8c1.6,3.8-1.9,7.5-3.1,11.1c1.2,2,0,4.2-1.2,5.9c-4.6,1.9-9.8,0.4-14.8,1c-2.6,0.3-4.6,1.9-7.1,2.1l-0.8,2c-10.2-1.5-13.9-24-10.4-26.4c2.2-1.4,4.7-2.5,7-3.7c-0.4-0.9-1.6-1.4-2.3-2.1c-2.2,1-6.6,5.8-8.5,7.6c-5.3,5.2-6.7,3-12,5.6c0,7.4-0.4,20.1-2.7,21.4l0,0c-1,0.1-2.1-0.4-2.7-1.3c-4.3-6.1-10.5-11.1-15.9-16.5c4.6,1,8.6,4.2,13.5,3.6c1.6-0.5,1.6-11.4,1.8-16.2c-4.3,2.9-9.6,5.6-13.7,8.7c-1.8,1.3-3,2.2-5,2.4c-1.6-0.9-1.2-2.1-2.2-3.1c-0.4-3-3.2-6.4,0.9-8.4c2.3,1.3,4,0.3,5.9-1c4.3-2.6,9.4-4.2,13.9-6.8l0.2-8.3c-1.9,1.3-4.2,2.6-6.1,3.4c-2.1,1.2-5.3,2.5-7.8,2.2c-4.4-0.7-7.8-4.1-10.1-6.9c0-1.5-3.4-2.6-0.1-4c7.9,3.8,16.6-1.9,22.6-5.8c4.3-2.8,2.6-7.7,3.1-11.5c0-2.2-3.8-4.7-5.1-7.4c3.1-1.2,12.8,1.2,15.1,4.7c0.7,2.6-1.1,6.3-1.3,9.2l2.2-0.1c1.2,0.2,1.8,0.7,3.3,1.6c0.9,1.1,1.8,1.8,1.2,3.6c-0.7,2.5-5.5,3.5-7.5,5.3c-0.5,3.1-1.5,6-1.3,9.1c2.6-1.2,7-3.3,8.8-5.3l-0.6,1.6c-1.6,7.3-10.8,8.5-10.4,16.8c0.1,1.9-0.4,3.7-0.1,5.6c7.5-4.4,19.9-18.6,24.2-25.5c-1.1-0.8-0.8-1.4-1.6-2.7c-4.2,1.4-9.1,0.8-10.9-3.3c-1.2-2.7,9-3.5,9.5-4.4c1.7-3.2-5.4-6.6-5.5-11.9c2.8,0.1,2.6,2.3,4.3,2.5c3,0.5,6.1-0.7,8.5,1.5c1.5,1.2,0.7,2.2,1.6,3.4c1.9-0.8,4-0.9,6.1-1.4c4-1.1,6.5-7.7,5-10.6c-0.8-1.8-2.7-4-5.1-4.1c0.4-2.5,3.2-1.2,5.3-1.1c2.2,0.9,4.6,1.6,6.7,2.7c3.8,1.9-0.8,7.3,2.6,9.1c2.8-0.2,6,0.9,6.9,3.2c3.2,8.7-7.7,1.8-14,10.4c-2.3,1.8-4.3,4.1-7.4,4.7c8.2,2.5,15.8,11.4,24.9,15.1c5.4,2.1,12,4.3,17.1,6.7c2.8,1.8,2.6,3.8,0.4,3.8C-51.3,504.5-58.7,503.9-62.6,502.6z M-101.2,511.3c1.2,2.1,0.3,4.8,1.9,6.7c10.4-1.2,16.8-1.7,17-11.8C-88.7,507.7-94.9,509.8-101.2,511.3z M-95.5,466.5c-1.6,1.8-1.2,4.6-2.2,6.7c1.5,0.8,3.4,0.9,5,1.5c2.4-1.2,3.8-3.8,4-5.9C-90.9,467.8-93,466.6-95.5,466.5z"/>
			</svg>
			<svg id="t_g2" viewBox="-190 400 123 240">
				<!-- MJj13-Joker.svg -->
				<path fill="#f0a023"
							d="m -113.5,493.2 c -1.9,0 -3.5,-1 -5.8,-3.5 h -0.8 c -1.6,1.5 -2,2.5 -2,4 0,4.6 4,11.1 7,11.1 1.2,0 2.4,-1.1 4.6,-4.3 2.7,-4.1 4,-5.4 8.8,-9.6 l -0.3,-0.5 c -4,1.1 -5.7,1.5 -7.4,2.1 -1.6,0.4 -3.1,0.7 -4.1,0.7 z m 23.2,-5.5 c -2.6,0 -4.4,0.5 -8.2,2.1 v 0.4 c 5,1 6.1,1.4 7.5,3.7 l -5.7,2.2 0.3,0.6 c 6.9,0.2 8.6,0.3 11,1 3.2,0.8 5.7,1.2 6.6,1.2 1.2,0 2.2,-1 2.2,-2.1 0,-4.7 -6.6,-9.1 -13.7,-9.1 z m -55.3,13.4 c -2,2.4 -2.4,3.3 -2.4,5.8 0,4.1 1.8,7.1 4.2,7.1 3.1,0 5.7,-6 5.7,-13.6 0,-3.1 -0.3,-4 -1.6,-5.8 h -0.7 c -3.6,4.3 -4.4,5.4 -5.2,6.5 z m -33.2,5.3 c -1.8,0.5 -2.6,0.7 -5.5,0.9 l -0.5,0.8 c 3.2,2.6 5.3,4 6.7,4 0.8,0 2,-0.3 3.5,-1 2,-1 4,-1.8 5.7,-2.3 3.9,-1.2 6.6,-2.1 7.3,-2.3 l 1.5,-0.8 c -0.3,2.5 -0.8,3.6 -2,3.6 -0.3,0 -0.7,-0.1 -1.2,-0.3 l -0.5,0.4 c 1.6,2.7 1.9,3.3 2.7,4.9 2,4.4 2,4.4 2.3,4.8 0.7,1.1 1.5,1.8 2.2,1.8 1.2,0 3.8,-3.5 4.7,-6.5 0.9,-3.3 0.9,-3.3 1.1,-16.9 l 0.4,-25 c 0.3,-7.7 0.9,-13.7 1.9,-16.1 0.7,-1.9 0.9,-3.2 0.9,-4 0,-1.3 -0.9,-2.7 -3.5,-5.2 5.3,-1.4 6.9,-2.3 6.9,-3.4 0,-1.9 -4.4,-4.8 -7.3,-4.8 -1.3,0 -3.1,0.4 -5.1,1.2 -9.4,3.4 -15.2,4.9 -19.4,4.9 -0.9,0 -2.3,-0.1 -4.2,-0.4 l -0.4,0.5 c 0.3,2.3 4.2,5.8 8.1,7.1 -3.6,4.8 -5,10.3 -5.1,20.5 v 10 c -6.3,2 -7.4,2.2 -9.6,2.2 -0.7,0 -1.3,-0.1 -2.4,-0.4 l -0.4,0.4 c 0.3,1.9 0.7,2.5 1.9,3.7 1.9,1.9 4.6,3.4 5.9,3.4 1.3,0 3.8,-1.3 11.8,-6.4 5.4,-3.2 8.3,-4.6 11.6,-5.3 v 11 c -0.1,3.8 -0.4,7.1 -1.1,12.8 -2.3,-1.9 -3.6,-2.5 -5.1,-2.5 -0.5,0 -1.3,0.2 -2.4,0.5 l 0.4,-2.1 c 5.7,-2.1 6.3,-2.4 6.3,-3.4 0,-0.9 -2.2,-1.8 -4.3,-1.8 -0.4,0 -1.1,0.1 -1.9,0.2 l 0.7,-2.5 c 0.8,-0.5 1.6,-0.9 2,-1 1.1,-0.4 1.9,-0.8 2.2,-1 0.4,-0.2 0.5,-0.5 0.5,-0.8 0,-1.2 -2.2,-2.6 -3.9,-2.6 -1.5,0 -2.7,0.4 -7,2.6 -4,2.1 -5.3,2.5 -8.9,3.5 l -0.3,0.6 c 1.3,1.6 2.7,2.4 4.6,2.4 0.7,0 1.3,0 2.3,-0.1 l -0.3,1.6 c -2.8,1.2 -3.8,1.4 -8.3,1.8 l -0.3,0.7 c 3.4,2.3 4,2.5 8.6,2.9 l -0.4,2 c -1.8,0.7 -2.8,1.1 -3.4,1.2 z m 20.2,-37.2 c -2.6,-1.1 -3.8,-1.4 -5.1,-1.4 -1.9,0 -4,0.9 -7.3,3.1 l 0.1,-5.2 c 5.3,-1.4 6.6,-1.9 12.4,-4.1 z m -0.6,-19.9 c 1.1,1.3 1.2,1.9 1.2,3.5 0,1.1 -0.1,3.3 -0.3,5.2 -1.3,-0.6 -2.2,-0.8 -3,-0.8 -1.9,0 -3.9,0.7 -9.2,3 l -0.5,-2.4 c -0.1,-0.5 -0.1,-1 -0.1,-1.2 0,-2.9 4,-5.4 11.9,-7.3 z m -1.4,27.2 c -2.4,0 -4.8,0.9 -10.6,3.7 l 0.3,-4.3 c 2.3,-0.7 3.9,-1.1 4.6,-1.3 l 6.3,-2.2 c 0.1,-0.1 0.7,-0.2 1.3,-0.4 l -0.3,4.7 c -0.8,-0.1 -1.3,-0.2 -1.6,-0.2 z m 28.1,26 c 4.4,11.8 13.2,17 27.9,17 12.4,0 20.7,-2.2 20.7,-5.3 0,-1.5 -0.9,-2.3 -10.9,-9.1 -2.3,-1.9 -4.6,-3.7 -6.9,-5.7 -0.5,-0.3 -1.9,-1.2 -3.9,-2.4 l -0.5,0.1 c 0.4,1.3 0.7,2.1 0.8,2.4 0.4,1 1.9,3.8 4,8 0.3,0.5 0.4,1 0.4,1.2 0,1.4 -2.4,2.3 -6.7,2.3 -9.8,0 -15.2,-2.6 -18.2,-9.1 -2.2,-4.5 -2.4,-4.9 -3.4,-5.8 -1.5,-1.3 -3.2,-2.1 -5,-2.1 -1.2,0 -1.9,0.2 -3,1.2 l 0.1,0.4 c 2.5,1.9 2.8,2.3 4.6,6.9 z m 26.2,-15.7 c 3.6,0.1 5.4,-0.5 5.4,-1.9 0,-2.4 -5.7,-5.9 -9.4,-5.9 -1.1,0 -3,0.4 -5.3,1.1 -2.7,0.9 -2.7,0.9 -16.3,4.4 -10.2,2.6 -10.2,2.6 -12.7,2.6 -1.9,0 -2.8,-0.2 -4.4,-1.1 l -0.8,0.1 c -0.1,0.7 -0.1,1.1 -0.1,1.5 0,3 4,5.9 8.3,5.9 1.9,0 2.6,-0.2 9.2,-2.3 9.9,-3 18,-4.3 26.1,-4.4 z m -34.6,-33.3 c 1.9,1.5 5.5,3.2 7.1,3.2 0.9,0 2.4,-0.4 4.3,-1.2 l -2.4,5.9 c -2.8,0.8 -4.7,1.3 -5.7,1.6 -1.2,0.5 -2.2,1.2 -3.8,2.7 -2.2,-0.5 -2.6,-0.8 -4.4,-2.4 h -0.7 c -0.9,1.3 -1.3,2.1 -1.3,2.7 0,0.5 0.4,1.5 0.8,2.7 0.5,1.1 0.9,2.3 1.1,3.6 1.2,6.6 1.2,6.6 2.7,8.2 0.9,1 2.3,1.8 3.2,1.8 0.7,0 1.2,-0.5 1.8,-1.8 1.2,0.1 2.2,0.3 2.7,0.4 1.2,0.2 2,0.3 2.6,0.3 0.5,0 1.8,-0.2 3.1,-0.7 7.7,-2.6 16.2,-4.6 19.7,-4.6 1.3,0 2.8,0.2 4.4,0.5 1.1,0.3 2,0.4 2.6,0.4 2.2,0 3.2,-1 7.5,-6.6 0.7,-0.9 2.2,-2.5 3.9,-4.4 1.5,-1.5 2.3,-3 2.3,-4.1 0,-2.4 -8.6,-8.1 -12.3,-8.1 -2.6,0 -5,0.6 -11.8,2.6 -3.8,1.1 -4.2,1.2 -8.2,2.3 l 2.7,-5.9 c 6.3,-1.5 7.8,-2 14.1,-3.4 3.2,-0.7 4.7,-1.4 4.7,-2.5 0,-2.2 -4.3,-4.6 -8.1,-4.6 -1.8,0 -4.6,0.8 -8.3,2.2 1.9,-5.1 2.8,-7.9 2.8,-8.6 0,-1.1 -0.9,-2.3 -2.2,-3 -2.8,-1.5 -7.7,-2.7 -11.2,-2.7 -0.9,0 -1.8,0.1 -3.2,0.7 l -0.1,0.8 c 3.1,2.4 4,4.1 4,7 0,2.2 -0.4,5.4 -1.1,8.7 -7.7,2.1 -9.3,2.3 -15.3,2.3 l -0.4,0.5 c 0.7,1.9 1.3,2.6 2.4,3.5 z m 2.5,23.9 c -0.7,-3.5 -1.1,-5.9 -1.1,-7.3 0,-2.4 1.1,-3.5 3.2,-3.5 0.4,0 1.1,0 1.6,0.1 0.9,4.5 1.1,5.3 2.6,9 z m 31.8,-16.9 c 2.2,0 3.6,0.8 3.6,2 0,1.5 -1.1,3.7 -5,9.7 -1.9,-0.3 -2.8,-0.4 -4,-0.4 h -1.6 c 1.5,-3.8 2.3,-5.8 2.3,-5.9 0,-1 -0.7,-2 -2.4,-3.8 3.6,-1.2 5.2,-1.6 7.1,-1.6 z m -20.1,10.9 c 0.1,-2.1 0.3,-3.5 0.3,-3.6 0,-0.6 0,-1.4 -0.3,-2.7 l 6.3,-1.1 c 0.8,1.4 1.1,2.1 1.1,2.9 0,1.1 -0.4,2.1 -1.9,5.9 l -5.7,1.6 c 0.1,-1.3 0.1,-2.3 0.2,-3 z"/>
				<path fill="#f0a023"
							d="m -97.4,529.8 c -5.9,-4.3 -12.3,-6.9 -17,-6.9 -10.9,0 -30.4,4.4 -42.3,9.7 l -0.3,1 c 2.7,2.5 5.8,4 8.5,4 0.4,0 1.3,-0.1 2.6,-0.3 0.4,-0.1 1.3,-0.2 2.6,-0.4 2.8,2.5 3.5,4.3 3.5,8.9 v 1.8 c -6.1,1.5 -7.1,1.6 -13.7,2.2 l -0.4,0.5 c 1.2,4.4 5.9,8.3 10.2,8.3 1.2,0 2.7,-0.1 4.3,-0.4 -4.4,6.8 -6.3,8.6 -12.1,11.9 -1.2,0.6 -1.5,0.8 -3.6,1 l -0.4,1 c 3.8,5.1 6.6,7.2 9.7,7.2 0.7,0 2.4,-0.4 4.8,-1.3 0.1,11.9 0.7,17.8 1.8,21.5 0.9,2.9 2.2,4.6 3.4,4.6 0.7,0 1.8,-1 2.8,-2.8 2.7,-4.6 3.1,-7.4 4.4,-27 3.4,-0.6 4,-0.8 6.5,-1 5.9,-0.5 5.9,-0.5 6.1,-0.5 1.3,-0.3 1.9,-0.9 1.9,-2.1 0,-4.4 -3.5,-8 -8.2,-8 -1.8,0 -3.9,0.3 -6.5,0.9 l -0.1,-2.6 c 3.9,-3.2 5.3,-4.2 10,-6.9 3.4,-1.8 4.6,-3.1 4.6,-4.5 0,-2.2 -6.6,-5.6 -10.9,-5.6 -0.5,0 -1.3,0.1 -2.4,0.3 0.4,-2.5 0.5,-3 0.8,-3.8 0.3,-0.9 0.4,-1.5 0.4,-1.8 0,-1.4 -1.9,-2.8 -6.5,-4.6 7.4,-2 12.3,-2.8 16.7,-2.8 4.4,0 6.1,1.5 6.1,5.6 v 6 c 0,6.5 0.1,15.1 0.4,27 0.3,10.7 0.4,16.9 0.4,19.4 0,5.1 0,5.3 -1.3,5.3 -3.4,0 -9,-1.2 -17.8,-3.9 l -0.7,0.8 c 2.4,3.1 3.5,4.1 8.9,7.6 2.6,1.6 5.1,3.3 5.3,3.6 l 4,3.3 c 5.3,4.3 5.7,4.5 7.3,4.5 2.6,0 7,-8.7 7,-13.8 0,-1.7 -0.1,-4.4 -0.5,-7.6 -0.7,-5.7 -0.9,-12.6 -0.9,-21.3 0,-17.7 0.8,-25.6 3.2,-31 0.5,-1.3 0.8,-2.5 0.8,-3.1 -0.3,-1.2 -1.2,-2.3 -3.4,-3.9 z m -57.3,9 c 0,-1.7 -1.5,-3.2 -4.7,-4.6 -2.8,-1.3 -5.5,-1.9 -7.7,-1.9 -1.5,0 -2.8,0.3 -5.4,1.1 l 0.1,0.8 c 4.8,2.7 5.3,3.8 5.3,16.6 0,11.9 -1.6,29.6 -3.2,35.5 -1.8,6.7 -3.3,11.1 -7.6,15 -0.5,0.5 -2.6,2.9 -2.6,2.9 16.8,-4.5 21.9,-12.9 23.1,-39.2 0.8,-14.5 0.9,-15.9 1.3,-18.8 0,-0.4 0.5,-2.6 1.2,-5.9 0.2,-0.6 0.2,-1.2 0.2,-1.5 z"/>
			</svg>
			<svg id="t_g3" viewBox="-190 430 190 20">
				<!-- MJj12-Joker.svg -->
				<path fill="#f0a023"
							d="M-153.5,440.7c2.3-1,4.4-1.4,6.1-1.4c2.7,0,6.8,1.4,9.9,3.4c1.9,1.2,3.2,3.2,4.2,7.1c3.4-2.4,4-2.8,7.4-5c0.6-8.1,0.8-12.5,0.8-19.4c0-3.2-1.1-5-3-5c-0.2,0-0.2,0-4.7,0.7c-1,0.2-2.1,0.1-3.1-0.1c0,0,0,0,0,0l-0.2-0.6c1.7-6.1,6.8-9.9,12.9-9.9s11.6,5.9,11.6,12.7l-1.3,13.7c6.1-3.4,9.3-4.8,12.1-4.8c6.8,0,19.5,7.5,19.5,11.5c0,1.4-0.8,4-2.5,6.7c-4.2,7.1-6.8,19.2-6.8,32.9c0,8.1,1.9,12.7,6.6,16c5.7,4,13.5,6.3,21.6,6.3c10.8,0,18.8-2.6,18.8-5.7c0-2-1.9-6.9-6.6-16l1.1,0.2c2.7,2,4.4,3.4,5.1,4c4,4,6.7,7.1,10.6,11c2.1,2.5,2.8,5.6,2.3,9.2c-0.7,5.2-9.7,9.3-28.9,9.3c-15.9,0-24.5-2.6-32.1-9.1c-7.4-6.3-9.9-13.5-9.9-26.7c0-9.5,0.8-18.6,2.7-29.5c0.4-1.6,0.6-3.2,0.6-4.4c0-2.2-1.7-4.2-3.4-4.2c-2.3,0-4.7,1.6-11,7.7c-0.6,8.7-0.6,11.7-0.6,17.8l0.8,27.7c0,8.9-5.3,25-8.2,25c-1.5,0-3-2.2-5.1-6.3c-0.4-1.2-0.4-1.2-6.1-16c-1.5-4.4-0.6-3.3-3.3-8.1l-0.7-1.8c3.4,2.6,6.3,5,7.4,5.9c1.3,1,2.3,1.8,3,1.8c1.1,0,1.3-2.8,1.3-14.1c0-3.6-0.2-12.3-0.6-21.8c-5.7,3.2-7.6,4.6-10.2,7.1c-3,21.4-5.7,29.9-12.3,37.8c-4,4.6-7.4,7.3-9.5,7.3c-1.7,0-2.3-1.4-2.7-7.5c-0.2-1.6-1.1-4.4-2.5-7.1c-4.2-8.9-6.8-16.4-6.8-20.4c0-1.4,1.1-3.4,2.7-4.8c0.6-0.8,7.4-5.9,20.1-15.5c0.2-1,0.2-1.8,0.2-2.6c0-2-1.1-3.4-2.5-3.4c-1.3,0-2.7,0.4-4.7,1c-1.7,0.6-3.4,1-4.4,1c-2.7,0-5.3-1-8.9-3.4c-1.9-1.2-2.1-1.6-2.5-3.8l0.2-1c3.4-0.6,5.5-1.2,6.3-1.6L-153.5,440.7z M-146.1,474.3c-2.5,1-4.7,1.6-6.1,1.8c-10.4,1.8-11,2-12.1,3.6c-0.6,0.4-0.8,1.2-0.8,1.8c0,2,5.5,11.5,8,14.1c1.1,1,1.9,1.4,2.5,1.4c3.2,0,6.1-7.9,8.2-20.8L-146.1,474.3z M-141.8,380.3c1.5,0.2,2.7,0.2,3.6,0.2c2.5,0,5.3-0.8,9.7-2.6c5.7-2.4,5.7-2.4,20.9-12.3c2.5-1.6,5.1-2.4,7.4-2.4c5.7,0,15.4,6.3,15.4,10.3c0,1.2-1.1,3-2.5,5c-5.9,7.5-10.2,19.6-10.2,30.1c0,5.3,2.3,10.3,6.1,12.9c2.7,2,7.2,3,14.6,3c4.9,0,7.2-1,7.2-3c0-1.2-0.2-2.6-1.1-4.2l0.6-0.2c1.3,0.2,1.9,0.4,2.1,0.6l5.7,3.2c10.2,2.6,10.2,2.6,11.8,4.2c0.8,0.8,1.5,1.8,1.5,2.6c0,4.6-10.2,7.9-23.5,7.9c-22.2,0-35.3-10.7-35.3-28.3c0-6.1,0-6.1,3.2-19.6c0.2-0.8,0.2-1.6,0.2-2c0-1-0.4-1.6-1.5-1.6c-0.8,0-2.1,0.6-4.4,2.4c-5.3,4.4-10.4,6.5-14.4,6.5c-3.4,0-7.4-1.8-12.9-5.7c-4-3-4.4-3.6-4.9-6.1L-141.8,380.3z M-88.6,416.9c1.5-1.2,2.2-2,2.4-2l2.7-1.6c0.4-0.4,0.8-0.8,0.8-1c0-0.4,0-0.6-3.4-1.6c-3.4-1-5.5-3.6-5.5-6.7c0-2.6,1.5-4.6,7.2-10.5c2.5-2.6,4.2-5.5,4.2-7.5c0-1.4-0.4-3.2-1.3-5.3l0.8-0.6c1.3-0.2,2.3-0.4,3-0.4c5.5,0,12.5,4.4,12.5,7.7c0,2.4-0.8,3.2-12.7,12.1c-1.5,1-2.1,1.8-2.1,2.4c0,0.8,0.8,1.6,1.5,1.4l12.7-1.4c0.4,0,3.8,2.2,5.1,3.2c1.5,1.6,2.1,3,2.1,4.6c0,3.2-2.3,4.4-8.7,4.4c-4.9,0-5.7,0.2-12.7,2l-3,0.8c-0.4,0-3.4,0.8-6.6,1.4L-88.6,416.9z M-85.4,487.4C-85.4,487.4-85.4,487.4-85.4,487.4c0.7-0.8,1.5-1.5,2.4-1.9c0.6-0.3,1.4-0.7,2.3-1.2c2.7-1.4,5.5-2.8,8.2-4c2.1-1.2,3.6-2.2,3.6-2.8c0-0.4-0.4-0.6-3-1.2c-2.5-0.6-6.6-6.1-6.6-9.3c0-1.6,0.8-4,2.5-6.9c3.4-6.7,5.1-10.9,5.1-12.3c0-0.4,0-0.8-0.2-0.8c-2.3-1.4-2.3-1.4-3.4-2.8l0.4-1c2.1-1,4-1.4,5.3-1.4c3.6,0,8,3.8,8,7.1c0,2.2-3,8.7-6.3,14.5c-0.6,1-1.1,1.8-1.1,2.2c0,0.6,0.8,1.2,1.7,1.2c0.2,0,2.1-0.2,4.7-0.6h1.9c6.8,0,12.9,4.6,12.9,9.9c0,3-0.6,3.2-15.2,7.1l-16.3,3.2c-0.9,0.2-2.4,0.5-4.5,0.9C-83.7,487.5-84.5,487.5-85.4,487.4L-85.4,487.4z"/>
			</svg>
			<svg id="t_g4" viewBox="-190 430 180 20">
				<!-- MJj2-Joker for Dots.svg -->
				<path fill="#fff"
							d="M-101.9,379.1c-4.7,7.8-7.7,15.3-10.3,23.9c-0.9,2.8-10.7,13.4-14.1,10.6c-1.3-1.9-6.2-10.2-8.8-10.2c-6.9,4.7-8.4,1.9-15.4,9.5c-1.5,1.5-3.4,2.3-5.8,2.1c-3.2-4.7-5.4-14-1.7-18.9c1.1-1.5,1.9-2.8,2.4-4.5c6.6,0,9.6-3.6,13.7-7.4c0.6-2.8,4.9-5.5,2.4-8.3c-1.3-1.3-0.9-2.5,0.9-3.6c7.7-1.7,13.9,8.1,17.4,12.7c2.8,3.6-1.5,7.4-0.4,10.8c-1.1,0.2,1.3,0.6,1.5,0.6c5.1-2.8,13.3-18.2,17.1-23.5c-0.6-1.1,1.7-2.7,2.6-3.4C-99.3,372.5-100,375.9-101.9,379.1z M-139.6,466c-0.4,4.4-1.5,36.9-0.6,39.4c-0.9,1.9-2.4,4.2-5.1,3.8c-1.3-1.5-2.6-3-4.7-4.2c-6.2-8.7-4.5-14.2-3.9-24.4l0.4-3.4c0.6-13.4,5.4-26.9,1.3-40.1c1.5-3,1.7-8,7.1-7.4c1.1,9.5,5.6,18.4,7.1,27.8C-139.4,460.3-137.9,463.3-139.6,466z M-86.9,480.4c5.8,7,1.1,5.3-1.9,8c-4.7-0.4-16.3,0.9-21,1.9c-1.3-1.1-3,0.2-4.3,0.4c-0.9,2.5,1.9,3.8-0.4,7c-2.8,0-5.6-0.4-8.4-1.3c-3-4.9-5.8-9.8-9.2-14.6c-0.2-6.8-7.3-12.7-3.6-19.7c1.7-0.6,2.4-1.5,4.3-0.9c1.1,1.1,2.4,2.7,4.1,3c11.4-5.3,36.9-17.2,47.6-6.1c1.9,2.1,0.2,5.1,2.1,6.8C-75.5,471.5-87.3,474.1-86.9,480.4z M-83.5,442.9c-3.9,0-6.4,2.5-10.5,2.1c-2.6,1.1-6.2,0.8-8.1,2.8c-16.5,8-37.5-9.5-23.4-12.3c5.4-0.9,12,0,16.9-1.3c4.3-1.1,8.4-2.5,12.6-3.2c4.7-5.3,10.3,0,12.9,3.8C-83,437.4-78.8,441-83.5,442.9z M-56.5,386.7c-5.8-1.1-10.1,1.1-15.6,1.9c-0.4,0.6-0.9,1.3-0.4,1.9c0.6,1.3,5.8,4.5,7.3,6.8c4.5,6.1,0.4,13.4-7.5,15.1c1.9,2.5,13.3,6.4,17.1,8c2.4,2.3,3.6,5.1,5.1,7.8c1.1,14.6,7.3,84.3-4.9,93.9c-0.6,2.8-4.7,2.3-7.1,2.5c-3.6-5.3-10.1-8.3-15.9-11.9c-2.1-5.7-16.9-11-12.4-18.2c3.2-0.6,2.8,3.6,5.4,3c1.5,1.3,14.6,3.2,16.9,2.8c7.7-4.4,2.8-63.2-1.5-71.6c-3.6-1.7-2.6-7.2-7.7-5.9c-1.5-1.5-3.9-1.7-5.8-2.8c-4.9,2.1-18.6,5.5-24.2,7c-5.8,1.3-12-0.4-17.8,0.6l-4.5-0.9c-1.5-11.7,36.2-10.4,42.4-19.1c3.2-0.9,6-5.7,8.4-7.8c-0.9-1.5-1.7-6.1-4.1-6.6c-2.8,2.5-6.6,3.8-8.6,6.8c-2.6,0-5.8,3.6-7.5,0.2c-2.6-1.5-1.9-4.9-3-7.2c1.1-1.9,1.1-3.2,1.3-5.1c0.6-6.1,13.1-11.7,11.6-21.2c-0.6-3.6-5.6-3-7.3-7.4c3.6-0.9,2.4-2.3,7.1-2.1c11.1,0.6,17.6,13.3,16.9,21.4c13.9-1.1,14.6-6.6,30-0.6c3.9,1.5,3.2,3,3.2,6.1C-42.5,388.2-51.8,386.1-56.5,386.7z M-99.8,467.1c-2.6,2.1-14.4,2.1-18,2.1c-4.5,0-5.4,2.8-5.1,4.4c3.4,1.5,2.6,5.3,4.7,7.8c4.7,1.7,6.6-2.8,11.6-2.1c4.7-3,9-7,10.1-12.1H-99.8z"/>
			</svg>
			<svg id="t_g5" viewBox="-190 430 180 20">
				<!-- MJj3-Joker for Sticks.svg -->
				<path fill="#c070c0"
							d="M-59.4,430.8c-4.1,0.6-7.1-1.5-11.1-1.3c1.4-4.4,5.1-2.2,6.7-4.4c4.3-2,13-3.7,13.8-8.7c-6.3-3.3-17.8-1.7-24.9-1.7c-4.7,1.5-15.2-1.1-17.6,3.5c0.4,0.4,1.4,1.1,1.6,1.7l1,0.7c0.4,2.2,0.6,4.4,0,6.6c-2.2-0.2-16.4,10.1-16.8,12.2c2.2,0.7,7.9,1.7,9.1-0.9c6.1-5,10.1-11.8,15.4-17.3c2,2.4,10.1,2.4,9.9,5.5l1.4,1.7c0,6.1-27.1,23-31.6,30.2c6.3,0.7,12.4-0.9,18.2-2.4c-0.6-1.5-1.2-2.9-1.6-4.4c-3.2,2.4,0.2-1.8,0.6-2.2l1.2-1.3c9.3,2.4,14,2.8,18.4,11.6c0.2,3.3,1.2,9.8-3,11.6c-2,0.2-4.9,0.2-6.9-0.6c-4.7-4.4-4-8.7-11.5-4.1c0.8,3.1,0.8,6.6-0.4,9.8c1,13.6-0.8,27.3-2.2,40.7c-0.6,0.9-0.8,1.8-1.2,2.8c-0.6,1.5-2.4,1.1-4.1,0.7c-5.3-1.5-20.7-18.4-24.9-23.2c-6.1,4.4-9.3,8.5-12.8,14.6c-1.6,2.8-3.6,2.2-6.7,1.8c-4.9-5.9-10.5-12.7-7.3-20.5c1.8-4.2,0.4-9.2,7.1-8.8c0.4,0.4,1,0.7,1.6,0.9c1.8,2.4,4.5,4.6,6.5,7c7.7-2.4,15.4-4.4,23.3-6.5l-0.2,3.1c-1.8,0.4-3,1.7-4.9,2.4c-1.4,1.7-4.3,2.8-2.4,5.2c2.4,0.9,10.7,0.7,13.4,0.2c2-0.6,3.2-23.2-2.6-26.2c-4.3,0.6-19,9-21.9,6.8c-4.9-3.9-3.2-10.5-1.2-15.3c3.8-2.6,16-6.5,17-11.2c-4.3-0.7-7.9,1.3-11.9,2c-1.2,1.1-3.4,0.9-4.3,2.8c-3,0.9-3.2-0.9-5.1-2.4c1-3.9-1.2-7.7,0.2-11.6c3-3.3,7.9-4.6,11.1-7.6c4.9-4.4,9.9-8.8,13.6-14.2c-3.4-0.7-8.9,2.4-13.2,2.4c-4.9,0-14.4,2-18.2,5c-1.8,1.5-2.6,3.7-4.3,5.3c-1.8,10.1-6.7,20.3-9.7,30.2l-2.4,0.7c-1.6-0.7-2.2-1.5-4.3-1.1c-2.6-5.2-7.1-10.7-6.5-16.8c0.6-4.4,5.1-5.7,7.1-9.2c1.4-2.4,5.3-12.7,5.3-15.3c0-4.2-7.7-1.5-6.9-7.6c1.4-0.6,5.5-0.2,7.1,0.2c1.8,0.7,7.5,3.5,11.5,4.8c0,1.7,3.8-0.6,4.7-0.9c2.8-3.5,22.7-9.2,27.7-9.4c0.8-1.3,2-2.6,2.2-4.2c-7.1-0.6-23.9-10-26.3-16.2c4.5-0.6,6.7-0.2,11.3,0l2.2-0.4c5.1,0.2,9.9-1.5,15-2.4c3-3.7,2.6-9.8,1.2-14c-2.6-1.8-5.7-3.3-8.7-4.6c-0.2-1.1-0.4-2.2-1-2.9c1.2-2.4,3.2-4.6,6.3-5.3c7.9,3.1,19.8,6.1,20.9,15.1c0.2,2.2-0.2,4.8,1.2,6.8c8.9,2,11.3-2.8,17.2,6.8c1.2,7.2-14.8,8.3-19.8,10.7c-0.4,2.8-1.8,5.3-1.8,8.5c8.3,0.9,16.6-0.9,24.9-0.9c3.4-1.7,19.4,2.4,22.9,4.1c5.1,2.6,15,15.2,4.7,18.9C-42,430.3-52.9,429.8-59.4,430.8z M-56.2,503.4c-0.6-0.9-2-0.6-2.8-0.6l-1.2-0.7c-9.3-5.7-16-12.9-24.9-19.2c1-4.2,5.3-0.9,7.5-2.4c8.7,0.4,21.7,0.7,26.3,8.5C-47.9,494.7-45.6,504.3-56.2,503.4z"/>
			</svg>
			<svg id="t_g6" viewBox="-190 430 180 20">
				<!-- MJj4-Joker for Characters.svg -->
				<path fill="#f0a023"
							d="M-35.9,474c-7.5,12.7-8.7,27.3-19.8,38.5c-2.6,2.8-8.5,7.6-12.6,7.7c-1-0.9-2-1.8-3.6-2.2c-0.4-3.1-3.2-5.2-4.9-7.9c-2.6-1.5-10.7-10.7-13.2-13.3c9.1,4.6,13.8,3.3,23.1,5c5.5-4.4,16-30.2,14-36.5c-1.2-4.1-27.5-1.5-31.6,0.4c3.8,6.1,15.8,6.5,14.4,19.4c0.6,2.2-0.4,4.2-1.6,5.9c-5.5,1.5-6.9-1.7-10.1-4.6c-12.2-0.2-40.7,12.5-43.7,12.5c-3.4-4.6-13.4-6.1-7.3-13.5c5.5,1.1,12.6-2.4,17.2-5c1.6-2.2,2.4-5.3,1.2-7.9l-27.5,9.8c2.2,10.1,4.9,18.3,2.2,28.8c-3.8-2-5.7-4.8-7.9-8.3c-5.5-3.9-2.4-10-4.5-15.1c-2.4,0.4-4.5,1.5-6.7,1.7c-4.1,1.7-11.3-6.6-8.1-8.8c3.6-0.9,8.1-1.7,11.3-3.5c0-2.8-0.4-6.8,3.6-7.7c3.4-2.6,22.7-11.4,23.1-13.3c-8.7-3.9-13.8-23-17-31c0.4-2-1-5.7,1.8-6.6c1.2-1.3,3-1.7,4.7-1.3l1,1.7c4.7-2.4,8.9-5.5,13.8-7.2c-2.8-3.3-3-8.1-4.9-10c-2.6,1.1-17.4,8.8-19,8.1c-2.2-0.9-3-3.1-5.3-4.4c0.8-1.3-4.5-5.5-2.4-9.2c4.5-1.5,3.8-1.7,7.9,0.6c4.3,0,13.4-1.7,17.2-3.3c4.1-1.8-8.3-21.9-7.7-25.4c4.5,0.6,9.3,1.5,13.2,4.1c3.4,2.2,11.7,11.2,10.7,15.3c1,2.4,14.6-0.7,16.8-1.3c2.4-4.6,3.2-10,4.9-14.7c1.4-4.1-3.8-8.8-7.3-10.7c0.2-4.2,15.2-1.1,17.8,0.2c10.3,5.3,7.5,12.9,2.4,20.3c2.4,0.9,16.2-4.6,20.9-3.5c1.6,2.9,10.5,6.8,9.3,11.2c-4.1,0-35,4.2-36.7,5.5c-3.2,0.6-7.7,8.8-10.9,10.9c6.9-0.7,15.4-2.6,22.3-2c6.3,0.4,19.8,7.9,17.8,14.6c-1.8,6.3-14.8,28.2-21.1,30.8c-1.6,1.5-5.1,0.6-7.1-0.2l-0.4-2c-2.8,0.6-3.4,2.6-7.7,2.6c-1.6,0-3.4,0.2-4.9,1.1c-1,5.7-0.6,2.8-1,9.2c2.2-0.2,4.5-0.7,6.7-1.3c10.7-2.4,27.9-5.2,38.9-3.9c3.8-2.4,12.6,0.4,15.6,3.1c2,1.8,5.9,5.5,6.3,8.1C-31.6,469-34.1,470.7-35.9,474z M-117.1,456.5c-5.5,0.2-29.2,12-32.8,15.7c2.6,3.7,30-7.7,35.2-9.6c1.2-2.2,0.6-4.8,0.6-7.2L-117.1,456.5z M-117.3,417.4c-4.3,0.9-15.2,2.2-17.2,5.5c0.2,2.8-0.8,5.7,0.6,8.3c2.8,5.5,4.1,9.8,3.8,15.9c5.3-2.8,10.3-6.8,14.2-10.7c-3.8-0.2-15.4-2-17.2-5.3c5.1-2.9,15.2-4.8,18.6-7.7C-111.8,421.1-116.5,419.6-117.3,417.4z M-105.8,389.8c-2.2,0.2-7.7,2.4-9.7,3.3c-0.4,4.2-5.9,13.5-5.3,16.6c8.9-0.6,18.8-12.7,21.1-19.9H-105.8z M-92,468.1c-2.6,0-5.3,0.6-7.9,0.9c-0.2,2.9-0.2,5.9-1,9c4.5-0.2,9.5-0.2,13.8-1.3C-89,474.2-90.4,471.1-92,468.1z M-100.1,415c2.6,1.1,1.4,3.3,4.3,4.4c1.4,0.6,2.8,0.7,4.3,1.5c1.6,0.2,2.8,2,4.3,2.6c2.8,6.3-7.9,7.7-10.9,10.9l-0.6,4.8c5.3-0.2,3.4-0.7,7.9,1.1c2.6,1.7,1.4,1.1,3.4,1.8c0-1.1,0-8.5,0.4-9.6c0.8,2.8,0.4,1.8,3,2.4c1.4-3.1,10.7-21.4,6.9-22.9C-85.7,408.8-92,414.3-100.1,415z"/>
			</svg>
			<svg id="t_g7" viewBox="-210 430 190 140">
				<!-- MJj7v1-Joker.svg -->
				<path fill="#fff"
							d="m -92.548442,430 -0.20117,0.80078 c 1.1,4.5 5.00078,10.39922 7.80078,12.19922 1.4,1 2.30078,1.80039 2.30078,2.40039 -0.2,1.2 -4.2,5.90039 -9,10.40039 l 0.19922,1 c 1.9,-0.6 3.39961,-1.20039 4.09961,-1.40039 l 8.5,-3.5 c 1.2,-0.4 2.80039,-0.79922 4.90039,-1.19922 6.4,-0.6 6.40078,-0.59961 7.80078,-1.59961 1.6,-1 2.59961,-2.90039 2.59961,-4.90039 0,-6.3 -5.60117,-10.00039 -15.20117,-10.40039 -3.5,0 -5.79922,-0.40078 -6.69922,-0.80078 l -4.80078,-2.39844 c -0.2,-0.2 -1.09883,-0.40156 -2.29883,-0.60156 z m -67.201178,8.10156 c 2.9,14.5 -10.39844,37.79961 -18.39844,49.09961 -3.6,4.9 -5.80078,5.49883 -11.30078,7.79883 -1.9,4.2 1.50078,7.30078 4.30078,9.30078 l 2.59961,2 c 3.9,2.9 16.6,-9.1 21.5,-10 -2.7,6 -9.20117,20.4 -16.20117,22 l -2.19922,0.19922 c -8.7,4 -0.90039,12.40039 4.09961,14.90039 l 2.40039,-0.69922 c 5.3,-4.5 15.2,-13.50078 21.5,-15.30078 -3.6,5.3 -5.79961,6.90117 -9.59961,12.20117 6.7,-4.4 11.30039,-8.90156 16.90039,-13.60156 3.1,-2.5 3.9,5.10117 7,2.70117 5.8,-10.1 3.19922,-19.4 -4.30078,-26.5 -1.7,-0.4 -3.40078,-0.90117 -4.80078,-2.20117 2.2,-3.8 6.20078,-10.4 10.80078,-16.5 1.8,-2.5 3.40078,-4.69961 4.30078,-5.59961 1.5,-3 -1.00039,-11.99961 -4.40039,-11.09961 -16.7,-2.2 -1.50117,-18.89922 -24.20117,-18.69922 z m 39.80078,4.69922 -0.5,0.59961 c 1.6,4.7 2.30078,7.4 2.30078,8 0,3.3 -5.10156,11.40039 -7.10156,11.40039 -0.7,0 -1.09922,-0.39961 -1.19922,-1.59961 h -0.69922 c -0.9,2.4 -1.60156,4.29922 -2.10156,5.69922 -0.9,2.2 -1.39844,4.10078 -1.39844,5.30078 0,2.2 2.09844,5.09961 3.89844,5.09961 1.4,0 3.50156,-1.4 5.60156,-3.5 3.5,-3.5 6.7,-6.5 9.5,-9 6.5,-5.7 8.59961,-8.40078 8.59961,-10.80078 0,-2.5 -4.60039,-8.19883 -7.90039,-9.79883 -1.9,-1 -4.39961,-1.40039 -7.59961,-1.40039 z m -24.25976,13.02344 c 0.81347,0.085 0.85937,1.95117 0.35937,5.57617 -2,8.2 -6.59922,14.90117 -10.19922,22.20117 -1.2,2.5 -9.90078,3.09883 -12.80078,3.79883 5.3,-10.5 13.50078,-20.49883 20.30078,-29.79883 1.0875,-1.2375 1.85176,-1.82832 2.33985,-1.77734 z M -98.849222,460.5 c -0.4,0 -1.10039,0.4 -1.900398,1 l -0.5,0.80078 c 0.5,2.4 0.70117,3.3 0.70117,4.5 0,5.9 -10.90117,22.69961 -19.20117,29.59961 -3.2,2.5 -4.19922,3.90117 -4.19922,5.70117 0,0.8 1.40078,5.9 2.30078,8 0.9,2.3 2.79922,4.09961 4.19922,4.09961 0.9,0 2.1,-0.59961 3,-1.59961 7.3,-7.1 9.49922,-8.70156 17.699228,-12.60156 4.2,-2.2 16.90039,-6.5 18.90039,-6.5 0.9,0 1.59961,1.00117 1.59961,2.20117 0,1 -0.39844,1.79961 -1.39844,3.09961 l 0.19922,1 c 1.9,0.6 1.90039,0.6 4.40039,2 2.6,1.4 2.59883,1.40039 2.79883,1.40039 0.7,0 1.8,-0.60039 2.5,-1.40039 1.2,-1.6 3.20117,-8.59961 3.20117,-11.59961 0,-5.5 -4.6,-10.60078 -18.5,-20.80078 l -0.5,0.59961 c 0.4,3.9 0.39883,3.90156 2.79883,10.60156 0.4,0.6 1.10078,2.5 1.80078,4.5 -7.2,1.4 -15.89961,3.89961 -23.099618,7.09961 l -2.30078,0.40039 c 0,-0.4 1.39961,-2.00117 4.09961,-4.70117 11.300008,-11.4 11.300788,-11.39922 11.300788,-13.69922 0,-4.5 -6.50039,-13.70117 -9.90039,-13.70117 z m -50.099618,34.30078 c 1.9,2.4 2.20039,5.59922 2.40039,8.69922 0,2.1 -8.89961,4.80156 -10.59961,5.10156 2.7,-4.5 5.59922,-9.10078 8.19922,-13.80078 z m 88.500008,16.5 c -4.4,0 -7.89961,1 -14.59961,4.5 l -0.40039,1 c 12.4,4.3 13.59961,4.90039 13.59961,5.90039 0,0.8 -0.70039,1.6 -1.90039,2.5 V 526 c 1.2,0.2 1.6,0.40039 3,0.40039 11.1,0 12.70117,-0.6 12.70117,-3.5 0,-6.5 -5.50039,-11.59961 -12.40039,-11.59961 z m -36.19922,1.59961 c -2.6,4.1 -3.500008,7.20078 -3.500008,12.30078 0,7.2 4.100008,13.90039 8.500008,13.90039 1.2,0 2.29883,-2.00117 2.79883,-5.70117 1.1,-6.5 1.90078,-7.8 7.80078,-14.5 l -0.40039,-0.59961 c -3.9,1.6 -5.29922,2 -7.19922,2 -2.7,0 -4.10039,-1.49922 -6.90039,-7.19922 z m -20.101568,9.59961 -0.39844,0.80078 c 2.3,12.3 4.09883,17.79922 7.79883,23.69922 5.6,8.8 16.600398,14.90039 27.400398,14.90039 9.5,0 20.60078,-2.89922 25.80078,-6.69922 1.4,-1 2.5,-2.90117 2.5,-4.70117 -0.1,-2.1 -1.50156,-4.7 -3.60156,-6.5 -1.9,-1.6 -3.9,-3.29961 -6,-5.09961 -1.1,-0.8 -4.39922,-4.49922 -9.69922,-10.19922 -0.5,-0.8 -2.29961,-2.5 -4.09961,-4.5 l -0.70117,0.19922 c 6.5,17 7.90039,20.99961 7.90039,23.09961 0,1.2 -0.39883,1.40078 -1.79883,1.80078 -7.1,1.6 -7.40078,1.59961 -11.30078,1.59961 -12.4,0 -20.999228,-5.69961 -25.199228,-16.59961 l -2.60156,-6.90039 c -0.4,-0.8 -0.69844,-1.59922 -1.39844,-2.19922 -1.1,-1.4 -2.10156,-2.00117 -4.60156,-2.70117 z m -13.09961,3.60156 -0.69922,0.79883 c 0.7,3.7 1.09961,5.50078 1.09961,7.80078 0,2.4 -0.39961,4.5 -1.09961,6.5 -1.6,4.5 -1.59961,4.49961 -1.59961,7.09961 0,6.7 4.09883,13.90039 7.79883,13.90039 2.1,0 4.19961,-4.5 4.09961,-9 -0.5,-12.9 -0.5,-12.90117 -0.5,-13.70117 0,-2.9 0.20039,-5.29883 0.90039,-10.79883 l -0.79883,0.0996 c -0.7,0.8 -0.90117,1 -1.20117,2 -0.7,1.2 -0.70039,1.19922 -0.90039,1.19922 0,0 -0.19922,7.8e-4 -0.19922,-0.19922 l -0.90039,-1.19922 L -125.24962,529 c -0.7,-0.6 -1.89961,-1.59844 -4.59961,-2.89844 z m -18.38086,0.81446 c -0.25299,0.005 -0.49375,0.0324 -0.71875,0.084 -1.2,0.5 -2.60039,0.5 -3.90039,0.5 l 3.90039,4.70117 c -0.5,6.5 4.1,8.39922 7,14.69922 h 1.5 c 7.72032,-10.77031 -2.63709,-20.08704 -7.78125,-19.98437 z m -14.51953,6.58398 -2.69922,0.20117 c 1.2,3.3 -1.4,7.79922 -0.5,12.19922 0.3,2.7 2.89922,11.10078 6.69922,9.30078 1.7,-0.7 2.40117,-17.10117 2.70117,-20.20117 -2,-0.9 -2.10078,0.40039 -3.30078,0.90039 -0.9,-1.1 -1.90039,-1.80039 -2.90039,-2.40039 z m -18.69922,6.80078 c -2.4,8 -6.10078,18.7 1.69922,28 1.2,-2.9 2.40117,-6.19961 3.20117,-9.59961 1.4,-5.1 1.19922,-10.49961 2.19922,-15.59961 -4.5,2.3 -3.49961,-2.80078 -7.09961,-2.80078 z"/>
			</svg>
			<svg id="t_g8" viewBox="-190 430 180 20">
				<!-- MJj6-Joker.svg -->
				<path fill="#f0a023"
							d="M-34.9,511.3c-6.1,1.5-6.5-0.8-11.6-2.1c-10.7-3-22.9-4.2-34-3.9c-18.2,0.6-49.6,4.1-65.4,11.8c-5.7,2.8-9.7,3.7-16,2.8c-1.2-3.5-13.8-12.4-3-14.2l45.6-7.9c5.9-1.1,11.5-6.5,12.8-11.4c-4.9,0.9-13.8,5-18.4,3.1c-4.7-2-13.2-6.8-14-11.8c1.8-2,29.2-4.8,35.2-6.6c0.4-1.8-0.2-9.8-3.4-9.8c-12.8,0.2-14.8,2.6-27.7-1.8c-0.8-1.5-0.8-3.3,0-5c8.5-2.9,17.2-5.7,26.3-6.8c5.1-0.7,10.3-0.2,15-1.8c6.9,0.7,17.8-1.7,21.7,5c4.5,7.6-8.1,7.2-13.6,7.6c-1.6,3.3-3.8,6.8-4.7,10.5c3.8,0,7.3-1.7,11.1-1.5c5.1,2.6,7.1,7,8.9,11.6c-2.4,6.1-18.6,0.7-20.9,5.5c-1.4,3.1-2,6.5-2.6,10c3,0.4,6.5-0.4,9.5-1.1c13.8-2,26.9-0.9,40.5,2.6c6.9,1.7,8.5,4.5,11.8,9.9C-31.8,508.4-32.6,510.1-34.9,511.3z M-70.9,433.8c-4.3,5.3-10.5,1.5-14.2,6.3c-9.3,0.9-17.8,1.7-26.9,4.6c-4.9,1.7-9.1,0.6-13.8,1.7c-10.7-4.2-7.9-31-19-41.1c-1-2.9-2.2-5.9-1-8.8c9.3-4.6,28.4-13.1,32.4-21.9c1.6-3.5-10.1-8.3-0.8-11.4c11.5-3.9,14.6,6.6,20.7,12.5c0.2,2.8-2.4,5.2-2.2,7.2c12.4-4.4,25.5-0.7,35.2,6.5c3.8,2.8,9.3,9.8,7.7,14.2C-54.1,407.3-68.1,430.5-70.9,433.8z M-137.4,399.9l9.9,7.9c1.6-5.2,6.5-8.8,8.3-13.8C-125.2,395.5-131.9,396.9-137.4,399.9z M-103.7,396c-3.8-0.9-7.7-2-11.7-1.7c-3,4.2-5.5,10.5-6.7,15.5c7.3-1.8,14.4-4.1,21.5-6.1c5.7-4.6,18.6,1.7,18.4,8.3c-9.9,8.7-20.9,4.8-29,10.9c-3,1.5-3.4-0.6-3-2.4c-2-1.1-4.9-2-6.7-3.5c-0.4-0.4-1-1.1-1.6-1.1c-1.2,5.7,0.2,12.5,1.2,18.3c9.9-2.6,31.6-9.4,40.9-8.3c3.8-10.5,11.5-21.9,6.7-33.2C-87.1,394.7-88.2,400.1-103.7,396z"/>
			</svg>
			<svg id="t_g9" viewBox="-190 430 180 20">
				<!-- MJj11-Joker.svg -->
				<path fill="#f0a023"
							d="M-31.3,448.9c-11.5,2.6-8.4,0.4-19.2,1.2c-20-8.7-35.2-34.8-54.3-45.3l-8.5-5.7c-6.3,8.3-15.3,23.3-21.4,31.6c6.1,0.6,36.3-5.9,40.3-9.2c4.5-0.4,6.1,3.1,9.3,3.1l0.8,0.4c4.3,2,15,9,3.8,11.8c-2.6,0.6-6.5,0.4-9.3,0.7c-9.5,1.5-18.6,4.6-27.1,8.7c-3.2-0.4-6.5-0.9-9.3-2.2c-7.5,10.9-12.2,9.2,0.2,19.7c8.3-3.3,29.8-15.7,36.7-16.4c8.3-0.9,21.5,6.8,23.5,14.2c1.4,5.2-3.6,6.6-6.1,10.3c-3.6,5.3-6.5,11.6-8.5,17.5c1.4,3.7,6.3,5.3,3,9.8c-5.9,7.9-16-0.4-23.5,1.7c-5.3,1.3-10.1,2.4-15.8,2.4c-1.2,2.2-2.4,4.4-4.3,6.5c-11.5,1.1-13.2-23.2-18.8-29.5c-1-6.1-4.9-11.4-1.6-17.5c0.4-7.4,0.8-15.9,8.1-20.5l1.8-3.3c-2-1.3-4.5-2.8-6.9-2.8c-11.1,13.3-15.1,21.3-32.1,28.7c-1.8,0.2-3.9,0.6-4.3-1.8c2-4.2-0.8-7.3,2.5-9.2c3-2.3-1,6.2,8.2-6.8c11.3-18.8,25.7-35.9,37.9-54.2c3.6-5.5,6.3-11.6,10.1-17.1c0.4-2.2-2.4-3.9-3.8-5.5c1.2-3.7,4.7-2,7.9-1.5c4.7-2,12.4,3.9,14.2,7.7c1.8,3.5-1.2,5.5-3.4,8.1c-2.8,1.1-4.1,4.1-5.1,6.3c6.1,1.1,10.8,5.9,16,8.9c5.3,2.9,10.3,10.2,15,13.7c11.9,9.2,13.7,12.4,26.7,20.3c8.5,5.3,11.5,7.3,14.3,10.3C-32.3,445.1-28.2,447.8-31.3,448.9z M-123,474.8c-0.4,0.7,2.8,16.2,3.4,18.4c7.1-1.3,16.4-4.4,22.7-7.9c2.8-5.5,7.3-12.4,7.9-18.6C-94,467.6-121.2,471.3-123,474.8z"/>
			</svg>

			<svg id="t_g10" viewBox="-190 430 180 20">
				<!-- MJj9-Joker.svg -->
				<path fill="#c070c0" d="M-34.7,479.8c-1.4-0.4-2.2-3.5-3-4.6c-2.6-7.4-5.7-14.7-8.9-22.1c-2-0.2,0-4.1-4.7-3.9l-1,2c2.2,7.7,2.8,25.4-3.2,31.9c-7.5,8.1-45.5,11.1-47.3,0.7c-1.2-7.2,6.9-20.1,10.5-26.5c1.2-2,5.5-10.1,8.3-10.5c6.4-9.9-1.7-15.2-12.6-16c1.4,1.4,1.9,3.4,0.3,5.5c-1.6,2.2-3.5,4.7-5.2,6.8c-1.2,1.6-1.8,3-3.2,4.5c-0.8,2-1.8,3.9-2.9,5.5c-3.8,13.1-15,24.7-7.9,38.9c0.8,1.7,2.2,3.9,3.6,5.2c10.9,10,39,8.3,53.6,5.3c8.1-1.7,16.2-3.5,23.9-6.8C-31.3,490.9-31.3,484.6-34.7,479.8z"/>
				<path fill="#f0a023" d="M-128.1,402.4c-2.8,2.4-7.7,5.7-9.9,7.9c-0.8,0.9-0.2,2,1.2,1.7c3.2-1.3,7.1-3.5,10.3-5c11.9-5,23.7-9.8,34.2-17.1c2.6-1.8,4.9-2,7.9-2.8c3.6-0.9,5.5-2.6,6.9-5.7c2.6-6.1,1.6-7.6-2.6-12.5c-1.2-1.8-10.7-2.8-13.4-2.9c-3-0.2-3,0.9-5.7,1.8c-4.5,4.2-27.1,12.7-33.6,12c-2.8-0.4-5.3-0.6-8.1-0.4c2,5,5.1,9.6,6.9,14.6C-131.3,395.6-126.4,399.1-128.1,402.4z"/>
				<path fill="#fff" d="M-125.5,441.1c-1.2,2.5-17.3,20.5-19.3,23.7c-4.5,4.8-13,18.2-20.9,16.7c-2,4.8-3.4,10-2.4,15.1c2.4,2.6,3.6,3.3,7.3,2.4c9.3-2.2,29.4-36.9,33.8-39.1c1.4-2.4,4.8-6.5,8.7-10.6c0.4-0.6,7.9-9.3,8.3-10C-105,428.2-117.3,437.1-125.5,441.1z"/>
				<path fill="#f0a023" d="M-59.9,408.1c-2-3.5-5.5-3.7-8.5-5.7c-4.5-0.2-13,0-16.6,2.2c-1.8,3.5-7.1,7-10.9,8.8c-1.8,0.9-4.1,1.5-5.9,2.2c-5.9,2.2-11.5,4.6-17.2,7c-5.3,2.2-35.2,16.4-40.5,11.8c-1.4-1.3-0.8-3.7,0.6-5c-4.9-1.5-4.9,0.4-7.3,2.9c-1.2,9.8,1.1,14.3,10.4,19.3c0.5,0.6,3,0.8,4.2,1c1.8-0.3,7.3-2.5,8.7-3.2c14.6-7.9,18.7-8.4,33.8-15.2c1.5-0.7,5.8-2.3,9.5-3.5c1.8-0.8,3.7-1.5,4.3-2.3c2.2-3,13.6-6.3,17.8-8.5c1.2,0,2.2-0.6,3-1.3C-67.8,417-58.5,416.4-59.9,408.1z"/>
			</svg>
			<svg id="t_g11" viewBox="-190 430 180 20">
				<!-- MJj10-Joker.svg -->
				<path fill="#fff" d="M-41.9,465.1c-9.1-1.1-14.4-2.7-23.5-2.7c-2.8,0-24.3,0-27.2-0.3c-26.7,4.6-38.5,12.2-63.4,18.7c-8.3,2.2-9.9,0.6-17.6-2.2c-0.6-2-0.6-4.1,0-6.1c3.4-2.8,8.5-2.2,12.8-3.3c5.1-1.5,32.2-8.7,33.4-8.9c1.4-0.6-9.1-6.6-8.3-7.6c-2.8-4.4-0.4-7.6,5.9-5.3c-4.5-7.2-9.1-18.2-7.7-26.9l1-3.5l-2.4-1.1c-3.4-1.5-6.9-3.9-9.3-6.5c-1.8-1.7,0-6.8,3.6-4.4c13,1.7,25.4-4.6,34.3-5.2l0.1-5.9c-2.8-0.2-18.8,6.1-21,4.6l-2.6-0.4c-4.5-4.4-8.9-6.3-13-11.1l-1.3-1.9c2.2,0.7,3.1,1.2,5.9,0.8l7.5-0.9c3.2,0.7,8.1,1.1,10.9-0.7c5.9,0,7.8-1.2,12.8-3.7c0.6-3.3,0.3-5.1-1.2-7.9c-1.9-3.3-5.2-2.4-6-6.3c-1-3.7-0.9-4.7,3.8-5.4c1.6-0.4,3.2-0.6,4.9-1.5c12.8,3.1,14.2,3.3,16.6,15.1c1.4,0.4,14.1-3.6,15.5-3.6c6.3,4.2,7.7-2,10.9,8.3c-1,1.7-0.6,4.6-3.8,3.9c-3.8,0.7-19.3,4.1-22.2,6.7c-5.3,0.4-5.9,7-3.8,7.6c2,0.7,12.5-3.3,14.5-3.8c6.3,2.2,9.5-0.2,13.8,6.1c2.2,0.6,1,3.1,1.2,4.4c-5.7,3.5-21.5,0.4-25.7,3.7c-13.2,2.9-24.7,6.6-37.7,10.5c-1,1.3,0.4,2.6,1,4.1c0.4,0.4,1.8,2,2,2.6c1.6-2,4.7-2,6.9-2.9c5.1-1.7,26.9-7.1,31.4-8.9c4.1-1.7,21.5,4.1,17.8,12.9c-2,4.8-4.8,9.1-7.9,13.2c6.6,0.9,7.5,0.3,10.5,4.1c1,3.3-7.5,7.7-5.3,8.7c10.7-1.1,14.7-2.2,30.4-1.1c10.1,1.5,10.3,4.4,12.2,11.2C-32.4,464.8-39.3,467.3-41.9,465.1z M-73.4,512.4c-3.4,0.4-3.2-0.2-6.5-0.7c-3.2-1.1-13.4-0.9-15.6-0.2c-8.3,0-18.4,3.1-23.9,6.8c-8.3-1.8-7.9-8.7-12.6-13.5c-1-8.8-8.7-19.7-4.1-27.3c0.4,1.3,9.9,2.4,11.1,3.1c5.1-3.1,10.7-1.8,15.6-5.2c2.2,0,10.3-2.8,12.4-3.5c7.3-2.4,16.4-2.4,17.8-0.6c2.4,0.4,3.8,2.6,6.3,2.6c10.9,12.4,6.3,12.7-0.6,25.4c0,4.4,3.8,3.5,2.6,8.5C-71.1,509.3-73.6,511-73.4,512.4z M-107.8,428.1c-3,0.9-9.7,2.7-15.3,2.7c-2-0.6,2.6,5.2,2,6.5c0.4,2.2-0.4,3.5,1.7,3.8c1-0.9,13.5-4.6,14.7-5c3.4-0.7,15.4-0.1,17.7-2.8c2.2-2.7,4.2-8.3-2.2-10.2C-93.6,423.5-104.5,427.4-107.8,428.1z M-87.1,483.5c-7.3-0.9-25.3,6.1-35,6.3c-0.6,3.3,4.1,8.3,4.3,11.6c1.2,0.6,5.3-0.7,10.1-0.9c4.7,0,11.3-0.4,14.4-3.5c5.3-0.4,7.5-5.3,6.3-9.8C-87.3,486.6-86.9,483.1-87.1,483.5z M-117.9,450.2c-0.8,1.5,3.6,5.7,3.8,7.3c6.7-1.8,20.3-3.4,27-4.9c0.4-2.4,2.2-6.9,2.2-9.3C-106.1,444.8-110.3,449.7-117.9,450.2z"/>
			</svg>
			<svg id="t_g12" viewBox="-205 430 180 170">
				<!-- MJj8-Joker.svg -->
				<path fill="#f0a023" d="m -97.80078,430 c -1.2,3.9 0.80156,7.70156 -0.39844,11.60156 0.8,6.3 -3.80156,11.59922 -8.10156,16.19922 -15.6,17.5 -27.89961,35 -53.09961,42 -2.8,0.6 -6.29883,2.40078 -9.29883,1.30078 -2.6,0 -4.70078,1.3 -6.30078,3 -1.5,4.2 5.00039,3.49922 5.40039,7.19922 4.7,3.9 10.49922,6.09922 17.19922,5.69922 7.1,-2.9 12.20078,-7.89883 19.80078,-10.29883 l -1.5,1.79883 c 2.5,-1.1 5.2,-1.99844 7.5,-2.89844 3.3,-1.4 6.50039,-2.9 9.90039,-4 3.1,-1 6.19922,-0.90078 9.19922,-1.80078 0.7,-0.2 1.30039,-0.29922 1.90039,-0.19922 4,-2.9 8.30039,-5.50039 12.90039,-7.90039 5.5,-2.8 9.89922,-5.90117 9.69922,-12.20117 -6.9,-2 -13.20078,-2.59883 -20.30078,0.20117 -1.8,3.1 -10.89961,5.29883 -14.59961,6.29883 1.8,-1.7 3.40117,-3.89883 5.70117,-5.29883 9.1,-12.2 25.9,-19.00039 36.5,-29.90039 4.1,-4.4 -4.9,-11.20078 -8.5,-13.80078 -3.8,-3.1 -8.10156,-6.1 -13.60156,-7 z m -23.79883,16.5 c -4.7,4.1 -16.40078,17.00156 -23.30078,10.10156 -3,-2.8 -3.19883,-4.60117 -8.29883,-4.20117 7.1,5.2 1.19844,8.30117 2.89844,14.20117 -1.2,1.5 -0.39961,3.49883 -0.59961,5.29883 1.4,3.1 4.90078,7.40078 7.30078,9.80078 10.5,10.5 14.80039,-3.70078 11.90039,-10.30078 0.6,-6.3 7.29961,-12 10.09961,-17.5 -0.2,-3.1 1,-3.70039 0,-7.40039 z" />
				<path fill="#fff" d="m -133.6,526.00078 c 3.5,-1.3 5.7,-6 4.9,-8.3 -0.7,-2 0.4,-3.1 -2.2,-4.3 -0.4,-0.2 -4.3,-1.7 -3.5,-1.5 -4.8,-1 -5.6,1.4 -7.4,4.3 -3,3 -5.1,3.9 -7.8,7.1 -1.3,1.6 -3.2,3.1 -4.6,5.2 -0.4,0.3 -1.1,2.2 -2.3,2.7 0,0 0.1,0.1 0.1,0.1 -6.8,8.3 -15.9,15.3 -21.7,24.1 -2.1,0 1.7,-8.8 1.9,-10 -5,5.9 -4.5,7.7 -7.4,14 -6,3.3 -4.5,8.8 -6.4,14 1.2,1.3 2.1,2.8 4.3,2.6 1.6,-1.5 4.1,-1.8 5.8,-3.3 l 20.7,-18.6 c 1.6,-1.5 2.5,-4.1 4.8,-4.4 0.6,5.7 0.4,11.2 -1,16.8 -6.2,5.3 0.8,24.7 8.9,25.8 4.5,-9.6 4.3,-29.7 10.7,-36.3 0.5,-1.7 1.6,-4.2 3,-7.2 0,-1 0.1,-2 0.3,-3 0.2,-0.9 0.5,-1.7 0.8,-2.5 0.2,-0.6 0.3,-2.7 0.6,-1.4 -0.3,-1.3 -0.1,-2.5 0.4,-3.5 -0.2,-0.5 -0.2,-0.9 -0.3,-1.4 l -9.6,15.3 -0.6,-1.1 c 0.2,-4.2 -0.4,-8.8 -3.3,-12.2 2.5,-5.1 4.1,-5.9 10.9,-13 z"/>
				<path fill="#c070c0" d="m -47.3,570.80078 c -4.6,-6.1 -6,-18.6 -9.2,-21.9 -1.2,-1.5 -2.5,-9.6 -7.5,-12.5 1.6,9.2 2.1,20.6 0.2,29.7 -9,12.5 -44.7,10.3 -44.9,1.1 -0.5,-31.8 30.5,-34.8 30.5,-53.6 -4.4,-5.7 -0.9,-15.3 -18.3,-14.4 -1.8,1.7 -3.7,1.1 -5.9,3.5 l 5.3,1.8 c 2,2.9 1.4,6.8 1.2,10.1 -2.1,3.7 -8.5,16.3 -11.7,19.3 1.8,-10.8 -2.1,-17.4 -7.8,-18.3 -4.1,-0.6 -6.6,2 -9.6,4.4 -1.6,2.6 -3,9.1 -3.1,12 1.3,0.2 2.5,-5.3 4.1,-7 1.7,-2.6 3.1,0.9 3.1,0.9 -0.4,6.1 -0.7,23.5 -1.1,24.7 0.5,6.5 -1.9,12.5 0.5,19.3 6.6,19.4 27.8,19.4 44.3,17.7 8.9,-0.9 18.9,-1.8 26.4,-7 3,-3.8 3.3,-7 3.5,-9.8 z"/>
			</svg>
			<svg id="t_g13" viewBox="-190 430 180 20">
				<!-- MJj5-Joker for Honors.svg -->
				<path fill="#f0a023" d="M-30.8,454.3c-4.9-3.3-12.7-7-15.9-7.1c-16.2-0.8-30.4-18.5-47-16.1c0.5-2.3-0.8,0.2,0.6-3.1c12.2-4.4,26.9-2.2,39.9-2c8.1-5.3,2-7.6-1.8-12c-8.1-4.6-20.5-0.6-29.4,0.4c3.4-2,22.9-10.5,23.5-12.2c1.6-3.5-2.8-6.6-3.6-10c-3.2-1.5-5.1-5.2-9.3-4.8c-4.5,4.6-11.7,3.5-17.4,5.9l-6.3-5c8.1-3.1,17.2-3.7,25.3-7.2c1.4-1.7,1.4-3.5,1.6-5.3c-1.8-5.5-7.9-9.6-14-11.4c-16,10.3-36,17.1-54.1,24l-1.2,2.2c3.2,3.5,6.5-0.9,8.3,2.2c7.7-0.4,15.2-1.8,22.9-3.1l-0.2,1.1c-3.6,4.1-0.4,4.1,0.4,7.9c-9.3,3.7-18.6,7.9-28.8,10c-0.6-1.7-1-3.3-1.6-5h-4.9c-3.2,1.5-0.4,3.9-2,5.5c0.6,6.6,0.2,14.6,5.1,20.1c-9.5,5.7-23.3,8.3-34,12.4c2.4,4.4,7.1,6.5,11.9,8.1c9.5,3.1,18.8-5,26.3-9c0.4-0.2,4.1-2.2,4.7-1.7c0.6,0.7-1,2.4-1.4,2.9c-8.5,11.6-17.8,24.1-30.6,32.1c-2.8,1.7-6.3,1.8-7.7,5l4.9,1.1c11.3-5.4,14.9,0.7,28.6-13.8c1.9-1.9,20.6-24.5,27.1-33.4l2-0.9c-0.3,7.6-0.7,15.3,0.2,22.9c0.3,1.4,2.7,4.2,3.5,4.1c1.2-0.3,3.1-1.5,4.5-1.2c0.7,0.2,5.2-2.7,5.7-4.2c0.1-3.3,0.5-17.6,1.3-20c4.3,0.9,11.8,9.7,15.8,11.2c12,4.3,18.3,16.3,30.5,16.5c5.7,0.2,5-1.6,10.8-3.8C-33.2,454.8-30.2,456-30.8,454.3z M-89.8,395.9c3.8-0.6,7.9-2.2,11.7-1.3c-2.6,5-9.7,13.1-14,17C-91.8,407-88.6,399.8-89.8,395.9z M-107,416.6c-1.8,2.8-21.1,9.2-25.1,9.8c-0.6-0.2-2-0.7-2.2-1.1c6.1-6.5,13.2-12.2,20.9-17c0.8-2.6,4.1-3.1,6.5-3.3l0.8,1.5C-106.4,408.3-106.2,415.5-107,416.6z"/>
				<path fill="#fff" d="M-99.2,456.9c-2.3-0.1-7.3-0.9-14.5,3.8c-4.6,4.5-13.2,6.8-16.8,13.2l0.1-2.4c0.3-1.8-0.5-6.9-0.9-7.6c-1.8-2.6-0.9-4.7-3.5-4.4c-1.8,0.4-5.9,5.3-6.7,7.3c-2.6,13.1,2.4,32.6,12.8,41.9c2.4,2,7.9,4.4,10.9,5.9c8.3-2.4,16.4-6.1,25.3-6.3c3.2,2.6,3.8,6.8,6.1,10c2.6,0.7,4.9,1.7,7.3,1.8c18-9.6,17.6-29.7,23.5-45.2c2.4-6.3-4.3-8.3-6.1-13.5C-72.9,455.6-86.4,454.5-99.2,456.9z M-114.5,492.2c2.4,0.7,5.1,0.9,7.3,2c-3.8,3.5-9.7,6.3-14.6,8.5c-3.6-7.6-4.1-15.9-6.5-23.8c1.6-2.6,0.2-5.3,4.3-5.9c5.7-0.6,11.1-2.4,17-2.4l0.2,7.9c-6.5,1.5-12.8,3.9-19.4,4.8C-125.8,488.8-117.3,488.3-114.5,492.2z M-79.4,501.2c-4.7-2.6-12.8-5.7-18.4-5.3c1.8-6.5,16.8-7,15.2-12.9c-4.1-2-6.3-5.3-11.5-5.2c-0.2-5.5,3.2-7.9,7.9-10.7c3.4,0,12.2,0,14.8,1.1C-71.1,479.6-74.2,490.9-79.4,501.2z"/>
			</svg>
			<svg id="t_g14" viewBox="-210 430 180 140">
				<!--					MJj21v1-Joker.svg-->
				<path fill="#f0a023" d="m -141.47384,430 -3.40039,0.40039 c -5.5,0.1 -8.19961,0.39844 -8.09961,0.89844 0.1,0.5 0.29961,0.90078 0.59961,1.30078 0.3,0.4 11,1.80078 11,8.80078 l 0.19922,2.19922 c -0.8,3 -1.3,8.00078 -9.5,16.80078 -9.1,9.8 -28.89883,32.39961 -32.29883,36.59961 -2.9,3.6 -3.5,-1.90039 -6,4.59961 -0.6,1.6 -1.60156,6.50078 -0.60156,7.30078 1.8,1.4 4.80078,-0.10078 5.30078,-0.30078 3.1,-1.1 9.2,-4.50078 12,-6.30078 1.5,-1 3.4,-3.1 5,-5 3.6,-3.9 16,-19.09883 19,-21.29883 3.2,-2.4 6.10078,-5.70078 9.80078,-7.80078 l 10.5,-9.19922 7.69922,-9.30078 c 1.7,-5 0.70078,-7.29961 -1.19922,-9.59961 0,0 -1.1,-1.50078 -7,-4.80078 -5.9,-3.3 -10.3,-5.09883 -13,-5.29883 z m 33.09961,13.29883 c 0.1,0.3 6.7,1.20117 9.000002,5.70117 0.9,1.8 1.19922,4.89922 0.19922,5.69922 l -2.699222,6.20117 c -0.3,0.2 -3.8,5.9 -6,9 -2.2,3.1 -7.60078,7.59922 -10.30078,10.69922 l -7.29883,9 c 0,0 -10.20156,11.5 -15.60156,18 0.1,0 -7.79883,8.19922 -7.79883,8.19922 L -156.5754,522.5 c -2,2.8 -3.39883,4.9 -4.29883,5.5 -0.9,0.6 -3.30078,4.19922 -3.30078,4.19922 -0.3,0.5 -4.29922,4.10078 -8.19922,9.30078 l -5.30078,2.5 c 0,1 -5.79922,2.09922 -6.19922,2.19922 -0.3,0.1 -0.80078,0.60078 -1.30078,1.30078 l 1.20117,4.09961 0.19922,7.59961 c 0,1.6 0.49961,3.20078 1.59961,4.80078 1.1,1.6 4.00117,1.69922 8.70117,0.19922 4.2,-1.6 17.69883,-4.19961 21.29883,-6.09961 3.6,-1.8 6.30039,-2.09961 8.40039,-2.59961 2.1,-0.6 20.30078,-4.80078 20.30078,-4.80078 0.8,-0.5 5.2,-0.80039 5.5,-0.90039 0.3,-0.1 2.6,-0.49883 6,-1.29883 3.4,-0.7 5.59961,-0.60078 8.09961,-0.80078 2.5,-0.1 3.79961,0.10039 4.599612,-0.0996 1.9,-0.7 4.30078,-1.00039 4.80078,-0.90039 0.4,0.1 0.49961,2 1.09961,3 l 0.79883,4.59961 c 0,0.7 0.30078,1.60156 0.80078,2.60156 0,0 9.89922,10.3 12.19922,9 0,0 5.50117,-2.70039 6.70117,-4.40039 h 1.59961 l 2,-4.20117 -0.5,-9.69922 c 0,-0.7 -1.80078,-9.69922 -1.80078,-9.69922 -2,-3.9 -3.8,-10.90117 -6,-13.20117 -2.2,-2.3 -6.49883,-10.20039 -9.79883,-12.90039 -3.2,-2.8 -6.70039,-5.19844 -10.40039,-7.39844 -3.700002,-2.1 -8.700782,-6.30078 -11.800782,-8.30078 l 14.701172,-15.69922 c 1.3,-1.1 7.09883,-8.50078 7.79883,-10.30078 0.7,-1.8 2.90117,-3.79922 3.20117,-5.19922 0,-0.7 2.49922,-3.10078 1.69922,-4.80078 l -0.19922,-2 c 1.6,-3.1 0.4,-3.6 -7.5,-8.5 -7.9,-4.9 -9.60117,-5.6 -11.201172,-6 -1.6,-0.4 -4.19883,-0.30078 -7.29883,-0.30078 z m -4.40039,55.80078 5.69922,8.59961 2,4.09961 c 0.3,0.7 3.20117,7.20117 3.20117,7.20117 l 2.000002,4.59961 c 0,0.7 1.69922,4.90039 1.69922,4.90039 l 1.80078,7 c -5.700002,0.6 -12.101172,3.9e-4 -15.701172,-0.59961 -3.6,-0.6 -6.19922,-0.90117 -7.69922,-0.70117 -1.5,0.1 -17.59961,2.80078 -17.59961,2.80078 -3.1,0.2 -12.1,2.09922 -12.5,2.19922 -0.3,0.1 -6.29961,1.90039 -7.09961,1.40039 z" />
			</svg>
			<svg id="t_g15" viewBox="-190 430 180 20">
				<!-- MJj19-Joker.svg -->
				<path fill="#fff"
							d="M-55.1,429.8c-4.6-0.7-9.2,1.2-13.8,1.2c0,4.3-2.9,8.5-1.1,12.6c-1.3,5.2,0.2,10.5-0.7,15.6c1.1,0.2,4,0.2,4.8-0.7c5.9-1.4,13-3,17.3,3c2.9,0.5,2.6,2.8,4.8,4.1c1.5,2.5,2.6,3.9,1.1,6.9c-3.5,3.4-5.7,2.8-10.1,2.7c-8.8-2-18.9-0.9-26.8,2.8c-3.3-0.5-6.8,0.2-9.6,1.8c-1.8,2.1-10.1,2.1-12.9,1.8c-2.6-1.4-9.9-8-8.8-11c2.6-1.4,6.6,0.2,7.9-1.8c5-1.6,10.7-3.7,15.8-5.7c1.7-0.7,1.1-2.8,1.1-4.3c0.2-4.3,1.3-16.9,0.4-20.3c-2.9,1.4-8.1,3-10.3,5.5c-4.2,1.8-7.5-1.1-11.2-3c0-1.2-3.7-2.5-4.6-2.8c-2-0.7-3.3,2.3-6.6,1.6c-1.1,0.4-2-0.5-3.1-0.4c-2,0-3.7,2-5.5,2.5c-2.4,2.7-6.1,5.5-5.7,9.6c0.4,3,1.5,5.9,1.7,9.1c0.4,6.6-0.6,13.1,0.4,19.9c-1.7,6.2,4.4,12.3-1.1,17.9c-2.8,0.9-3.9-0.2-5.9-1.8c-1.5-3.7-3.3-7.3-5-11c-4.4-4.3-1.3-10-1.5-14.9c0-7.3,1.8-14.8-0.2-22c-1.1-0.7-2.9-2.5-3.9-2.7c-2.8,2.1-5.1,4.8-7.2,7.6c-1.7-0.2-2.6,0.9-3.7,2c-7.2,6.2-8.4-12.3-4.4-17.6c7-0.4,17.6-25.8,22.6-31.1c4.2-11.7,7.7-11.4-0.6-22.9c5-3,19.7,8.4,21.9,12.6c0.4,2.7,2.2,3.9,0.9,6.8c-2.8,7.1-7.7,13-11.6,19.7c-2.9,2.1-9.2,10.3-11.6,13.5c0,2.7,4.4,5.7,5.5,8.2c0.4,0.4,1.3,0.9,1.5,1.4c6.8-13.5,39.1-16.5,50.5-25.1c0.6-14.9,2.4-22.6-3.7-37c-1.1-2.7-1.3-6.6,1.8-8c1.7-0.9,3.3-1.2,5.3-1.2c19.3,5.5,8.3,24.5,11.9,38.2c6.2,2.7,12.1-4.8,18.9,0c5.1,3.7,10.7,5.3,8.8,12.8C-42.4,432-51,428.4-55.1,429.8z M-82.8,381.1c-4.6,2.1-1.8,5.7,0.2,9.1L-82.8,381.1z"/>
			</svg>
			<svg id="t_g16" viewBox="-190 430 180 20">
				<!-- MJj20-Joker.svg -->
				<path fill="#fff" d="M-171.3,454.8c1.7,1.9,2.9,2.7,4.1,2.7c0.6,0,1.5-0.4,2.9-0.9c1.7-0.9,5.6-2.3,11.2-4.2c2.9-0.8,12.4-4.6,22.3-8.7V429c-5.4,0.6-7.4,1.7-20.3,11.6c-8.1,6.1-10.6,7.8-15.5,10.1l-1-0.6c1.2-1.1,2.1-2.3,2.7-2.7c5.6-6.1,7-7.8,8.9-11.8c-8.1-6.6-11-9.7-11-11.9c0-1.1,0.2-1.7,4.5-6.8c2.7-2.8,4.1-4.4,4.1-4.4c0.4-0.4,3.7-8.2,4.5-9.9c1.2-3.4,1.7-5.9,1.7-9.3c0-4.7-0.4-5.9-2.3-8.3l0.4-0.9c1.2-0.4,2.1-0.8,2.7-0.8c1.9,0,6.2,2.1,9.1,4.4c3.1,2.5,5.2,6.1,5.2,9.1c0,4.6-2.3,12.3-5.8,19c1.5,0.6,2.5,0.8,3.1,0.8c1,0,2.9-0.6,5.4-1.1c1.2-0.4,3.1-0.9,5.4-1.5l0.6-16.3c0.2-2.8,0.2-7.2,0.2-13.3c0-6.4-1-8.5-6-11.6v-1.5c2.5-0.8,4.8-1.3,6.4-1.3c7,0,16.8,9.9,16.8,16.9c0,2.7,0,2.7-2.9,14c-2.5,9.7-4.6,24.1-4.6,32.4v1.5l0.2,11c2.3,0.8,2.7,0.9,4.6,2.1c7.2,0,13.7-1.9,31.2-8.3c7-2.8,7.4-2.8,13.2-4.7v-1.5c0-4.7-0.8-6.3-4.6-10.2c-16.1,14.2-24.4,19.2-32.3,19.2c-3.9,0-6.4-1.9-9.3-6.8l0.6-0.6c1.4,0.4,2.3,0.6,2.9,0.6c4.1,0,7.4-1.9,16.1-9.5c-4.8-5.1-5.4-6.1-7.2-11.6l-3.3,0.2c-1.9,0.4-3.5,0.6-3.9,0.6c-0.6,0-1.5-0.2-2.9-0.4l-0.2-1.1c5.2-3,7-4.9,10.8-10.6c8.3-12.5,13-21.8,13-25.8c0-2.3-1.2-3.8-5.8-7.8l-0.2-1.9c6.2-1.3,6.6-1.3,7.7-1.3c2.9,0,7.7,2.1,10.8,4.7c2.7,2.3,3.5,4.4,3.5,9.1c4.8-1.1,7-1.7,8.1-2.1c0.6-0.2,1.5-0.8,3.1-1.3l2.7-1.3c0.8-0.4,1.7-0.6,2.9-0.6c3.1,0,4.1,0.6,11.4,7.8c3.9,3.6,5,5.5,5,7.8c0,2.5-0.6,3-6.2,6.8c-1,0.4-4.3,3.4-7.5,6.6c-1.7,1.7-6.8,6.8-12.4,12.1c2.5,0.9,4.6,1.9,5.4,2.3c6.8,2.7,9.3,5.1,9.3,9.3c0,0.9-0.2,2.1-0.4,3.4c4.6-1.3,7.4-2.1,8.7-2.1c4.1,0,4,2.2,8.3,5.6c2.9,2.5,4.1,4.2,4.1,6.6c0,2.8-2.5,4.7-6.4,4.7c-1.2,0-4.6-0.1-6.8-0.1c-1.9,0-4.5,0.2-7.9,0.4c-0.2,7-0.4,12.3-0.4,15.7c0,4.9,0.2,11.6,0.6,19.3c0.2,4.4,0.2,8.2,0.2,11.2c0,12.1-3.7,22.6-10.8,29.6c-1.9,1.9-3.3,2.8-4.1,2.8c-1.4,0-1.7-0.2-6.4-6.1c-1.4-1.9-4.3-4.9-7.9-8.3l-7.9-7.6c-2.5-2.8-4.1-4.6-11.2-13.3l0.2-0.9c2.5,1.1,4.1,1.9,4.6,2.1c4.6,2.5,9.3,4.7,13.9,7c3.7,1.7,6.4,2.7,7.9,2.7c3.7,0,5.4-7.2,5.4-23.7c0-6.4-0.2-11.9-1-27.7c-3.1,0.8-5.2,1.5-5.8,1.7c-4.1,1.7-8.1,3.4-12.4,5.3c-0.6,0.2-3.5,1.3-6.4,2.5c9.1,4.6,12.4,8.3,12.4,13.8c0,3.4-2.7,6.8-5.6,6.8c-1.2,0-3.5-0.6-6.6-1.5c-3.7-1.3-6.4-1.7-15.1-1.9v-0.8c5.2-3.4,6.4-4.6,8.7-7.6c-1-1.1-1.5-1.7-1.7-2.1l-1.9-4.4c0,0-0.6-1.3-1.4-2.5c-4.5-1.3-5.4-1.9-9.1-5.5c-1.4,1.9-1.7,2.1-4.3,3l-0.2,32.4c0,17.3-1.9,26.7-5.2,26.7c-1,0-1.9-1.1-3.1-3.8c-4.1-8.2-5.4-13.8-5.4-21.6v-1.7l0.4-26.4l-14.3,6.3c0.8,3.6,0.8,5.3,0.8,9.1c0,7-1,11-4.3,17.3s-6.4,9.3-9.3,9.3c-1.7,0-4.5-5.9-4.5-9.9c0-1.1,0-1.1,2.9-4.7c1.4-1.7,2.5-6.8,2.5-10.6c0-2.7-0.4-4-1.7-7c-5.6-1.9-8.1-3.2-10.6-5.7c-2.3-2.3-4.1-4.9-4.1-6.4c0-0.9,0.8-2.5,1.9-4.2H-171.3z M-81.5,411.7c-4.3-3.6-4.8-4.2-8.5-8.3c-2.9,3.8-3.5,4.4-6.6,7.2c4.5,2.1,5.2,2.7,9.7,6.3L-81.5,411.7z M-83.1,395.8c6.2,2.3,7.2,2.8,11,6.1c5.8-7.8,7.2-10.1,8.5-14.8c-2.1,0.2-4.3,0.6-5,0.8c-4.8,0.9-8.1,1.7-8.5,1.7l-1.2-0.2L-83.1,395.8z"/>
			</svg>
			<svg id="t_g17" viewBox="-190 430 180 20">
				<!-- MJj17-Joker.svg -->
				<path fill="#fff" d="M-48.2,455.3c-12.4,0.2-23.2,2.5-35.4,4.8l1-3.2c-5.3,0-45.6,13.3-50.7,16.5c-7,1.2-23.5,13.7-32,11.2c-0.7-2-2.1-3.4-3.3-5.2c-1.4-2.1-1.5-3.9-0.5-6.2c3.6-8,14.8-2,19.6-8.4c3.3-0.2,20.5-8.2,24.4-10c-0.9-4.1-3.4-9.1-3.1-13.3c0.5-7.8,4.5-14.6,2.8-22.7c-6.9-3.2-8.8-11.6-8.1-18.7c6.9-8.9,13.9-13.9,22.3-20.8c2.2,0.2,2.4-3,3.4-4.4c-0.7-2.8-3.8-3.6-2.6-7.5c8.1-1.6,20.6,3.6,24.2,11.7c4.6,10.7-19.1,17.2-24.9,21.5c-3.1,0.7-6,2-8.4,3.9c3.1,3.9,7.6,6.4,10.7,10.5c1.4-0.2,2.2-3.4,4.5-4.3c8.3-3.7,10.3-11.6,20.3-10.8c4.5,0.4,5.8,2.3,9.6,3.6c3.3,6.6,10,11.6,4.3,18.8c-0.5,4.4-6,2.8-6.9,5.9c-1.2,4.6-2.1,9.2-3.1,13.7c8.9-2.5,29.2-4.6,36.3,2.7c1.9,2,2.9,5.7,0.7,7.8C-43.7,454.5-46.1,455.3-48.2,455.3z M-115.1,485.6c-5.3,5.5-13.4,11.2-13.1,20.1c-2.2,2.5-5.8,2.3-8.8,1.2c-6.4-2.5-5.8-11-8.1-16.7c2.1-4.3,6-6.8,8.9-10.1c2.1-2.7,4.5-8.4,8.3-5.2l1.2,0.7c-0.2,2-2.8,6.8-1.2,8.2c8.4-3.9,16.7-8.4,26-9.2C-101,478.1-113.5,482.5-115.1,485.6z M-94.8,428l-3.4,0.4c-2.2,2.5-6.4,3.2-8.8,5.5c-3.1,3-4.5,9.6-1.9,13.3c14.8-4.4,7.7-5,14.6-17.4L-94.8,428z M-67.5,498.4c-2.9-4.8-7.2-8.5-10.5-13.2c1.9-1.8-0.2-6.8,4.1-5.9c1.2-1.1-0.9-3.7-1.5-4.4c-2.9-3.7-5.8-2.8-10-3c2.1-2.8,4.6-3.2,8.1-4.1c21.1-6,31.8,24.2,17.2,33.1C-63.2,501.2-64.9,500.5-67.5,498.4z"/>
			</svg>
			<svg id="t_g18" viewBox="-190 430 180 20">
				<!-- MJj18-Joker.svg -->
				<path fill="#c070c0" d="M-44.7,453.5c-4.1,0.7-13.5-1.2-18.1-2c-10.6-1.4-21.6-2.1-32.2-0.5c-0.9,18.5-1.1,37-1.9,55.4c-0.7,2.8-1.1,5.5-3.2,7.5h-1.6v1.1c-10.6-5-5-57.6-8.7-60.1c-4.2-2.7-32,11.4-37.2,14.4c-3.7,2.3-9,3.2-13.5,3.6c-6-5.2-5.8-3.7-5.3-11.7c0.9-1.6,1.8-3,3.9-3.4c0.9,1.1,6.7-0.4,8.5-0.5c13.3-6,26.9-11.6,40.9-16.3c0.7-4.1-6-7.5-8-11.6c-3.5,1.1-11.9,11.7-19.5,14.2c-4.1-4.3-1.9-15.8,3.7-17.9c6.2-7.6,12.9-15.1,17-24c-6.5,1.6-12.4,5.9-19.1,7.1c-5.3-0.2-9.4-2-12.6-6c-0.7-3.7-2.5-8.4,1.1-11.4c1.8-0.5,3.5-1.4,5.5-1.4c9.2-4.3,19.8-3.6,28.7-8.9c2.3-1.2,9.6-6.8,9.9-9.1c-3.5-4.1-8.3-7.6-11.3-12.1v-2c5.1-0.4,18.1-0.4,22.7,1.4c1.9,0.9,2.3,2.7,3.4,4.3l1.2,0.5c2.5,5.2,1.1,11.2-2.7,15.5c3.4-0.7,15.2-4.1,17.3-1.1c3.7,1.6,6.5,4.4,5.7,8.7c-5.5,2.5-12.7,6.4-18.8,4.6c0.4,1.6,4.2,3.6,5.8,4.3c3.7,4.1,3.2,7.8,3.4,13c2.5,1.1,5.8-0.9,8.7,1.6c1.8,0.2,3,1.6,4.4,2.5c0.2,2.5,0.4,5,1.2,7.3c-3.2,5.5-24.3,19.2-30.6,20.6c0.2,0.5,0.4,1.2,0.7,1.6c2.1-0.5,4.4-1.4,6.5-1.2c6.4-1.6,37.2-5.9,41.1-1.6c0.4,0.2,0.9,0.4,1.1,0.4c4.6,1.8,5.8,6,6.7,10.3C-40.9,452.4-42.8,453.3-44.7,453.5z M-126.7,389.8c-3,0-16.8,1.6-18.1,3.9c3.7,0.4,6.9-0.4,10.3,0.4c2.1-1.4,6.7-0.7,8.1-3C-126.2,390.7-125.8,389.8-126.7,389.8z M-103.2,397.7c-7.6,0.7-18.8,17.2-13.1,22.6c7.1-1.4,8.3-10.3,11.7-15.5c1.6-2.5,3.7-5,4.4-8C-101.2,396.6-102.4,396.8-103.2,397.7z M-94.3,398.4c-9.4,8.7-11,17.9-13.5,29.9h2.8c0.2-2.8,1.8-5.2,3.4-7.5c4.6-1.8,11-16.3,11.2-21.3C-91.7,398.9-92.9,398.4-94.3,398.4z M-90.6,423.6c-2.3,2.5-4.6,5-7.4,6.8c-0.4,0.4-2.1,1.4-1.2,2c3.5,2.1,11.5-5.7,13.8-8C-86.5,421.7-88.8,422.9-90.6,423.6z"/>
			</svg>

			<svg id="t_e1" viewBox="-20 -120 340 370">
				<path fill="#fff" d="M52.894 69.96c-17.507-.113-9.053 18.899-.906 19.472 56.421 12.318 92.34-11.637 131.425-9.525 20.679 2.05 53.824 11.04 61.514 15.63 1.638.978 3.978.741 4.995.2 8.34-4.393 7.713-25.104 4.358-36.853-.932-3.487-8.67-7.71-15.057.179-2.094 2.11-10.85.64-12.705-.625-8.379-5.713-31.444-11.186-43.558-8.082-46.229 9.757-82.747 26.55-130.066 19.604z" />
			</svg>
			<svg id="t_e2" viewBox="-20 -120 340 370">
				<path fill="#fff" d="M59.02 102.596c-15.912-3.454-14.93 14.041-.939 17.702 58.429 18.963 99.345-16.313 139.821-15.484 20.31 1.175 35.046 16.991 53.722 14.628 34.982-7.283 16.15-30.758-1.646-33.7-14.285-2.46-27.333-7.527-52.908-3.771-49.696 9.559-98.759 31.719-138.05 20.625zM98.82 46.893c-6.437 1.433-9.592 15.777.387 17.61 34.313-.094 73.546-13.36 112.424-18.667 6.64-1.364 7.75-14.503 8.194-19.04 1.47-7.125-3.421-9.18-9.243-7.885-38.857 9.785-72.906 22.044-111.762 27.982z"/>
			</svg>
			<svg id="t_e3" viewBox="-20 -120 340 370">
				<path fill="#fff" d="M62.003 124.593c-15.658.145-14.692 16.46-.924 17.702 58.87 1.546 97.758-27.332 137.587-22.024 19.986 1.175 39.022 17.275 57.4 14.912 9.427-7.967 7.546-30.352-1.242-31.71-49.953-9.825-27.623-12.214-56.976-6.046-48.902 9.56-97.13 27.166-135.845 27.166zM89.348 31.846c-6.912 1.55-10.3 17.061.416 19.043 36.846 6.148 78.975-10.708 120.724-20.185 7.13-1.476 10.94-13.125 11.417-18.03 1.579-7.705-6.291-12.487-12.543-11.086-41.003 16.914-78.1 31.254-120.014 30.258zM89.528 76.214c-6.115 1.428-9.113 15.716.368 17.542 32.602 5.663 74.423-9.864 111.361-18.594 6.309-1.36 7.364-14.447 7.786-18.967 1.397-7.097-3.25-9.144-8.782-7.853-36.278 15.58-73.648 28.79-110.733 27.872z"/>
			</svg>
			<svg id="t_e4" viewBox="-20 -120 340 370">
				<path fill="#fff" d="m 186.10742,16.160156 c -6.14034,0.267601 -12.5238,5.278172 -13.7793,9.84961 l -0.11914,0.677734 c -2.9079,0.328804 -5.86605,0.681739 -8.97265,1.107422 -31.734,5.262 -86.496096,28.815859 -103.496096,21.630859 -7.093,-3.207 -15.217062,-7.936484 -22.664062,-11.771484 -9.428,-5.157 -15.307219,-2.581172 -10.574219,8.923828 L 88.92578,119.11523 c 3.998,6.062 11.77025,4.99947 17.65625,3.60547 41.351,-14.459 66.158,-9.59281 100.5,0.36719 7.945,2.133 11.7023,0.7283 17.5293,-3.7207 19.484,-16.497 47.01572,-40.226034 47.51172,-47.582034 0.602,-3.396 3.50414,-23.468625 -3.13086,-27.890625 -15.574,-9.31 -31.30828,-19.388453 -68.73828,-19.064453 -1.04251,0.0092 -2.18115,0.06434 -3.25782,0.08984 -2.16327,-6.679219 -6.4622,-8.952675 -10.88867,-8.759766 z m 15.77344,25.625 c 11.20913,1.279058 22.06145,4.792226 32.2168,11.699219 4.417,3.761 3.3479,8.843016 0.3789,13.416016 -7.825,12.612 -14.64786,22.205739 -28.00586,33.052729 -2.31,1.67001 -4.59806,3.38777 -7.16406,3.50977 -8.53756,-1.01212 -9.77522,-4.46416 -21.20312,-5.30469 8.47269,-20.879753 17.68594,-44.583296 23.77734,-56.373044 z m -32.58008,1.423828 -9.75195,55.408206 c -5.13619,0.45087 -11.20131,1.15231 -18.44336,2.17383 10.40312,-17.64267 7.81255,-34.885574 4.73047,-52.468754 7.77085,-1.989215 15.62148,-3.810474 23.46484,-5.113282 z m -49.95312,12.111328 c 1.73326,16.156725 2.36446,32.313278 2.73437,48.470708 -1.97242,0.3331 -3.76813,0.61645 -5.86719,0.98437 -5.23,0.091 -7.55136,-0.90664 -9.44336,-2.68164 L 77.498047,65.363281 c -2.844,-5.218 2.687373,-4.339328 6.234373,-4.361328 10.90814,0.02681 22.9596,-2.464888 35.61524,-5.681641 z" />
				</svg>
			<svg id="t_e5" viewBox="-20 -120 340 370">
				<path fill="#fff" d="m 229.00391,7.283203 c -1.98715,0.01178 -3.99003,0.2045 -5.9961,0.640625 -36.25047,7.880791 -54.03496,37.744056 -92.86523,25.38086 -3.31419,-6.598862 -8.54112,-9.560244 -10.74805,-8.28125 -6.92,4.626 -10.65114,5.814031 -13.49414,15.582031 -0.451,1.58 -0.79389,7.782109 1.28711,12.037109 18.032,17.664 -47.140453,56.042312 -70.439453,72.195312 -15.165,9.94 -10.008188,21.08541 9.882812,11.31641 16.358861,-7.608 40.658151,-16.02368 58.439451,-30.42383 0.4239,2.26175 0.64862,4.31689 0.42578,5.75976 -3.513,9.018 -8.42376,12.44502 -10.38476,22.04102 -0.841,5.28 16.4219,21.60148 21.3789,19.02148 5.40398,-3.66607 8.62569,-10.65381 9.39649,-15.11328 17.2281,-12.50328 39.88399,-11.62302 61.89258,-7.48633 -0.008,0.0947 -0.0138,0.18855 -0.0215,0.28321 -0.46037,7.30726 8.43185,6.15856 15.06055,2.99023 27.32645,6.51581 51.32428,14.4951 59.17969,2.80469 1.994,-3.381 2.40481,-10.13109 0.50781,-13.37109 -1.61066,-3.38297 -18.83463,-12.23189 -51.39453,-13.39844 1.11446,-25.24806 -0.0208,-55.832233 -1.57422,-56.781251 -3.02,-1.99 -5.93906,-3.317563 -10.41406,-4.226563 -2.46,-0.46 -9.48771,7.166735 -9.47071,9.927735 0.0119,0.473902 0.0163,0.944473 0.0273,1.417968 -7.84955,2.343155 -16.15508,6.214527 -24.33594,10.039063 3.05938,-8.072993 6.01385,-16.158525 8.30469,-24.345703 22.59144,-9.264437 44.51432,-20.291403 69.10351,-8.146485 13.553,6.253 27.57436,-20.648375 9.81836,-25.109375 -6.67062,-1.4755 -14.95546,-4.804935 -23.5664,-4.753906 z m -88.03907,37.179688 c 2.23497,0.121705 4.32952,0.924906 6.08789,3.472656 0.68445,0.991218 1.36144,2.188472 2.11719,3.148437 0.78432,6.497989 -1.74727,16.495604 -5.60742,27.69336 -7.09225,2.242901 -13.55677,3.084218 -18.86328,1.107422 0.66361,-1.776771 1.2553,-3.599505 1.72461,-5.496094 0.086,-3.942 2.71465,-5.601063 6.47265,-6.539063 3.85209,-0.944268 2.83316,-12.894016 0.76368,-22.763671 2.44103,-0.145339 4.94872,-0.751341 7.30468,-0.623047 z m 48.92188,32.517578 c -0.003,10.901221 -0.26523,21.751091 -0.79883,32.646481 -11.34237,0.74651 -24.00875,2.40146 -37.95508,5.24805 1.65435,-9.85866 4.68942,-19.50325 8.14453,-29.07812 10.25856,-3.505147 20.85887,-7.209974 30.60938,-8.816411 z M 118.3457,91.83789 c 5.35142,2.4357 12.38391,2.00446 20.3086,0.21094 -3.80224,9.74321 -7.99995,19.70844 -11.50196,28.62305 -1.07783,0.29946 -2.15354,0.59882 -3.24414,0.9121 -2.30463,-8.73408 -5.8634,-16.96169 -8.01758,-26.49023 0.85973,-1.05581 1.67102,-2.14584 2.45508,-3.25586 z" />
			</svg>
			<svg id="t_e6" viewBox="-20 -120 340 370">
				<path fill="#fff" d="m 133.05273,6.146484 c -2.06162,-0.0965 -3.89903,1.1525 -6.33203,3.0625 -3.9,3.998 -7.61334,6.226532 -9.40234,14.144532 -0.967,4.359 -0.13583,13.043281 1.95117,20.488281 1.287,3.662 6.01891,7.380297 11.00391,8.779297 1.47981,0.469038 -0.0685,6.61514 -1.68946,11.072265 -19.92618,3.36271 -38.30931,3.406377 -59.005855,1.826172 -26.568,-1.541 -14.620344,13.108594 -3.027344,14.308594 49.471999,3.268995 66.653379,-1.690609 116.109379,-13.849609 12.946,-3.472 49.90104,15.779375 66.37304,20.984374 11.637,0.837 15.32002,-21.58614 12.66602,-29.49414 -2.108,-5.216 -53.52364,-19.246547 -60.43164,-17.560547 -21.84829,9.808837 -40.11849,16.318864 -56.79102,20.460938 -1.70101,-4.315498 -3.67848,-8.936812 -2.98437,-10.023438 5.1,-7.982 10.83633,-18.724672 10.86133,-22.763672 0.07,-3.682 -5.62705,-10.162875 -11.62305,-16.421875 -3.3305,-3.475 -5.61611,-4.917172 -7.67774,-5.013672 z m 1.88086,76.296876 c -5.56268,-0.0332 -23.55773,13.88516 -23.95898,16.58984 -0.845,5.325 4.78583,12.91946 2.29883,14.18946 -35.138002,18.204 -47.381799,19.28332 -65.466799,22.48632 -21.425,4.198 -16.073,15.91907 0,14.16407 50.839999,-5.295 39.719829,-11.78447 92.173829,-21.98047 4.079,-0.896 11.86914,-18.05797 11.86914,-24.79297 0,-5.73 -10.27752,-17.43503 -15.97852,-20.45703 -0.25143,-0.13369 -0.56665,-0.19701 -0.9375,-0.19922 z m 27.57422,9.44141 c -2.032,-0.118 -2.56608,0.6605 -2.08008,1.8125 10.907,25.897 58.79518,61.45909 61.32618,56.12109 7.436,-17.119 5.17834,-19.56945 2.02734,-24.68945 -11.856,-19.095 -43.21044,-31.98914 -61.27344,-33.24414 z" />
			</svg>
			<svg id="t_e7" viewBox="-20 -120 340 370">
				<path fill="#fff" d="m 118.58984,5.285156 c -9.74223,-0.07339 -19.56634,19.022031 -20.16406,24.054688 1.642,11.464 11.66134,15.441734 13.27734,20.177734 3.8536,13.740516 6.20959,31.679631 7.96094,46.919922 -13.34729,4.03396 -31.56612,7.8245 -57.314451,11.24414 -11.41,2.792 -12.893765,19.66211 0.490235,18.78711 26.519916,-4.373 45.200296,-8.62875 58.783206,-12.77344 0.61556,5.2009 1.16995,9.18908 1.73437,11.14258 2.443,8.022 62.0945,13.84533 66.3125,11.73633 13.153,-8.01 19.15024,-31.32284 7.61524,-29.21484 -24.316,3.12999 -43.89902,3.41881 -49.04102,0.63281 -0.69092,-0.4227 -1.52519,-1.99054 -2.41797,-4.20313 28.2584,-16.61428 0.74628,-31.315333 101.46875,-44.376951 6.311,-0.676 7.03311,-28.806265 0.78711,-27.697265 -102.78224,15.745835 -74.25886,37.480024 -107.02148,56.066406 -3.40511,-13.848285 -6.1787,-30.046155 -4.88086,-32.453125 2.765,-5.515 13.27476,-12.683375 12.00976,-17.484375 -1.148,-5.104 -16.6732,-30.792234 -28.6582,-32.490234 -0.31378,-0.04337 -0.62714,-0.06599 -0.94141,-0.06836 z"/>
			</svg>
			<svg id="t_e8" viewBox="-20 -120 340 370">
				<path fill="#fff" d="M120.79 78.902c-4.9-.897-13.726 19.713-17.34 22.375-20.47 14.835-36.47 16.142-58.928 22.736-11.793 3.536-10.531 14.935 3.169 12.412 22.616-5.155 89.457-10.862 95.468-38.813 1.904-10.71-12.803-15.949-22.37-18.71zM130.574 32.971c1.634-5.083 15.03-13.6 24.352-15.235 9.456-1.036 27.343 45.911 34.26 52.797 13.27 11.972 85.134 48.774 80.164 66.744-2.999 10.131-57.188-18.02-85.497-33.417-15.896-11.317-28.368-30.592-36.262-53.304-1.408-5.019-18.738-12.78-17.017-17.585z"/>
			</svg>
			<svg id="t_e9" viewBox="-20 -120 340 370">
				<path fill="#fff" d="m 213.77344,8.380859 c -3.61067,0.07567 -10.46492,7.474375 -20.5918,10.140625 -7.42064,1.953388 -16.52896,5.098552 -26.14648,8.482422 -0.84122,-6.665186 -7.45642,-4.124432 -10.33594,3.628906 -2.70608,0.945002 -5.42044,1.889569 -8.11914,2.800782 -0.0885,-2.071443 -0.19683,-4.176308 -0.35352,-6.359375 0.545,-9.272 -36.81309,-17.957532 -33.24609,-4.269531 2.47707,8.558526 4.13654,16.238601 5.04492,23.224609 -1.18696,1.010174 -3.74844,1.947392 -9.16016,2.542969 -4.205,0.462 -2.5746,8.248437 -1.97461,9.148437 2.77173,4.187868 6.72513,7.112223 11.26954,9.248047 -4.23016,28.34546 -28.63142,41.49851 -71.945316,56.67578 -4.171,1.146 -5.269297,9.32119 1.845703,7.11719 59.129873,-18.328 97.050553,-23.76841 98.628903,-85.369142 2.59941,-0.628585 5.13305,-1.202628 7.57422,-1.695312 -1.62156,28.299464 -15.81345,65.921184 5.72852,90.869144 11.286,13.07 72.51058,13.30384 84.39258,4.71484 17.017,-14.572 7.85181,-28.29486 -2.36719,-27.88086 -19.383,1.45 -19.42008,-50.072437 -27.58008,-48.898437 -8.694,1.635 0.64114,48.838767 -6.38086,54.134767 -11.28,8.357 -30.8125,-3.74728 -36.1875,-11.11328 -12.0741,-16.54399 -6.70954,-43.584525 -6.15234,-63.791018 16.89661,-2.424217 31.72911,-2.57481 52.60351,-5.638672 7.896,-1.957 6.40382,-28.517953 -5.86719,-27.626953 -0.21187,-0.06362 -0.43897,-0.09098 -0.67968,-0.08594 z" />
			</svg>
    </defs>
		<g id="t_preview">
		<use x="0" y="0" height="100px" width="75px" xlink:href="#t_do1"/>
		<use x="75" y="0" height="100px" width="75px" xlink:href="#t_do2"/>
		<use x="150" y="0" height="100px" width="75px" xlink:href="#t_do3"/>
		<use x="225" y="0" height="100px" width="75px" xlink:href="#t_do4"/>
		<use x="300" y="0" height="100px" width="75px" xlink:href="#t_do5"/>
		<use x="375" y="0" height="100px" width="75px" xlink:href="#t_do6"/>
		<use x="450" y="0" height="100px" width="75px" xlink:href="#t_do7"/>
		<use x="525" y="0" height="100px" width="75px" xlink:href="#t_do8"/>
		<use x="600" y="0" height="100px" width="75px" xlink:href="#t_do9"/>
		<use x="0" y="100" height="100px" width="75px" xlink:href="#t_ch1"/>
		<use x="75" y="100" height="100px" width="75px" xlink:href="#t_ch2"/>
		<use x="150" y="100" height="100px" width="75px" xlink:href="#t_ch3"/>
		<use x="225" y="100" height="100px" width="75px" xlink:href="#t_ch4"/>
		<use x="300" y="100" height="100px" width="75px" xlink:href="#t_ch5"/>
		<use x="375" y="100" height="100px" width="75px" xlink:href="#t_ch6"/>
		<use x="450" y="100" height="100px" width="75px" xlink:href="#t_ch7"/>
		<use x="525" y="100" height="100px" width="75px" xlink:href="#t_ch8"/>
		<use x="600" y="100" height="100px" width="75px" xlink:href="#t_ch9"/>
		<use x="0" y="200" height="100px" width="75px" xlink:href="#t_ba1"/>
		<use x="75" y="200" height="100px" width="75px" xlink:href="#t_ba2"/>
		<use x="150" y="200" height="100px" width="75px" xlink:href="#t_ba3"/>
		<use x="225" y="200" height="100px" width="75px" xlink:href="#t_ba4"/>
		<use x="300" y="200" height="100px" width="75px" xlink:href="#t_ba5"/>
		<use x="375" y="200" height="100px" width="75px" xlink:href="#t_ba6"/>
		<use x="450" y="200" height="100px" width="75px" xlink:href="#t_ba7"/>
		<use x="525" y="200" height="100px" width="75px" xlink:href="#t_ba8"/>
		<use x="600" y="200" height="100px" width="75px" xlink:href="#t_ba9"/>
		<use x="0" y="300" height="100px" width="75px" xlink:href="#t_wi_north"/>
		<use x="75" y="300" height="100px" width="75px" xlink:href="#t_wi_west"/>
		<use x="150" y="300" height="100px" width="75px" xlink:href="#t_wi_south"/>
		<use x="225" y="300" height="100px" width="75px" xlink:href="#t_wi_east"/>
		<use x="375" y="300" height="100px" width="75px" xlink:href="#t_fl_plum"/>
		<use x="450" y="300" height="100px" width="75px" xlink:href="#t_fl_orchid"/>
		<use x="525" y="300" height="100px" width="75px" xlink:href="#t_fl_chrysanthemum"/>
		<use x="600" y="300" height="100px" width="75px" xlink:href="#t_fl_bamboo"/>
		<use x="0" y="400" height="100px" width="75px" xlink:href="#t_se_spring"/>
		<use x="75" y="400" height="100px" width="75px" xlink:href="#t_se_summer"/>
		<use x="150" y="400" height="100px" width="75px" xlink:href="#t_se_fall"/>
		<use x="225" y="400" height="100px" width="75px" xlink:href="#t_se_winter"/>
		<use x="450" y="400" height="100px" width="75px" xlink:href="#t_dr_red"/>
		<use x="525" y="400" height="100px" width="75px" xlink:href="#t_dr_green"/>
		<use x="600" y="400" height="100px" width="75px" xlink:href="#t_dr_white"/>

		<use x="0" y="500" height="100px" width="75px" xlink:href="#t_g1"/>
		<use x="75" y="500" height="100px" width="75px" xlink:href="#t_g2"/>
		<use x="150" y="500" height="100px" width="75px" xlink:href="#t_g3"/>
		<use x="225" y="500" height="100px" width="75px" xlink:href="#t_g4"/>
		<use x="300" y="500" height="100px" width="75px" xlink:href="#t_g5"/>
		<use x="375" y="500" height="100px" width="75px" xlink:href="#t_g6"/>
		<use x="450" y="500" height="100px" width="75px" xlink:href="#t_g7"/>
		<use x="525" y="500" height="100px" width="75px" xlink:href="#t_g8"/>
		<use x="600" y="500" height="100px" width="75px" xlink:href="#t_g9"/>
		<use x="0" y="600" height="100px" width="75px" xlink:href="#t_g10"/>
		<use x="75" y="600" height="100px" width="75px" xlink:href="#t_g11"/>
		<use x="150" y="600" height="100px" width="75px" xlink:href="#t_g12"/>
		<use x="225" y="600" height="100px" width="75px" xlink:href="#t_g13"/>
		<use x="300" y="600" height="100px" width="75px" xlink:href="#t_g14"/>
		<use x="375" y="600" height="100px" width="75px" xlink:href="#t_g15"/>
		<use x="450" y="600" height="100px" width="75px" xlink:href="#t_g16"/>
		<use x="525" y="600" height="100px" width="75px" xlink:href="#t_g17"/>
		<use x="600" y="600" height="100px" width="75px" xlink:href="#t_g18"/>

		<use x="0" y="700" height="100px" width="75px" xlink:href="#t_e1"/>
		<use x="75" y="700" height="100px" width="75px" xlink:href="#t_e2"/>
		<use x="150" y="700" height="100px" width="75px" xlink:href="#t_e3"/>
		<use x="225" y="700" height="100px" width="75px" xlink:href="#t_e4"/>
		<use x="300" y="700" height="100px" width="75px" xlink:href="#t_e5"/>
		<use x="375" y="700" height="100px" width="75px" xlink:href="#t_e6"/>
		<use x="450" y="700" height="100px" width="75px" xlink:href="#t_e7"/>
		<use x="525" y="700" height="100px" width="75px" xlink:href="#t_e8"/>
		<use x="600" y="700" height="100px" width="75px" xlink:href="#t_e9"/>
	</g>
</svg>
