<svg xmlns="http://www.w3.org/2000/svg" width="264" height="264" preserveAspectRatio="xMidYMid meet" version="1.0" viewBox="0 0 198 198"><metadata>Created by potrace 1.11, written by Peter Selinger 2001-2013</metadata><g fill="#000" stroke="none"><path d="M912 1848 c-18 -18 -14 -74 8 -147 14 -43 21 -98 23 -165 l2 -100 -90 -29 c-49 -15 -116 -37 -148 -47 l-59 -19 -31 31 c-47 44 -93 61 -126 45 -14 -7 -27 -22 -29 -33 -3 -19 66 -136 241 -411 22 -35 47 -64 56 -64 30 -2 56 3 69 14 15 12 122 21 123 10 1 -5 2 -82 4 -173 7 -306 13 -420 31 -503 23 -113 54 -141 67 -62 3 17 8 41 11 55 19 78 24 171 30 498 2 106 6 195 10 199 7 7 19 8 129 17 71 5 93 23 172 141 111 167 120 202 70 275 -92 136 -164 164 -303 121 l-64 -20 3 77 c2 42 10 96 18 120 20 55 14 64 -84 130 -80 52 -111 62 -133 40z m379 -500 c13 -23 6 -73 -22 -167 l-24 -78 -65 -10 c-36 -6 -68 -9 -72 -6 -10 5 -5 239 5 250 10 10 102 29 140 28 16 0 33 -7 38 -17z m-342 -167 l2 -119 -48 -11 c-45 -10 -49 -9 -68 14 -12 14 -33 49 -48 78 -15 28 -36 66 -47 83 l-20 31 62 13 c35 6 65 12 68 13 3 0 23 6 45 13 22 6 43 10 46 8 4 -2 8 -58 8 -123z" transform="translate(0.000000,198.000000) scale(0.100000,-0.100000)"/></g></svg>